<svg id="Capa_1" enable-background="new 0 0 512 512" height="512" viewBox="0 0 512 512" width="512" xmlns="http://www.w3.org/2000/svg"><path d="m509.55 395.47c.81.3 1.63.6 2.45.89v115.64h-67.2c-.12-.04-.23-.08-.35-.12-1.65-.56-3.3-1.13-4.93-1.71-1.28-.45-2.56-.91-3.84-1.37-1.27-.46-2.55-.93-3.82-1.4-1.28-.47-2.55-.95-3.82-1.43-1.16-.44-2.32-.88-3.48-1.33-2.32-.89-4.63-1.8-6.93-2.72-1.16-.46-2.31-.92-3.46-1.39-1.84-.74-3.67-1.5-5.5-2.26-1.38-.57-2.75-1.15-4.13-1.73-1.37-.58-2.74-1.16-4.11-1.75s-2.74-1.18-4.11-1.78c-1.36-.59-2.73-1.19-4.09-1.8-.82-.35-1.64-.72-2.47-1.09-.02-.01-.04-.02-.06-.03-1.51-.67-3.02-1.35-4.52-2.03-.37-.16-.74-.33-1.11-.5-.83-.37-1.66-.75-2.49-1.13-1.88-.85-3.75-1.71-5.62-2.58-.3-.13-.59-.27-.89-.41-2.07-.95-4.14-1.92-6.2-2.89-.73-.34-1.46-.68-2.19-1.03-.94-.44-1.88-.88-2.82-1.33-1.34-.63-2.67-1.26-4.01-1.9-2.08-.99-4.15-1.98-6.21-2.97-3.26-1.56-6.51-3.13-9.75-4.7-2.65-1.28-5.29-2.57-7.93-3.85-1.33-.65-2.66-1.29-3.99-1.94-.04-.02-.07-.04-.11-.06-.07-.03-.13-.06-.2-.09-.5-.25-1.01-.49-1.51-.73l-2.8-1.34.02-.02 15.85-13.35c1.37-1.16 2.76-2.32 4.14-3.5 1.35-1.13 2.69-2.27 4.04-3.42.04-.03.09-.07.13-.11 1.71-1.45 3.44-2.94 5.17-4.44 2.36-2.06 4.71-4.14 7.04-6.26 1.1-1 2.19-2 3.28-3.02l.06-.06c1.11-1.03 2.2-2.07 3.29-3.12 1.17-1.13 2.33-2.27 3.48-3.43 1.06-1.05 2.11-2.12 3.14-3.2.19-.18.36-.36.53-.55 1.05-1.08 2.08-2.17 3.1-3.27 1.1-1.18 2.2-2.38 3.28-3.59.58-.65 1.16-1.29 1.73-1.95.2-.22.4-.45.59-.68.63-.72 1.26-1.44 1.88-2.17.62-.72 1.24-1.45 1.85-2.19.85-1.01 1.68-2.03 2.51-3.05.22-.27.44-.53.65-.8.22-.27.43-.53.64-.8.54-.67 1.07-1.35 1.6-2.03.9-1.14 1.79-2.3 2.67-3.46.72-.97 1.45-1.94 2.16-2.91.04-.05.08-.1.12-.15.77-1.06 1.54-2.12 2.3-3.19 1.57-2.2 3.1-4.42 4.6-6.67.48-.71.94-1.42 1.41-2.14.47-.71.93-1.43 1.39-2.15.35-.54.69-1.09 1.03-1.63.37-.58.73-1.16 1.09-1.74.49-.79.97-1.58 1.45-2.37.78-1.29 1.55-2.59 2.31-3.9.59-1.01 1.17-2.02 1.74-3.04.47-.83.94-1.67 1.4-2.51.93-1.69 1.85-3.39 2.74-5.1.08-.17.16-.34.25-.5.34-.66.68-1.32 1.03-1.98l.16-.32c.39-.77.78-1.54 1.16-2.32l.84-1.7.04.02.23.1 1.25.54c.08.03.15.06.23.1.13.06.26.12.38.18.21.1.41.22.61.34.12.08.24.16.36.24.4.26.79.56 1.17.86l.42.33c2.67 2.13 5.37 4.21 8.1 6.23.89.66 1.78 1.31 2.68 1.96.27.21.55.41.83.6.27.2.54.4.82.59 1.6 1.15 3.22 2.28 4.84 3.38.85.58 1.69 1.16 2.54 1.72.85.57 1.7 1.13 2.56 1.68.74.49 1.48.96 2.22 1.43.89.58 1.78 1.14 2.67 1.69.57.35 1.14.71 1.71 1.06.39.24.77.48 1.16.71.87.53 1.74 1.05 2.62 1.57.58.34 1.16.69 1.74 1.02.65.38 1.29.75 1.94 1.12.57.33 1.15.66 1.73.99.72.4 1.44.81 2.16 1.2 2.13 1.18 4.28 2.33 6.45 3.45.85.44 1.7.88 2.55 1.31 5.92 3 11.94 5.8 18.07 8.38 1.22.52 2.46 1.02 3.69 1.52 2.84 1.16 5.7 2.27 8.58 3.33z" fill="#ffd671"/><path d="m512 359.66v36.7c-.82-.29-1.63-.59-2.45-.89-2.88-1.06-5.74-2.17-8.58-3.33-1.23-.5-2.47-1-3.69-1.52-6.13-2.58-12.15-5.38-18.07-8.38-.85-.43-1.7-.87-2.55-1.31-2.17-1.12-4.32-2.27-6.45-3.45-.72-.39-1.44-.8-2.16-1.2-.58-.33-1.16-.66-1.73-.99-.65-.37-1.29-.74-1.94-1.12-.58-.33-1.16-.68-1.74-1.02-.88-.52-1.75-1.04-2.62-1.57-.39-.23-.77-.47-1.16-.71-.57-.35-1.14-.71-1.71-1.06-.89-.55-1.78-1.11-2.67-1.69-.75-.47-1.49-.95-2.22-1.43-.86-.55-1.71-1.11-2.56-1.68s-1.69-1.14-2.54-1.72c-1.62-1.1-3.24-2.23-4.84-3.38-.28-.19-.55-.39-.82-.59-.28-.19-.56-.39-.83-.6-.9-.65-1.79-1.3-2.68-1.96-2.73-2.02-5.43-4.1-8.1-6.23l-.42-.33c-.38-.3-.77-.6-1.17-.86-.12-.08-.24-.16-.36-.24-.2-.12-.4-.24-.61-.34-.13-.07-.25-.13-.38-.18-.08-.04-.15-.07-.23-.1-.15-.06-.31-.11-.47-.16l-.63-.18-.15-.2-.17-.22-.07-.1-.48.39-.55.1c-1.18.1-2.38.58-3.52 1.18l-.4.22c-.39.21-.78.45-1.18.7-.23.14-.45.29-.67.43-1.43.93-2.87 1.85-4.3 2.77-4.42 2.82-8.87 5.59-13.33 8.3-1.38.84-2.76 1.67-4.14 2.49-.72.43-1.44.86-2.16 1.29s-1.44.86-2.17 1.27c-1.47.87-2.94 1.72-4.41 2.57-13.25 7.64-26.71 14.78-40.24 21.37l-.41.2h-.68l-.21-.05c-.82-.18-1.66-.36-2.48-.56l-.11-.02c-19.58-4.45-39.25-11.28-60.04-20.84l-2.43-1.12.03-.04.96-1.09c.28-.32.56-.63.83-.95.68-.78 1.36-1.56 2.03-2.35.91-1.05 1.8-2.12 2.67-3.19.63-.76 1.25-1.52 1.86-2.28.44-.55.89-1.09 1.32-1.65.74-.92 1.46-1.85 2.17-2.78.64-.84 1.28-1.67 1.91-2.52.63-.83 1.25-1.67 1.86-2.52 2.56-3.48 5.02-7.04 7.39-10.66.52-.8 1.04-1.61 1.56-2.42.57-.88 1.14-1.78 1.69-2.68.56-.9 1.11-1.8 1.66-2.7 1.02-1.68 2.01-3.37 3-5.08.07-.13.15-.26.22-.39.52-.91 1.04-1.84 1.55-2.76 6.22-11.16 11.59-22.79 16.04-34.7.75-2 1.48-4.02 2.17-6.04.4-1.15.79-2.31 1.17-3.46l.68-2.07.07-.21 1.69.92c.14.07.28.14.41.22.17.09.34.18.5.28.17.09.34.19.5.29.17.1.33.2.49.31.17.1.32.2.48.3 2.72 1.75 5.46 3.49 8.23 5.22 2.78 1.74 5.57 3.47 8.38 5.17 1.4.86 2.82 1.71 4.23 2.56 1.41.84 2.83 1.69 4.25 2.53 1.57.93 3.14 1.85 4.72 2.77 1.57.92 3.15 1.84 4.73 2.75l3.46 1.97c1.56.88 3.12 1.76 4.68 2.63 1.79 1 3.57 1.99 5.36 2.97.92.51 1.84 1.01 2.76 1.51 3.13 1.7 6.24 3.37 9.34 5l1.3.69c.09.04.17.09.26.13.02.02.04.03.06.04 1.74.91 3.48 1.81 5.22 2.71.09.05.19.1.28.14 2.14 1.11 4.28 2.2 6.43 3.27 2.15 1.09 4.31 2.16 6.47 3.22.21.11.42.21.62.3 1.07.54 2.15 1.07 3.23 1.58 1.07.53 2.15 1.05 3.23 1.56 2.84 1.37 5.68 2.72 8.53 4.04 4.28 1.99 8.57 3.94 12.87 5.85 1.35.6 2.7 1.2 4.05 1.79 1.64.72 3.28 1.43 4.92 2.14 1.32.57 2.63 1.13 3.95 1.69 1.62.69 3.25 1.37 4.9 2.05 1.65.69 3.31 1.37 4.98 2.04.04.01.08.03.12.05 2.19.88 4.4 1.75 6.64 2.59 1.13.44 2.28.86 3.42 1.29 1.15.42 2.3.84 3.46 1.24 1.15.41 2.31.82 3.48 1.21 1.17.4 2.33.79 3.51 1.16.38.13.76.25 1.14.37.33.1.66.21 1 .31 1.06.33 2.12.65 3.19.97.73.22 1.47.43 2.22.64.61.17 1.21.34 1.82.51 1.31.36 2.63.71 3.96 1.03.51.13 1.02.26 1.53.38 1.03.25 2.06.49 3.09.71.82.19 1.64.36 2.47.53.42.09.85.18 1.28.26z" fill="#ffd671"/><path d="m512 280.83v78.84c-.43-.09-.85-.17-1.28-.27-.83-.17-1.65-.34-2.47-.53-1.03-.22-2.06-.46-3.09-.71-.51-.12-1.02-.25-1.53-.38-1.33-.32-2.65-.67-3.96-1.03-.61-.17-1.21-.34-1.82-.51-.75-.21-1.49-.42-2.22-.64-1.07-.32-2.13-.64-3.19-.97-.34-.1-.67-.21-1-.31-.38-.12-.76-.24-1.14-.37-1.18-.37-2.34-.76-3.51-1.16-1.17-.39-2.33-.8-3.48-1.21-1.16-.41-2.31-.82-3.46-1.24-1.14-.43-2.29-.85-3.42-1.29-2.23-.85-4.45-1.72-6.64-2.59-.04-.02-.08-.04-.12-.05-1.67-.67-3.33-1.35-4.98-2.04-1.65-.68-3.28-1.37-4.9-2.06-1.32-.56-2.63-1.12-3.95-1.68-1.64-.71-3.28-1.42-4.92-2.14-1.35-.59-2.7-1.19-4.05-1.79-4.3-1.91-8.59-3.86-12.87-5.85-2.85-1.33-5.7-2.68-8.53-4.04-1.08-.51-2.16-1.03-3.23-1.56-1.08-.52-2.16-1.05-3.23-1.58-.2-.09-.41-.19-.62-.3-2.16-1.06-4.32-2.13-6.47-3.22-2.15-1.08-4.29-2.17-6.43-3.27-.09-.04-.19-.09-.28-.14l-5.31-2.74h.03v-.01l.09-.01 5.35-.92c3.29-.56 6.58-1.16 9.87-1.8 1.08-.2 2.16-.42 3.24-.64 2.81-.56 5.62-1.16 8.42-1.78.88-.19 1.76-.39 2.64-.59 1.45-.33 2.9-.66 4.35-1.01 1.17-.28 2.33-.56 3.49-.85 1.16-.28 2.31-.57 3.47-.87 1.232-.313 2.461-.635 3.69-.958.946-.252 1.891-.507 2.838-.762.15-.041.301-.082.451-.123.054-.016.107-.034.161-.047.68-.18 1.35-.37 2.03-.55.53-.15 1.05-.31 1.58-.45 1.44-.41 2.89-.82 4.33-1.25.21-.06.43-.12.64-.18 1.69-.5 3.39-1.01 5.08-1.53.1-.03.19-.06.29-.09 1.11-.34 2.22-.7 3.33-1.05 2.11-.66 4.21-1.34 6.31-2.04.58-.19 1.16-.39 1.73-.58 2.84-.96 5.67-1.94 8.49-2.95 1.17-.42 2.35-.85 3.52-1.29 1.12-.41 2.24-.83 3.36-1.26 2.23-.84 4.46-1.71 6.68-2.59 1.11-.44 2.22-.89 3.33-1.34s2.21-.9 3.32-1.36c3.34-1.39 6.67-2.82 9.99-4.29z" fill="#ffbf73"/><path d="m0 0v322.25c.21-.05.42-.12.62-.2 1.95-.63 3.9-1.26 5.84-1.9 3.55-1.17 7.09-2.36 10.63-3.56 4.26-1.46 8.51-2.94 12.75-4.45 1.55-.55 3.09-1.1 4.63-1.66 2.48-.89 4.96-1.8 7.43-2.71 1.49-.55 2.96-1.1 4.44-1.65 1.58-.59 3.15-1.18 4.72-1.78 1.9-.72 3.79-1.44 5.68-2.18 2.02-.78 4.04-1.56 6.05-2.36 2.01-.79 4.02-1.59 6.03-2.39 3.01-1.21 6.01-2.42 9-3.65s5.98-2.48 8.95-3.73c.14-.06.29-.12.43-.18 1.84-.77 3.68-1.56 5.51-2.34.04-.02.09-.04.13-.06 1.06-.46 2.37-1.03 3.71-1.03.07 0 .15 0 .22.01.1-.01.21 0 .32.02.94.11 1.78.51 2.58 1.03l.22.14c.26.18.53.37.8.57.13.09.26.19.39.29.88.66 1.77 1.31 2.67 1.94.93.66 1.86 1.31 2.8 1.96.89.59 1.78 1.19 2.67 1.77.85.56 1.69 1.1 2.55 1.63.09.06.18.12.27.17.92.58 1.85 1.14 2.79 1.7s1.89 1.11 2.85 1.65c.94.54 1.88 1.06 2.84 1.58.98.53 1.96 1.05 2.95 1.55.96.49 1.92.98 2.89 1.45l.76.37.02-.01.77-.27c.89-.31 1.77-.63 2.65-.96l1.14-.42c1.42-.52 2.84-1.06 4.26-1.6 1.41-.54 2.82-1.1 4.23-1.66 1.14-.45 2.27-.91 3.4-1.38.18-.07.35-.14.53-.22.47-.19.94-.39 1.42-.6.12-.04.24-.09.35-.15.9-.37 1.8-.75 2.69-1.14.02 0 .04-.01.05-.02 1.34-.58 2.67-1.16 4-1.76.08-.03.15-.06.22-.1 1.15-.51 2.3-1.04 3.45-1.57.28-.12.55-.25.83-.38 1.01-.47 2.03-.95 3.03-1.43 1.3-.62 2.59-1.25 3.88-1.89.89-.43 1.77-.87 2.64-1.32.39-.19.78-.39 1.16-.59.65-.33 1.3-.66 1.95-1 2.11-1.09 4.21-2.21 6.3-3.36 1.19-.65 2.38-1.31 3.56-1.98 1.4-.77 2.78-1.57 4.16-2.38h.01l.02-.02c.14-.07.28-.15.42-.24.02 0 .04-.02.06-.04 1.37-.8 2.73-1.61 4.09-2.43.23-.13.45-.26.66-.4 2.51-1.52 5-3.08 7.47-4.67l.22-.14c.57-.36 1.27-.78 2.01-1h.01c.31-.09.62-.14.94-.14h.23c.75.06 1.41.39 2.16.8l69.46 36.75.94 1.36.01.01.48-.21.42-.2c.35-.15.7-.31 1.04-.47.88-.39 1.76-.79 2.63-1.2.14-.05.28-.12.41-.19 2.28-1.06 4.55-2.13 6.81-3.23 1.14-.55 2.28-1.11 3.41-1.68.78-.38 1.55-.77 2.32-1.17.91-.46 1.83-.93 2.74-1.41.83-.43 1.66-.86 2.48-1.3 2.48-1.31 4.94-2.65 7.38-4.01.72-.4 1.44-.8 2.15-1.21 2.15-1.22 4.29-2.46 6.42-3.73 2.16-1.28 4.3-2.59 6.43-3.9.02-.02.05-.03.07-.05 1.07-.67 2.14-1.35 3.21-2.03.23-.13.46-.28.68-.43.63-.39 1.25-.79 1.87-1.2.21-.13.42-.27.64-.42 1.06-.69 2.12-1.39 3.17-2.09.13-.09.27-.18.4-.26.41-.27.84-.54 1.28-.79.29-.18.6-.33.91-.46s.62-.25.94-.34l.25-.07c.19-.04.4-.08.6-.1.22-.03.44-.04.65-.04.6 0 1.19.1 1.77.26l.01.01c.61.17 1.19.42 1.76.71.14.07.28.14.41.22.17.08.34.17.5.28.17.09.34.19.5.29.17.1.33.2.49.31.17.1.32.2.48.3 2.72 1.75 5.46 3.49 8.23 5.22s5.57 3.46 8.38 5.17c1.4.86 2.82 1.71 4.23 2.56 1.41.84 2.83 1.69 4.25 2.53 1.57.93 3.14 1.85 4.72 2.77 1.29.74 2.57 1.49 3.86 2.23l.87.5.91-.39c.38-.16.75-.32 1.13-.49l1.61-.7c3.49-1.53 6.94-3.14 10.37-4.83 1.49-.72 2.97-1.47 4.44-2.24 1.62-.83 3.23-1.69 4.84-2.56 3.21-1.73 6.38-3.53 9.51-5.41 1.56-.94 3.12-1.89 4.66-2.85 1.54-.97 3.07-1.95 4.59-2.95l1.82-1.19c.6-.36 1.3-.71 2.02-.71h.02c.04 0 .09 0 .13.01.07 0 .14.01.22.03.4.06.77.23 1.1.42l40.68 23.72.83.74.02.02.3-.09h.01l.77-.25c.84-.26 1.68-.55 2.52-.82 2.11-.66 4.21-1.34 6.31-2.04.58-.19 1.16-.39 1.73-.58 2.84-.96 5.67-1.94 8.49-2.95 1.17-.42 2.35-.85 3.52-1.29 1.12-.41 2.24-.83 3.36-1.26 2.23-.84 4.46-1.71 6.68-2.59 1.11-.44 2.22-.89 3.33-1.34s2.21-.9 3.32-1.36c3.36-1.39 6.69-2.82 9.99-4.29v-280.83zm325.45 101.82c.02-.38.05-.76.07-1.13.06-.76.13-1.51.22-2.26.03-.23.06-.46.09-.69.02-.17.04-.33.07-.49.04-.32.09-.63.15-.94.01-.06.02-.11.03-.16.06-.36.13-.71.2-1.07.09-.47.2-.94.31-1.41 0-.03.01-.06.02-.09.11-.48.23-.96.36-1.43.1-.38.21-.76.33-1.14.08-.26.16-.53.25-.79.06-.22.13-.42.21-.63.22-.65.45-1.3.7-1.95.1-.25.2-.5.31-.75.1-.25.21-.49.31-.74.21-.49.43-.97.66-1.45.22-.48.45-.95.7-1.42.36-.7.74-1.4 1.14-2.09.28-.47.56-.94.86-1.4.05-.09.1-.18.16-.26.29-.46.6-.92.91-1.38.29-.42.59-.84.9-1.26.4-.56.82-1.1 1.25-1.63 1-1.25 2.07-2.46 3.19-3.6.27-.29.56-.57.85-.85.76-.74 1.54-1.45 2.34-2.14.32-.27.65-.54.98-.81.37-.3.74-.59 1.12-.87.37-.29.75-.56 1.12-.83.48-.34.96-.67 1.45-.99.51-.34 1.02-.66 1.54-.97.69-.41 1.38-.8 2.09-1.18 1.13-.6 2.29-1.16 3.47-1.67.59-.26 1.19-.5 1.8-.72.44-.17.89-.34 1.35-.49.04-.02.08-.03.12-.04.31-.11.62-.21.94-.31.22-.08.44-.15.67-.21.29-.09.58-.18.87-.26.54-.15 1.08-.3 1.62-.43 1.27-.32 2.56-.59 3.86-.8.58-.09 1.16-.18 1.75-.25 0 0 .01.01.02 0 .51-.06 1.03-.12 1.56-.16.18-.01.36-.03.54-.04.49-.04.98-.06 1.48-.08.6-.03 1.21-.04 1.82-.04.88 0 1.76.03 2.64.08.44.02.88.05 1.32.09.43.04.87.08 1.31.13.52.06 1.04.12 1.56.2.46.07.92.14 1.37.22s.91.16 1.36.26c.33.07.67.14 1.01.22s.68.16 1.01.24c.47.11.93.23 1.39.36.31.08.62.17.93.26 1.07.32 2.13.67 3.18 1.06.45.17.89.34 1.34.52.45.17.89.36 1.33.55s.88.39 1.31.59c.44.2.87.41 1.3.63.33.16.66.33.99.51.32.17.65.35.97.53.65.35 1.28.72 1.9 1.11.79.48 1.56.98 2.31 1.5.8.56 1.59 1.13 2.35 1.73.64.5 1.26 1 1.86 1.53.74.64 1.45 1.29 2.14 1.97.33.32.66.64.97.97.31.32.62.66.93.99.25.28.51.56.75.85.35.4.69.81 1.02 1.22.31.38.6.76.89 1.15.16.21.31.42.46.63.17.22.33.44.48.67.18.25.35.5.51.75.03.03.05.06.06.09.14.2.28.41.41.62.04.06.08.12.11.18.09.13.17.26.25.39.54.88 1.06 1.77 1.53 2.68.07.12.14.25.2.38.2.38.39.75.56 1.12l.42.9c.15.3.28.6.41.9s.25.61.38.92c.17.41.33.83.48 1.24.33.88.63 1.77.9 2.66.08.26.16.52.23.78.03.09.06.18.08.27.09.31.18.61.25.92.01.05.03.1.04.15.13.52.26 1.04.37 1.57.25 1.15.45 2.31.61 3.48.08.58.15 1.17.2 1.76.03.29.06.58.07.88.02.29.04.59.06.88.05.8.07 1.62.07 2.43 0 .44-.01.87-.02 1.31 0 .28-.02.57-.03.85 0 .05 0 .11-.01.17-.01.12-.01.25-.02.37-.01.24-.03.49-.05.73-.02.23-.03.45-.05.67-.03.37-.07.74-.11 1.11s-.08.74-.13 1.11c-.04.35-.09.7-.15 1.04 0 .07-.02.14-.03.22-.05.29-.1.59-.15.89-.08.47-.17.94-.27 1.4-.1.54-.22 1.07-.35 1.6-.12.53-.25 1.06-.4 1.59-.05.19-.1.38-.16.58-.12.45-.25.89-.39 1.34-.04.15-.09.3-.14.45-.15.47-.3.93-.47 1.4-.12.35-.25.71-.38 1.06-.2.54-.4 1.08-.62 1.61-.21.54-.44 1.07-.67 1.6-.36.8-.73 1.59-1.11 2.36 0 .01-.01.03-.02.05-.24.48-.49.96-.74 1.43-.21.39-.42.78-.64 1.16-.31.55-.63 1.09-.96 1.63-.16.27-.33.53-.5.79-.34.53-.69 1.05-1.04 1.56-.36.5-.72.99-1.09 1.48-.19.24-.37.48-.56.72-.44.56-.89 1.1-1.35 1.63-.53.59-1.07 1.17-1.62 1.74s-1.12 1.11-1.7 1.63c-7.34 6.68-17.57 10.63-28.05 10.85-.32.01-.64.01-.95.01-.48 0-.95-.01-1.44-.03-.64-.01-1.27-.05-1.91-.1-.31-.02-.61-.05-.92-.08-.81-.06-1.62-.16-2.42-.28-.25-.03-.51-.07-.76-.11-.45-.07-.89-.14-1.32-.23-.37-.07-.74-.14-1.11-.22-.27-.05-.53-.11-.8-.17-.19-.04-.38-.08-.56-.13-1.22-.29-2.44-.62-3.64-1-.45-.14-.89-.28-1.33-.44-.59-.19-1.18-.41-1.76-.64-.59-.22-1.17-.45-1.75-.7-.52-.22-1.03-.44-1.54-.68-.54-.25-1.08-.5-1.61-.78-.41-.2-.82-.41-1.22-.63-.72-.37-1.42-.76-2.12-1.18-.26-.15-.52-.31-.78-.47-.38-.22-.74-.45-1.11-.69-1.55-1-3.04-2.07-4.46-3.2-.7-.56-1.4-1.14-2.07-1.73 0-.01 0-.01-.01-.01-.67-.6-1.32-1.21-1.96-1.83-.63-.62-1.24-1.26-1.84-1.9-.3-.33-.6-.66-.89-1-.25-.28-.5-.57-.74-.87-1.14-1.38-2.19-2.81-3.14-4.27-.19-.29-.37-.58-.55-.88-.15-.23-.28-.46-.42-.69-.31-.53-.61-1.07-.9-1.61-.22-.41-.44-.83-.65-1.26-.22-.44-.43-.88-.63-1.33-.22-.49-.44-.99-.64-1.49-.15-.36-.31-.74-.44-1.12-.04-.1-.08-.21-.12-.32-.04-.12-.08-.24-.13-.36-.11-.27-.2-.55-.29-.83-.08-.23-.16-.46-.23-.69-.17-.51-.33-1.03-.47-1.54-.13-.46-.25-.91-.37-1.38-.01-.01 0-.01 0-.01-.26-1.07-.49-2.14-.69-3.22-.08-.44-.16-.9-.22-1.35-.02-.09-.03-.19-.04-.29-.16-1.08-.27-2.18-.35-3.27-.06-.92-.1-1.85-.11-2.77-.01-.93.01-1.86.05-2.78z" fill="#fff0cf"/><path d="m403.502 309.8c4.529-5.368 7.393-11.86 9.938-18.051 1.772-4.311 3.75-9.351 4.776-14.593l.541-2.76 43.224 25.206-4.432 1.316c-17.071 5.069-34.628 9.155-52.184 12.144l-5.392.918z" fill="#ffd671"/><path d="m444.45 511.88c.12.04.23.08.35.12h-377.82c5.92-3.65 12.03-7.46 18.23-11.48.78-.51 1.56-1.03 2.35-1.54 3.43-2.24 6.87-4.55 10.32-6.93.81-.55 1.62-1.12 2.43-1.68.14-.1.28-.19.42-.29 1.16-.81 2.31-1.63 3.46-2.46 1.05-.74 2.11-1.5 3.15-2.27 1.05-.76 2.09-1.54 3.14-2.31 7.38-5.48 14.55-11.24 21.37-17.39.99-.88 1.96-1.77 2.93-2.66.94-.85 1.86-1.72 2.78-2.6l.09-.09c.02-.02.03-.03.05-.05.87-.83 1.74-1.67 2.59-2.51.14-.14.28-.28.42-.42.83-.81 1.64-1.63 2.45-2.46.09-.09.17-.17.25-.26.51-.51 1.01-1.03 1.5-1.55.61-.63 1.21-1.27 1.81-1.92.82-.88 1.64-1.77 2.44-2.67 1.62-1.8 3.2-3.62 4.75-5.48.11-.13.22-.27.34-.4.11-.14.23-.28.33-.41.48-.57.94-1.14 1.4-1.72.26-.32.51-.63.76-.95.15-.18.3-.37.44-.55.59-.74 1.18-1.49 1.75-2.25.75-.97 1.49-1.95 2.22-2.94.34-.46.68-.92 1.02-1.39.44-.6.88-1.2 1.31-1.81l.78-1.11c.61-.84 1.2-1.69 1.78-2.54.17-.24.34-.48.5-.73.62-.9 1.24-1.81 1.84-2.73.19-.27.37-.55.55-.83.56-.83 1.1-1.68 1.64-2.52.26-.39.52-.78.77-1.18.11-.17.21-.34.32-.51.44-.7.89-1.4 1.32-2.1.96-1.52 1.9-3.05 2.82-4.59.47-.77.93-1.54 1.39-2.31.16-.27.31-.53.47-.8.06-.1.12-.2.17-.3.54-.89 1.06-1.79 1.57-2.68.85-1.46 1.68-2.91 2.49-4.36 2.47-4.35 4.84-8.7 7.14-12.99l.48-.9.42-.77c.3-.57.6-1.14.9-1.7l1.1-2.07.02.01 1.85 1.4c6.98 5.26 14.13 10.3 21.4 15.14 1.04.69 2.08 1.38 3.12 2.06.06.04.12.08.18.12 1.34.87 2.67 1.73 4.01 2.59 5.45 3.5 11.11 6.98 17 10.48.89.53 1.79 1.06 2.68 1.58 2.28 1.34 4.59 2.67 6.93 4.01 1.12.64 2.24 1.28 3.36 1.91 2.05 1.15 4.12 2.31 6.22 3.47.21.12.41.23.62.35h.01l.49.27h.01l3.58 1.95c2.62 1.44 5.25 2.85 7.89 4.24 5.44 2.88 10.91 5.72 16.36 8.51 2.47 1.26 4.95 2.51 7.42 3.75 10.54 5.3 20.98 10.41 31.12 15.34l1.16.57h.01c.93.45 1.85.9 2.78 1.36.5.24 1.01.48 1.51.73.07.03.13.06.2.09.04.02.07.04.11.06 1.33.65 2.66 1.29 3.99 1.94 2.64 1.28 5.28 2.57 7.93 3.85 3.24 1.57 6.49 3.14 9.75 4.7 2.06.99 4.13 1.98 6.21 2.97 1.34.64 2.67 1.27 4.01 1.9.94.45 1.88.89 2.82 1.33.73.35 1.46.69 2.19 1.03 2.06.97 4.13 1.94 6.2 2.89.3.14.59.28.89.41 1.87.87 3.74 1.73 5.62 2.58.83.38 1.66.76 2.49 1.13.37.17.74.34 1.11.5 1.5.68 3.01 1.36 4.52 2.03.02.01.04.02.06.03.83.37 1.65.74 2.47 1.09 1.36.61 2.73 1.21 4.09 1.8 1.37.6 2.74 1.19 4.11 1.78s2.74 1.17 4.11 1.75c1.38.58 2.75 1.16 4.13 1.73 1.83.76 3.66 1.52 5.5 2.26 1.15.47 2.3.93 3.46 1.39 2.3.92 4.61 1.83 6.93 2.72 1.16.45 2.32.89 3.48 1.33 1.27.48 2.54.96 3.82 1.43 1.27.47 2.55.94 3.82 1.4 1.28.46 2.56.92 3.84 1.37 1.63.58 3.28 1.15 4.93 1.71z" fill="#ffd671"/><path d="m326.195 460.019c-20.262-9.859-41.799-20.439-62.79-31.841l-4.088-2.221 4.425-1.438c55.229-17.961 105.827-42.129 154.688-73.885.634-.408 1.248-.789 1.851-1.127l5.76-3.236-2.998 5.887c-13.51 26.526-31.232 50.465-52.673 71.152-8.688 8.386-18.074 16.288-27.15 23.929l-15.855 13.349z" fill="#ffbf73"/><path d="m375.855 152.38c-9.565 0-19.545-3.04-28.1-8.559-6.199-4.001-11.422-9.124-15.104-14.814-6.936-10.669-9.06-24.447-5.681-36.852 3.32-12.229 12.058-23.123 23.37-29.141 4.531-2.406 9.479-4.061 14.705-4.918 2.328-.382 4.738-.576 7.164-.576 14.682 0 29.452 7.018 38.548 18.315 5.905 7.338 9.446 16.563 9.97 25.974.417 7.699-1.152 15.833-4.536 23.526-2.892 6.555-6.703 12-11.33 16.188-7.344 6.672-17.568 10.626-28.05 10.847-.317.006-.637.01-.956.01z" fill="#ffd671"/><path d="m398.368 313.17c-7.333-3.859-14.78-7.934-22.136-12.111l-3.466-1.968 3.649-1.602c13.338-5.855 26.264-12.867 38.417-20.841l4.184-2.746-1.14 4.874c-1.087 4.647-2.86 9.133-4.437 12.975-3.04 7.394-6.509 15.089-12.5 20.797l-.946 1.478z" fill="#ffbf73"/><path d="m279.953 367.668c-19.92-9.434-40.262-21.036-64.015-36.512l-3.778-2.462 4.361-1.148c39.522-10.403 76.788-27.149 110.76-49.771 1.06-.703 2.253-1.494 3.529-1.858l3.633-1.039-1.184 3.588c-10.703 32.451-28.321 63.129-50.952 88.718l-.996 1.126z" fill="#ffbf73"/><path d="m72.476 427.368c4.948-4.555 9.925-9.36 15.012-14.294l1.067-1.032c3.555-3.438 6.912-6.686 10.287-9.851 14.606-13.691 29.96-28.756 43.28-46.138 13.674-17.855 22.578-34.679 28.02-52.944l.791-2.655 2.271 1.586c46.116 32.221 103.51 72.322 168.327 87.693l5.535 1.313-5.14 2.44c-26.183 12.432-52.714 22.899-81.107 31.998l-1.033.772-1.083-.646c-26.061-14.379-47.91-28.372-66.797-42.78-37.604 18.834-77.125 34.955-117.466 47.914z" fill="#ffd671"/><path d="m211.43 328.2c-7.537-4.968-15.407-10.302-24.769-16.786l-1.682-1.165 1.202-1.655c7.75-10.666 12.557-23.779 13.534-36.923l.227-3.049 73.5 38.874-3.815 1.658c-18.275 7.94-37.32 14.439-56.607 19.315l-.854.216z" fill="#ffd671"/><g fill="#ffbf73"><path d="m150.947 313.379c-6.621-1.941-13.137-4.323-19.367-7.08l-4.518-1.999 4.637-1.707c22.763-8.378 44.576-19.256 64.836-32.333l.221-.143.078-.025 3.131-1.566-.28 3.532c-1.034 13.033-5.85 26.035-13.559 36.61l-1.151 1.579-1.604-1.114c-3.553-2.464-7.071-4.922-10.556-7.356l-2.229-1.557c-5.815 4.39-11.853 8.729-17.947 12.892l-.781.534z"/><path d="m191.98 382.79-.03.06-.01.01-2.01 3.75-.42.77-.48.9c-2.3 4.29-4.67 8.64-7.14 12.99-.82 1.45-1.65 2.91-2.49 4.36-.51.89-1.03 1.79-1.57 2.68-.05.1-.11.2-.17.3-.16.27-.31.53-.47.8-.46.77-.92 1.54-1.39 2.31-.92 1.54-1.86 3.07-2.82 4.59-.43.7-.88 1.4-1.32 2.1-.11.17-.21.34-.32.51-.25.4-.51.79-.77 1.18-.54.84-1.08 1.69-1.64 2.52-.18.28-.36.56-.55.83-.6.92-1.22 1.83-1.84 2.73-.16.25-.33.49-.5.73-.58.85-1.17 1.7-1.78 2.54l-.78 1.11c-.43.61-.87 1.21-1.31 1.81-.34.47-.68.93-1.02 1.39-.73.99-1.47 1.97-2.22 2.94-.57.76-1.16 1.51-1.75 2.25-.14.18-.29.37-.44.55-.25.32-.5.63-.76.95-.46.58-.92 1.15-1.4 1.72-.21.27-.44.54-.66.81-1.55 1.86-3.13 3.69-4.76 5.48-.8.9-1.62 1.79-2.44 2.67-.6.65-1.2 1.29-1.81 1.92-.49.52-.99 1.04-1.5 1.55-.08.09-.16.17-.25.26-.81.83-1.62 1.65-2.45 2.46-.14.14-.28.28-.42.42-.85.84-1.72 1.68-2.59 2.51-.02.02-.03.03-.05.05-.03.03-.06.06-.09.09-.92.87-1.84 1.74-2.78 2.6-7.75 7.16-15.95 13.82-24.3 20.05-1.05.77-2.09 1.55-3.14 2.31s-2.1 1.52-3.15 2.27c-1.15.83-2.3 1.65-3.46 2.46-.14.1-.28.19-.42.29-.81.56-1.62 1.13-2.43 1.68-3.45 2.38-6.89 4.69-10.32 6.93-.79.51-1.57 1.03-2.35 1.54-6.2 4.02-12.31 7.83-18.23 11.48h-66.98v-61.16c.25-.05.5-.1.75-.16 1.03-.22 2.07-.45 3.1-.69.09-.02.17-.04.26-.06.65-.14 1.29-.29 1.93-.44 1.08-.24 2.16-.49 3.24-.75.05 0 .1-.01.15-.03 1.41-.33 2.82-.66 4.22-1 1.41-.33 2.81-.67 4.22-1.02.88-.21 1.76-.43 2.64-.64.88-.22 1.76-.44 2.64-.66.46-.12.92-.23 1.38-.35.62-.16 1.24-.31 1.86-.47 13.16-3.36 26.23-7.04 39.2-11.05l.01-.01c2.95-.9 5.9-1.83 8.84-2.77.25-.08.5-.16.74-.24 2.27-.73 4.54-1.47 6.81-2.23 2.05-.67 4.1-1.36 6.15-2.07.26-.09.52-.18.78-.27.2-.06.41-.13.61-.2.25-.08.51-.17.76-.26 1.94-.66 3.87-1.33 5.79-2.01.55-.19 1.09-.38 1.63-.58 1.82-.64 3.64-1.29 5.45-1.95.6-.21 1.19-.43 1.78-.64 2.36-.86 4.71-1.73 7.05-2.61 1.88-.7 3.75-1.41 5.62-2.13.13-.05.27-.1.4-.16 1.31-.49 2.61-.99 3.91-1.51.01 0 .02-.01.03-.01.03-.01.05-.02.08-.03 1.85-.72 3.7-1.45 5.54-2.18 2.21-.88 4.43-1.77 6.63-2.67 4.34-1.78 8.67-3.59 12.98-5.43.08-.04.17-.07.25-.11.97-.41 1.92-.83 2.88-1.24 1.84-.79 3.67-1.59 5.5-2.4.16-.07.31-.14.47-.21 1.24-.55 2.46-1.09 3.69-1.65 2.29-1.03 4.58-2.06 6.87-3.11.47-.22.95-.44 1.42-.65 1-.46 1.99-.93 2.99-1.39 1.25-.58 2.49-1.17 3.74-1.76 3.81-1.8 7.61-3.64 11.4-5.5l5.52-2.71z"/><path d="m171.24 299.76-.24.74v.01l-1.63 5.13c-.09.29-.19.59-.29.88-.18.57-.37 1.13-.56 1.69-.18.52-.36 1.04-.54 1.55-.04.11-.07.21-.11.32-.18.5-.36 1-.54 1.49-.18.5-.37 1-.55 1.5-.24.62-.47 1.23-.72 1.84-.44 1.11-.89 2.22-1.36 3.32-.23.55-.47 1.1-.71 1.65-.01.04-.03.08-.05.12-.71 1.61-1.45 3.22-2.23 4.82-.26.55-.53 1.09-.81 1.64-.81 1.64-1.66 3.27-2.56 4.91-.3.54-.6 1.09-.9 1.63-.3.55-.61 1.09-.93 1.64-.31.54-.63 1.08-.95 1.63-.64 1.09-1.3 2.18-1.98 3.27-.66 1.09-1.36 2.19-2.08 3.28-.35.54-.71 1.09-1.08 1.64-.36.54-.73 1.09-1.1 1.64-.74 1.1-1.51 2.2-2.29 3.3s-1.58 2.2-2.4 3.31c-.4.55-.81 1.1-1.22 1.65-.43.57-.86 1.13-1.29 1.7-.82 1.06-1.64 2.11-2.46 3.15-.06.08-.12.15-.18.22-.81 1.02-1.62 2.03-2.45 3.03-.86 1.05-1.73 2.09-2.6 3.13-1.75 2.07-3.52 4.1-5.31 6.1-1.78 2.01-3.59 3.98-5.42 5.92-1.8 1.92-3.61 3.82-5.43 5.68-.94.97-1.89 1.93-2.83 2.87-.92.93-1.85 1.85-2.77 2.76-3.25 3.22-6.51 6.35-9.74 9.41-.62.6-1.24 1.18-1.86 1.76-.74.71-1.49 1.41-2.23 2.1-3.84 3.61-8 7.64-11.35 10.88-1.26 1.22-2.53 2.44-3.8 3.68-3.71 3.58-7.47 7.17-11.21 10.62-2.21 2.03-4.41 4-6.6 5.9l-.28.24-.04.04-.4.12c-11.19 3.45-22.68 6.72-34.16 9.73-1.53.4-3.07.79-4.61 1.17-.62.16-1.24.31-1.86.47-.46.12-.92.23-1.38.35-.88.22-1.76.44-2.64.66-.88.21-1.76.43-2.64.64-1.41.35-2.81.69-4.22 1.02-1.4.34-2.81.67-4.22 1-.05.02-.1.03-.15.03-1.08.26-2.16.51-3.24.75-.64.15-1.28.3-1.93.44-.09.02-.17.04-.26.06-1.03.24-2.07.47-3.1.69-.25.06-.5.11-.75.16v-69.21c.07-.01.14-.03.2-.05.56-.14 1.13-.28 1.68-.42.18-.04.35-.09.53-.13 1.52-.39 3.05-.79 4.57-1.19 1.48-.39 2.94-.79 4.4-1.19l.31-.09.1-.03c2.73-.75 5.46-1.53 8.18-2.35 41.58-12.33 81.75-30.57 118.46-53.74 1.18-.75 2.36-1.5 3.54-2.26 1.66-1.07 3.31-2.15 4.95-3.23 1.63-1.08 3.26-2.17 4.87-3.27.02-.01.04-.02.05-.04 1.22-.83 2.44-1.66 3.65-2.5s2.41-1.69 3.62-2.54c2.4-1.7 4.79-3.43 7.16-5.18l2.12-1.56.1-.07 2.11-1.56z"/></g><path d="m18.094 372.774c29.042-25.389 54.281-55.271 78.676-84.206v-3.053l3.119 2.107c.265.179.53.371.801.569l.376.272c14.214 10.604 29.944 18.661 46.786 23.968l3.979 1.254-3.47 2.316c-39.545 26.404-82.738 46.656-128.382 60.194z" fill="#ffd671"/><path d="m95.02 290.63c-2.23 2.65-4.49 5.33-6.78 8.04-4.76 5.63-9.65 11.36-14.67 17.14-1.57 1.8-3.14 3.61-4.75 5.42-3.15 3.59-6.36 7.19-9.64 10.77-.8.89-1.62 1.78-2.44 2.67-1.64 1.77-3.28 3.54-4.93 5.3-1.63 1.76-3.3 3.51-4.99 5.25-.81.84-1.62 1.68-2.43 2.51l-.09.09c-.84.87-1.69 1.73-2.53 2.59-7.59 7.7-15.47 15.21-23.67 22.38-1.77 1.54-3.56 3.08-5.36 4.59l-.36.97-.59.18-.1.03-.31.09c-1.46.4-2.92.8-4.4 1.19-1.52.4-3.05.8-4.57 1.19-.18.04-.35.09-.53.13-.55.14-1.12.28-1.68.42-.06.02-.13.04-.2.05v-59.38c.21-.05.42-.12.62-.2 1.95-.62 3.9-1.25 5.84-1.9 3.55-1.16 7.09-2.35 10.63-3.56 4.26-1.46 8.51-2.94 12.75-4.45 1.55-.55 3.09-1.1 4.63-1.66 2.48-.89 4.96-1.8 7.43-2.71 1.49-.55 2.96-1.1 4.44-1.65 1.58-.59 3.15-1.18 4.72-1.78 1.9-.72 3.79-1.44 5.68-2.18 2.02-.78 4.04-1.56 6.05-2.36 2.01-.79 4.02-1.59 6.03-2.39 3.01-1.21 6.01-2.42 9-3.65s5.98-2.48 8.95-3.73c.14-.06.29-.12.43-.18 1.84-.78 3.67-1.56 5.5-2.35l.01.01z" fill="#ffbf73"/><path d="m512 278.64c-16.24 7.26-32.88 13.53-49.84 18.8-.1-.09-.21-.17-.32-.23l-40.38-23.55c-.51-.3-1.22-.71-2.1-.85-1.88-.31-3.44.73-4.37 1.35-13.27 8.82-27.43 16.44-42.09 22.68-11.37-6.54-22.58-13.35-33.59-20.43-1.99-1.28-4.71-3.03-7.89-2.65-2.1.25-3.77 1.36-5.25 2.35-16.89 11.25-34.58 21.01-52.95 29.28-.18-.26-.41-.48-.7-.64l-69.48-36.74c-.77-.42-1.74-.93-2.94-1.02-1.94-.15-3.57.9-4.64 1.59-21.34 13.76-44.29 25.03-68.22 33.5-8.74-4.26-17.09-9.33-24.96-15.2-1.37-1.02-2.92-2.18-4.96-2.42-2.03-.24-3.84.53-5.28 1.16-30 12.88-60.93 24.48-92.04 34.53v4.22c31.6-10.18 63.02-21.94 93.49-35.03-25.31 30.03-51.55 60.87-82.04 86.51-.29.24-.48.54-.6.87-3.6.99-7.22 1.95-10.85 2.85v4.12c60.07-14.86 117.69-41.92 167.46-78.66-5.43 17.07-14.05 33-26.93 49.81-13.21 17.24-28.5 32.25-43.06 45.89-3.71 3.49-7.61 7.26-11.37 10.9-7.09 6.87-14.42 13.97-21.53 20.13-11.29 3.48-22.65 6.71-34.08 9.7-10.11 2.64-20.28 5.08-30.49 7.34v4.09c64.8-14.24 127.73-36.27 187.27-65.56-9.44 17.6-20.65 37.28-34.89 54.37-25.01 30-59.83 52.27-89.22 70.3h7.63c28.4-17.57 60.81-39.13 84.66-67.74 15.4-18.48 27.25-39.82 37.15-58.41 42.71 32.19 91.42 55.88 138.54 78.8 34.78 16.91 70.42 34.23 107.56 47.35h12.39c-40.94-13.38-80.08-32.42-118.2-50.95-.62-.3-1.25-.61-1.88-.91l13.49-11.37c9.11-7.66 18.52-15.59 27.26-24.02 22.33-21.55 40.62-46.56 54.39-74.34.83.36 1.64 1.01 2.5 1.69 25.12 20.06 53.14 35.63 83.35 46.37v-4.24c-29.28-10.58-56.45-25.77-80.86-45.26-1.22-.97-2.59-2.06-4.33-2.57-.17-.22-.39-.4-.66-.53-.71-.34-1.54-.22-2.12.25-2.4.2-4.61 1.49-6.69 2.84-23.02 14.96-46.43 28.21-70.53 39.94h-.01c-21.65-4.7-42.36-12.16-62.21-21.29 22.56-25.75 40.05-56.42 50.72-88.94.59.32 1.2.7 1.84 1.11 38.6 24.82 79.6 46.48 121.86 64.38 16.54 7.01 34.31 13.89 52.99 17.54v-4.07c-18.05-3.63-35.32-10.33-51.43-17.16-18.42-7.8-36.6-16.32-54.44-25.51 36.48-6.25 72.03-16.99 105.87-31.95zm-310.29-6.82 67.12 35.5c-18.16 7.89-36.96 14.32-56.3 19.21-8.42-5.55-16.66-11.17-24.73-16.76 8-11.01 12.9-24.37 13.91-37.95zm-182.3 102.46c29.34-25.65 54.74-55.78 79.35-84.97 0-.01.01-.02.01-.03.37.25.74.53 1.13.81 14.37 10.72 30.28 18.87 47.35 24.25-39.21 26.18-82.63 46.53-127.84 59.94zm132.1-62.82c-6.55-1.92-12.93-4.25-19.12-6.99 22.85-8.41 44.78-19.33 65.23-32.53.03-.01.05-.03.07-.04-1.01 12.74-5.65 25.26-13.18 35.59-4.31-2.99-8.57-5.97-12.78-8.91-.71-.5-1.66-.48-2.35.04-5.85 4.42-11.81 8.7-17.87 12.84zm268.01 40.85c.59-.38 1.17-.74 1.74-1.06-13.41 26.33-30.98 50.07-52.28 70.62-8.64 8.34-18 16.22-27.05 23.84l-14.86 12.51c-20.88-10.16-42-20.55-62.71-31.8 55.35-18 106.14-42.25 155.16-74.11zm-78.45 39.37c-26.01 12.35-52.84 22.92-80.86 31.9-.2.06-.38.16-.54.28-23.09-12.74-45.59-26.63-66.55-42.62-.61-.47-1.43-.54-2.11-.2-37.79 18.93-76.99 34.89-117.18 47.8 5.04-4.64 10.11-9.54 15.05-14.33 3.93-3.8 7.63-7.39 11.33-10.86 14.68-13.76 30.11-28.91 43.5-46.38 13.8-18.02 22.84-35.1 28.35-53.59 49.32 34.46 104.96 72.81 169.01 88zm-60.26-25.82c-22.32-10.57-43.55-23.2-63.78-36.38 39.7-10.45 77.15-27.26 111.36-50.04.98-.65 1.99-1.32 2.97-1.6-10.63 32.23-28.07 62.6-50.55 88.02zm118.49-54.46c-7.43-3.91-14.79-7.94-22.08-12.08 13.44-5.9 26.44-12.95 38.71-21-1.03 4.4-2.69 8.65-4.34 12.67-2.96 7.2-6.33 14.68-12.03 20.11-.1.09-.19.19-.26.3zm5.73-.31c4.65-5.51 7.62-12.16 10.26-18.58 1.92-4.67 3.85-9.66 4.89-14.97l36.8 21.46c-17.04 5.06-34.39 9.1-51.95 12.09z"/><path d="m346.67 145.5c8.9 5.75 19.22 8.88 29.18 8.88.34 0 .67 0 1-.01 10.96-.23 21.66-4.37 29.36-11.37 4.84-4.39 8.82-10.07 11.81-16.86 3.52-7.98 5.14-16.43 4.7-24.44-.54-9.82-4.23-19.45-10.4-27.11-11.18-13.88-30.31-21.31-47.6-18.47-5.43.89-10.59 2.62-15.32 5.13-11.78 6.26-20.89 17.62-24.36 30.38-3.52 12.94-1.3 27.32 5.93 38.47 3.85 5.93 9.28 11.26 15.7 15.4zm-17.77-52.82c3.18-11.71 11.55-22.14 22.38-27.9 4.35-2.31 9.09-3.89 14.09-4.71 2.25-.37 4.54-.55 6.84-.55 13.92 0 28.15 6.59 36.99 17.57 5.65 7.02 9.03 15.84 9.53 24.83.4 7.38-1.11 15.2-4.37 22.61-2.77 6.28-6.41 11.5-10.84 15.51-6.99 6.35-16.75 10.12-26.75 10.33-9.48.2-19.39-2.72-27.93-8.23-5.95-3.84-10.97-8.75-14.51-14.22-6.63-10.2-8.66-23.38-5.43-35.24z"/></svg>