<svg id="Capa_1" enable-background="new 0 0 512 512" height="512" viewBox="0 0 512 512" width="512" xmlns="http://www.w3.org/2000/svg"><path d="m503.47 403.99c2.85-.51 5.69-1.05 8.53-1.61v109.62h-65.97c-.01-.07-.02-.14-.04-.22-.05-.25-.1-.49-.16-.74-.01-.12-.04-.23-.07-.35l-.18-.75c-.02-.08-.04-.16-.07-.24-.15-.58-.33-1.16-.52-1.74-.61-1.89-1.41-3.76-2.4-5.58-.14-.25-.27-.5-.42-.75-.25-.45-.52-.91-.81-1.35-.16-.26-.33-.53-.51-.79-.94-1.43-2.01-2.82-3.19-4.16-.29-.35-.59-.69-.91-1.02-.67-.71-1.37-1.4-2.09-2.09-.36-.34-.74-.68-1.12-1.02-.4-.35-.81-.7-1.22-1.04-.38-.31-.77-.62-1.16-.93-.31-.24-.62-.48-.95-.72-.32-.24-.64-.48-.97-.71-.66-.47-1.34-.94-2.04-1.4-1.86-1.22-3.87-2.4-6.04-3.54-1.09-.58-2.22-1.14-3.39-1.7s-2.39-1.11-3.65-1.66c-.77-.33-1.54-.66-2.32-.98-.66-.28-1.33-.55-2-.81-1.74-.69-3.5-1.35-5.27-1.97-.71-.25-1.42-.49-2.14-.73-.63-.21-1.27-.42-1.9-.62-.4-.14-.81-.27-1.22-.39-1.34-.43-2.69-.83-4.05-1.22-2.16-.62-4.33-1.2-6.52-1.74-.72-.18-1.44-.36-2.16-.53-2.8-.66-5.61-1.27-8.44-1.83-1.24-.24-2.47-.48-3.71-.71s-2.48-.45-3.72-.66c-.83-.15-1.65-.29-2.49-.42-.52-.08-1.04-.17-1.56-.25-1.35-.21-2.7-.42-4.06-.62-5.72-.85-11.47-1.57-17.19-2.24-2.37-.29-4.74-.57-7.1-.83-.79-.1-1.59-.19-2.38-.28-5.86-.67-11.78-1.34-17.72-2.1-2.02-.26-4.03-.53-6.04-.81-.99-.14-1.98-.28-2.97-.43-.99-.14-1.98-.29-2.97-.44-1.33-.21-2.66-.42-3.99-.64-.09-.01-.19-.03-.28-.05-1.39-.23-2.78-.47-4.17-.73-2.1-.37-4.2-.77-6.28-1.2-.97-.21-1.95-.42-2.92-.63-.79-.17-1.58-.35-2.37-.54-2.8-.65-5.63-1.41-8.38-2.36-.44-.15-.88-.31-1.32-.48-.44-.16-.88-.33-1.31-.51-.44-.18-.87-.36-1.3-.54-.85-.37-1.7-.78-2.53-1.21-.42-.22-.83-.44-1.24-.67-.81-.46-1.61-.95-2.39-1.48-.91-.61-1.76-1.26-2.57-1.95-.48-.38-.94-.8-1.38-1.23-.12-.1-.23-.21-.35-.33-.32-.32-.63-.64-.93-.96-.33-.36-.64-.72-.94-1.08-.53-.65-1.03-1.32-1.49-2-.53-.78-1-1.58-1.41-2.39-.07-.12-.13-.25-.18-.37-.03-.04-.05-.08-.06-.13-.13-.26-.25-.53-.37-.79s-.23-.53-.33-.8c-.1-.24-.19-.48-.27-.72-.02-.05-.04-.1-.05-.15-.09-.24-.16-.49-.24-.74-.12-.4-.23-.8-.31-1.2-.07-.27-.13-.54-.18-.81-.03-.16-.06-.32-.07-.49-.04-.18-.06-.35-.09-.53l-.03-.24-.25-1.87h.02l2.11-.15c7.19-.48 14.23-1.01 21.02-1.55 2.14-.17 4.25-.34 6.33-.51 1.39-.11 2.77-.23 4.13-.34 13.23-1.1 26.54-2.25 39.85-3.42 3.28-.29 6.58-.58 9.89-.88 2.11-.19 4.21-.38 6.31-.57 2.12-.19 4.24-.38 6.35-.57 7.81-.71 15.73-1.43 23.81-2.18 1.82-.17 3.64-.34 5.45-.5 3.32-.31 6.67-.62 10.05-.93 1.38-.13 2.75-.25 4.12-.38l2.33-.21c10.52-.97 21.12-1.95 31.79-3.04 2.52-.26 5.05-.52 7.59-.78 1.44-.15 2.9-.3 4.35-.46 4.36-.47 8.74-.96 13.12-1.48 1.46-.18 2.93-.35 4.39-.53.39-.05.77-.09 1.16-.14 1.56-.19 3.11-.39 4.67-.59 3.89-.49 7.77-1.02 11.66-1.57 1.94-.28 3.89-.56 5.83-.85 1.32-.19 2.65-.4 3.98-.61 1.13-.17 2.26-.34 3.39-.53.45-.07.89-.14 1.33-.21 1.04-.16 2.07-.33 3.11-.51 1.56-.26 3.12-.52 4.68-.8.38-.06.76-.12 1.14-.19l.78-.14c.74-.14 1.49-.27 2.24-.41.09-.01.18-.03.28-.05z" fill="#9bc96a"/><path d="m512 348.48v53.91c-2.64.52-5.08.98-7.38 1.4l-1.14.21-.29.05v-.01l-.69-1.27-.05-.07c-.21-.26-.43-.52-.64-.79-1.05-1.27-2.06-2.58-3.02-3.93-.15-.2-.31-.41-.45-.62-.21-.29-.42-.58-.62-.88-.21-.3-.42-.6-.62-.9-.21-.3-.42-.62-.63-.93-.21-.32-.43-.64-.63-.96-.03-.03-.05-.07-.08-.11-.16-.26-.33-.51-.49-.77-.19-.29-.39-.59-.57-.89-.29-.46-.57-.92-.85-1.38-.33-.55-.66-1.11-.98-1.67s-.64-1.13-.96-1.69c-.15-.29-.31-.58-.47-.86-.16-.29-.31-.58-.46-.87-.46-.87-.91-1.75-1.36-2.65 0 0 0 0 0-.01-.44-.89-.88-1.8-1.31-2.72-.56-1.2-1.1-2.42-1.63-3.66-.02-.05-.04-.11-.07-.16-.26-.61-.52-1.23-.77-1.86-.19-.46-.37-.93-.56-1.4-.46-1.18-.92-2.38-1.36-3.6-.22-.6-.43-1.2-.64-1.81-.25-.7-.49-1.41-.72-2.12-.24-.72-.47-1.44-.7-2.17s-.46-1.46-.68-2.2c-.23-.75-.45-1.51-.67-2.27-.21-.75-.42-1.5-.63-2.26-.21-.77-.42-1.54-.62-2.33-.19-.73-.38-1.46-.56-2.21-.11-.45-.22-.9-.33-1.35-.1-.4-.2-.81-.29-1.22-.09-.37-.17-.73-.25-1.1-.14-.59-.27-1.18-.4-1.78-.14-.62-.28-1.25-.41-1.88-.44-2.06-.85-4.16-1.25-6.31-.01-.05-.02-.11-.03-.16-.01-.04-.02-.09-.02-.13l-.37-1.96-.07-.36.03.01 3.38 1.38c5.85 2.39 11.82 4.59 17.87 6.62.86.28 1.72.57 2.59.85.99.33 1.98.64 2.97.95.79.25 1.59.49 2.38.73.95.3 1.9.58 2.85.85.65.19 1.29.38 1.94.56.9.26 1.8.52 2.71.76z" fill="#af7979"/><path d="m512 348.48c-.91-.24-1.81-.5-2.71-.76-.65-.18-1.29-.37-1.94-.56-.95-.27-1.9-.55-2.85-.85-.79-.24-1.59-.48-2.38-.73-8.65-2.69-17.16-5.78-25.42-9.22l-1.33-.23h-.02l-.05-.01-.12-1.08c-.01-.03-.01-.07-.02-.1l-.02-.2c-.58-3.38-1.12-6.78-1.63-10.21-.17-1.15-.34-2.31-.5-3.47-.17-1.15-.33-2.3-.48-3.45-.32-2.33-.63-4.65-.93-6.96-.15-1.16-.3-2.33-.45-3.5-.02-.12-.03-.23-.05-.35-.03-.2-.06-.43-.09-.69-.03-.28-.07-.56-.11-.85-.07-.51-.14-1.06-.21-1.62-.03-.23-.06-.45-.09-.68-.1-.74-.19-1.45-.27-2.05-.02-.16-.04-.32-.06-.48-.09-.68-.15-1.12-.15-1.12l-.28-2.05c-.51-3.76-1.08-7.82-1.74-12.05-.23-1.48-.48-2.98-.74-4.5-.14-.81-.28-1.61-.42-2.42-.14-.8-.29-1.6-.43-2.4s-.29-1.6-.46-2.41c-.16-.8-.32-1.6-.48-2.4-.15-.79-.32-1.58-.49-2.37-.07-.34-.14-.65-.23-.92-.03-.11-.06-.22-.1-.33-.04-.12-.08-.24-.14-.36-.05-.11-.1-.22-.15-.32-.05-.09-.09-.17-.15-.25-.05-.08-.11-.16-.17-.23-.04-.05-.08-.1-.12-.14-.04-.05-.09-.1-.14-.14-.08-.07-.16-.14-.25-.2-.01-.01-.01-.02-.02-.02-.06-.04-.12-.08-.19-.11-.01 0-.02-.01-.03-.01-.07-.05-.15-.08-.24-.11-.07-.04-.16-.06-.24-.09-.14-.03-.27-.06-.41-.08-.08-.01-.16-.02-.25-.03-.21-.02-.41-.03-.6-.03-.25 0-.5.01-.7.02l-17.77.79v-.01l2.05-3.23c.28-.44.52-.9.72-1.39.1-.22.19-.45.27-.68.02-.07.05-.14.07-.21.05-.14.09-.28.13-.43.07-.23.13-.46.17-.69.06-.26.1-.52.14-.78.03-.22.06-.44.07-.65.01-.07.01-.14.01-.21.02-.2.03-.4.03-.6 0-.47-.03-.93-.09-1.38-.03-.24-.07-.47-.12-.7-.03-.19-.08-.39-.13-.58-.04-.2-.09-.39-.15-.59-.03-.11-.06-.22-.1-.33-.05-.18-.11-.35-.17-.53-.07-.22-.15-.44-.24-.66-.17-.44-.35-.87-.56-1.29-.11-.22-.21-.43-.32-.64s-.22-.42-.34-.63c-.11-.21-.23-.41-.35-.62-.24-.41-.49-.82-.75-1.22-.13-.2-.26-.4-.4-.6-.13-.2-.26-.4-.4-.59-.14-.2-.29-.41-.43-.61-.12-.19-.26-.37-.39-.56l-.08-.1-1.15-1.6c0-.01-.01-.01-.01-.02l-1.39-1.92 4.46.48c.34.04.68.09 1.02.14l1.02.18c.14.03.27.05.41.08.37.08.74.16 1.11.25.7.17 1.39.34 2.07.52l.08.02c.01 0 .02.01.03.01.8.21 1.58.41 2.35.59.83.19 1.68.37 2.53.49 1.04.15 2.11.23 3.18.23.25 0 .51 0 .76-.01.51-.02 1.02-.05 1.52-.1.25-.03.51-.06.76-.09.25-.04.5-.07.75-.11 2-.34 3.95-.92 5.8-1.73.46-.21.92-.42 1.36-.65.23-.12.45-.24.67-.36.44-.24.87-.5 1.29-.76.01 0 .01-.01.01-.01.42-.27.83-.55 1.23-.84.01 0 .01 0 .01-.01.2-.15.4-.3.6-.46.19-.15.39-.31.58-.47s.38-.32.57-.49c.19-.16.37-.33.55-.5.19-.16.36-.34.54-.52.22-.23.44-.45.66-.69.12-.14.24-.27.36-.41.82-.94 1.56-1.94 2.2-3 .06-.1.12-.21.18-.32.15-.25.29-.5.43-.75 0 0 0-.01.01-.02.18-.33.35-.66.51-1 .01-.03.03-.05.04-.08.09-.19.18-.37.26-.56.09-.21.18-.41.27-.62s.17-.42.25-.63c.1-.24.19-.48.27-.73.13-.34.24-.68.35-1.03.12-.35.22-.71.32-1.07.1-.38.2-.76.3-1.15.01-.02.01-.05.01-.07.17-.67.31-1.36.43-2.07.02-.12.05-.25.07-.38.01-.05.01-.09.02-.14.05-.27.09-.55.13-.83.05-.34.1-.69.14-1.04.09-.73.16-1.48.22-2.26.03-.38.06-.76.08-1.14.04-.74.07-1.5.09-2.28 0-.11.01-.21.02-.31l.12-3.71.01-.26.17.19 3.15 3.55c.04.05.08.09.12.14.36.4.71.82 1.04 1.23.24.29.48.59.72.9.02.03.04.05.06.08.4.51.79 1.03 1.18 1.54.38.5.77 1.01 1.17 1.54.25.32.5.64.76.95.34.43.69.84 1.06 1.25.35.41.72.8 1.1 1.18l.03.03c.2.2.4.4.61.59.46.43.95.84 1.46 1.23.28.21.57.42.87.61.24.16.48.32.73.47.28.17.56.33.84.49.28.15.57.3.86.44.22.11.43.21.65.3.3.13.61.26.92.38 2.51 1 5.26 1.53 8.05 1.53 1.42 0 2.81-.13 4.17-.4z" fill="#5b5d6d"/><path d="m511.61 167.82c.13-.04.26-.08.39-.11v61.92c-1.35.26-2.73.39-4.13.39-3.74 0-7.4-.93-10.52-2.62-.86-.47-1.67-.99-2.44-1.57-.51-.38-1-.79-1.46-1.22-.21-.19-.41-.39-.61-.6-1.56-1.57-2.91-3.35-4.12-4.95-.39-.51-.78-1.03-1.18-1.54-.26-.33-.51-.65-.78-.98-.33-.41-.68-.83-1.04-1.23-.35-.4-.72-.8-1.1-1.18-.34-.35-.72-.68-1.19-.68-.19 0-.48.06-.75.36-.3.33-.48.88-.53 1.59-.01.1-.02.2-.02.31-.02.78-.05 1.54-.09 2.28-.02.38-.05.76-.08 1.14-.06.78-.13 1.53-.22 2.26-.04.35-.09.7-.14 1.04-.05.33-.1.65-.15.97-.02.13-.05.26-.07.38-.13.74-.28 1.45-.44 2.14-.1.39-.2.77-.3 1.15-.1.36-.21.72-.32 1.07s-.22.69-.35 1.03c-.08.25-.17.49-.27.73-.16.42-.34.84-.52 1.25-.08.19-.17.37-.26.56-.36.75-.75 1.47-1.17 2.17-.9 1.49-1.99 2.86-3.22 4.1-.87.89-1.83 1.7-2.84 2.44 0 .01 0 .01-.01.01-.4.29-.81.57-1.23.84 0 0 0 .01-.01.01-3.8 2.43-8.3 3.82-12.87 3.82-1.08 0-2.16-.08-3.21-.23-.86-.13-1.7-.3-2.54-.5-.77-.18-1.55-.38-2.35-.59l.39-1.96-.5 1.93c-.68-.18-1.37-.35-2.07-.52-.37-.09-.74-.17-1.11-.25-.14-.03-.27-.05-.41-.08-.68-.13-1.36-.24-2.04-.32-.52-.06-1.05-.09-1.57-.1h-.1c-.34 0-1.48.06-1.57.89-.03.23.04.44.17.65.06.12.14.24.23.35.31.42.62.84.93 1.27.16.22.32.44.47.66.42.59.84 1.19 1.23 1.8.26.4.51.81.75 1.22.61 1.02 1.15 2.08 1.57 3.18.09.22.17.44.24.66.06.18.12.35.17.53.1.31.19.61.25.92.05.19.1.39.13.58.05.23.09.46.12.7.1.71.12 1.45.05 2.19-.01.21-.04.43-.07.65-.1.72-.27 1.43-.51 2.11-.08.23-.17.46-.27.68-.97 2.24-2.7 4.08-5.07 4.62l-.27.12h-.01l-.37.02-13.71.61-.02-.01-.52-.34c-.95-.62-1.86-1.35-2.72-2.18l-.01-.01c-.11-.11-.23-.23-.33-.34-.848-.854-1.632-1.81-2.357-2.827-.011-.015-.022-.028-.033-.043-.005-.009-.016-.025-.024-.038-.279-.395-.549-.799-.807-1.213-.039-.061-.081-.118-.119-.179-.15-.25-.3-.49-.44-.74s-.28-.51-.42-.76c-.15-.29-.3-.58-.44-.88-.07-.15-.14-.3-.21-.45-.04-.08-.08-.16-.11-.24s-.07-.15-.1-.23c-.07-.16-.13-.32-.2-.49-.12-.27-.22-.54-.33-.81-.01-.03-.02-.06-.03-.09-.07-.2-.14-.39-.2-.59-.09-.23-.16-.46-.23-.69-.1-.34-.2-.69-.29-1.03v-.01c-.05-.19-.1-.37-.14-.56 0-.02-.01-.03-.01-.05-.07-.27-.13-.54-.18-.81 0-.02-.01-.04-.01-.06-.01-.02-.01-.04-.01-.06-.01-.05-.02-.1-.03-.15-.07-.35-.12-.71-.17-1.06-.03-.23-.06-.47-.08-.71-.02-.23-.04-.46-.05-.7-.02-.2-.03-.41-.03-.61-.02-.26-.02-.53-.02-.8 0-.3.01-.6.02-.91 0-.09 0-.19.01-.29.01-.18.03-.36.04-.54s.03-.35.05-.53c.05-.51.12-1.01.21-1.51.03-.19.06-.38.11-.57.1-.56.24-1.11.39-1.65.01-.01 0-.01 0-.01.1-.33.2-.65.3-.97.11-.32.22-.64.34-.95.12-.32.25-.63.38-.94 0 0 0 0 0-.01.41-.93.88-1.83 1.4-2.69.17-.29.36-.58.55-.86.38-.56.78-1.11 1.21-1.63.22-.26.44-.52.67-.77.17-.19.35-.37.53-.56.17-.18.35-.36.54-.54 1.94-1.87 4.17-3.42 6.45-4.86.77-.49 1.56-.98 2.33-1.45.01-.01.03-.02.04-.03l.31-.19c1.1-.68 2.23-1.38 3.29-2.08.21-.14.42-.28.63-.44.15-.1.3-.21.44-.32.16-.13.32-.25.46-.38.15-.12.29-.25.42-.39.13-.13.25-.27.37-.41.1-.12.19-.25.28-.38.01-.02.03-.04.04-.06.09-.14.17-.28.24-.42.08-.16.14-.32.2-.48.04-.11.07-.22.09-.33.05-.21.08-.43.1-.65.01-.12.01-.25.01-.38 0-.22-.01-.44-.04-.66-.01-.19-.04-.38-.08-.58-.04-.3-.11-.61-.18-.92-.01-.04-.02-.09-.03-.13-.03-.12-.05-.24-.08-.35l-.08-.36c-.07-.31-.14-.62-.2-.93-.09-.43-.16-.86-.23-1.29s-.13-.86-.18-1.29c-.04-.33-.08-.66-.1-1-.04-.33-.06-.66-.08-.99 0-.04 0-.08-.01-.12-.03-.63-.05-1.25-.05-1.87 0-.43.01-.87.03-1.3.01-.27.02-.53.04-.79.01-.25.03-.49.05-.74.01-.13.02-.26.04-.39.03-.33.06-.66.11-.99.01-.13.03-.25.05-.36.04-.36.1-.71.16-1.06.06-.38.13-.75.21-1.12.05-.26.1-.51.17-.77.08-.36.16-.71.26-1.06.01-.04.01-.07.03-.1.08-.34.18-.67.28-1 .18-.59.37-1.17.58-1.74.44-1.2.95-2.38 1.53-3.51.2-.38.4-.76.61-1.13.16-.28.32-.55.49-.82.16-.28.33-.55.51-.81.12-.19.24-.37.37-.55.23-.35.47-.69.72-1.02.35-.47.71-.92 1.09-1.36.16-.19.33-.38.5-.56.38-.43.78-.85 1.19-1.26.2-.2.4-.4.61-.59s.42-.38.63-.56c.21-.19.42-.37.64-.55.25-.21.5-.41.75-.61.16-.12.32-.24.47-.36.26-.19.52-.38.79-.56.21-.15.42-.29.63-.43.25-.18.51-.34.77-.5.36-.22.72-.43 1.09-.63.4-.24.81-.46 1.23-.66.16-.08.31-.16.47-.23.8-.4 1.63-.75 2.46-1.06h.01c.51-.2 1.04-.38 1.56-.54.01-.01.02 0 .02 0 .27-.08.53-.16.8-.23.26-.08.52-.14.78-.21.01-.01.03-.01.04-.01 1.88-.46 3.79-.74 5.71-.8.28-.01.56-.01.83-.01.44 0 .88.01 1.33.03.5.03.99.07 1.48.12.32.03.64.07.95.12 1.22.17 2.43.41 3.63.71.24.06.48.13.71.19.79.21 1.58.45 2.36.71.37.12.73.25 1.09.38.11.03.21.07.31.11.73.26 1.45.54 2.16.83.82.33 1.63.67 2.44 1.03h.01c.4.18.8.35 1.2.54.4.18.81.36 1.21.55.38.17.75.34 1.12.51.44.21.87.41 1.3.61l.06.03c.08.04.21.1.38.18.05.02.11.05.17.07.27.13.54.26.82.39.24.11.49.23.74.34.08.04.16.08.24.11.4.18.92.42 1.43.42.19 0 .37-.04.55-.11.45-.19.73-.61.99-1.1l.02-.05s.07-.15.1-.21c.01-.01.02-.02.02-.03.13-.26.27-.53.41-.79.41-.78.87-1.54 1.37-2.28.16-.25.33-.49.51-.73.17-.24.35-.48.53-.72s.37-.47.55-.7.37-.46.58-.68c.18-.21.36-.41.55-.61.21-.24.44-.48.67-.71.21-.22.42-.43.64-.63.22-.21.44-.41.66-.61.22-.21.45-.41.68-.6.05-.05.1-.09.15-.13.41-.34.83-.67 1.26-1 .22-.16.44-.32.66-.48.58-.42 1.19-.82 1.81-1.19.25-.16.51-.31.77-.46.56-.32 1.14-.62 1.72-.9.25-.13.5-.25.76-.36.28-.13.56-.25.85-.37.56-.24 1.14-.46 1.72-.66.29-.1.58-.2.87-.29.27-.09.53-.17.8-.24z" fill="#939baa"/><path d="m484.99 160.36c10.02 0 19.67-3.08 27.01-8.57v15.92c-.13.03-.26.07-.39.11-.27.07-.53.15-.8.24-.29.09-.58.19-.87.29-.58.2-1.16.42-1.72.66-.29.12-.57.24-.85.37-.26.11-.51.23-.76.36-.58.28-1.16.58-1.72.9-.26.15-.52.3-.77.46-.62.37-1.23.77-1.81 1.19-.22.16-.44.32-.66.48-.43.32-.85.65-1.26 1-.05.04-.1.08-.15.13-.23.19-.46.39-.68.6-.23.19-.45.39-.66.61-.22.2-.43.41-.64.63-.23.23-.46.47-.67.71-.2.2-.38.4-.55.61-.21.22-.4.45-.58.68-.2.23-.38.46-.55.7-.18.24-.36.48-.53.72-.18.24-.35.48-.51.73-.51.74-.97 1.5-1.37 2.28-.15.25-.28.51-.41.77 0 0-.01.02-.02.05-.03.06-.1.21-.1.21l-.02.05-.8 1.75-2.12-.93c-.02-.01-.03-.02-.05-.03-.08-.03-.16-.07-.24-.11-.25-.11-.5-.23-.74-.34-.28-.13-.55-.26-.82-.39-.06-.02-.12-.05-.17-.07-.13-.06-.26-.12-.38-.18-.02-.01-.04-.02-.06-.03-.43-.2-.86-.4-1.3-.61-.37-.17-.74-.34-1.12-.51-.4-.19-.8-.37-1.21-.55-.4-.19-.8-.36-1.2-.54h-.01c-.81-.36-1.62-.71-2.44-1.03-.72-.3-1.43-.57-2.16-.83-.1-.04-.2-.08-.31-.11-.36-.13-.72-.26-1.09-.38-.78-.26-1.57-.5-2.36-.71-.23-.06-.47-.13-.71-.19-1.2-.3-2.41-.54-3.63-.71-.31-.05-.63-.09-.95-.12-.49-.05-.98-.09-1.48-.12-.46-.03-.91-.04-1.37-.04-.26 0-.53 0-.79.02-1.92.05-3.83.32-5.71.8-.01 0-.03 0-.04.01-.26.06-.52.13-.78.21-.27.07-.53.15-.8.23 0 0-.01-.01-.02 0-.52.16-1.05.34-1.56.54-.01 0-.01 0-.01 0-.83.31-1.66.66-2.46 1.06-.16.07-.32.15-.47.23-.42.2-.83.42-1.23.66-.37.2-.73.41-1.09.63-.26.16-.52.32-.77.5-.21.13-.43.28-.63.43-.27.18-.53.37-.79.56-.16.12-.31.24-.47.36-.25.2-.5.4-.75.61-.22.17-.43.36-.64.55-.21.18-.42.37-.63.56s-.41.39-.61.59c-.41.41-.81.83-1.19 1.26-.18.18-.34.37-.5.56-.38.44-.74.89-1.09 1.36-.25.33-.49.67-.72 1.02-.13.18-.25.36-.37.55-.18.26-.35.53-.51.81-.17.27-.33.54-.49.82-.21.37-.41.75-.61 1.13-.57 1.14-1.09 2.31-1.53 3.51-.21.57-.4 1.15-.58 1.74-.1.33-.2.66-.28 1-.02.03-.02.06-.03.1-.1.35-.18.7-.26 1.06-.06.25-.12.51-.17.77-.08.37-.15.74-.21 1.12-.06.35-.12.7-.16 1.06-.02.11-.04.23-.05.36-.05.33-.08.66-.11.99-.02.13-.03.26-.04.39-.02.25-.04.49-.05.74-.02.26-.03.53-.04.79-.02.43-.03.87-.03 1.3 0 .62.02 1.24.05 1.87.01.04.01.08.01.12.02.33.04.66.08.99.02.34.06.67.1 1 .05.43.11.86.18 1.29s.14.86.23 1.29c.06.31.13.62.2.93l.08.33c.03.13.06.25.08.38.01.04.02.09.03.13.07.31.14.62.18.92.04.2.07.39.08.58.03.22.04.44.04.66 0 .13 0 .26-.01.38-.02.22-.05.44-.1.65-.02.11-.05.22-.09.33-.06.16-.12.32-.2.48-.07.14-.15.28-.24.42-.01.02-.03.04-.04.06-.09.13-.18.26-.28.38-.12.14-.24.28-.37.41-.13.14-.27.27-.42.39-.14.13-.3.25-.46.38-.14.11-.29.22-.44.32-.21.16-.42.3-.63.44-1.06.7-2.19 1.4-3.29 2.08l-.31.19c-.01.01-.03.02-.04.03-.77.47-1.56.96-2.33 1.45-2.28 1.44-4.51 2.99-6.45 4.86-.19.18-.37.36-.54.54-.18.19-.36.37-.53.56-.23.25-.45.51-.67.77-.43.52-.83 1.07-1.21 1.63-.19.28-.38.57-.55.86-.54.86-1 1.76-1.4 2.69v.01c-.14.31-.27.62-.38.94-.13.31-.24.63-.34.95-.11.32-.21.64-.3.97-.01 0-.01 0 0 .01-.15.54-.29 1.09-.39 1.65-.05.19-.08.38-.11.57-.09.5-.16 1-.21 1.51-.02.18-.04.35-.05.53-.02.18-.03.36-.04.54-.01.1-.01.2-.01.29-.01.31-.02.61-.02.91 0 .27 0 .54.02.8 0 .21.01.41.03.61.01.24.03.47.05.7.02.24.05.48.08.71.04.35.1.71.17 1.06.01.05.02.1.03.15 0 .02 0 .04.01.06 0 .02.01.04.01.06.05.27.11.55.18.81 0 .02.01.03.01.05.04.19.09.37.14.56v.01c.09.34.19.69.29 1.03.07.23.14.46.23.69.06.2.13.39.2.59.01.03.02.06.03.09.11.27.21.54.33.81.07.17.13.33.2.49.03.08.07.15.1.23s.07.16.11.24c.07.15.14.3.21.45.14.3.29.59.44.88.14.25.28.51.42.76.177.313.37.615.559.919.254.397.512.79.781 1.171.01.016.017.028.026.042.019.027.037.054.057.081.301.424.618.831.937 1.227.03.03.05.06.08.1.33.39.67.78 1.01 1.14.11.12.22.24.33.36.1.11.22.23.33.34l.01.01 2.43 2.55-5.99.27-.45.02-12.24.55c-.08 0-.17.01-.26.01-.17 0-.33.01-.5.03-.13.01-.26.03-.39.05-.36.06-.7.16-1.03.34-.28.16-.52.36-.72.59-.05.06-.1.12-.14.18-.19.26-.35.56-.46.88-.04.1-.07.21-.11.32-.04.16-.08.32-.11.48-.02.1-.04.2-.06.3-.03.18-.05.36-.07.55-.04.47-.06.94-.06 1.4-.01.97-.02 1.95-.05 2.92-.01.36-.02.71-.03 1.07-.04 1.58-.11 3.14-.2 4.7-.04.78-.1 1.55-.15 2.32-.82 11.58-2.79 22.65-5.87 33.03l-.53 1.76-.87-.18-.11-.02-.82-.17c-.13-.03-.25-.06-.38-.09-1.14-.24-2.28-.5-3.42-.77-.27-.06-.54-.13-.8-.19-1.63-.4-3.26-.83-4.87-1.3-.6-.17-1.2-.35-1.8-.53-4.36-1.31-8.65-2.84-12.85-4.59-1-.42-2-.85-3-1.29-.57-.26-1.14-.52-1.71-.78l-2.37-1.09c-.35-.14-.94-.37-.94-.37-.01-.03-.02-.05-.01-.08l-.14-1.08c-.36-2.77-.69-5.52-.99-8.24-.02-.06-.02-.13-.02-.19 0-.04-.01-.07-.01-.11-.28-2.49-.53-5.03-.76-7.6-.02-.11-.03-.23-.03-.34-.17-1.97-.34-3.93-.49-5.86s-.28-3.85-.41-5.73c-.08-1.19-.15-2.39-.22-3.61-.04-.61-.07-1.21-.11-1.83-.18-3.3-.34-6.69-.48-10.18-.04-.9-.07-1.8-.1-2.72-.03-.81-.05-1.62-.08-2.42-.1-3.33-.19-6.77-.26-10.32-.01-.33-.02-.66-.03-.99-.01-.05-.01-.1-.01-.15-.01-.22-.03-.45-.06-.69 0-.01 0-.01 0-.02-.02-.21-.05-.41-.08-.62-.1-.68-.25-1.35-.5-1.95-.06-.16-.13-.31-.2-.46-.03-.07-.07-.14-.11-.21s-.09-.15-.13-.21c-.08-.14-.17-.28-.28-.4.01-.01 0-.01 0-.01-.1-.13-.2-.25-.32-.36-.06-.06-.12-.12-.18-.17-.06-.06-.13-.11-.2-.16-.04-.03-.08-.06-.12-.09-.09-.07-.2-.13-.3-.19-.54-.3-1.15-.46-1.76-.54-.08-.01-.16-.02-.24-.03-.1-.01-.21-.02-.31-.02-.21-.01-.41-.03-.61-.03-.21-.01-.41-.01-.59-.01h-.03c-2.62-.02-5.24-.03-7.87-.03-1.04 0-2.09 0-3.13.01-1.3 0-2.59.01-3.89.02-2 .01-4 .03-6 .06-.67.01-1.35.02-2.03.03l-2.9.04c-.18.01-.35.01-.52.01l-1.3.02 2.91-3.1c.31-.31.6-.64.88-.97.22-.25.42-.51.62-.78.19-.25.37-.52.55-.79.06-.09.11-.18.18-.27.18-.29.36-.59.52-.9.19-.34.37-.69.52-1.05.51-1.08.9-2.22 1.18-3.43.15-.61.27-1.23.35-1.86.03-.21.06-.42.08-.64.05-.41.09-.83.11-1.25v-.08c.03-.42.04-.84.04-1.27v-.18c0-.48-.02-.95-.05-1.42-.01-.38-.04-.76-.08-1.14v-.06c-.03-.34-.07-.68-.12-1.02-.03-.3-.07-.59-.12-.89-.04-.27-.08-.53-.13-.8-.07-.43-.15-.87-.25-1.3-.06-.33-.13-.66-.21-.99-.06-.28-.13-.56-.2-.83-.09-.35-.18-.69-.27-1.03-.75-2.78-1.74-5.5-2.76-8.19l-.77-2.05 3.4.56c.11.01.22.03.33.05.42.07.84.13 1.27.2 1.69.27 3.4.52 5.12.73.44.05.87.11 1.3.15.9.11 1.8.2 2.7.27 1.38.12 2.78.21 4.19.25.71.03 1.43.04 2.15.04h.09c.57 0 1.14-.01 1.71-.02 1.06-.03 2.09-.09 3.1-.17h.01c.52-.05 1.03-.1 1.54-.16 1.25-.14 2.47-.33 3.66-.57.62-.12 1.23-.26 1.83-.4.35-.09.7-.18 1.04-.27 4.81-1.3 9.06-3.38 12.52-6.16.25-.2.49-.4.73-.6.35-.28.69-.58 1.02-.91.1-.09.2-.19.3-.28.14-.14.28-.27.41-.41.07-.06.13-.13.18-.19.31-.3.59-.61.87-.92.01-.01.01-.01.02-.02.33-.39.66-.78.97-1.18.37-.47.73-.97 1.08-1.48.52-.76 1.01-1.57 1.47-2.42.62-1.13 1.19-2.35 1.72-3.67.13-.32.26-.65.39-1 .19-.5.38-1.02.56-1.56s.35-1.08.52-1.65c.34-1.14.66-2.33.96-3.58.06-.24.12-.49.18-.74.05-.22.11-.44.18-.66.06-.22.13-.44.21-.65.06-.18.12-.35.19-.52.14-.33.3-.66.49-.96.09-.15.2-.3.31-.44v-.01c.07-.09.15-.18.23-.26.08-.09.16-.17.25-.24.09-.08.18-.15.27-.22.1-.07.2-.14.3-.2.15-.09.3-.16.46-.22.48-.19 1.01-.29 1.61-.29.49 0 1 .07 1.49.17.12.02.24.05.36.08.72.17 1.39.4 1.96.59.39.13.77.26 1.14.37.31.1.62.2.92.29.4.12.79.23 1.17.33.26.07.52.14.77.21.47.12.96.24 1.45.34.27.05.53.11.79.16.44.09.88.16 1.3.23.1.01.19.02.28.04.7.1 1.43.18 2.16.23.05 0 .1.01.14.01.14.01.27.02.42.02.37.02.74.03 1.1.03h.03c2.15 0 4.11-.29 5.96-.89.27-.08.54-.17.8-.27.75-.28 1.47-.61 2.15-.99.23-.12.45-.25.68-.39.53-.33 1.04-.67 1.53-1.04.75-.56 1.45-1.17 2.11-1.82 1.16-1.14 2.18-2.39 3.08-3.7.61-.88 1.16-1.78 1.67-2.69.28-.51.54-1.02.8-1.53.26-.5.49-1.01.71-1.51.33-.75.64-1.49.91-2.21.3-.78.57-1.57.83-2.36.11-.35.22-.7.33-1.05.21-.66.4-1.33.57-1.99 1.72-6.47 2.27-13.24 1.59-19.89l-.48-4.67-.07-.68 3.44 3.25c.16.15.32.29.47.45.68.64 1.33 1.3 2 1.98.26.28.52.55.78.82l.78.81c8.47 8.76 17.27 15.26 26.3 19.42.86.4 1.72.78 2.58 1.13.87.36 1.73.69 2.6 1 1.14.41 2.28.79 3.43 1.12.76.23 1.53.44 2.29.62 1.15.29 2.3.54 3.46.75 2.92.54 5.9.81 8.87.81z" fill="#5b5d6d"/><path d="m512 49.65v102.19c-7.29 5.43-16.9 8.53-26.95 8.53-2.99 0-6-.27-8.93-.81-1.15-.22-2.31-.46-3.46-.76-.76-.18-1.53-.39-2.29-.62-1.15-.33-2.29-.71-3.43-1.12-.87-.31-1.73-.64-2.6-1-.86-.35-1.72-.73-2.58-1.13-9.03-4.16-17.83-10.66-26.3-19.42l-.78-.81c-.26-.27-.52-.54-.78-.82-.65-.67-1.31-1.34-2-1.98-.15-.16-.31-.3-.47-.45-1.05-.95-2.15-1.83-3.37-2.57-.07-.06-.15-.1-.23-.15 1.55 8.11 1.24 16.69-.88 24.71-.18.67-.37 1.33-.57 1.99-.11.35-.22.7-.33 1.05-.26.79-.53 1.58-.83 2.36-.27.72-.58 1.46-.91 2.21-.23.5-.46 1.01-.71 1.51-.26.51-.52 1.02-.8 1.53-.51.91-1.06 1.81-1.67 2.69-.9 1.31-1.92 2.56-3.08 3.7-.66.65-1.36 1.26-2.11 1.82-.49.37-1 .71-1.53 1.04-.22.13-.45.26-.68.39-.68.37-1.4.7-2.16.98-.26.1-.52.19-.79.28-1.85.6-3.81.89-5.96.89h-.03c-.36 0-.73-.01-1.1-.03-.15 0-.28-.01-.42-.02-.04 0-.09-.01-.14-.01-.7-.05-1.42-.12-2.16-.23-.09-.02-.18-.03-.28-.04-.42-.07-.86-.14-1.3-.23-.26-.05-.52-.11-.79-.16-.47-.11-.95-.22-1.45-.34-.25-.07-.51-.14-.77-.21-.38-.1-.77-.21-1.17-.33-.3-.09-.61-.19-.92-.29-.37-.11-.75-.24-1.14-.37-.57-.19-1.24-.42-1.96-.59-.12-.03-.24-.06-.36-.08-.49-.1-1-.17-1.49-.17-.6 0-1.13.1-1.61.29-.16.07-.31.14-.46.23-.11.06-.21.12-.3.19s-.18.14-.27.22c-.09.07-.17.15-.25.24-.08.08-.16.17-.23.26v.01c-.11.14-.22.29-.31.44-.19.3-.35.63-.49.96-.07.17-.13.34-.19.52-.08.21-.15.43-.21.65-.07.22-.13.44-.18.66-.06.25-.12.5-.18.74-.3 1.25-.62 2.44-.96 3.58-.17.57-.34 1.11-.52 1.65s-.37 1.06-.56 1.56c-.13.35-.26.68-.39 1-.53 1.32-1.1 2.54-1.72 3.67-.46.85-.95 1.66-1.47 2.42-.34.51-.7 1.01-1.07 1.48-.31.4-.64.79-.98 1.18-.01.01-.01.01-.02.02-.28.31-.56.62-.87.92-.05.06-.11.13-.18.19-.13.14-.27.27-.41.41-.1.09-.2.19-.3.28-.33.31-.67.61-1.02.91-.24.2-.48.4-.73.6-3.48 2.73-7.75 4.84-12.52 6.16-.34.09-.69.18-1.04.27-.6.14-1.21.28-1.83.4-1.2.25-2.42.44-3.66.58-.51.06-1.02.11-1.54.15 0 0 0 0-.01 0-1.01.08-2.04.14-3.1.17-.57.01-1.14.02-1.71.02h-.09c-.72 0-1.44-.01-2.15-.04-1.41-.04-2.81-.13-4.19-.25-.9-.07-1.8-.16-2.7-.27-.43-.04-.86-.1-1.3-.15-1.72-.21-3.43-.46-5.12-.73-.43-.07-.85-.13-1.27-.2-.11-.02-.22-.04-.33-.05-1.16-.2-2.3-.39-3.43-.59.27.69.53 1.39.8 2.08 1.02 2.69 2.01 5.41 2.76 8.19.09.34.18.68.27 1.03.07.27.14.55.2.83.08.33.15.66.21.99.1.43.18.87.25 1.3.05.27.09.53.13.8.05.3.09.59.12.89.05.34.09.68.12 1.02v.06c.04.38.07.76.08 1.14.03.47.05.94.05 1.42v.18c0 .43-.01.85-.04 1.27v.08c-.02.42-.06.84-.11 1.25-.02.22-.05.43-.08.64-.09.63-.21 1.25-.35 1.86-.29 1.21-.68 2.35-1.18 3.43-.16.36-.34.71-.52 1.05-.17.31-.34.61-.52.9-.07.09-.12.18-.18.27-.18.27-.36.54-.55.79-.2.27-.4.53-.62.78-.28.33-.57.66-.88.97-1.08 1.08-2.33 2.01-3.72 2.77l-.49.37c-.46 0-.92.01-1.38.03-1.5.02-2.99.06-4.49.11-.83.02-1.66.04-2.51.07-1.36.04-2.72.08-4.07.13-1.38.05-2.79.1-4.23.16l-.76.03-.01-.01-.57-.47c-.96-.78-1.75-1.62-2.42-2.5l-.03-.04c-.33-.44-.63-.89-.91-1.35-.09-.15-.17-.3-.25-.45-.16-.27-.3-.55-.44-.83-.09-.19-.18-.37-.26-.55-.09-.19-.17-.37-.25-.56s-.16-.37-.23-.56c-.15-.38-.29-.76-.43-1.14-.12-.36-.25-.72-.37-1.08-.16-.53-.33-1.06-.49-1.58-.08-.27-.16-.53-.24-.8-.08-.28-.17-.56-.25-.83-.02-.09-.05-.17-.08-.26-.27-.91-.56-1.83-.89-2.74-.15-.43-.31-.86-.49-1.29-.01-.03-.02-.05-.03-.08-.34-.83-.72-1.65-1.17-2.46-.01-.01-.01-.02-.01-.03-.23-.4-.47-.81-.73-1.21 0-.01 0-.01 0-.01-.26-.41-.54-.81-.84-1.21-.01 0-.01-.01-.01-.01-.65-.85-1.25-1.72-1.82-2.6-.17-.26-.33-.52-.49-.78-.39-.63-.77-1.27-1.11-1.92-.2-.36-.39-.73-.57-1.09-.22-.44-.43-.88-.63-1.31-.18-.37-.34-.74-.49-1.11-.14-.32-.26-.64-.38-.96-.25-.63-.48-1.26-.68-1.9-.18-.57-.35-1.15-.5-1.72-.07-.26-.14-.52-.2-.77-.05-.24-.11-.48-.15-.71-.07-.31-.13-.62-.18-.93-.06-.31-.11-.62-.16-.93-.03-.22-.06-.44-.09-.65-.01-.06-.01-.11-.02-.16-.04-.36-.08-.72-.11-1.07-.03-.38-.05-.76-.07-1.14-.01-.2-.01-.39-.01-.58-.03-.64-.02-1.27.02-1.9.02-.44.05-.88.1-1.31 0-.01 0-.01 0-.01.08-.87.22-1.73.4-2.58.23-1.07.53-2.15.92-3.22.1-.26.2-.53.3-.8.21-.53.44-1.07.68-1.6.12-.27.25-.53.38-.8.76-1.52 1.67-3.04 2.73-4.55.2-.29.41-.58.63-.88.67-.91 1.41-1.82 2.2-2.73.3-.35.61-.69.92-1.03.19-.2.38-.41.58-.61.24-.26.48-.51.73-.75.35-.36.71-.71 1.07-1.04.45-.44.91-.86 1.38-1.27.39-.34.77-.67 1.17-.99.37-.32.75-.62 1.14-.92.07-.06.14-.11.21-.16.41-.32.82-.62 1.23-.92.38-.28.76-.55 1.15-.81.35-.24.7-.47 1.05-.7.27-.17.54-.35.82-.52.36-.23.72-.45 1.09-.66.93-.55 1.88-1.07 2.84-1.56.58-.29 1.16-.58 1.76-.85.34-.16.69-.32 1.03-.46 1.07-.48 2.16-.91 3.26-1.31.43-.16.87-.31 1.31-.46.87-.29 1.74-.56 2.63-.8.89-.25 1.79-.47 2.69-.67.43-.1.86-.19 1.3-.27.02 0 .05-.01.08-.01.9-.18 1.8-.33 2.71-.45.45-.07.91-.12 1.37-.17.95-.11 1.91-.19 2.87-.23.41-.03.82-.05 1.23-.06.48-.01.97-.02 1.46-.02h.02.04c.75 0 1.5.02 2.24.06l.25.01c.72.04 1.45.09 2.16.16-.18-1.09-.32-2.18-.41-3.28-.01-.01-.01-.02 0-.04-.05-.53-.08-1.06-.11-1.6v-.05c0-.01 0-.01 0-.02-.06-1.45-.04-2.91.06-4.36.53-8.03 3.4-15.99 8.15-22.8.32-.46.64-.91.98-1.35.18-.25.38-.51.58-.76.26-.34.53-.67.8-.99.27-.33.55-.65.83-.97s.56-.64.85-.95c0 0 0 0 0-.01.3-.31.59-.62.89-.92.32-.33.65-.66.99-.98.23-.23.47-.45.71-.67.36-.34.73-.67 1.1-.99.33-.28.66-.56.99-.83 9.16-7.46 21.22-11.57 33.96-11.57 3.41 0 6.83.3 10.23.91.96.17 2.04.36 3.09.36h.01c.25 0 .49-.01.73-.04.23-.02.46-.06.67-.1.14-.03.27-.07.41-.11.52-.17.98-.42 1.37-.76.1-.09.2-.18.29-.28.04-.05.08-.09.12-.14.08-.09.16-.19.23-.29.09-.13.18-.27.26-.41.09-.16.17-.32.25-.49s.16-.34.22-.51c.14-.35.27-.72.39-1.09 0-.01 0-.01 0-.02l.43-1.3.07-.21v-.01l.25-.78c.13-.4.26-.79.39-1.19s.26-.8.39-1.2c.29-.89.59-1.79.9-2.68.16-.44.31-.89.48-1.33.39-1.09.81-2.17 1.26-3.23.14-.33.28-.66.43-.99.33-.76.69-1.52 1.07-2.26.24-.46.48-.92.74-1.38.19-.34.39-.68.59-1.01.6-1 1.25-1.97 1.97-2.91.18-.23.36-.46.56-.69v-.01c.56-.69 1.16-1.35 1.8-1.98.62-.65 1.29-1.26 1.99-1.85.23-.19.47-.39.71-.58.27-.22.55-.43.83-.64.01.01.01.01.01 0 1-.75 2.05-1.44 3.15-2.07.27-.16.55-.31.83-.47.56-.3 1.13-.59 1.71-.87 1.46-.69 2.97-1.29 4.53-1.79.88-.29 1.77-.54 2.67-.76.71-.18 1.43-.33 2.16-.47.99-.19 2-.34 3.01-.45 1.02-.12 2.05-.19 3.09-.23.25-.01.5-.02.75-.01.12-.01.25-.01.38-.01h.38c.55 0 1.1.01 1.66.03 2.22.08 4.48.32 6.78.72.57.1 1.15.21 1.73.33.46.09.92.19 1.38.3.03.01.05.01.08.02.21.04.42.09.63.15.3.07.6.14.9.23.3.07.61.16.91.24.45.12.9.25 1.35.39.27.08.55.17.82.26.04.01.08.02.12.04.41.13.83.26 1.25.41.55.19 1.11.38 1.66.59 1.67.61 3.35 1.31 5.05 2.08.28.13.57.25.85.39.28.13.57.26.85.4l.66.32.22.1c.41.2.82.41 1.23.62.16-.61.34-1.22.54-1.83l.12-.38c.02-.06.04-.12.07-.18.1-.33.22-.66.35-.99.01-.05.02-.09.05-.14.1-.28.21-.56.33-.84.1-.27.21-.55.34-.82.12-.28.25-.55.37-.83.88-1.9 1.92-3.75 3.09-5.5.31-.45.62-.9.94-1.34.38-.53.79-1.06 1.21-1.57.19-.25.4-.5.61-.74.63-.73 1.28-1.44 1.95-2.13.23-.23.46-.45.69-.68.23-.22.46-.44.7-.66.21-.2.43-.39.65-.58.03-.03.07-.06.1-.09.02-.02.04-.04.06-.06.21-.18.42-.36.63-.53.24-.21.49-.41.74-.61.15-.12.29-.23.44-.34.36-.28.72-.55 1.09-.81 0 0 0-.01.01-.01.18-.13.36-.26.55-.38.34-.24.68-.46 1.03-.68.15-.11.31-.2.46-.29.39-.24.78-.48 1.17-.7.36-.2.72-.4 1.09-.59.37-.2.74-.38 1.11-.56s.75-.36 1.13-.53c.01 0 .01-.01.02-.01.37-.16.75-.32 1.13-.47 1.15-.47 2.33-.88 3.53-1.24 3.61-1.05 7.42-1.6 11.28-1.6.42 0 .84.01 1.25.02z" fill="#939baa"/><path d="m0 0v295.69l117.5-60.57c.32-.17.65-.34.98-.5.66-.33 1.32-.66 1.99-.96 1.33-.59 2.74-1.09 4.2-1.33.37-.06.73-.1 1.11-.12.23-.02.46-.02.68-.02.3 0 .61.01.91.03h.05c.28.02.56.06.85.1.04 0 .09.01.14.02.41.07.83.15 1.23.25.21.05.42.11.62.17.33.09.66.19.99.3.39.13.77.27 1.15.43.79.31 1.6.67 2.42 1.05.04.02.09.04.14.06.37.17.74.35 1.1.52 1.42.68 2.86 1.38 4.29 2.07 4.3 2.08 8.61 4.19 12.84 6.25l1.72.85c3.32 1.62 6.65 3.24 9.99 4.86 11.17 5.43 22.47 10.83 33.93 15.91 3.39 1.5 6.79 2.98 10.2 4.41 4.29 1.81 8.6 3.57 12.94 5.24 2.72 1.07 5.45 2.09 8.19 3.09 2.27.82 4.55 1.63 6.84 2.41 3.54 1.21 7.1 2.36 10.68 3.45 2.35.71 4.7 1.4 7.07 2.06.13.04.27.08.42.12 2.29.64 4.6 1.24 6.91 1.81 1.21.31 2.42.6 3.63.88l2.15.5.29-2.19c.15-1.09.28-2.17.41-3.23.12-1.06.24-2.11.35-3.15.21-1.98.39-3.92.52-5.82.05-.64.09-1.26.13-1.89.03-.43.06-.85.08-1.27.08-1.41.14-2.8.18-4.17.01-.03.01-.04 0-.06.01-.02.01-.03 0-.05.01-.01.01-.01 0-.02.08-2.83.09-5.57 0-8.23-.01-.45-.03-.91-.05-1.36-.01-.39-.03-.78-.05-1.16-.06-1.29-.15-2.55-.25-3.8-.09-.99-.18-1.98-.29-2.96s-.24-1.95-.37-2.92c-.01-.06-.01-.11-.02-.17 0-.04-.01-.08-.01-.11-.02-.17-.04-.33-.06-.48-.03-.37-.05-.76-.01-1.13.02-.15.04-.3.07-.45.07-.31.2-.59.38-.85.06-.1.13-.18.21-.26 0-.01 0-.01.01-.01l.1-.1c.06-.06.13-.12.2-.16.07-.05.14-.1.21-.14.15-.09.3-.16.46-.23.08-.04.17-.07.25-.09.07-.03.14-.05.22-.06.07-.03.15-.05.23-.06.14-.04.28-.07.44-.09.19-.04.37-.06.55-.08.19-.02.39-.04.59-.05 2.31-.17 4.62-.33 6.94-.47.31-.02.62-.04.94-.06.91-.06 1.83-.11 2.74-.17 1.09-.07 2.19-.14 3.29-.19 1.59-.1 3.18-.19 4.78-.27 2.08-.12 4.16-.22 6.26-.31 1.22-.05 2.44-.11 3.66-.16.06-.01.12-.01.19-.01.2-.02.4-.03.61-.03.99-.05 1.99-.09 2.99-.12l-2.28-3.04c-.33-.44-.63-.89-.91-1.35-.09-.15-.17-.3-.25-.45-.16-.27-.3-.55-.44-.83-.09-.19-.18-.37-.26-.55-.09-.19-.17-.37-.25-.56s-.16-.37-.23-.56c-.15-.38-.29-.76-.43-1.14-.12-.36-.25-.72-.37-1.08-.16-.53-.33-1.06-.49-1.58-.07-.26-.15-.53-.23-.79-.08-.28-.17-.56-.26-.84-.02-.09-.05-.17-.08-.26-.27-.91-.56-1.83-.89-2.74-.16-.43-.32-.86-.49-1.29-.01-.03-.02-.05-.03-.08-.34-.82-.73-1.64-1.17-2.46-.01-.01-.01-.02-.01-.03-.23-.4-.47-.81-.73-1.21 0-.01 0-.01 0-.01-.26-.41-.54-.81-.84-1.21-.01 0-.01-.01-.01-.01-.65-.85-1.25-1.72-1.82-2.6-.17-.26-.33-.52-.49-.78-.39-.63-.77-1.27-1.11-1.92-.2-.36-.39-.73-.57-1.09-.23-.44-.44-.87-.63-1.31-.18-.37-.34-.74-.49-1.11-.14-.32-.26-.64-.38-.96-.25-.63-.48-1.26-.68-1.9-.18-.57-.35-1.15-.5-1.72-.07-.26-.14-.52-.2-.77-.05-.24-.11-.48-.15-.71-.07-.31-.13-.62-.18-.93-.06-.31-.11-.62-.16-.93-.03-.22-.06-.44-.09-.65-.01-.06-.01-.11-.02-.16-.04-.36-.08-.72-.11-1.07-.03-.38-.05-.76-.07-1.14-.01-.2-.01-.39-.01-.58-.02-.64-.01-1.27.02-1.9.02-.44.05-.88.1-1.31 0-.01 0-.01 0-.01.1-.87.23-1.73.41-2.58.23-1.08.53-2.15.91-3.22.1-.26.2-.53.3-.8.21-.53.44-1.07.68-1.6.12-.27.25-.53.38-.8.76-1.52 1.67-3.04 2.73-4.55.2-.29.41-.58.63-.88.67-.91 1.41-1.82 2.2-2.73.3-.35.61-.69.92-1.03.19-.2.38-.41.58-.61.24-.26.48-.51.73-.75.35-.36.71-.71 1.07-1.04.45-.44.91-.86 1.38-1.27.39-.34.77-.67 1.17-.99.37-.32.75-.62 1.14-.92.07-.06.14-.11.21-.16.41-.32.82-.62 1.23-.92.38-.28.76-.55 1.15-.81.35-.24.7-.47 1.05-.7.27-.17.54-.35.82-.52.36-.23.72-.45 1.09-.66.93-.55 1.88-1.07 2.84-1.56.58-.29 1.16-.58 1.76-.85.34-.16.69-.32 1.03-.46 1.07-.48 2.16-.91 3.26-1.31.43-.16.87-.31 1.31-.46.87-.29 1.74-.56 2.63-.8.89-.25 1.79-.47 2.69-.67.43-.1.86-.19 1.3-.27.02 0 .05-.01.08-.01.9-.18 1.8-.33 2.71-.45.45-.07.91-.12 1.37-.17.95-.11 1.91-.19 2.87-.23.41-.03.82-.05 1.23-.06.48-.01.97-.02 1.46-.02h.02.04c.75 0 1.5.02 2.24.06l.25.01 2.08.1-.25-2.32c-.03-.3-.06-.6-.08-.9-.01-.01-.01-.02 0-.04-.05-.53-.08-1.06-.11-1.6v-.05c0-.01 0-.01 0-.02-.06-1.45-.04-2.91.06-4.36.03-.47.07-.94.12-1.41 0-.03.01-.05.01-.08v-.05c.05-.48.11-.96.18-1.44v-.05c.07-.49.14-.98.23-1.47-.01-.01-.01-.01 0-.01.08-.49.18-.99.29-1.48.4-1.99.95-3.95 1.66-5.87.17-.48.35-.96.54-1.43.18-.48.38-.95.59-1.42.16-.39.33-.77.52-1.15.02-.04.04-.07.06-.11s.04-.09.06-.13c-.01-.01-.01-.01 0-.01 0 0 .01-.01.01-.02.2-.45.42-.89.65-1.32.01-.02.02-.03.03-.05.23-.45.48-.91.73-1.36s.51-.9.78-1.34c.26-.44.54-.88.82-1.31.28-.44.57-.87.87-1.29.32-.46.64-.91.98-1.35.18-.25.38-.51.58-.76.25-.33.52-.67.8-.99.27-.33.54-.65.83-.97.28-.32.56-.64.85-.95 0 0 0 0 0-.01.29-.32.59-.63.89-.92.32-.33.65-.66.99-.98.23-.23.47-.45.71-.67.36-.34.73-.67 1.1-.99.33-.28.66-.56.99-.83 9.16-7.46 21.22-11.57 33.96-11.57 3.41 0 6.83.3 10.23.91.96.17 2.04.36 3.09.36h.01c.25 0 .49-.01.73-.04.23-.02.46-.06.67-.1.14-.03.27-.07.41-.11.52-.17.98-.42 1.37-.76.1-.09.2-.18.29-.28.04-.05.08-.09.12-.14.08-.09.16-.19.23-.29.09-.13.18-.27.26-.41.09-.16.17-.32.25-.49s.16-.34.22-.51c.14-.35.27-.72.39-1.09 0-.01 0-.01 0-.02l.43-1.3.07-.21v-.01l.26-.79c.12-.39.25-.78.38-1.18s.26-.8.39-1.2c.29-.89.59-1.79.9-2.68.16-.44.31-.89.48-1.33.39-1.09.81-2.17 1.26-3.23.14-.33.28-.66.43-.99.33-.76.69-1.52 1.07-2.26.24-.46.48-.92.74-1.38.19-.34.39-.68.59-1.01.61-1 1.27-1.96 1.98-2.9.18-.23.36-.47.55-.7v-.01c.57-.68 1.17-1.34 1.8-1.98.64-.64 1.3-1.26 1.99-1.85.23-.19.47-.39.71-.58.27-.22.55-.43.83-.64.01.01.01.01.01 0 1-.74 2.05-1.43 3.15-2.07.27-.16.55-.31.83-.47.56-.3 1.13-.59 1.71-.87 1.46-.69 2.97-1.29 4.53-1.79.88-.29 1.77-.54 2.67-.76.71-.18 1.43-.33 2.16-.47.99-.19 2-.34 3.01-.45 1.02-.12 2.05-.19 3.09-.23.25-.01.5-.02.75-.01.12-.01.25-.01.38-.01.12-.01.25-.01.38-.01.55 0 1.11.01 1.66.04 2.22.07 4.48.31 6.78.72.57.09 1.15.2 1.73.33.46.09.92.19 1.38.3.03.01.05.01.08.02.21.04.42.09.63.15.3.07.6.14.9.23.3.07.61.16.91.24.45.12.9.25 1.35.39.27.08.55.17.82.26.04.01.08.02.12.04.41.13.83.26 1.25.41.55.19 1.11.38 1.66.59 1.67.61 3.35 1.31 5.05 2.08.28.13.57.25.85.39.28.13.57.26.85.4l.66.32.22.1 1.17.57.6-1.78.12-.38c.02-.06.04-.12.07-.18.1-.33.22-.66.35-.99.01-.05.02-.09.05-.14.1-.28.21-.56.33-.84.1-.27.21-.55.34-.82.11-.28.23-.56.37-.83.86-1.91 1.9-3.76 3.09-5.5.29-.46.61-.9.94-1.34.38-.53.79-1.06 1.21-1.57.19-.25.4-.5.61-.74.61-.74 1.27-1.45 1.95-2.13.23-.24.46-.47.69-.68.23-.24.46-.45.7-.66.21-.21.42-.4.65-.58.03-.03.07-.06.1-.09.02-.02.04-.04.06-.06.21-.19.42-.37.63-.53.24-.21.49-.41.74-.61.15-.12.29-.23.44-.34.36-.28.72-.55 1.09-.81 0 0 0-.01.01-.01.18-.13.36-.26.55-.38.34-.24.68-.46 1.03-.68.15-.11.31-.2.46-.29.39-.24.78-.48 1.17-.7.36-.2.72-.4 1.09-.59.37-.2.74-.38 1.11-.56s.75-.36 1.13-.53c.01 0 .01-.01.02-.01.37-.17.75-.32 1.13-.47 1.15-.48 2.33-.89 3.53-1.24 3.62-1.09 7.4-1.64 11.21-1.64.42 0 .84.01 1.24.02h.08v-49.61zm23.89 183.17c.13-.13.25-.25.37-.36.41-.39.83-.76 1.25-1.12.42-.37.85-.72 1.29-1.06.51-.4 1.02-.78 1.54-1.16.38-.28.77-.55 1.17-.8.46-.32.93-.62 1.41-.9.47-.3.95-.58 1.44-.84.97-.55 1.96-1.05 2.98-1.5.51-.24 1.02-.46 1.54-.66.48-.2.95-.39 1.44-.56 2.18-.79 4.43-1.41 6.72-1.83l2.74-.51-1.12-2.02c-.08-.13-.16-.27-.23-.41-.32-.58-.6-1.18-.84-1.8-.48-1.24-.8-2.56-.97-3.92-.04-.34-.07-.68-.09-1.02-.1-1.69.04-3.41.44-5.1.13-.56.29-1.12.47-1.68.19-.55.4-1.11.63-1.66.19-.47.41-.93.65-1.38.08-.16.16-.31.24-.46.16-.3.33-.61.51-.91.18-.31.37-.61.56-.91.12-.19.25-.38.38-.57.21-.31.43-.61.65-.91.25-.34.51-.67.78-1 .13-.16.26-.32.4-.48.13-.16.27-.32.41-.47.14-.16.28-.31.43-.47.58-.63 1.2-1.24 1.85-1.85.19-.17.37-.34.56-.51.19-.18.37-.34.57-.5.28-.25.58-.49.88-.72.05-.05.1-.09.15-.11.15-.11.29-.23.44-.34.14-.12.29-.23.44-.33.32-.24.64-.47.97-.69.01-.02.03-.03.05-.04.21-.15.43-.3.65-.43.07-.06.15-.11.24-.15.34-.23.69-.45 1.05-.65.42-.25.85-.5 1.29-.72.38-.21.77-.41 1.16-.59.15-.08.3-.15.44-.21.34-.16.69-.32 1.03-.46.45-.19.9-.37 1.35-.53.45-.18.91-.33 1.36-.47.33-.12.66-.21 1-.3.01-.01.03-.02.04-.01.15-.05.31-.09.46-.13.41-.11.83-.21 1.24-.3s.8-.17 1.21-.24c.12-.03.24-.05.35-.06.4-.07.81-.13 1.21-.17.46-.06.92-.1 1.38-.13.36-.03.72-.04 1.08-.05.1-.01.2-.01.3-.01h.37c3.33 0 6.64.65 9.67 1.87.19.07.38.14.56.23.31.13.62.27.93.42.1.04.2.09.3.15.29.14.58.29.87.45.15.08.3.16.44.25.05.02.1.05.16.09.29.16.58.34.87.53.34.22.68.44 1.01.68.14.1.28.2.42.31l3.54 2.52-.75-4.35-.08-.45c-.04-.26-.09-.51-.12-.77-.03-.18-.06-.36-.08-.54-.05-.38-.1-.77-.13-1.15-.01-.02-.01-.02 0-.03-.01-.01-.02-.01 0-.02-.03-.25-.06-.5-.07-.75-.02 0-.01-.01-.01-.01-.01-.02-.01-.04 0-.06-.04-.43-.07-.85-.09-1.28-.03-.54-.04-1.08-.04-1.61v-.08c0-.48.01-.96.03-1.43.02-.51.05-1.01.09-1.51.03-.45.08-.91.13-1.36.04-.38.09-.75.15-1.12.07-.48.15-.95.24-1.43.02-.13.04-.25.07-.37.05-.27.1-.54.16-.8.12-.53.25-1.06.4-1.58.07-.26.14-.51.21-.76s.15-.5.23-.75c.14-.43.28-.86.43-1.28.04-.12.08-.24.13-.35.17-.45.35-.9.53-1.34.09-.22.19-.44.29-.66-.01-.01 0-.02 0-.02 0-.03.02-.06.04-.08.06-.16.13-.32.21-.47-.01-.01 0-.01.01-.02.08-.17.16-.34.24-.51.21-.44.43-.89.67-1.32.08-.14.16-.28.23-.42.4-.73.83-1.45 1.29-2.15 0-.01.01-.04.03-.05 0-.02.02-.04.04-.06.14-.22.28-.43.43-.65.01-.02.02-.04.04-.06.25-.39.52-.77.8-1.14.35-.46.71-.93 1.08-1.38s.75-.89 1.14-1.33c.39-.43.79-.86 1.2-1.27.68-.69 1.38-1.35 2.11-1.97.24-.22.49-.43.74-.63.03-.03.07-.06.11-.09.23-.19.46-.37.69-.55.07-.06.14-.11.21-.16.1-.08.19-.15.29-.22.03-.03.07-.06.11-.08.3-.23.6-.45.91-.66.14-.1.28-.19.42-.29.4-.28.82-.54 1.24-.8.5-.31 1-.6 1.5-.89.51-.28 1.04-.55 1.56-.81.53-.26 1.06-.51 1.6-.74 5.14-2.22 11.14-3.39 17.82-3.45h.55c.51 0 1.01.01 1.51.03 1.51.03 2.98.14 4.4.31.36.04.72.09 1.08.14.58.08 1.15.18 1.71.28.24.04.48.09.71.14.12.02.24.04.35.07.24.05.47.1.7.16 1.1.25 2.16.55 3.19.89.73.24 1.45.51 2.14.8.52.22 1.03.45 1.53.69.25.12.5.24.74.37.25.13.49.26.73.39 6.09 3.38 11.39 9.35 15.31 17.27.47.95.92 1.92 1.34 2.9s.81 1.97 1.18 2.97c.19.5.37 1.01.54 1.51.08.25.17.51.25.76.21.63.4 1.27.59 1.92.11.38.22.77.32 1.16.11.38.21.77.3 1.17.21.83.4 1.67.57 2.52.09.46.18.92.26 1.39.05.23.09.46.12.69.04.23.08.46.11.7.07.47.14.93.2 1.39.06.47.12.93.17 1.39.05.47.09.93.13 1.39.08.93.14 1.86.17 2.79.01.39.03.79.04 1.18.03 1.32.01 2.64-.05 3.96-.02.54-.05 1.08-.08 1.63-.03.54-.07 1.08-.11 1.62-.08 1.08-.19 2.16-.31 3.24-.11 1.03-.24 2.05-.39 3.07-.31 2.25-.68 4.49-1.08 6.71-.14.8-.28 1.59-.43 2.38-.12.69-.25 1.38-.37 2.06l-.17.92 2.81-.47 1.29-.21c1.34-.22 2.7-.43 4.08-.64.43-.07.87-.13 1.3-.19 1.47-.21 2.97-.41 4.47-.58.95-.11 1.9-.21 2.86-.3.31-.03.62-.06.93-.08l1.08-.09c2.16-.16 4.34-.26 6.5-.26.73 0 1.44.01 2.15.04.7.01 1.39.04 2.07.09.58.04 1.15.07 1.71.13.05 0 .1 0 .15.01.68.06 1.35.13 2.01.21.56.07 1.12.15 1.67.24.21.03.42.06.63.1.02 0 .05 0 .07.01.07 0 .15.02.22.04.38.06.73.12 1.09.2.09.01.18.03.27.05.27.05.53.1.79.17.25.04.5.1.74.16.09.02.17.04.25.06.28.07.55.13.82.21.06.01.12.02.18.05.26.06.53.13.79.21.33.09.65.19.96.28 2.67.82 5.04 1.84 7.09 3.07.23.13.45.27.67.41s.44.28.65.43c.12.08.24.16.36.25.12.08.23.17.34.25.79.58 1.53 1.2 2.2 1.86.38.38.75.77 1.09 1.17.09.1.17.21.26.31s.17.21.25.32.16.22.24.32c.02.01.02.01.02.02.23.29.43.59.63.9.29.44.55.88.78 1.34.13.24.25.47.36.71.1.2.19.4.27.6.12.28.23.56.32.84.06.16.12.32.17.48.06.17.11.34.15.51.09.32.17.64.23.96.03.09.04.19.06.28.01.02.01.05.01.07.02.09.04.19.05.28.2 1.19.23 2.38.1 3.55-.03.26-.07.52-.12.77-.01.07-.02.15-.04.22-.01.05-.02.09-.03.13-.05.23-.11.46-.18.68 0 .01 0 .02-.01.04-.08.26-.17.51-.28.75v.01c-.11.25-.23.49-.37.72-.13.23-.27.45-.43.65-.15.2-.32.39-.49.56-.14.13-.27.25-.41.36-.15.11-.29.21-.44.31-.1.06-.21.12-.32.18-.18.09-.37.17-.55.23-.19.07-.38.13-.58.17-.2.05-.39.09-.59.12-.2.04-.39.06-.59.08-.27.03-.54.05-.81.06-.21.02-.41.02-.6.03-1.34.06-2.7.11-4.08.17-.33.01-.67.02-1 .04-1.21.05-2.44.1-3.69.15-2.02.09-4.08.17-6.16.25-1.17.05-2.35.09-3.54.14-1.9.08-3.81.15-5.75.23-.22.01-.44.02-.67.02-2.5.1-5.01.2-7.53.29-2.09.08-4.18.16-6.27.23-1.66.06-3.32.11-4.98.17-5.83.2-11.41.38-16.78.54-.02.01-.03.01-.05 0-2.29.07-4.53.13-6.75.19-1.48.04-2.95.07-4.4.11-1.46.04-2.9.07-4.32.1-1.25.03-2.49.05-3.71.08-.88.02-1.75.03-2.61.05-1.38.03-2.75.05-4.1.07-2.05.04-4.06.07-6.04.09-1.32.02-2.63.03-3.92.05-5.21.05-10.24.08-15.15.08-3.89 0-7.72-.02-11.52-.05-1.48-.01-2.98-.03-4.49-.05s-3.04-.05-4.59-.08c-1.55-.02-3.11-.06-4.7-.09-2.46-.06-4.98-.12-7.56-.2-1.55-.04-3.12-.09-4.71-.14-.17 0-.34-.01-.52-.02-1.02-.03-2.05-.07-3.08-.1-.51-.01-1.03-.03-1.55-.05-2.61-.1-5.28-.2-8-.31-.4-.01-.8-.03-1.21-.04-.12 0-.24-.01-.37-.01-.48-.02-.95-.03-1.43-.04-1.8-.05-3.61-.07-5.37-.1l-1.04-.02c-1.37-.02-2.76-.03-4.14-.06-.61-.01-1.22-.02-1.83-.04-1.66-.04-3.34-.09-5.01-.18-.74-.04-1.48-.08-2.21-.13-.57-.04-1.14-.08-1.7-.13-.91-.07-1.81-.16-2.72-.26-1.36-.16-2.72-.34-4.07-.56-.16-.02-.32-.05-.48-.08-.15-.02-.3-.05-.45-.08-.3-.06-.58-.13-.85-.2-.17-.04-.34-.09-.52-.15-.16-.05-.31-.1-.46-.15-.1-.04-.21-.08-.31-.12-.11-.04-.22-.09-.33-.14-.32-.14-.63-.3-.91-.48-.13-.08-.26-.16-.38-.26-.24-.18-.46-.38-.66-.6-.1-.12-.2-.24-.28-.36-.09-.12-.17-.25-.24-.38-.08-.13-.14-.27-.2-.42-.4-1.03-.3-2.07.05-3.05.1-.26.21-.52.35-.77.08-.14.15-.28.24-.42.06-.11.13-.22.2-.32.08-.13.17-.25.24-.37.16-.23.33-.45.52-.65.31-.38.63-.72.93-1.01zm167.19-116.22c0-.03.01-.05.02-.07.08-.27.15-.54.24-.81-.01-.01 0-.02 0-.02.07-.26.14-.51.24-.77.01-.04.02-.09.04-.13 0-.03.02-.06.03-.09 0-.01 0-.01.01-.02.07-.22.14-.43.22-.64-.01-.01-.01-.01 0-.02.13-.39.27-.77.42-1.16.39-1.03.8-2.03 1.23-2.99.07-.17.14-.33.21-.49.19-.42.38-.82.57-1.22.23-.5.47-.98.72-1.46.18-.35.36-.69.54-1.03.09-.17.18-.33.27-.5.09-.16.18-.33.28-.49.2-.35.4-.7.61-1.04.2-.34.41-.68.63-1.01.21-.33.42-.65.63-.96.22-.32.44-.63.66-.94.19-.28.39-.55.6-.81.2-.27.41-.53.61-.79.05-.06.09-.11.14-.17.23-.28.46-.56.7-.83.21-.24.42-.48.64-.72.26-.29.52-.57.8-.84.19-.2.39-.4.59-.59s.4-.38.6-.56c.66-.61 1.34-1.18 2.03-1.7.24-.18.48-.35.73-.53.24-.18.49-.34.73-.5.25-.16.5-.32.75-.47.37-.23.75-.45 1.14-.66s.77-.4 1.17-.59c.71-.34 1.41-.65 2.12-.95 0-.01.01 0 .01 0 .53-.22 1.06-.43 1.59-.63.26-.1.53-.2.8-.29.26-.1.52-.19.79-.27.49-.16.97-.31 1.46-.45s.98-.27 1.46-.39c.49-.12.98-.23 1.46-.33.66-.14 1.33-.26 1.99-.36.04-.01.08-.01.12-.02.64-.09 1.26-.17 1.9-.23.31-.03.62-.05.94-.07.1-.01.2-.02.29-.02.67-.04 1.35-.06 2.02-.06 5.26 0 10.23 1.21 14.78 3.6.47.25.93.51 1.39.78s.91.55 1.35.85c.39.26.78.53 1.16.8.48.35.95.71 1.41 1.1.29.24.58.48.87.73.03.02.06.05.09.08.28.24.55.49.82.75.14.13.29.27.43.41.35.34.7.69 1.04 1.05.35.36.68.74 1 1.11.22.26.44.52.66.79.29.35.56.7.83 1.06.24.31.47.63.7.96.32.45.62.91.91 1.37s.57.92.84 1.39c.01.02.02.03.02.04.14.24.28.48.41.73.29.53.56 1.07.82 1.61.14.3.28.61.42.91.21.46.4.94.59 1.41.13.33.26.65.37.98.26.73.5 1.47.71 2.21.11.38.21.75.3 1.13.11.45.22.89.31 1.34.1.45.18.91.25 1.36.1.58.18 1.16.24 1.74.02.09.03.19.03.28.08.68.13 1.36.15 2.04.02.43.03.86.03 1.29v.18c-.01 1.56-.13 3.1-.36 4.64-.1.69-.22 1.38-.37 2.06-.09.42-.18.83-.28 1.24s-.21.82-.33 1.23c-.21.74-.45 1.48-.71 2.2-.26.73-.55 1.46-.86 2.17-.31.7-.64 1.4-.99 2.09-.22.43-.45.86-.69 1.28-.29.53-.6 1.05-.93 1.55-.12.21-.25.41-.39.61-.17.27-.35.54-.54.8-.12.19-.25.37-.39.55-.14.19-.27.37-.41.55-.25.33-.5.66-.77.99-.18.22-.36.45-.55.67-.44.52-.89 1.03-1.37 1.53-.27.28-.54.55-.82.83-1.11 1.1-2.29 2.12-3.53 3.06-.62.47-1.26.92-1.91 1.34-.65.43-1.32.84-2.01 1.22-.43.24-.87.47-1.31.69-.36.18-.72.35-1.08.52-.4.19-.81.37-1.23.54-.21.08-.41.17-.62.25-.21.09-.42.17-.63.24-.27.1-.54.2-.81.29-.44.16-.89.3-1.34.43s-.9.26-1.36.38c-.09.03-.17.05-.25.07-.2.05-.4.1-.6.14-.06.02-.12.03-.18.04-2.08.47-4.21.77-6.37.89-.37.02-.73.03-1.09.04-.32.01-.65.01-.97.01-.3 0-.6 0-.89-.01-.3-.01-.6-.02-.9-.03-.44-.02-.89-.05-1.33-.08-.49-.04-.99-.09-1.48-.15-.03 0-.07-.01-.11-.01-.46-.06-.92-.13-1.37-.2-.32-.05-.65-.11-.97-.17-.45-.08-.89-.17-1.33-.27-.59-.13-1.17-.27-1.74-.44-.48-.13-.95-.27-1.42-.42-.49-.15-.97-.32-1.45-.5-.32-.11-.64-.23-.95-.36-.53-.2-1.05-.43-1.56-.67-.38-.16-.76-.34-1.13-.53-.43-.21-.85-.43-1.27-.66h-.01c-.43-.24-.85-.48-1.27-.74-.42-.24-.84-.5-1.24-.78-3.3-2.17-6.08-4.8-8.22-7.76-.27-.37-.53-.75-.79-1.13-.51-.74-.96-1.49-1.37-2.27-.19-.36-.37-.72-.54-1.08-.08-.17-.16-.34-.24-.52-.02-.02-.03-.04-.03-.06-.11-.22-.21-.43-.29-.66-.19-.45-.36-.9-.52-1.35-.03-.07-.05-.15-.07-.22-.22-.65-.42-1.31-.59-1.98-.02-.08-.04-.16-.06-.25-.06-.21-.1-.42-.15-.63-.02-.08-.04-.17-.05-.26-.05-.25-.1-.49-.14-.74-.05-.24-.09-.48-.12-.72-.05-.26-.08-.53-.11-.79-.02-.14-.04-.27-.05-.4-.03-.28-.06-.55-.08-.83s-.04-.56-.05-.84c-.02-.24-.03-.49-.03-.73-.02-.34-.02-.69-.02-1.03 0-.37.01-.76.03-1.14-.01-.07 0-.13.01-.2.01-.13.01-.27.02-.4-.01-.04 0-.09.01-.14.02-.41.05-.83.09-1.24.05-.54.11-1.08.19-1.62.08-.55.17-1.1.28-1.65.11-.54.22-1.09.36-1.64.09-.42.2-.82.32-1.23z" fill="#5b5d6d"/><path d="m503.47 403.99-.97-1.22-.05-.07c-.21-.26-.43-.52-.64-.79s-.42-.53-.63-.8c-.54-.68-1.08-1.38-1.61-2.08-.11-.14-.22-.29-.32-.44-.15-.21-.31-.41-.46-.61s-.31-.41-.45-.62c-.21-.29-.42-.58-.62-.88-.31-.43-.61-.87-.91-1.31-.11-.17-.23-.34-.34-.52-.21-.32-.43-.64-.63-.96-.19-.29-.38-.58-.57-.88-.19-.29-.39-.59-.57-.89-.29-.46-.57-.92-.85-1.38-.33-.55-.66-1.11-.98-1.67s-.64-1.13-.96-1.69c-.15-.29-.31-.58-.47-.86-.16-.29-.31-.58-.46-.87-.46-.87-.91-1.75-1.36-2.65 0 0 0 0 0-.01-.44-.89-.88-1.8-1.31-2.72-.56-1.2-1.1-2.42-1.63-3.66-.02-.05-.04-.11-.07-.16-.26-.61-.52-1.23-.77-1.86-.19-.46-.37-.93-.56-1.4-.46-1.18-.92-2.38-1.36-3.6-.22-.6-.43-1.2-.64-1.81-.25-.7-.49-1.41-.72-2.12-.24-.72-.48-1.44-.7-2.17-.24-.73-.46-1.46-.68-2.2-.23-.75-.45-1.51-.67-2.27-.21-.74-.43-1.5-.63-2.26-.21-.77-.42-1.54-.62-2.33-.19-.73-.38-1.46-.56-2.21-.11-.45-.22-.9-.33-1.35-.1-.4-.2-.81-.29-1.22-.09-.37-.17-.73-.25-1.1-.14-.59-.27-1.18-.4-1.78-.14-.62-.28-1.25-.41-1.88-.44-2.06-.85-4.16-1.25-6.31-.01-.05-.02-.11-.03-.16-.01-.04-.02-.09-.02-.13-.12-.65-.24-1.3-.35-1.96-.03-.11-.05-.23-.06-.35-.05-.24-.09-.49-.13-.74-.01-.03-.01-.07-.02-.1-.6-3.46-1.14-6.93-1.65-10.41-.17-1.15-.34-2.31-.5-3.47-.17-1.15-.33-2.3-.48-3.45-.32-2.33-.63-4.65-.93-6.96-.14-1.1-.29-2.2-.43-3.29l-.03-.21c-.01-.1-.03-.22-.04-.35-.03-.2-.06-.43-.09-.69-.04-.26-.08-.55-.11-.85-.07-.51-.14-1.06-.21-1.62-.03-.23-.06-.45-.09-.68-.1-.74-.19-1.45-.27-2.05-.02-.16-.04-.32-.06-.48-.09-.68-.15-1.12-.15-1.12l-2.05.21c-2.13.22-4.33.4-6.63.54-1.9.12-3.86.21-5.89.26-.43.01-.87.02-1.31.03-.83.03-1.68.04-2.54.04-.8.02-1.61.02-2.44.02-1.75 0-3.5-.02-5.25-.05-3.37-.06-6.69-.16-9.86-.27-1.41-.05-2.82-.1-4.21-.15-.14-.01-.29-.01-.43-.02-1.62-.06-3.25-.12-4.9-.17-1.64-.06-3.29-.11-4.95-.15-2.9-.08-5.81-.13-8.72-.15-.42-.01-.84-.01-1.25-.01-1.13 0-2.23.01-3.29.03-1.07.01-2.11.03-3.14.06l-.77.02-1.63.05-.28 1.6c-2.32 13.08-6.26 25.17-11.75 36.06-.31.63-.63 1.24-.95 1.85-.08.17-.17.33-.26.5-.08.17-.17.33-.26.48-.08.15-.16.3-.24.45-.32.59-.64 1.18-.97 1.75l-.56.98c-.29.51-.58 1.02-.87 1.53-.28.5-.58 1-.87 1.5-.19.33-.38.65-.58.97-.19.32-.38.64-.58.96-.16.26-.33.52-.49.77-.21.33-.43.66-.65.98-.16.23-.32.46-.48.69-.22.32-.46.64-.7.96-.16.22-.33.44-.5.65-.2.25-.4.5-.61.74-.08.11-.17.22-.27.32-.09.11-.19.22-.28.32-.21.25-.44.49-.67.73-.13.14-.26.28-.4.42-.22.22-.44.44-.67.65-.15.15-.32.29-.48.44-.14.14-.28.26-.43.38-.14.12-.28.24-.43.37-.3.24-.61.48-.92.72l-1.14.87c.01.04.02.09.04.13.13.41.26.82.41 1.23.43 1.29.87 2.58 1.31 3.85.44 1.23.88 2.45 1.32 3.67.03.08.06.16.09.23.92 2.47 1.88 4.91 2.87 7.32.5 1.22 1.01 2.42 1.53 3.62.01.04.03.08.05.12.49 1.12.98 2.23 1.49 3.33.04.1.08.2.13.29.51 1.12 1.04 2.24 1.57 3.34.53 1.12 1.08 2.23 1.63 3.33.05.11.11.22.16.32.54 1.08 1.09 2.14 1.65 3.19.45.85.9 1.69 1.37 2.53.33.61.66 1.21.99 1.8.1.17.19.34.29.51.76 1.34 1.53 2.66 2.32 3.97.43.71.86 1.42 1.29 2.12.85 1.4 1.74 2.79 2.65 4.15.45.68.91 1.36 1.36 2.03.71 1.08 1.46 2.15 2.22 3.2l.6.85c.2.28.41.56.61.84l.11.19.42.77.13.02 1.05.17c1.06.17 2.12.34 3.09.48.05.02.1.03.15.05l.45.15.42-.04c3.69-.34 7.41-.7 11.15-1.05 3.74-.36 7.5-.73 11.28-1.11 2.52-.26 5.05-.52 7.59-.78 1.44-.15 2.9-.3 4.35-.46 4.36-.47 8.74-.96 13.12-1.48 1.46-.18 2.93-.35 4.39-.53.39-.05.77-.09 1.16-.14 1.56-.19 3.11-.39 4.67-.59 3.89-.5 7.77-1.02 11.66-1.57 1.94-.28 3.89-.56 5.83-.85 1.32-.19 2.65-.4 3.98-.61 1.13-.17 2.26-.34 3.39-.53.45-.07.89-.14 1.33-.21 1.04-.16 2.07-.33 3.11-.51 1.56-.26 3.12-.52 4.68-.8.38-.06.76-.12 1.14-.19l.78-.14 2.54-.44zm-94.26-51.23c.06-.3.12-.6.19-.9.02-.14.06-.27.1-.4 0-.03.01-.07.02-.1.05-.21.11-.41.17-.62l.01-.01c.13-.43.27-.85.43-1.27.17-.44.36-.88.55-1.3.17-.37.35-.73.55-1.08.17-.32.35-.63.53-.93.15-.24.3-.48.46-.72.18-.28.37-.55.57-.82.24-.33.49-.66.74-.97.19-.24.39-.48.6-.72.28-.31.55-.61.83-.91.27-.29.56-.58.86-.86.19-.19.39-.37.58-.54.19-.18.38-.35.58-.51.48-.42.96-.81 1.44-1.18.21-.17.43-.33.65-.49.03-.03.06-.05.09-.07.23-.17.46-.33.69-.49.22-.16.44-.31.66-.45.22-.15.44-.3.66-.43.28-.19.56-.37.85-.54.13-.08.26-.15.38-.23l.09-.05c.21-.12.42-.24.63-.35.62-.34 1.23-.64 1.82-.9.2-.1.39-.18.59-.26.31-.12.61-.23.91-.34l.54-.18c.23-.07.45-.13.67-.19.2-.06.4-.11.6-.15.2-.05.41-.09.61-.13s.4-.07.6-.1c.41-.06.82-.11 1.23-.13.17-.02.34-.03.52-.03.12-.01.24-.01.37-.01.12-.01.25-.01.37-.01.26 0 .52.01.79.02.3.01.61.03.92.06.2.01.4.03.6.06.27.03.55.07.83.11.27.03.55.07.83.12.25.05.5.09.77.15.37.07.75.15 1.15.24.29.06.59.14.87.22.69.18 1.36.39 2.01.63.11.04.22.08.33.12s.21.08.31.12c.27.1.53.21.79.33.34.14.68.3 1.01.46.48.24.95.48 1.4.75.02.01.04.02.04.03.31.18.62.37.92.56.26.17.51.34.76.52.2.14.4.29.6.44.35.25.68.52 1.01.81.16.13.31.26.46.4.19.17.38.34.57.53.25.24.49.48.73.73.17.19.35.38.52.58.15.16.29.33.42.5.05.05.1.11.14.17.15.18.29.36.42.54.16.21.31.42.46.63.33.47.64.95.92 1.44.29.49.55.99.8 1.51l.01.01c2.56 5.27 2.99 11.48 1.09 17.06-.11.32-.23.64-.35.96-.67 1.7-1.57 3.3-2.65 4.78-.25.37-.53.74-.84 1.09-.3.36-.61.71-.92 1.06-1.39 1.52-3 2.85-4.77 3.91-.39.24-.79.47-1.19.69-.33.17-.66.34-.99.5-.29.14-.58.27-.87.4-.04.02-.08.04-.12.05-.17.08-.34.14-.51.21-.64.25-1.29.47-1.95.66-.43.12-.87.23-1.31.32-1.57.33-3.21.5-4.88.5-.21 0-.42 0-.64-.01-.21.01-.42 0-.64-.02-.1-.01-.2-.02-.29-.02-.06.01-.12 0-.19-.01-.27-.01-.53-.04-.81-.07-.12-.01-.24-.02-.36-.04-.39-.04-.78-.1-1.17-.16-.02 0-.03 0-.05-.01-.46-.07-.92-.16-1.37-.26-.38-.08-.76-.18-1.14-.28-.23-.06-.47-.13-.7-.2-.24-.07-.49-.15-.73-.23-.36-.11-.72-.24-1.07-.38-.35-.13-.7-.27-1.04-.42-.34-.14-.68-.3-1.02-.47-.33-.16-.66-.33-.98-.5-.62-.33-1.22-.68-1.81-1.07-.25-.16-.5-.33-.74-.5-.44-.31-.88-.64-1.3-.98-.04-.03-.07-.06-.11-.1-.37-.3-.73-.61-1.08-.94-.15-.13-.3-.28-.44-.42-.18-.16-.34-.33-.5-.5-.08-.08-.16-.17-.24-.26-.09-.08-.17-.17-.24-.26-.2-.21-.39-.43-.57-.65-.2-.23-.39-.46-.57-.7-.22-.28-.42-.56-.62-.84-.13-.18-.25-.36-.36-.55-.05-.07-.09-.14-.14-.22-.12-.19-.24-.38-.35-.58-.09-.14-.17-.29-.25-.43-.18-.32-.35-.66-.51-.99-.13-.24-.24-.48-.34-.72-1.69-3.77-2.22-7.91-1.5-11.82z" fill="#d8deec"/><path d="m449.065 300.397c-6.75 0-13.556-.254-19.56-.478-6.474-.232-13.168-.473-19.811-.473-2.271 0-4.374.027-6.431.083l-2.387.065.354-2.361c1.171-7.797 1.799-15.99 1.868-24.35.011-1.853.224-3.865 1.728-4.701.649-.35 1.369-.406 2.177-.44l53.947-2.38c.199-.009.449-.021.702-.021.63 0 1.357.057 1.973.477.707.479 1.129 1.317 1.453 2.89 2.15 10.003 3.615 20.049 4.763 28.555l.276 2.043-2.05.214c-5.666.589-11.882.877-19.002.877z" fill="#ff8984"/><path d="m433.075 378.377c-1.835 0-3.69-.203-5.514-.604-6.122-1.348-11.55-4.885-14.894-9.703-3.533-5.083-4.671-11.728-2.971-17.34 2.089-6.912 7.853-11.576 12.321-14.273l.477-.288h.02c3.351-1.944 6.202-2.78 9.438-2.78 1.722 0 3.593.241 5.89.759 5.72 1.312 10.608 4.532 13.771 9.067 4.169 5.97 5.14 14.208 2.47 20.987-2.678 6.781-9.01 12.147-16.132 13.672-1.569.334-3.207.503-4.876.503z" fill="#ff8984"/><path d="m446.03 512h-61.4c-.95-1.27-2.17-2.51-3.66-3.72-.22-.17-.44-.34-.66-.52-.71-.56-1.47-1.11-2.29-1.66-.86-.57-1.74-1.12-2.65-1.67-.3-.18-.6-.36-.91-.54-.91-.53-1.85-1.04-2.81-1.55-.57-.3-1.15-.59-1.73-.88-.59-.3-1.19-.58-1.8-.87-1.22-.58-2.48-1.13-3.78-1.68-.84-.35-1.7-.7-2.58-1.04-.77-.31-1.55-.61-2.35-.9-1.1-.41-2.23-.81-3.4-1.22-.65-.22-1.31-.44-1.98-.66-.97-.32-1.94-.63-2.92-.94-.73-.22-1.46-.45-2.19-.67-3.72-1.11-7.48-2.13-11.26-3.09-1.79-.44-3.58-.88-5.38-1.3-.05-.01-.1-.02-.15-.04-1.78-.42-3.57-.82-5.35-1.21-.02-.01-.05-.01-.07-.02-1.81-.4-3.62-.79-5.42-1.17-3.66-.78-7.31-1.53-10.93-2.26l-.35-.07c-2.7-.55-5.41-1.11-8.14-1.67-1.81-.38-3.63-.77-5.45-1.16-1.83-.39-3.65-.79-5.48-1.21-.91-.2-1.82-.41-2.73-.63-1.8-.41-3.6-.85-5.4-1.3-2.31-.58-4.61-1.18-6.9-1.82-.76-.21-1.51-.42-2.26-.64-.22-.06-.43-.12-.64-.18-.93-.27-1.86-.55-2.78-.84-1.23-.37-2.45-.75-3.66-1.15-.56-.18-1.12-.37-1.68-.56-.57-.19-1.13-.39-1.7-.59-.5-.18-1.01-.36-1.51-.54-.82-.31-1.65-.62-2.48-.96-.73-.29-1.46-.6-2.19-.92-.57-.24-1.14-.49-1.7-.76-.36-.16-.71-.33-1.06-.5-.46-.22-.92-.45-1.38-.69-.35-.18-.7-.37-1.05-.56-.4-.22-.8-.44-1.2-.67-1.2-.68-2.37-1.41-3.5-2.2-.52-.37-1.04-.74-1.55-1.13-1.03-.77-2.02-1.6-2.97-2.48-.71-.67-1.4-1.36-2.06-2.08-.5-.55-.98-1.1-1.42-1.66-.15-.18-.3-.37-.43-.56-.5-.65-.96-1.32-1.39-2-.15-.25-.3-.49-.46-.74-2.07-3.44-3.21-6.99-3.63-10.37-.03-.25-.06-.51-.09-.76-.02-.21-.03-.41-.04-.61-.2-2.81.1-5.47.77-7.8.08-.28.17-.54.26-.81.02-.07.04-.14.07-.21.06-.17.12-.33.18-.49l.18-.45c.13-.31.26-.61.41-.9v-.35l.13-.14.01-.01.45-.47.55-.55.78-.04c.99-.04 1.99-.09 3.02-.15.18-.01.35-.02.53-.03 1.54-.07 3.07-.15 4.6-.24 1.55-.08 3.09-.17 4.62-.27 1.52-.1 3.09-.19 4.7-.3l1.89-.12v.02l.23 1.87c.03.26.07.52.12.77.01.17.04.33.07.49.05.27.11.54.18.81.08.4.19.8.31 1.2.07.25.15.5.24.74.01.05.03.1.05.15.08.24.17.48.27.72.1.27.21.54.33.8.11.27.23.53.37.79.01.05.03.09.06.13.05.12.11.25.18.37.41.81.88 1.61 1.41 2.39.45.68.95 1.35 1.49 2 .3.36.61.72.94 1.08.3.33.61.65.93.96.12.12.23.23.35.33.44.43.9.84 1.38 1.23.81.69 1.66 1.34 2.57 1.95.78.53 1.58 1.02 2.39 1.48.41.23.82.45 1.24.67.83.43 1.68.83 2.53 1.21.43.18.86.36 1.3.54.43.18.87.35 1.31.51.44.17.88.33 1.32.48 2.75.95 5.58 1.71 8.38 2.36.8.19 1.59.38 2.38.55.97.21 1.94.42 2.91.62 2.08.43 4.18.83 6.28 1.2 1.39.26 2.78.5 4.17.73.09.02.19.04.28.05 1.33.22 2.66.43 3.99.64.99.15 1.98.3 2.97.44.99.15 1.98.29 2.97.43 2.01.28 4.02.55 6.04.81 5.9.76 11.8 1.44 17.62 2.1.83.09 1.65.19 2.48.28 2.36.27 4.73.55 7.1.83 5.72.67 11.47 1.39 17.19 2.24 1.36.2 2.71.41 4.06.62.52.08 1.04.17 1.56.25.83.14 1.66.27 2.49.42 1.24.21 2.48.43 3.72.66s2.47.47 3.71.71c2.83.56 5.64 1.17 8.44 1.83.72.17 1.44.35 2.16.53 2.19.54 4.36 1.12 6.52 1.74 1.36.39 2.71.79 4.05 1.22.41.12.82.25 1.22.39.63.2 1.27.41 1.9.62.72.24 1.43.48 2.14.73 1.77.62 3.53 1.28 5.27 1.97.67.26 1.34.53 2 .81.78.32 1.55.65 2.32.98 1.26.55 2.48 1.1 3.65 1.66s2.3 1.13 3.39 1.7c2.17 1.15 4.18 2.33 6.04 3.54.7.46 1.38.93 2.04 1.4.33.23.65.47.97.71.33.24.64.48.95.72.4.31.78.62 1.16.93.41.34.82.69 1.22 1.04.38.34.75.67 1.12 1.02.73.68 1.42 1.38 2.09 2.09.31.34.62.67.91 1.02 1.18 1.34 2.25 2.73 3.19 4.16.18.26.35.52.51.79.29.44.56.9.81 1.35.15.25.28.5.42.75.99 1.82 1.79 3.69 2.4 5.58.2.58.38 1.16.52 1.74.03.08.05.16.07.24l.18.75c.03.12.06.23.07.35.06.25.11.49.16.74.02.08.03.15.04.22z" fill="#f7b36f"/><path d="m372.701 355.496c-2.16-6.918-4.062-14.076-5.653-21.274-1.619-7.282-3.041-15.141-4.227-23.356l-.527-3.649 3.346 1.548c9.108 4.213 18.681 7.396 28.454 9.458l2.187.462-.701 2.122c-2.551 7.725-5.724 14.951-9.43 21.48l-.559.987c-2.76 4.873-5.366 9.473-9.684 13.148l-2.304 1.961z" fill="#af7979"/><path d="m384.59 512h-384.59v-92c1.12.12 2.25.23 3.38.34 3.6.35 7.22.7 10.84 1.05 1.21.12 2.42.23 3.64.35 2.61.25 5.24.49 7.86.73l1.69.16-.2.85c-.19.76-.36 1.51-.52 2.25-.1.45-.21.91-.3 1.36-.37 1.71-.69 3.41-.98 5.09-.05.27-.1.55-.14.82-.15.89-.28 1.78-.41 2.66-.27 1.9-.47 4.27-.01 6.38.05.22.11.44.17.65.01.02.02.05.02.07.07.21.14.41.22.61.1.25.21.49.34.72.08.17.18.34.29.5.1.14.2.29.31.42.07.09.14.18.23.27.21.24.45.47.72.68.39.31.82.56 1.29.77.76.33 1.6.5 2.53.5 1.31 0 2.71-.33 4.06-.95.53-.23 1.04-.51 1.55-.83.26-.17.51-.34.75-.52.4-.29.79-.6 1.16-.92.25-.21.5-.44.74-.65.67-.61 1.29-1.22 1.87-1.8.52-.52 1.06-1.04 1.6-1.55l2.52-2.41.05.3.53 3.5c.05.33.11.64.19.94.04.18.09.36.14.54.03.13.06.25.11.37.07.22.15.44.25.65.05.14.12.27.19.4.13.25.27.5.44.73.1.15.21.29.33.42 0 .01 0 .01.01.01.12.14.24.27.39.39.03.04.06.07.09.09.15.14.32.27.5.39.17.11.34.21.52.3.15.07.3.14.45.2.11.04.23.08.35.11.12.04.24.07.36.09.37.08.75.12 1.14.12.18 0 .37-.01.55-.03.03 0 .06 0 .08-.01.18-.02.36-.05.54-.08.21-.039.421-.102.632-.161.146-.046.289-.099.438-.149.1-.038.2-.071.299-.106.137-.055.278-.1.411-.164.02 0 .04-.01.05-.02l2.48-1.06v3.03c0 1.92-.01 3.78-.02 5.6 0 .9-.01 1.8-.02 2.7-.01.89-.02 1.77-.03 2.63-.01 1.37-.03 2.72-.06 4.07-.03 2.02-.07 4-.12 5.93-.03.95.3 1.12.41 1.18.19.1.42.1.55.1h.26c.28 0 .55 0 .83-.01.09 0 .17 0 .26-.01.33 0 .66-.02.98-.04.05 0 .1 0 .16-.01.11 0 .23-.01.35-.02.33-.01.66-.04.99-.07.29-.02.58-.05.87-.09.01.01.03 0 .04 0 .23-.02.45-.04.67-.08 1.16-.15 2.32-.34 3.47-.6.26-.05.52-.11.77-.18.76-.17 1.52-.37 2.27-.6.42-.12.84-.26 1.26-.4.36-.11.67-.23.88-.48.24-.29.29-.69.32-.99.04-.36.07-.72.09-1.08.06-1.24 0-2.49-.11-3.74-.07-.78-.17-1.57-.29-2.37-.05-.42-.11-.83-.18-1.26-.01-.07-.02-.13-.03-.19-.04-.24-.07-.47-.11-.71l-.02-.14c-.09-.58-.19-1.18-.28-1.8-.08-.59-.16-1.18-.23-1.77-.1-.83-.17-1.67-.2-2.52-.03-.55-.04-1.09-.01-1.64v-.15c.02-.58.06-1.16.14-1.75v-.74l.16-.16c.01-.01.02-.02.02-.02l.41-.42c.54-.55 1-1.15 1.32-1.75.06-.11.12-.21.17-.32.33-.63.6-1.3.84-1.97l1.45-3.96 2.15 3.63c.02.03.04.07.06.1.18.29.37.58.58.85.12.18.25.35.38.51.51.6 1.08 1.1 1.69 1.5.62.41 1.28.71 1.94.88.11.02.22.05.34.07.14.03.29.05.43.07.18.02.36.03.53.03.24 0 .48-.02.7-.05.21-.03.43-.08.63-.14.2-.05.39-.12.57-.2.16-.07.31-.14.46-.23.06-.03.13-.07.19-.1.01-.01.02-.02.03-.02.14-.08.27-.17.4-.27.3-.22.58-.48.84-.76.09-.09.18-.2.27-.3.36-.41.69-.88.98-1.37.09-.15.18-.31.27-.48.03-.05.06-.11.09-.16l1.44-2.63 1.72 2.33c.02.03.04.05.06.08.11.16.23.32.36.47.18.24.38.47.61.69.13.13.26.26.4.38.13.13.28.25.43.36.13.1.27.2.42.3.02.01.04.02.05.03.16.1.33.2.5.29.09.05.18.09.28.13.09.05.19.09.29.12.06.03.13.05.2.07.13.05.26.08.39.12.28.07.56.12.85.14.14.01.29.02.43.02h.15c.16-.01.32-.02.48-.04.12-.01.24-.03.36-.06.14-.03.27-.06.41-.1.16-.05.32-.11.47-.17.1-.04.2-.08.29-.13.88-.42 1.65-1.08 2.3-1.89.16-.18.29-.36.4-.53 0-.01 0-.01.01-.01.05-.07.1-.15.15-.22l1.46-2.24 1.55 1.81c.19.24.4.48.63.69.01.02.02.03.04.04.27.27.57.52.89.75.09.07.19.14.29.2.15.1.31.2.48.29.18.11.37.21.57.3.61.28 1.27.5 1.93.61.17.03.33.05.5.07.05.01.11.01.16.01.18.01.36.02.54.02.17 0 .35-.01.52-.02.18-.01.36-.03.54-.05.35-.05.72-.12 1.09-.22l.25-.06c.01 0 .02 0 .03-.01l2.38-.62-.36 6.04-.03.48-.33 5.58c-.12 1.97-.25 4.12 0 6.22.02.16.04.33.07.49.02.17.05.33.08.49.01.11.04.23.06.34.05.22.09.43.15.64.05.21.11.43.18.64 0 .04.02.08.03.12.01.02.02.05.03.08l.07.21c.09.19.21.41.39.57.29.25.7.33.95.37.54.1 1.09.18 1.64.23.18.02.36.04.54.04.17.02.35.03.52.04.29.01.59.02.88.02 1.13 0 2.27-.1 3.41-.29.19-.03.37-.07.54-.11.1-.02.19-.05.28-.07.11-.03.21-.06.31-.1.07-.02.15-.06.22-.09.09-.04.17-.08.25-.13.15-.08.28-.17.4-.28.1-.09.19-.19.28-.29.04-.05.09-.11.12-.17.07-.09.13-.18.18-.27.14-.23.24-.48.34-.73.11-.29.21-.58.3-.87.07-.22.13-.44.18-.66.03-.08.05-.16.06-.24.14-.61.24-1.22.32-1.84.076-.633.118-1.269.145-1.902.004-.09.008-.179.011-.269.021-.617.029-1.23.024-1.829 0-.44-.01-.87-.01-1.31v-.04l-.14-10.1h.01l1.55-.06h.05l.33-.02c.45-.02.89-.1 1.34-.22 1.33-.38 2.64-1.25 3.68-2.47.71-.84 1.29-1.79 1.78-2.76l1.17-2.13 1.61 2.09c.15.22.32.43.49.64.07.09.15.18.23.27.17.2.36.4.55.6.15.16.31.32.48.46.16.16.33.3.5.44 1.04.86 2.22 1.59 3.53 2.14.56.24 1.13.44 1.71.6.26.08.52.15.79.2.29.07.58.12.87.17.68.11 1.37.16 2.06.16 1.76 0 3.42-.35 4.93-1.04 1.57-.72 2.81-1.71 3.6-2.85.07-.1.13-.2.19-.3.06-.09.12-.19.17-.29.06-.1.11-.21.16-.31.04-.1.09-.2.13-.31.04-.1.08-.21.11-.31.01-.01.01-.03.01-.04.03-.07.05-.14.07-.21.03-.14.07-.28.09-.42.04-.21.07-.43.08-.65.02-.21.03-.42.03-.64 0-.85-.12-1.7-.23-2.49-.28-1.96-.55-3.93-.83-5.91l1.57.15c1.16.11 2.33.22 3.51.32.85.08 1.71.15 2.57.22 1.02.09 2.04.17 3.07.24.7.05 1.41.11 2.11.15.66.05 1.33.09 1.99.13 2.03.13 4.11.25 6.23.35l1.61.08h.06c1 .05 2.01.1 3.03.14 1.93.08 3.88.14 5.85.19.68.02 1.36.04 2.05.05.47.01.95.02 1.43.03 1.68.03 3.39.06 5.12.08 1.83.02 3.68.03 5.55.03 1.23 0 2.47 0 3.72-.02h.08c1.29 0 2.58-.02 3.9-.04h.74c.44-.01.87-.02 1.31-.02l3.21-.07c1.21-.03 2.43-.05 3.64-.09.98-.02 1.96-.05 2.94-.08.46-.01.92-.03 1.38-.05.96-.03 1.92-.06 2.88-.1 1.23-.05 2.48-.1 3.74-.15l1.96-.07c.37-.02.73-.03 1.1-.05l-.39 1-.01.01-.13.34-.41 1.05-.18.45c-.06.16-.12.32-.18.49-.03.07-.05.14-.07.21-.09.27-.18.53-.26.81-.74 2.46-.99 5.11-.77 7.8.01.2.02.4.04.61.06.54.13 1.08.22 1.63.55 3.24 1.73 6.48 3.5 9.5.16.25.31.49.46.74.43.68.89 1.35 1.39 2 .13.19.28.38.43.56.44.57.91 1.13 1.41 1.67.66.72 1.35 1.41 2.07 2.07.95.88 1.94 1.71 2.97 2.48.51.39 1.03.77 1.55 1.13 1.13.79 2.3 1.52 3.5 2.2.4.23.8.45 1.2.67.35.19.7.38 1.05.56.46.24.92.47 1.38.69.35.17.7.34 1.06.5.56.27 1.13.52 1.7.76.73.32 1.46.63 2.19.92.83.34 1.66.65 2.48.96.5.18 1.01.36 1.51.54.57.2 1.13.4 1.7.59.56.19 1.12.38 1.68.56 1.21.4 2.43.78 3.66 1.15.92.29 1.85.57 2.78.84.21.06.42.12.64.18.75.22 1.5.43 2.26.64 2.29.64 4.59 1.24 6.9 1.82 1.8.45 3.6.89 5.4 1.3.91.22 1.82.43 2.73.63 1.83.42 3.65.82 5.48 1.21 1.82.39 3.64.78 5.45 1.16 2.73.56 5.44 1.12 8.14 1.67l.35.07c3.62.73 7.27 1.48 10.93 2.26 1.8.38 3.61.77 5.42 1.17.02.01.05.01.07.02 1.78.39 3.57.8 5.35 1.21.05.02.1.03.15.04 1.8.42 3.59.86 5.38 1.3 3.78.96 7.54 1.98 11.26 3.09.73.22 1.46.45 2.19.67.98.31 1.95.62 2.92.94.67.22 1.33.44 1.98.66 1.17.41 2.3.81 3.4 1.22.8.29 1.58.59 2.35.9.88.34 1.74.69 2.58 1.04 1.3.55 2.56 1.1 3.78 1.68.61.29 1.21.57 1.8.87.58.29 1.16.58 1.73.88.96.51 1.9 1.02 2.81 1.55.31.18.61.36.91.54.91.55 1.79 1.1 2.65 1.67.82.55 1.58 1.1 2.29 1.66.22.18.44.35.66.52 1.47 1.22 2.68 2.46 3.62 3.72z" fill="#9bc96a"/><path d="m402.18 415.19-.55-.79-.72-1.03-.6-.85-.83-1.19c-.47-.66-.93-1.33-1.39-2.01-.45-.67-.91-1.35-1.36-2.03-.9-1.37-1.78-2.75-2.65-4.15-.43-.7-.86-1.41-1.29-2.12-.79-1.31-1.56-2.63-2.32-3.97-.1-.17-.19-.34-.29-.51-.33-.59-.66-1.19-.99-1.8-.47-.84-.92-1.68-1.37-2.53-.56-1.05-1.11-2.11-1.65-3.19-.05-.1-.11-.21-.16-.32-.56-1.1-1.1-2.21-1.63-3.33-.54-1.1-1.06-2.22-1.57-3.34-.05-.09-.09-.19-.13-.29-.51-1.1-1-2.21-1.49-3.33-.02-.04-.04-.08-.05-.12-.53-1.2-1.04-2.4-1.53-3.62-1-2.4-1.95-4.84-2.87-7.32-.03-.07-.06-.15-.09-.23-.45-1.21-.89-2.44-1.32-3.67-.45-1.27-.89-2.56-1.31-3.85-.15-.41-.28-.82-.41-1.23-.02-.04-.03-.09-.04-.13-.17-.51-.33-1.02-.49-1.53-.42-1.32-.83-2.64-1.23-3.98-.25-.82-.49-1.63-.72-2.46-.26-.88-.51-1.76-.75-2.65-.22-.79-.44-1.58-.65-2.38-.03-.09-.05-.19-.07-.28-.24-.89-.47-1.78-.69-2.67-.46-1.77-.89-3.55-1.31-5.35 0-.01 0-.01 0-.02-.21-.9-.42-1.8-.62-2.7-.2-.91-.4-1.83-.59-2.76-.17-.79-.34-1.58-.49-2.38-.42-2.04-.82-4.1-1.19-6.19-.18-.97-.36-1.95-.52-2.94-.35-1.98-.67-3.99-.97-6.02-.17-1.01-.32-2.03-.46-3.06-.07-.49-.14-.98-.21-1.47-.05-.34-.1-.69-.15-1.04-.04-.35-.09-.7-.13-1.05-.01-.03-.02-.05-.01-.08h-.01c-.41-3.05-.78-6.15-1.12-9.32-.02-.06-.02-.13-.02-.19 0-.04-.01-.07-.01-.11-.28-2.49-.53-5.03-.76-7.6-.02-.11-.03-.23-.03-.34-.18-1.93-.34-3.88-.49-5.86-.05-.58-.1-1.16-.14-1.75l-.13-1.88-1.89.03h-.22c-3.61.06-7.23.13-10.84.21-7.31.16-14.61.35-21.89.57-3.11.1-6.23.2-9.35.31-1.55.06-3.1.11-4.66.17-2.5.09-5 .19-7.5.29-3.16.12-6.32.26-9.48.4-4.2.19-8.39.38-12.57.59-3.6.18-7.19.36-10.76.56h-1.85l-.04.3-.17 1.45c-.17 1.34-.35 2.67-.53 3.97v.01c-.06.4-.11.79-.16 1.17l-.1.65c-.19 1.3-.39 2.59-.59 3.84-.1.63-.2 1.25-.3 1.86-.37 2.27-.74 4.4-1.08 6.31-.12.67-.24 1.32-.35 1.94-.3 1.65-.6 3.31-.91 4.98-.16.83-.32 1.67-.48 2.52-.16.84-.33 1.68-.5 2.53-.22 1.13-.46 2.27-.7 3.41-.18.88-.37 1.76-.56 2.63-.31 1.41-.63 2.83-.97 4.24-.18.77-.36 1.54-.55 2.31-.68 2.76-1.42 5.52-2.22 8.28-.16.54-.32 1.08-.48 1.63-.28.93-.57 1.87-.87 2.79-.17.56-.35 1.13-.55 1.69-.2.63-.41 1.26-.63 1.88-.2.59-.4 1.18-.62 1.77-.06.18-.12.35-.18.51-.21.58-.42 1.16-.65 1.73-.35.97-.73 1.94-1.12 2.89-.22.56-.45 1.11-.68 1.66-.25.61-.51 1.22-.78 1.82-.19.44-.38.88-.58 1.32-.3.69-.61 1.36-.94 2.03-.21.45-.42.9-.65 1.35-.11.26-.24.52-.38.77-.22.46-.45.92-.69 1.37-.16.33-.32.65-.49.96-.2.37-.4.75-.61 1.12-.22.42-.45.84-.7 1.26-.34.64-.71 1.28-1.09 1.91-.21.37-.43.74-.65 1.1-.2.34-.41.67-.62 1.01-.28.45-.56.9-.85 1.34-.11.2-.24.39-.38.58-.27.42-.55.84-.83 1.26-.19.3-.39.59-.6.88-.35.5-.7 1-1.06 1.49-.02.05-.06.1-.11.15-.44.61-.89 1.22-1.35 1.82-.01.03-.03.06-.06.08l-1.78 2.34c3.43.98 6.85 1.96 10.26 2.94 0 0 .05.02.15.04l.18.05c.1.03.22.07.36.11l.1.02c.06.02.13.04.19.06.11.03.23.07.35.1.11.03.22.06.33.1.27.07.56.15.84.23.13.04.26.08.39.11.61.18 1.16.34 1.44.42 3.92 1.12 7.89 2.26 11.88 3.38l.12.04s.31.04.43.06l.21.12.24.06c1.42.4 2.84.81 4.26 1.21 1.43.39 2.85.79 4.27 1.18.37.11.73.21 1.09.31l2.16.6c.18.05.35.1.53.14 3.1.85 6.21 1.68 9.31 2.48h.01l.63.16c3.82.99 7.67 1.96 11.58 2.91 1.95.48 3.92.95 5.9 1.42 1.86.44 3.72.88 5.6 1.31 1.65.38 3.31.76 4.98 1.13.83.19 1.67.38 2.51.56 1.11.26 2.22.5 3.34.74 1.12.25 2.25.49 3.38.73 2.48.54 4.98 1.07 7.51 1.59.93.2 1.86.39 2.8.58 5.64 1.16 11.41 2.3 17.35 3.43 3.39.65 6.83 1.29 10.33 1.92 1.6.3 3.2.58 4.82.87s3.25.58 4.9.87c1.16.2 2.3.4 3.44.6 1.66.29 3.33.58 5.02.86 1.64.28 3.26.55 4.85.82 1.55.26 3.11.52 4.68.77 2.55.42 5.02.82 7.39 1.2l4.67.76zm-85.3-92.96c.51.09 1.05.2 1.61.33 5.71 1.31 10.6 4.53 13.76 9.07.33.47.64.94.92 1.44 0 0 0 0 .01.01 3.26 5.56 3.98 12.45 1.89 18.57-.11.32-.23.64-.35.96-.25.64-.53 1.26-.85 1.87-.1.2-.2.4-.32.6-.17.3-.34.6-.52.89s-.37.58-.56.86c-.26.38-.53.75-.81 1.11-.12.18-.27.36-.43.54-.27.36-.57.7-.9 1.04-1.39 1.52-3.01 2.86-4.78 3.93-.19.13-.39.25-.59.35-.24.14-.48.27-.72.4s-.48.25-.72.37c-.49.24-.99.46-1.49.66-.27.11-.53.21-.8.3-.22.09-.43.16-.65.22-.31.1-.62.19-.93.27-.17.05-.35.1-.53.14s-.35.08-.52.12c-1.56.33-3.2.5-4.87.5-.37 0-.76-.01-1.14-.03-.17 0-.35-.01-.53-.03-.28-.01-.56-.04-.84-.07-.17-.01-.33-.03-.5-.05-.38-.04-.75-.1-1.13-.16-.46-.07-.92-.16-1.38-.26-.76-.17-1.51-.37-2.25-.61-.35-.11-.69-.22-1.02-.35-.03-.01-.06-.02-.08-.03-.37-.13-.73-.27-1.08-.42-.34-.14-.67-.28-.99-.44-.24-.11-.47-.23-.7-.35-.19-.09-.38-.19-.57-.29-.35-.19-.7-.39-1.04-.59-.46-.27-.9-.55-1.33-.86-.36-.25-.72-.51-1.07-.78-.14-.1-.28-.21-.41-.32-.22-.18-.44-.36-.64-.54-.29-.24-.57-.5-.83-.76-.01 0-.01 0-.01 0-.54-.52-1.05-1.05-1.53-1.61s-.93-1.15-1.35-1.75c-.21-.3-.41-.61-.6-.93-.21-.33-.41-.66-.59-1-.14-.25-.27-.51-.4-.78-.13-.26-.25-.53-.38-.79-1.68-3.76-2.21-7.91-1.49-11.82.05-.23.1-.47.15-.71.04-.22.09-.44.16-.66.05-.22.11-.43.17-.65.13-.43.28-.86.44-1.27.15-.42.33-.82.51-1.22s.38-.79.59-1.17c.2-.38.42-.75.65-1.11.17-.27.35-.54.53-.81.18-.26.36-.52.55-.77.19-.26.38-.51.58-.75l.6-.72c.28-.31.55-.62.83-.91.21-.22.43-.44.65-.65.26-.26.53-.51.8-.75.23-.22.47-.43.71-.63.3-.26.6-.51.91-.75.27-.22.54-.43.82-.63.23-.18.47-.36.71-.53.84-.6 1.67-1.14 2.46-1.61.33-.2.66-.39.99-.57.32-.18.64-.35.96-.51.42-.22.83-.41 1.25-.58.25-.11.51-.21.76-.31.22-.08.43-.16.65-.23.24-.08.48-.15.72-.22.32-.1.63-.18.96-.25.17-.04.33-.07.5-.1.34-.07.69-.12 1.05-.16.22-.03.44-.05.67-.07.22-.02.45-.03.67-.04.25-.01.5-.02.75-.02.44 0 .88.02 1.34.05.92.06 1.9.19 2.94.38z" fill="#d8deec"/><path d="m268.851 281.077c1.385-12.935 1.374-24.162-.032-34.323-.213-1.363-.232-2.391.345-3.198.619-.931 1.838-1.208 3.467-1.322 23.652-1.709 47.764-2.576 71.662-2.576 2.625 0 5.245.01 7.864.031h.03c1.014 0 2.41.006 3.514.627 2.125 1.214 2.465 4.059 2.52 6.682.217 11.373.625 21.539 1.246 31.082l.137 2.095-2.099.035c-28.889.482-58.01 1.518-86.554 3.078l-2.348.128z" fill="#ff8984"/><path d="m216.294 427.495c17.375-19.898 43.376-33.072 69.551-35.238-.024-.001.014-.018.053-.034l.609-.244.635.165c30.516 7.9 63.731 14.688 104.531 21.362l-.139 3.965c-36.073 3.335-68.626 6.318-101.71 9.051-21.806 1.799-47.149 3.763-71.983 4.287l-4.527.096z" fill="#57aa6b"/><path d="m313.732 366.782c-1.834 0-3.692-.205-5.522-.608-6.108-1.332-11.542-4.865-14.901-9.691-3.529-5.077-4.668-11.721-2.974-17.34 2.096-6.933 7.864-11.596 12.334-14.286 3.564-2.142 6.535-3.055 9.932-3.055 1.751 0 3.623.241 5.894.758 5.71 1.313 10.595 4.533 13.756 9.066 4.17 5.97 5.14 14.208 2.47 20.987-2.671 6.783-9 12.146-16.124 13.663-1.557.335-3.195.506-4.865.506z" fill="#ff8984"/><path d="m204.624 430.952c-7.172 0-13.827-.129-20.345-.393l-2.485-.101.632-2.406c.356-1.356.77-2.581 1.264-3.744 1.35-3.2 3.438-6.432 6.38-9.877 7.648-8.974 18.27-16.273 30.717-21.105 10.724-4.169 22.745-6.62 36.75-7.492 1.416-.094 2.518-.137 3.565-.137.999 0 1.907.039 2.776.121l.183.017.177.05c4.144 1.178 8.297 2.336 12.421 3.464l.534.146-.166 3.903c-24.398 4.28-47.251 17.554-62.699 36.417l-.621 1.066-1.131.017c-2.653.036-5.305.054-7.952.054z" fill="#f7b36f"/><path d="m267.87 289.04-.17 1.17-.1.65c-.19 1.3-.39 2.59-.59 3.84-.1.63-.2 1.25-.3 1.86-.37 2.27-.74 4.4-1.08 6.31-.12.68-.23 1.32-.34 1.93-.3 1.65-.6 3.31-.92 4.99-.16.83-.32 1.67-.48 2.52-.16.84-.33 1.68-.5 2.53-.22 1.13-.46 2.27-.7 3.41-.18.88-.37 1.76-.56 2.63-.31 1.41-.63 2.83-.97 4.24-.18.77-.36 1.54-.55 2.31-.68 2.76-1.42 5.52-2.22 8.28-.16.54-.32 1.08-.48 1.63-.28.93-.57 1.87-.87 2.79-.17.57-.36 1.13-.55 1.69-.2.63-.41 1.26-.63 1.88-.2.59-.4 1.18-.62 1.77-.06.18-.12.35-.18.51-.21.58-.42 1.16-.65 1.73-.35.97-.73 1.94-1.12 2.89-.22.56-.45 1.11-.68 1.66-.25.61-.51 1.22-.78 1.82-.19.44-.38.88-.58 1.32-.3.69-.61 1.36-.94 2.03-.21.45-.42.9-.65 1.35-.11.26-.24.52-.38.77-.22.46-.45.92-.69 1.37-.16.33-.32.65-.49.96-.2.37-.4.75-.61 1.12-.22.42-.45.84-.7 1.26-.34.64-.71 1.28-1.09 1.91-.21.37-.43.74-.65 1.1-.2.34-.41.67-.62 1.01-.28.45-.56.9-.85 1.34-.11.2-.24.39-.38.58-.27.42-.55.84-.83 1.26-.19.3-.39.59-.6.88-.35.5-.7 1-1.06 1.49-.02.05-.06.1-.11.15-.44.61-.89 1.22-1.35 1.82-.01.03-.03.06-.06.08-.32.43-.65.85-.98 1.27l-.83 1.05-1.29-.37c-2.11-.6-4.24-1.21-6.37-1.8-2-.57-4-1.13-6.02-1.69s-4.04-1.12-6.06-1.67c-6.02-1.65-12.12-3.26-18.28-4.79-1.02-.26-2.05-.52-3.07-.76-1.02-.25-2.04-.5-3.07-.74-.84-.21-1.69-.41-2.53-.6-1.21-.28-2.41-.56-3.62-.84-1.7-.4-3.4-.78-5.11-1.15-4.47-.97-8.96-1.89-13.46-2.75-4.14-.79-8.3-1.51-12.47-2.16-2.5-.4-5-.77-7.51-1.11-.05 0-.1 0-.16-.01l-.19-.03-1.27-.25-.29-1.26c-.03-.14-.06-.27-.1-.4-.2-.87-.4-1.75-.61-2.62-.29-1.24-.59-2.47-.89-3.7-.13-.54-.27-1.08-.41-1.63-.18-.71-.36-1.43-.55-2.15-.38-1.44-.77-2.89-1.18-4.34-.17-.58-.34-1.16-.51-1.75-.19-.64-.39-1.28-.59-1.92-.15-.47-.3-.93-.45-1.4-.36-1.1-.74-2.2-1.14-3.29-.39-1.09-.81-2.18-1.25-3.26s-.9-2.15-1.38-3.2c-.49-1.07-1.01-2.13-1.55-3.17-.05-.09-.1-.16-.14-.23-.09-.18-.2-.34-.31-.49l-.04-.04c-.48-.64-1.02-1-1.52-1-.15 0-.3.03-.45.09-.38.16-.67.54-.89.86l-.26.4c-2.14 3.34-4.24 6.71-6.28 10.11-.66 1.07-1.3 2.15-1.93 3.24-.72 1.21-1.43 2.43-2.12 3.65-.42.74-.85 1.47-1.27 2.22-.64 1.12-1.27 2.23-1.89 3.36-.56 1.01-1.12 2.02-1.66 3.04-.67 1.21-1.33 2.43-1.97 3.66-.61 1.14-1.21 2.28-1.8 3.42-.2.37-.39.74-.58 1.12h-.01l-1.07-.14-.04-.01-.26-.03c-3.21-.4-6.46-.67-9.71-.8-.55-.02-1.1-.04-1.65-.05-.55-.03-1.1-.04-1.65-.04-.27 0-.55-.01-.83-.01-.27-.01-.55-.01-.82-.01-.79 0-1.59.01-2.39.03-.02.01-.06.01-.09 0 0 0-.01.01-.02 0-.01.01-.01.01-.02 0 0 0 0 .01-.01 0-1.55.03-3.11.1-4.66.2-2.4.14-4.8.36-7.19.67-1.93.22-3.85.51-5.76.84l-.85.15-.2.04-.45.08h-.02l-1.15-2.53c-.18-.41-.36-.81-.55-1.21-.05-.11-.1-.23-.15-.34s-.1-.22-.15-.33-.11-.23-.17-.35c-.27-.56-.62-1.26-1.05-1.97-.18-.3-.38-.6-.59-.9-.01-.01-.01-.02-.02-.03-.18-.24-.37-.48-.57-.72-.11-.13-.22-.25-.33-.38-.11-.12-.22-.23-.34-.34-.39-.37-.82-.71-1.28-.99-.15-.09-.3-.17-.46-.25-.16-.09-.33-.16-.5-.23-.18-.07-.37-.13-.56-.19-.22-.06-.45-.1-.68-.14-.07-.01-.13-.02-.19-.02-.21-.04-.42-.05-.62-.05-.15 0-.3.01-.45.03-.28.02-.55.08-.8.17-.13.04-.25.08-.37.15-.12.04-.24.11-.35.18-.17.09-.34.21-.49.34-.01 0-.02.01-.03.02-.09.07-.19.15-.28.24-.1.09-.19.18-.28.28s-.18.2-.27.31c-.05.04-.08.08-.11.13-.09.1-.18.21-.26.33-.02.02-.03.04-.05.07-.13.18-.26.36-.39.56-.1.14-.19.29-.28.44-.08.12-.16.24-.23.36-.08.13-.16.26-.24.39l-.11.17c-.91 1.49-1.82 2.98-2.73 4.5-.23.38-.47.77-.7 1.17-.48.79-.95 1.6-1.43 2.41-.25.41-.49.83-.74 1.25l-.58.99h-.98c-.27.05-.55.1-.83.15l-.28.06-.28.05c-1.79.33-3.57.68-5.35 1.07-2.38.49-4.74 1.02-7.1 1.59-1.11.26-2.23.54-3.34.82-.6.15-1.19.3-1.78.46-.31.08-.61.16-.92.25-.24.06-.48.12-.72.19-.52.13-1.04.27-1.55.42-.14.03-.27.07-.41.11-.82.23-1.64.46-2.46.69-.09.03-.18.05-.27.08-.06.01-.12.03-.18.06-.57.16-1.13.32-1.69.49-.57.16-1.14.33-1.7.51-.08.02-.15.05-.23.07-1.06.32-2.1.65-3.15.99-.31.09-.61.18-.91.29-.96.31-1.91.63-2.86.95-1.47.5-2.94 1.01-4.4 1.53-1.47.53-2.93 1.06-4.38 1.61s-2.9 1.12-4.35 1.69c-1.44.58-2.88 1.17-4.31 1.77-.08.03-.15.06-.23.1v-81.55l117.5-60.57c.32-.17.65-.34.98-.5.66-.33 1.32-.66 1.99-.96 1.33-.59 2.74-1.09 4.2-1.33.37-.06.74-.11 1.12-.13.23-.01.46-.02.69-.02.3 0 .59.01.89.04h.05c.28.02.56.06.85.1.04 0 .09.01.14.02.41.07.83.15 1.23.25.21.05.42.11.62.17.33.09.66.19.99.3.38.13.76.28 1.15.43.79.31 1.6.67 2.42 1.05.04.02.09.04.14.06.36.18.73.35 1.1.53 1.43.68 2.86 1.37 4.29 2.06 4.3 2.08 8.61 4.19 12.84 6.25.36.17.71.35 1.07.52l.66.32c3.32 1.62 6.64 3.24 9.98 4.87 11.17 5.43 22.47 10.83 33.93 15.91 3.39 1.5 6.79 2.98 10.2 4.41 4.29 1.81 8.6 3.57 12.94 5.24 2.72 1.07 5.45 2.09 8.19 3.09 2.27.82 4.55 1.63 6.84 2.41 3.54 1.21 7.1 2.36 10.68 3.45 2.35.72 4.7 1.41 7.07 2.06.13.04.27.08.42.12 2.29.64 4.6 1.24 6.91 1.81 1.21.31 2.42.6 3.63.88l.36.09 1.79.42z" fill="#af7979"/><path d="m223.722 106.488c-6.345 0-12.54-1.558-17.914-4.504-6.917-3.8-12.207-9.76-14.516-16.353-2.336-6.646-1.979-14.607 1.009-22.416 4.191-10.971 10.106-18.336 17.579-21.892 5.652-2.693 11.356-4.06 16.954-4.06 5.259 0 10.23 1.209 14.775 3.595 10.931 5.736 18.225 17.986 18.15 30.483-.085 12.44-7.233 24.456-18.212 30.613-5.296 2.966-11.459 4.534-17.825 4.534z" fill="#bfc7d8"/><path d="m180.181 430.357c-6.91-.341-13.283-.801-19.485-1.407l-1.566-.153-.22-1.558c-3.051-21.611-6.442-44.576-11.363-66.869l-.62-2.809 2.849.397c33.399 4.649 66.188 14.079 97.897 23.199 0 0 3.465.992 4.331 1.237l-.347 3.915c-11.565 1.145-21.664 3.439-30.873 7.014-12.439 4.83-23.059 12.127-30.712 21.103-2.957 3.467-5.047 6.698-6.389 9.88-.607 1.436-1.096 2.95-1.454 4.502l-.376 1.631z" fill="#57aa6b"/><path d="m109.253 195.84c-3.897 0-7.727-.017-11.521-.05-11.839-.109-24.659-.447-39.193-1.032-2.801-.115-5.642-.159-8.388-.202l-1.044-.016c-7.134-.091-14.467-.185-21.666-1.345-2.17-.352-5.16-1.091-6.082-3.432-1.06-2.717 1.361-5.524 2.897-6.956 6.548-6.086 15.047-9.951 23.934-10.886-3.23-3.561-4.466-9.048-3.227-14.318 1.052-4.495 3.804-8.907 7.956-12.759 5.955-5.509 13.572-8.729 20.91-8.843.138-.009.269-.011.41-.011 7.931 0 15.534 3.713 19.842 9.69-3.41-8.726-3.298-18.701.312-27.36 3.62-8.658 10.629-15.756 19.232-19.476 5.148-2.229 11.146-3.391 17.825-3.454l.552-.002c7.355 0 13.676 1.438 18.787 4.273 6.091 3.374 11.386 9.347 15.312 17.271 3.773 7.639 5.936 16.159 6.256 24.642.339 9.061-1.344 18.075-2.973 26.793 7.829-1.333 16.672-2.83 25.348-2.83 5.778 0 10.88.644 15.597 1.967 5.188 1.462 9.315 3.668 12.268 6.556 3.623 3.554 5.487 8.285 4.989 12.656-.277 2.555-1.413 4.519-3.117 5.379-1.176.596-2.589.649-3.725.693-13.299.548-28.743 1.177-43.666 1.701-26.63.922-48.182 1.351-67.825 1.351z" fill="#939baa"/><path d="m150.617 444.575c-1.835 0-3.662-.382-5.43-1.134-3.477-1.468-6.127-4.165-7.264-7.397-.773 1.853-1.643 3.966-3.07 5.643-1.457 1.7-3.419 2.711-5.254 2.711-.117 0-.232-.004-.347-.012-3.862-.28-6.036-4.472-7.181-7.938-1.506 2.054-3.056 4.162-5.091 5.75-1.864 1.446-3.973 2.24-5.945 2.241-.423 0-.843-.037-1.246-.109-2.069-.358-4.07-1.662-5.211-3.401-.907-1.369-1.214-2.935-.863-4.403l-.055-.255.002-.255c.239-4.991-1.643-9.869-3.303-14.172l-7.901-20.414 1.095-.92c10.124-27.096 23.192-53.189 38.834-77.529l1.649-2.567 1.696 2.537c.092.137.171.274.263.442 4.323 8.314 6.887 17.46 9.017 26.111 6.943 28.074 11.013 57.12 14.949 85.211.188 1.316.402 2.814.018 4.208-.485 1.855-2.1 3.543-4.425 4.607-1.518.693-3.178 1.045-4.937 1.045z" fill="#cbe580"/><path d="m120.669 466.05c-1.172 0-2.348-.105-3.495-.312l-1.189-.215-.363-1.153c-.896-2.847-.721-5.859-.551-8.772l.757-12.527.708-.555c.102-.08.207-.154.312-.227l.115-.081c1.001-.78 1.994-1.776 3.043-3.05l1.937-2.352 1.387 2.712c1.003 1.961 2.208 3.357 3.58 4.148l.985.569.135 10.328c.042 2.995.086 6.095-1.026 8.952-.216.541-.473 1.079-.925 1.465-.461.428-1.141.627-2.002.779-1.138.194-2.281.291-3.408.291z" fill="#f7b36f"/><path d="m67.481 448.353c-.313 0-.624-.038-.923-.112-2.414-.607-3.535-3.306-3.988-4.861-.162-.569-.298-1.135-.435-1.702-.351-1.501-.745-3.186-1.673-4.533-.837 2.494-1.873 5.615-4.019 7.76-1.386 1.387-3.373 2.248-5.185 2.248-1.042 0-2.015-.285-2.815-.823-2.572-1.719-2.871-5.347-2.823-8.668-1.677 1.093-3.122 2.519-4.521 3.898-1.111 1.102-2.368 2.348-3.767 3.373-1.913 1.423-4.289 2.277-6.343 2.277-1.482 0-2.811-.434-3.844-1.254-3.02-2.377-2.752-7.015-2.286-10.296 1.106-7.782 3.041-15.886 5.751-24.086 4.089-12.369 10.026-25.358 18.683-40.877 3.939-7.076 7.715-13.544 11.542-19.773l.11-.172c1.241-2.035 2.436-3.993 4.888-3.993.252 0 .519.021.805.066 3.744.569 5.639 4.576 6.549 6.501 3.527 7.419 6.521 15.159 9.417 22.643l17.74 45.83c1.885 4.888 4.011 10.399 3.151 15.958-.525 3.445-2.953 7.167-6.415 7.273l-.15.003c-3.546 0-5.957-3.553-6.943-6.595-1.075 3.316-2.749 7.192-6.216 7.721-.225.035-.462.053-.704.053-1.742.001-3.582-.955-4.921-2.557-1.375-1.631-2.135-3.648-2.87-5.598l-.038-.1c-.489.969-.832 1.982-1.196 3.055l-.058.172c-.409 1.216-.834 2.48-1.458 3.625-.899 1.636-2.757 3.544-5.045 3.544z" fill="#cbe580"/><path d="m82.605 375.972c-2.101-5.428-4.171-10.73-6.394-15.914l-1.005-2.345 2.517-.417c6.307-1.044 12.747-1.574 19.141-1.574 4.377 0 8.808.249 13.17.74l2.861.322-1.3 2.568c-6.247 12.345-11.935 25.194-16.907 38.191l-1.857 4.855z" fill="#57aa6b"/><path d="m56.5 468.551c.186-7.573.27-15.394.25-23.246l-.002-.71.446-.552c.498-.617.949-1.321 1.379-2.152l2.458-4.751 1.262 5.198c.085.348.179.696.273 1.045.771 2.682 2.192 4.412 3.999 4.854.303.077.597.112.914.112.21 0 .452-.033.66-.066l2.337-.367-.027 2.366c-.029 2.509.382 5.087.745 7.362.5 3.222.958 6.177.655 9.214l-.129 1.296-1.238.406c-3.875 1.27-7.892 1.956-11.942 2.039l-2.092.043z" fill="#f7b36f"/><path d="m54.77 361.02-.13.22-2.02 3.56c-1.1 1.93-2.21 3.88-3.33 5.9-1.08 1.94-2.12 3.84-3.12 5.7-.82 1.54-1.62 3.06-2.39 4.56-.5.97-.99 1.94-1.47 2.89-.33.66-.66 1.31-.97 1.96-.45.92-.9 1.83-1.33 2.73-.07.14-.14.29-.21.43-.43.91-.85 1.82-1.26 2.71-.93 2-1.8 3.97-2.62 5.91-.2.45-.39.91-.58 1.36-.17.42-.35.85-.52 1.27-.36.87-.7 1.73-1.04 2.59-.85 2.17-1.64 4.31-2.38 6.43-.27.78-.53 1.56-.79 2.34-.26.8-.52 1.6-.77 2.39-.23.77-.47 1.53-.69 2.29-.01.03-.02.06-.03.1-.23.77-.45 1.54-.66 2.3-.16.57-.32 1.14-.47 1.7-.09.36-.19.72-.27 1.08-.03.09-.05.17-.07.26l-.24.93-1.69-.16c-2.62-.24-5.25-.48-7.86-.73-1.22-.12-2.43-.23-3.64-.35-3.64-.34-7.26-.69-10.84-1.05-1.13-.11-2.26-.22-3.38-.34v-42.77c.07-.04.15-.07.23-.09 1.43-.6 2.87-1.19 4.31-1.77 1.45-.57 2.9-1.14 4.35-1.69s2.91-1.08 4.38-1.61c1.46-.52 2.93-1.03 4.4-1.53.95-.32 1.9-.64 2.86-.95.3-.11.6-.2.91-.29 1.05-.34 2.09-.67 3.15-.99.08-.02.15-.05.23-.07.56-.18 1.13-.35 1.7-.51.62-.19 1.25-.37 1.87-.55.09-.03.18-.05.27-.08l2.46-.69c.14-.04.27-.08.41-.11.51-.15 1.03-.29 1.55-.42.54-.16 1.09-.3 1.64-.44.59-.16 1.18-.31 1.78-.46 1.11-.28 2.22-.55 3.34-.82 2.36-.57 4.72-1.1 7.1-1.59 1.18-.25 2.37-.49 3.56-.72l1.79-.35.28-.05.28-.06z" fill="#57aa6b"/><path d="m356.55 120.17c11.24-9.16 27.14-13 42.52-10.25 2.35.42 5.57.99 7.98-1.09 1.41-1.21 1.98-2.96 2.36-4.12.26-.77.5-1.54.75-2.31 1.99-6.17 4.05-12.55 7.91-17.58 5.53-7.2 15.07-11.71 25.52-12.08 8.89-.3 18.53 2.18 28.67 7.38.53.28 1.17.3 1.72.05s.97-.73 1.12-1.31c2.48-9.32 8.97-17.73 17.35-22.49 5.85-3.33 12.76-4.94 19.55-4.72v-4.04c-7.47-.24-14.97 1.56-21.53 5.28-8.72 4.96-15.38 13.11-18.54 22.61-9.97-4.8-19.54-7.06-28.47-6.76-11.64.41-22.32 5.51-28.56 13.65-4.29 5.58-6.45 12.29-8.54 18.78-.25.76-.5 1.53-.75 2.29-.33 1.02-.65 1.89-1.17 2.34-.97.84-3.02.47-4.67.18-16.51-2.95-33.62 1.2-45.75 11.09-12.38 10.09-19.07 25.93-17.47 40.95-16.11-.75-32.38 6.14-42.98 18.33-4.38 5.03-7.16 10.24-8.28 15.47-1.89 8.84.84 18.96 7.5 27.76 2.21 2.93 3.17 6.12 4.18 9.5.97 3.25 1.98 6.59 4.18 9.52-9.59.41-19.16.95-28.67 1.64-1.18.08-3.65.26-4.99 2.21-1.07 1.56-.82 3.38-.66 4.58 1.84 13.29 1.03 26.81-.66 39.55-38.59-9.05-75.08-26.86-110.38-44.09-6.18-3.02-12.57-6.15-18.87-9.17-3.13-1.5-7.02-3.37-11.26-3.11-3.41.21-6.42 1.76-9.08 3.13l-116.58 60.1v4.5l118.42-61.04c2.41-1.25 4.91-2.54 7.49-2.7 2.96-.18 5.83 1.07 9.28 2.73 6.29 3.01 12.67 6.13 18.85 9.15 35.6 17.39 72.41 35.36 111.58 44.49-.7 4.77-1.5 9.42-2.3 13.88-4.26 23.7-10.19 50.7-26.68 71.46-28.66-8.17-58.11-16.09-87.93-20.13-.05-.01-.1 0-.15-.01-.52-2.25-1.05-4.51-1.61-6.75-2.17-8.81-4.79-18.11-9.16-26.52-1.23-2.35-3.13-3.36-4.98-2.64-1.06.42-1.63 1.31-1.94 1.78-6.88 10.69-13.26 21.71-19.11 33-11.79-1.48-23.69-1.2-35.39.84-.46-1.01-.9-2.02-1.37-3.02-1.07-2.23-3.27-6.88-8.06-7.62-4.32-.66-6.29 2.55-7.72 4.9l-.09.14c-1.87 3.05-3.73 6.16-5.61 9.36-.01 0-.01 0-.02 0-18.36 3.31-36.31 8.63-53.5 15.83v4.34c16.35-6.99 33.42-12.22 50.88-15.6-1.1 1.93-2.21 3.89-3.34 5.91-8.71 15.63-14.69 28.73-18.83 41.23-1.05 3.19-1.99 6.37-2.81 9.53-8.6-.79-17.29-1.62-25.9-2.49v4.02c8.29.83 16.65 1.63 24.94 2.4-.86 3.7-1.55 7.37-2.06 10.97-.54 3.77-.81 9.12 3.02 12.15 3.77 2.98 9.06 1.65 12.63-.99 1.47-1.08 2.74-2.34 3.97-3.55.45-.44.88-.87 1.32-1.29.35 2.29 1.24 4.77 3.51 6.3 2.29 1.53 5.06 1.4 7.41.4-.01 6.95-.08 13.95-.25 20.88-.05 1.8.77 2.62 1.46 2.99.62.33 1.22.34 1.5.34h.26c4.62 0 9.18-.74 13.56-2.21.42-.13 1.18-.39 1.77-1.09.63-.76.73-1.63.78-2.05.37-3.39-.15-6.71-.65-9.92-.5-3.22-.98-6.25-.58-9.22.01-.05.01-.09.01-.14.67-.67 1.25-1.43 1.67-2.2.47-.84.82-1.71 1.13-2.56.35.59.75 1.17 1.21 1.72 1.99 2.37 4.85 3.59 7.46 3.2 2.99-.46 4.9-2.69 6.12-4.93 1.63 2.21 3.98 3.9 6.96 3.82 2.78-.09 5-1.78 6.48-4.06 1.47 1.71 3.56 2.93 5.81 3.33 1.35.24 2.78.15 4.2-.22l-.56 9.35c-.18 3.01-.38 6.42.67 9.67.11.35.38 1.16 1.09 1.77.69.6 1.51.75 1.9.82 1.31.24 2.62.36 3.94.36 1.24 0 2.49-.1 3.72-.32 1.01-.17 2.16-.46 3.09-1.33.73-.67 1.12-1.5 1.37-2.15 1.26-3.22 1.21-6.67 1.17-9.71l-.11-8.16c2.33-.1 4.68-1.33 6.45-3.39.67-.79 1.23-1.65 1.71-2.53 1.58 2.06 3.76 3.74 6.32 4.82 2.02.86 4.14 1.29 6.21 1.29 2.02 0 3.99-.4 5.77-1.22 2.87-1.3 4.88-3.46 5.54-5.92.47-1.78.22-3.56.02-4.99-.16-1.13-.32-2.27-.48-3.41 14.41 1.37 28.87 1.93 43.42 1.93 9.17 0 18.38-.24 27.62-.62-3.43 8.74-.9 19.97 6.56 28.1 7.39 8.05 17.74 12.19 26.89 15.18 14.3 4.67 29.26 7.72 43.72 10.67 14.5 2.96 29.5 6.01 43.73 10.7 9.85 3.24 17.32 6.67 23.52 10.78 2.09 1.39 3.79 2.8 5.08 4.23h5.05c-1.64-2.63-4.27-5.14-7.92-7.56-6.51-4.32-14.28-7.89-24.48-11.25-14.45-4.76-29.56-7.84-44.18-10.82-14.36-2.92-29.2-5.95-43.28-10.55-8.65-2.83-18.41-6.71-25.18-14.09-8.08-8.8-8.29-19.4-5.06-25.53 0-.02 0-.03.01-.04 5.82-.27 11.66-.61 17.51-.99.82 6.95 5.25 13.7 12.12 18.34 6.5 4.38 14.19 6.48 21.54 8.09 15.6 3.42 31.81 5.27 47.48 7.06 26.23 2.99 53.35 6.08 77.71 16.67 9.83 4.28 16.81 8.84 21.97 14.35 4.57 4.89 7.57 10.59 8.7 16.32h4.06c-1.15-6.72-4.56-13.4-9.84-19.05-5.55-5.93-12.95-10.79-23.29-15.28-24.91-10.83-52.34-13.96-78.85-16.99-15.58-1.77-31.68-3.61-47.09-6.99-6.96-1.52-14.21-3.49-20.16-7.5-5.83-3.93-9.6-9.55-10.35-15.27 10.45-.7 20.96-1.53 31.52-2.41 36.08-2.98 72.73-6.37 108.17-9.64 37.48-3.47 76.15-7.06 113.84-14.45v-4.08c-2.57.52-5.15 1.01-7.74 1.48-.06-.11-.13-.22-.22-.32-12.61-15.16-20.92-35.04-26.11-62.49 11.08 4.52 22.5 8.39 34.07 11.55v-4.15c-11.74-3.25-23.32-7.23-34.53-11.9-.12-.05-.24-.09-.36-.11-1.58-9.15-2.81-18.46-3.98-27.51-1.65-12.7-3.36-25.84-6.1-38.62-.22-1.05-.65-3.02-2.31-4.13-1.34-.89-2.85-.82-3.86-.78l-13.94.62c1.56-2.46 2.19-5.58 1.81-8.36-.59-4.26-2.98-7.96-5.21-11.05 1.77.19 3.55.66 5.42 1.14 1.65.43 3.36.87 5.12 1.13 9.82 1.45 20.26-3.45 25.4-11.93 2.91-4.78 4.39-10.65 4.65-18.41 1.04 1.17 2.01 2.44 3.01 3.77 1.51 1.98 3.06 4.03 4.97 5.8 5.29 4.9 12.89 6.85 19.91 5.62v-4.1c-6 1.26-12.72-.31-17.19-4.45-1.65-1.54-3.04-3.36-4.5-5.29-1.31-1.73-2.67-3.52-4.27-5.13-.38-.38-1.26-1.27-2.61-1.27-.33 0-.66.06-.98.17-.06.02-.12.05-.18.07-.39.17-.75.42-1.07.77-.62.7-1.04 1.75-1.07 3.21-.17 7.4-1.47 12.85-4.09 17.17-4.33 7.14-13.12 11.27-21.39 10.05-1.55-.23-3.09-.63-4.71-1.05-.03-.01-.05-.01-.08-.02-2.45-.63-4.98-1.29-7.66-1.34-2.07-.05-3.51 1.03-3.7 2.66-.14 1.17.51 2.05.78 2.42 2.32 3.14 4.95 6.69 5.49 10.6.45 3.27-1.25 7.37-4.39 8.04-.09.02-.17.05-.24.08l-13.07.58c-4.54-2.95-8.26-9.17-9.06-15.18-.76-5.75 1.11-11.74 5-16.04 2.6-2.85 5.93-4.9 9.45-7.07 1.21-.75 2.46-1.51 3.67-2.31 1.62-1.08 3.21-2.34 3.87-4.32.6-1.83.17-3.65-.17-5.11l-.07-.33c-2.03-8.79-.14-18.18 5.04-25.1 5.3-7.06 14.21-11.34 22.69-10.89 6.65.35 13.05 3.34 19.25 6.23.8.37 1.6.75 2.41 1.12.68.31 2.09.97 3.59.33 1.26-.54 1.82-1.68 2.15-2.36 3.35-6.81 9.82-11.95 17.11-14.05v-4.14c-8.79 2.21-16.7 8.29-20.7 16.42-.04.09-.1.2-.15.31-.09-.04-.19-.08-.33-.14-.8-.37-1.59-.74-2.39-1.12-6.54-3.05-13.3-6.21-20.73-6.6-9.92-.52-19.93 4.27-26.1 12.49-5.88 7.86-8.03 18.47-5.74 28.4l.08.34c.26 1.13.51 2.18.26 2.94-.29.87-1.33 1.61-2.28 2.24-1.15.76-2.37 1.51-3.55 2.24-3.61 2.22-7.34 4.52-10.32 7.79-4.68 5.16-6.92 12.36-6 19.26.73 5.5 3.45 11.01 7.16 14.9l-14.29.64c-.83.03-1.96.08-3.03.66-2.75 1.5-2.78 4.97-2.79 6.46-.13 15.49-2.26 30.16-6.22 43.48-10.57-2.21-20.86-5.7-30.58-10.41-.04-.02-.09-.03-.14-.05-2.8-21.48-3.61-42.05-3.94-58.93-.04-1.93-.13-6.45-3.53-8.38-1.54-.87-3.26-.88-4.52-.89-7.63-.06-15.29-.02-22.96.09 3.41-3.63 5.29-8.67 5.25-14.52-.03-6.02-1.89-11.84-3.88-17.17 8.12 1.33 16.11 2.27 24.06 1.36 10.63-1.22 19.48-5.72 24.9-12.67 3.16-4.04 5.4-9.16 7.06-16.11.33-1.38.74-3.1 1.68-3.65 1.01-.59 2.87.04 4.23.5 5.11 1.73 12.71 3.72 19.77 1.07 8.03-3.03 12.49-10.94 14.81-17.04 3.18-8.37 4.35-17.34 3.44-26.2.91.86 1.79 1.78 2.7 2.73l.79.82c13.2 13.66 27.24 21.94 41.74 24.62 13.06 2.41 26.4-.45 36.24-7.25v-4.97c-9.1 7.43-22.45 10.71-35.52 8.29-13.65-2.53-26.97-10.42-39.58-23.47l-.78-.81c-2.17-2.27-4.42-4.61-7.27-6.3-.67-.4-1.52-.37-2.17.08-.64.46-.96 1.25-.81 2.02 1.84 9.59.95 19.89-2.52 29.02-2.03 5.33-5.84 12.21-12.48 14.71-4.46 1.68-9.88 1.33-17.08-1.11-1.96-.67-4.94-1.67-7.53-.16-2.42 1.41-3.07 4.16-3.55 6.17-1.53 6.37-3.53 11-6.32 14.58-4.69 6.01-12.78 10.08-22.21 11.16-8.55.98-17.35-.35-26.37-1.92-.72-.12-1.44.15-1.89.71-.46.55-.58 1.31-.32 1.98 2.37 6.14 4.82 12.49 4.86 19.04.04 6.57-2.8 11.86-7.79 14.52-.05.02-.09.06-.13.09-5.36.11-10.72.28-16.08.49-3.33-2.71-4.42-6.32-5.66-10.46-1.07-3.57-2.17-7.26-4.82-10.76-5.96-7.88-8.43-16.81-6.78-24.51.97-4.56 3.46-9.17 7.39-13.69 10.31-11.86 26.44-18.3 42.09-16.79.62.07 1.23-.17 1.65-.62.43-.46.61-1.09.51-1.7-2.43-14.35 3.73-29.93 15.71-39.69zm-246.74 238.28c-6.32 12.49-11.99 25.31-16.99 38.38l-8.35-21.58c-2.04-5.27-4.14-10.66-6.42-15.98 10.51-1.74 21.18-2.01 31.76-.82zm-39.95 108.21c-3.66 1.2-7.45 1.86-11.36 1.94.19-7.74.27-15.57.25-23.3.63-.78 1.15-1.62 1.6-2.49.09.37.19.74.29 1.11.98 3.41 2.92 5.64 5.45 6.26.47.12.93.17 1.39.17.33 0 .65-.04.97-.09-.03 2.62.37 5.19.77 7.7.47 3.03.92 5.89.64 8.7zm31.66-29.21c-.41 2.69-2.21 5.51-4.5 5.58-2.35.07-4.3-2.65-5.13-5.21-.27-.82-1.04-1.38-1.91-1.38s-1.63.56-1.9 1.38c-1.31 4.06-2.77 6.08-4.61 6.36-1.22.19-2.71-.52-3.79-1.81-1.18-1.4-1.88-3.29-2.57-5.12-.28-.75-.97-1.26-1.77-1.3s-1.54.39-1.89 1.1c-.58 1.16-.97 2.34-1.36 3.49-.4 1.19-.78 2.32-1.32 3.31-.79 1.44-2.36 2.79-3.73 2.45-1.55-.39-2.34-2.76-2.55-3.48-.15-.53-.28-1.07-.41-1.61-.39-1.67-.84-3.56-1.97-5.2-.38-.55-1-.87-1.65-.87-.09 0-.19.01-.28.02-.75.11-1.38.63-1.62 1.34-.81 2.44-1.74 5.2-3.53 6.99-1.4 1.4-3.88 2.25-5.47 1.18-1.78-1.19-1.98-4.2-1.94-6.98.01-.74-.39-1.42-1.04-1.78s-1.44-.33-2.06.08c-1.84 1.2-3.36 2.7-4.83 4.15-1.18 1.17-2.3 2.27-3.54 3.18-2.34 1.74-5.76 2.66-7.76 1.07-1.69-1.33-2.18-4.01-1.55-8.45 1.09-7.67 3-15.66 5.67-23.74 4.05-12.25 9.94-25.13 18.53-40.53 3.93-7.06 7.69-13.5 11.5-19.7l.09-.14c1.58-2.59 2.23-3.26 3.7-3.03 2.37.36 3.83 2.8 5.05 5.38 3.48 7.32 6.47 15.04 9.36 22.51l17.74 45.83c1.79 4.64 3.82 9.89 3.04 14.93zm23.62 25.34c-.18.45-.29.61-.36.67-.13.12-.48.23-1.05.33-2.06.35-4.15.35-6.2-.02-.79-2.51-.62-5.35-.46-8.1l.7-11.58c.14-.11.29-.2.43-.31 1.27-.99 2.37-2.16 3.35-3.35 1.33 2.6 2.87 4.11 4.36 4.97l.12 9.19c.04 2.81.08 5.71-.89 8.2zm32.91-24.4c-.34 1.3-1.56 2.51-3.33 3.32-2.6 1.19-5.79 1.15-8.75-.11-2.96-1.25-5.21-3.52-6.16-6.22-.28-.78-1.01-1.31-1.83-1.34-.84-.04-1.59.47-1.91 1.23-.75 1.82-1.54 3.71-2.74 5.12-1.14 1.33-2.64 2.09-3.94 2-2.89-.21-4.64-4.21-5.42-6.57-.24-.71-.85-1.23-1.59-1.35-.73-.11-1.48.19-1.92.8-1.42 1.93-2.89 3.93-4.71 5.35-1.83 1.42-3.87 2.05-5.61 1.74-1.56-.27-3.05-1.25-3.89-2.53-.43-.65-.87-1.67-.59-2.84.07-.3.06-.6 0-.88.26-5.43-1.78-10.7-3.45-15.03l-7.37-19.04c.25-.21.46-.48.58-.81 10.08-26.98 23.08-52.94 38.65-77.17.06.09.11.18.17.29 4.18 8.04 6.72 17.06 8.83 25.63 6.91 27.94 10.98 56.96 14.91 85.01.17 1.19.34 2.42.07 3.4zm22.23-10.03c-6.48-.32-12.94-.77-19.39-1.4-3.13-22.17-6.49-44.82-11.39-67.02 33.12 4.61 65.91 14.02 97.62 23.14 1.44.41 2.89.83 4.34 1.24-11.72 1.16-22.05 3.51-31.4 7.14-12.75 4.95-23.65 12.45-31.51 21.67-3.08 3.61-5.28 7.01-6.71 10.4-.66 1.56-1.18 3.18-1.56 4.83zm32.27.54c-9.43.12-18.83.04-28.19-.34.31-1.18.69-2.34 1.17-3.47 1.27-3.01 3.25-6.07 6.06-9.36 7.44-8.73 17.79-15.83 29.92-20.54 10.52-4.09 22.34-6.5 36.15-7.36 1.95-.13 4.01-.21 6.03-.02 4.15 1.18 8.31 2.34 12.44 3.47.18.05.36.1.55.15-24.68 4.33-48.07 17.79-63.9 37.12-.09.11-.16.23-.23.35zm77.11-4.37c-24.24 2-48.17 3.78-71.86 4.28 17.08-19.56 42.35-32.42 68.21-34.56.22-.02.43-.09.63-.17 37.08 9.6 73.96 16.37 104.71 21.4-33.42 3.09-67.8 6.25-101.69 9.05zm115.44-151.63c.01-1.72.25-2.72.7-2.97.26-.14.83-.17 1.29-.19l53.95-2.38c.42-.02 1.21-.06 1.46.11.31.21.54 1.25.62 1.64 2.01 9.35 3.46 18.94 4.74 28.42-12.67 1.32-25.68.86-38.28.39-8.64-.31-17.55-.63-26.37-.39 1.18-7.86 1.82-16.08 1.89-24.63zm-2.55 28.65c8.94-.28 18.06.05 26.88.37 6.53.24 13.17.49 19.83.49 6.38 0 12.78-.24 19.13-.91.26 1.98.52 3.95.77 5.9 1.34 10.3 2.72 20.94 4.64 31.34 5.15 27.82 13.45 48.18 26.02 63.88-30.74 5.4-62.04 8.54-92.67 11.39-.15-.05-.29-.1-.45-.13-1.11-.17-2.24-.35-3.37-.53-.05-.09-.09-.18-.15-.26-11.35-15.49-20.46-33.63-27.26-54.12 5.35-4.04 8.17-9 11.41-14.71l.56-.98c7.04-12.39 11.94-26.36 14.66-41.73zm-8.87 18.63c-2.49 7.54-5.58 14.62-9.27 21.12l-.56.99c-2.77 4.89-5.21 9.18-9.24 12.61-2.12-6.79-4-13.83-5.61-21.11-1.72-7.74-3.09-15.52-4.2-23.21 9.23 4.27 18.93 7.5 28.88 9.6zm-28.59 14.47c6.69 30.19 17.71 56.35 32.75 77.83-34.58-5.56-77.88-13.34-120.65-25.05-3.91-1.08-7.85-2.18-11.77-3.29-.23-.13-.49-.23-.78-.26-.07-.01-.15-.01-.22-.02-5.45-1.54-10.87-3.1-16.19-4.63-2.48-.71-4.96-1.42-7.45-2.13 16.3-21.29 22.22-48.25 26.47-71.94 1.14-6.3 2.26-12.97 3.12-19.85h.02.11c28.93-1.59 58.27-2.62 87.25-3.1 1.23 16.65 3.4 34.63 7.34 52.44zm-12.95-92.96c.91 0 1.94.01 2.58.37 1.26.72 1.46 3.04 1.5 4.98.18 9.41.52 19.96 1.25 31.17-28.78.48-57.91 1.51-86.63 3.08 1.21-11.3 1.58-23.11-.04-34.81-.08-.51-.21-1.48-.01-1.76.16-.24.83-.41 1.98-.49 26.29-1.9 53-2.75 79.37-2.54z"/><path d="m427.14 379.72c1.97.44 3.97.65 5.94.65 1.8 0 3.58-.18 5.29-.54 7.88-1.69 14.61-7.39 17.57-14.89 2.95-7.5 1.92-16.26-2.69-22.87-3.45-4.94-8.76-8.45-14.96-9.87-6.91-1.58-11.6-.89-17.3 2.54-2.39 1.44-5.12 3.4-7.54 5.96-2.42 2.55-4.53 5.69-5.67 9.46-1.9 6.27-.69 13.4 3.24 19.05 3.63 5.23 9.51 9.06 16.12 10.51zm-15.53-28.41c1.91-6.32 7.28-10.63 11.44-13.14h.01c3.15-1.9 5.79-2.78 8.89-2.78 1.64 0 3.41.25 5.45.71 5.23 1.2 9.69 4.13 12.57 8.26 3.8 5.44 4.68 12.94 2.25 19.11-2.44 6.18-8.2 11.06-14.69 12.45-3.01.64-6.31.61-9.54-.1-5.63-1.24-10.62-4.48-13.68-8.89-3.19-4.59-4.23-10.57-2.7-15.62z"/><path d="m307.78 368.13c1.97.43 3.98.65 5.95.65 1.8 0 3.58-.18 5.28-.54 7.88-1.69 14.62-7.39 17.57-14.89 2.96-7.5 1.93-16.27-2.69-22.87-3.45-4.95-8.76-8.45-14.95-9.87-6.91-1.58-11.6-.89-17.3 2.54-4.77 2.87-10.94 7.87-13.22 15.41-1.9 6.28-.68 13.41 3.25 19.06 3.63 5.23 9.5 9.06 16.11 10.51zm-15.53-28.41c1.91-6.32 7.28-10.64 11.45-13.15 4.81-2.89 8.43-3.41 14.35-2.06 5.22 1.2 9.68 4.13 12.56 8.26 3.8 5.44 4.68 12.94 2.25 19.11s-8.2 11.06-14.68 12.44c-3.02.65-6.32.61-9.54-.1-5.64-1.23-10.62-4.47-13.69-8.88-3.19-4.59-4.22-10.58-2.7-15.62z"/><path d="m204.84 103.73c5.76 3.17 12.33 4.75 18.87 4.75 6.57 0 13.12-1.6 18.81-4.79 11.6-6.49 19.15-19.18 19.24-32.33.08-13.22-7.64-26.19-19.22-32.27-10-5.26-21.91-5.1-33.52.43-7.96 3.79-14.21 11.52-18.59 22.98-1.77 4.63-2.66 9.33-2.66 13.81 0 3.5.55 6.88 1.64 9.99 2.51 7.16 7.99 13.35 15.43 17.43zm-10.67-39.8c4-10.47 9.57-17.47 16.57-20.8 10.45-4.98 21.08-5.15 29.94-.5 10.29 5.4 17.15 16.94 17.08 28.7-.08 11.74-6.83 23.07-17.19 28.88-10.18 5.7-23.44 5.7-33.8.02-6.48-3.56-11.44-9.12-13.59-15.26-2.18-6.2-1.83-13.67.99-21.04z"/><path d="m27.12 195.16c7.36 1.19 14.79 1.29 21.97 1.38 3.07.04 6.25.09 9.36.21 14.46.59 27.31.93 39.27 1.04 3.82.03 7.67.05 11.6.05 19.79 0 41.26-.44 67.83-1.36 14.57-.5 29.37-1.11 43.68-1.69 1.34-.06 3.01-.13 4.56-.92 2.3-1.17 3.83-3.7 4.19-6.94.56-4.97-1.53-10.32-5.57-14.29-3.2-3.14-7.62-5.51-13.14-7.06-12.95-3.63-26.64-1.73-38.99.33 1.46-7.95 2.79-16.12 2.47-24.41-.33-8.78-2.56-17.58-6.46-25.45-4.1-8.29-9.67-14.56-16.13-18.14-5.53-3.07-12.4-4.59-20.32-4.52-6.93.06-13.19 1.28-18.61 3.62-9.08 3.92-16.47 11.41-20.28 20.54-2.82 6.77-3.62 14.3-2.38 21.49-4.58-3.27-10.34-5.11-16.3-5.04-7.85.1-15.98 3.52-22.3 9.38-4.45 4.12-7.41 8.88-8.55 13.77-1.09 4.64-.45 9.45 1.66 13.26-8.11 1.49-15.74 5.31-21.79 10.93-3.3 3.07-4.5 6.32-3.39 9.14 1.29 3.3 4.97 4.26 7.62 4.68zm-1.5-10.89c6.23-5.79 14.32-9.47 22.78-10.36.75-.08 1.39-.57 1.66-1.28.27-.7.12-1.49-.39-2.05-2.79-3.08-3.85-7.88-2.76-12.52.96-4.1 3.51-8.17 7.37-11.75 5.61-5.19 12.77-8.22 19.64-8.31.11-.01.21-.01.32-.01 7.31 0 14.27 3.38 18.22 8.86.59.82 1.69 1.08 2.58.59.88-.48 1.27-1.54.91-2.48-3.23-8.26-3.12-17.69.29-25.87 3.42-8.18 10.04-14.89 18.18-18.41 4.92-2.13 10.66-3.23 17.05-3.29 7.26-.07 13.43 1.29 18.35 4.02 5.74 3.18 10.75 8.86 14.49 16.41 3.64 7.37 5.74 15.62 6.05 23.83.33 8.82-1.33 17.73-2.94 26.35-.12.64.08 1.3.54 1.76.46.47 1.12.68 1.76.57 12.65-2.14 26.99-4.57 40.07-.9 4.86 1.37 8.7 3.41 11.41 6.06 3.18 3.12 4.83 7.23 4.4 11-.2 1.85-.96 3.28-2.03 3.82-.77.39-1.85.44-2.9.48-14.31.59-29.11 1.19-43.66 1.7-31.78 1.1-56.23 1.5-79.26 1.3-11.91-.11-24.72-.45-39.13-1.03-3.18-.13-6.38-.17-9.48-.22-7.04-.09-14.31-.18-21.38-1.32-2.65-.43-4.13-1.15-4.54-2.19-.67-1.72 1.67-4.08 2.4-4.76z"/></svg>