<svg id="Capa_1" enable-background="new 0 0 512 512" height="512" viewBox="0 0 512 512" width="512" xmlns="http://www.w3.org/2000/svg"><path d="m509.76 435.11c.75.07 1.5.15 2.24.23v76.66h-512v-51.21c10.81-1.38 21.66-2.77 32.53-4.14 1.58-.2 3.17-.4 4.76-.6 1.82-.23 3.64-.46 5.47-.69 4.06-.52 8.16-1.03 12.28-1.54 3.77-.47 7.56-.94 11.37-1.4 4.95-.61 9.9-1.22 14.87-1.81 5-.61 10.01-1.21 15.02-1.8 2.6-.31 5.2-.61 7.81-.92 6.48-.76 12.98-1.49 19.48-2.23.198-.022.396-.043.594-.066 6.014-.679 12.036-1.34 18.064-1.992.187-.02.375-.042.562-.062.459-.049.916-.096 1.374-.146 5.234-.564 10.461-1.142 15.706-1.684h.01c28.25-2.921 56.632-5.504 85.115-7.575.108-.008.217-.016.324-.024 2.369-.172 4.738-.342 7.107-.507 3.385-.237 6.752-.466 10.094-.684 3.38-.22 6.74-.43 10.07-.63 2.23-.14 4.45-.27 6.65-.39 1.63-.09 3.26-.18 4.88-.27 1.43-.08 2.85-.16 4.28-.23 2.02-.11 4.04-.21 6.06-.31s4.05-.2 6.07-.29c2.02-.1 4.04-.19 6.06-.27 2.53-.12 5.05-.22 7.56-.32 1.53-.05 3.06-.11 4.58-.17 2.03-.07 4.05-.14 6.08-.21 4.01-.13 8.02-.25 12.04-.36 4.43-.12 8.84-.22 13.22-.3 5.59-.1 11.19-.17 16.78-.21 4.24-.04 8.45-.06 12.65-.06 1.52 0 3.04 0 4.56.01 1.5 0 3.01.01 4.51.02 1.32 0 2.64.01 3.96.03 1.67.01 3.33.03 4.99.05 25.57.3 50.17 1.26 74.18 2.9.44.02.88.05 1.311.09 1.289.09 2.58.18 3.88.27 1.52.11 3.04.22 4.55.34 2.69.21 5.39.42 8.08.65 1.66.13 3.31.27 4.96.42 3.57.31 7.13.64 10.68.98 1.529.15 3.059.3 4.579.45z" fill="#e89267"/><g fill="#f9b169"><path d="m512 390.24v45.1c-.74-.08-1.49-.16-2.24-.23-1.52-.15-3.05-.3-4.58-.45-3.55-.34-7.11-.67-10.68-.98-1.65-.15-3.3-.29-4.96-.42-2.69-.23-5.39-.44-8.08-.65-1.52-.11-3.04-.23-4.55-.34-1.3-.09-2.59-.18-3.88-.27l-1.311-.08v-.01l-1-2.85c-4.43-12.64-8.87-25.77-13.21-39.05l-.44-1.35v-.01l-.25-.75 2.83.07c8.86.2 17.9.51 27.04.92 2.4.1 4.82.22 7.24.34s4.85.25 7.28.38c2.39.13 4.78.27 7.18.41.11.01.22.01.33.02 1.091.06 2.191.13 3.281.2z"/><path d="m512 352.31v37.94c-1.1-.08-2.19-.14-3.28-.21-.11-.01-.22-.01-.33-.02-2.4-.14-4.79-.28-7.18-.41-2.43-.13-4.86-.26-7.28-.38s-4.84-.24-7.24-.34c-9.14-.41-18.18-.72-27.04-.92-.47-.02-.94-.03-1.41-.04l-1.42-.03-.62-1.9c-.45-1.38-.9-2.76-1.34-4.15-2.63-8.17-5.27-16.54-7.88-24.98-.05-.14-.09-.29-.14-.44-.39-1.3-.79-2.59-1.19-3.89l-.43-1.41-.15-.48-.25-.8z"/><path d="m512 314.22v38.08l-67.18-2.45-.41-1.37c-.73-2.37-1.45-4.78-2.18-7.2-.43-1.42-.85-2.85-1.28-4.29-.29-.95-.57-1.91-.85-2.87-1.81-6.12-3.62-12.37-5.43-18.67l-.16-.56 2.4-.22c5.93-.55 12.45-.82 19.94-.82 6.78 0 13.73.22 19.86.41l.27.01c1.74.05 3.49.11 5.26.16 3.07.08 6.17.16 9.27.2.13.01.26.01.39.01 1.63.02 3.25.03 4.88.03 5.3 0 10.01-.13 14.4-.4z"/><path d="m512 278.52v35.71l-.81.05c-4.39.27-9.09.4-14.38.4-1.64 0-3.27-.01-4.91-.04-.13 0-.26 0-.39-.01-3.1-.03-6.2-.11-9.27-.2-1.771-.05-3.521-.11-5.26-.16l-.27-.01c-6.5-.21-13.22-.42-19.95-.42-7.75 0-14.49.29-20.59.89l-1.66.16-.27-.94-.18-.66c-.7-2.44-1.39-4.9-2.09-7.37-.2-.71-.39-1.41-.59-2.11-.7-2.51-1.39-5.01-2.07-7.49-1.25-4.54-2.47-9.04-3.65-13.47l-.62-2.32 2.39-.19c.73-.06 1.47-.12 2.2-.18.25-.02.51-.04.76-.05.35-.03.71-.05 1.06-.07.58-.05 1.16-.09 1.74-.12.76-.05 1.52-.1 2.29-.14 1.95-.11 3.9-.2 5.85-.26.97-.04 1.94-.07 2.91-.09 1.94-.05 3.88-.08 5.8-.09h1.7c4.24 0 8.55.08 12.71.17l1.27.02c.771.01 1.55.03 2.33.05s1.57.03 2.35.04c.53.02 1.05.03 1.58.03.57.01 1.13.02 1.7.02h.2c1.6.02 3.22.03 4.83.03h1.3c1.16-.01 2.33-.02 3.51-.04.95-.01 1.91-.03 2.86-.06.86-.02 1.73-.04 2.59-.06.29-.01.59-.02.88-.03 1.94-.07 3.88-.14 5.81-.22 1.16-.05 2.31-.1 3.44-.15.15 0 .31-.01.47-.02 1.56-.08 3.12-.15 4.66-.22.39-.02.77-.04 1.15-.06l5.08-.25.49-.02z"/><path d="m512 265.89v12.63l-1.05.05-.49.02-4.72.24c-.5.02-1 .05-1.51.07-1.54.07-3.1.14-4.66.22-.16.01-.32.02-.47.02-1.13.05-2.28.1-3.44.15-1.93.08-3.87.15-5.81.22-.29.01-.59.02-.88.03-.86.02-1.729.04-2.59.06-.95.03-1.91.05-2.86.06-1.18.02-2.35.03-3.51.04-.56 0-1.13.01-1.7.01-1.47 0-2.96-.01-4.43-.04h-.2c-.57 0-1.13-.01-1.7-.02-.53 0-1.05-.01-1.58-.03-.78-.01-1.57-.02-2.35-.04s-1.56-.04-2.33-.05l-1.27-.02c-4.16-.09-8.47-.17-12.71-.17h-1.7c-1.92.01-3.86.04-5.8.09-.97.02-1.94.05-2.91.09-1.95.06-3.9.15-5.85.26-.77.04-1.53.09-2.29.14-.58.03-1.16.07-1.74.12-.35.02-.71.04-1.06.07-.25.01-.51.03-.76.05-.97.07-1.95.15-2.92.23l-1.67.14-.21-.8-.22-.82c-.35-1.32-.7-2.62-1.04-3.91-.33-1.26-.67-2.53-1-3.81-.6-2.29-1.2-4.6-1.8-6.94-.72-2.76-1.43-5.56-2.14-8.37-.55-2.17-1.1-4.36-1.65-6.55-.07-.28-.14-.56-.21-.84l-.38-1.53 1.64-.07c2.61-.12 5.229-.24 7.86-.35.77-.03 1.53-.06 2.3-.09 5.64-.23 11.31-.44 16.98-.61 3.02-.1 6.05-.18 9.08-.26s6.07-.15 9.1-.21c3.03-.07 6.06-.12 9.09-.17s6.06-.09 9.08-.12c3.92-.05 7.82-.08 11.71-.1l1.26-.44h.01l.04-.02.84 1.06c.3.35.59.7.88 1.06.46.55.92 1.1 1.39 1.66.93 1.1 1.85 2.21 2.76 3.32 3.38 4.08 6.72 8.18 10.03 12.31.52.65 1.04 1.3 1.56 1.96z"/></g><path d="m0 0v263.37l14.92 4.24c1.34.38 2.68.76 4.02 1.15.05.02.11.03.16.04 2.63.75 5.28 1.49 7.93 2.22.17.05.33.09.49.13 1.41.39 2.82.78 4.24 1.15 2.51.67 5.03 1.32 7.56 1.95 1.15.28 2.3.55 3.45.83.31.07.62.14.94.22 1.27.29 2.55.58 3.83.86 2.76.61 5.52 1.17 8.3 1.67.78.14 1.56.28 2.35.41 1.3.22 2.61.43 3.92.63 2.78.42 5.58.77 8.39 1.05.63.07 1.25.12 1.88.18 1.48.13 2.97.24 4.45.32.56.03 1.11.06 1.66.09.86.04 1.72.07 2.58.09l.92.02c.63.02 1.27.03 1.9.03l1.02.01h.01l.6-.83c1.1-1.52 2.2-3.03 3.29-4.54 1.31-1.8 2.6-3.55 3.87-5.28.18-.23.35-.47.52-.7l.08-.12h.01c.04-.06.09-.12.13-.18l2.54-3.45c.86-1.17 1.73-2.34 2.6-3.51 1.75-2.35 3.48-4.69 5.21-7 4.35-5.82 8.71-11.59 13.02-17.24.18-.24.35-.46.52-.67.28-.36.62-.76 1.01-1.13.15-.17.31-.32.48-.45l.41-.36c.65-.51 1.39-.92 2.2-1.06.21-.05.43-.07.65-.07.13 0 .27.01.41.03 1.15.13 2.15.82 2.96 1.56l.31.29c.1.09.2.19.3.28s.19.18.28.27v.01c5.19 5.15 10.39 10.39 15.55 15.67 2.81 2.87 5.62 5.76 8.41 8.65 1.32 1.38 2.65 2.76 3.98 4.15 1.32 1.38 2.65 2.77 3.97 4.16l.13.15.02.02.16.11.05.09.34.36c2.8 2.95 5.57 5.89 8.3 8.81l1.01-.13c4.95-.61 9.97-1.2 15.04-1.74 2.55-.28 5.16-.56 7.88-.84l3.88-.4c.24-.02.48-.05.72-.07l.94.11.25-.24 3.34-3.2.01-.02 19.26-18.49c.34-.3.84-.66 1.38-.66.05 0 .1.01.16.02.21.02.4.1.58.2.02.02.04.03.06.05.15.09.29.21.41.32l.28.27 18.98 19.15.45.45.4.41 1.09-.33.07-.02c.6.04 1.21.08 1.82.12l1.83.1c1.77.1 3.53.18 5.27.24 2.83.09 5.68.14 8.51.14 2.09 0 4.19-.03 6.3-.08 1.05-.03 2.1-.06 3.15-.1s2.1-.09 3.15-.14c.13 0 .27-.01.41-.02.81-.04 1.63-.08 2.45-.14 2.39-.14 4.79-.33 7.18-.55.59-.05 1.18-.11 1.77-.17.59-.05 1.18-.11 1.77-.18.47-.05.93-.1 1.4-.15.25-.02.5-.05.75-.08.54-.06 1.08-.12 1.62-.19.02 0 .05 0 .07-.01.71-.09 1.42-.17 2.12-.26.71-.09 1.41-.19 2.12-.29l.14.01h.01l.96.08h.01l.16-.22c.06-.09.12-.17.18-.26l.32-.43c.35-.48.7-.97 1.04-1.45.91-1.24 1.8-2.48 2.68-3.7.88-1.21 1.75-2.42 2.61-3.6.43-.6.86-1.19 1.28-1.77l.33-.46c.17-.24.33-.47.5-.7l2.85-3.93c7.76-10.72 15.34-21.2 22.9-31.56l.52-.72.08-.1 1.05-1.45c3.07-4.2 6.15-8.39 9.25-12.59 3.01-4.07 5.91-7.98 8.72-11.76.91-1.24 1.84-2.49 2.78-3.73 1.38-1.84 2.74-3.65 4.08-5.43l.45-.6.15-.2 2.96-3.91c1.28-1.71 2.58-3.42 3.88-5.12 2.5-3.3 5.02-6.59 7.56-9.86 4.96-6.41 9.75-12.54 14.46-18.45 2.05-2.6 4.13-5.2 6.21-7.77.12-.15.25-.31.37-.46l3.87 3.43c1.54 1.35 3.07 2.72 4.59 4.1 3.05 2.75 6.11 5.53 9.15 8.34 1.52 1.39 3.04 2.8 4.55 4.23 1.76 1.64 3.51 3.29 5.25 4.95 2.78 2.63 5.54 5.28 8.29 7.95 1.45 1.4 2.9 2.82 4.34 4.24l.11.11 2.34 2.31c.22.21.43.43.65.65.08.07.15.15.229.22l.23.23.45.45h.01l.5.5 1.68 1.68c1.25 1.25 2.49 2.5 3.73 3.76s2.48 2.52 3.711 3.78c1.24 1.26 2.47 2.53 3.689 3.8 1.23 1.27 2.45 2.54 3.67 3.82s2.44 2.56 3.65 3.84c1.2 1.27 2.4 2.54 3.59 3.82 1.78 1.89 3.54 3.79 5.28 5.69 1.06 1.16 2.13 2.33 3.19 3.49l.05.06.55.59c1.8 1.98 3.59 3.97 5.38 5.97 1.16 1.3 2.31 2.6 3.47 3.9 1.51 1.71 3.01 3.41 4.5 5.13.99 1.13 1.98 2.26 2.96 3.4.98 1.13 1.95 2.26 2.92 3.4 1.15 1.34 2.289 2.69 3.43 4.04l.88 1.04c.07.08.13.15.19.22.06.08.12.16.18.23.47.55.94 1.1 1.4 1.65s.92 1.1 1.39 1.66c.93 1.1 1.85 2.21 2.76 3.32 3.38 4.08 6.72 8.18 10.03 12.31.52.65 1.04 1.3 1.56 1.96v-265.89zm78.92 107.06c.02-.68.06-1.36.1-2.04.08-1.36.22-2.72.4-4.08s.4-2.71.67-4.05.58-2.67.94-4c.12-.42.24-.85.37-1.27.05-.2.11-.4.18-.6.18-.6.37-1.2.58-1.79.01-.06.03-.11.06-.17.17-.51.35-1.02.55-1.53.03-.11.07-.22.12-.34.14-.37.29-.74.44-1.11.11-.28.22-.56.34-.84.21-.51.43-1.01.66-1.51.68-1.48 1.41-2.94 2.19-4.37v-.01c.53-.95 1.08-1.89 1.64-2.81.2-.34.42-.68.64-1.02.19-.3.39-.61.6-.91.28-.43.57-.86.87-1.28.41-.6.84-1.19 1.29-1.78.2-.27.4-.54.61-.8.46-.61.95-1.21 1.45-1.81.36-.44.73-.87 1.11-1.3.27-.31.55-.62.82-.92s.55-.6.83-.9c.56-.6 1.13-1.19 1.72-1.75.29-.29.59-.57.89-.85s.6-.56.9-.84c.22-.22.45-.43.68-.62.23-.2.47-.4.7-.61.46-.41.93-.81 1.41-1.18.48-.39.96-.77 1.45-1.15.49-.37.98-.74 1.48-1.1.33-.24.66-.47 1-.71 2.02-1.4 4.11-2.67 6.28-3.83 1.93-1.02 3.92-1.95 5.95-2.78.61-.26 1.23-.49 1.85-.72s1.25-.45 1.87-.66c3.35-1.12 6.81-1.98 10.36-2.56.95-.16 1.9-.29 2.87-.39.48-.06.96-.11 1.44-.15 1.79-.16 3.59-.24 5.41-.24.56 0 1.12.01 1.67.02 1.67.05 3.35.16 5.02.33.74.08 1.48.17 2.22.27 2.95.41 5.88 1.02 8.76 1.81.72.2 1.44.41 2.15.63.36.11.72.22 1.07.34.36.11.72.23 1.07.36.24.08.49.17.73.26.29.09.57.2.85.31.17.07.35.13.52.2.42.15.83.31 1.24.48.28.12.56.23.84.35.69.29 1.38.59 2.06.9.44.2.88.4 1.31.61 1.58.76 3.14 1.58 4.66 2.46 1.08.63 2.15 1.29 3.2 1.97.53.34 1.05.69 1.56 1.05 1.03.71 2.04 1.45 3.02 2.21.99.77 1.95 1.56 2.89 2.38.47.41.93.82 1.39 1.25.35.31.69.63 1.02.96.21.2.43.41.63.61.79.78 1.55 1.57 2.29 2.39.42.45.83.92 1.23 1.39.41.47.8.95 1.19 1.43.5.62.99 1.25 1.46 1.89.01.01.01.01.01.01.48.65.95 1.3 1.4 1.97.31.46.61.92.91 1.38.35.54.7 1.1 1.03 1.66.3.5.59 1.01.88 1.53.15.26.3.52.44.79.34.63.67 1.26.99 1.9.22.44.43.88.64 1.33.26.55.51 1.1.75 1.66.12.27.24.55.35.83.7 1.67 1.33 3.37 1.88 5.1.25.76.48 1.53.69 2.3.17.64.34 1.29.5 1.93.13.52.25 1.05.36 1.58.23 1.04.42 2.09.59 3.14.05.26.09.53.12.79.05.27.09.54.12.81.06.39.11.79.15 1.19.07.6.13 1.2.18 1.8s.09 1.2.12 1.8c.09 1.66.12 3.34.07 5.03 0 .16 0 .32-.02.48-.04 1.25-.11 2.51-.23 3.77-.04.43-.08.85-.13 1.27-.16 1.46-.37 2.92-.63 4.39-.08.48-.17.95-.27 1.43-.18.95-.39 1.9-.62 2.85-.11.47-.23.95-.36 1.42-.1.39-.21.79-.32 1.18-.41 1.5-.88 3-1.41 4.49-.2.59-.41 1.17-.63 1.76-.12.33-.24.65-.37.97-.39 1.01-.81 2.02-1.25 3.02-.49 1.12-1 2.21-1.54 3.27-.16.35-.34.69-.52 1.03-.01.04-.04.08-.07.12-.15.29-.3.58-.45.86v.01c-.02.06-.06.12-.1.18-.16.31-.33.63-.51.93-.19.35-.39.7-.6 1.05-.14.24-.28.48-.42.71-.13.24-.27.47-.42.7-.21.35-.42.69-.64 1.02-.13.22-.27.43-.41.64-.13.21-.27.42-.42.63-.21.33-.43.65-.66.97-.1.16-.21.31-.31.45-.57.81-1.15 1.59-1.74 2.35-.68.87-1.37 1.71-2.1 2.53-.37.41-.73.82-1.09 1.22-.73.79-1.49 1.56-2.26 2.3 0 0 0-.01-.01 0-.38.38-.77.74-1.16 1.1-.32.29-.64.57-.96.83-.32.29-.64.56-.97.82-.58.48-1.16.94-1.76 1.39-.42.32-.85.63-1.29.94-.38.27-.76.53-1.15.79-.58.39-1.17.77-1.77 1.14-.38.24-.76.47-1.15.69-.16.1-.33.2-.5.29-.29.17-.59.34-.89.5-.38.22-.76.42-1.14.61-.54.28-1.08.55-1.63.81-.23.12-.47.23-.7.34-.53.24-1.06.48-1.6.71-.41.18-.83.35-1.25.52-.45.19-.9.36-1.35.53-.06.03-.13.05-.2.07-.46.17-.91.33-1.37.49-.99.34-1.98.65-2.98.94-.98.28-1.97.54-2.97.77-.05.02-.11.03-.17.04-.35.08-.7.16-1.05.23-.6.13-1.21.25-1.81.36-.61.11-1.22.21-1.84.3-1.67.26-3.36.44-5.07.55-.89.06-1.78.1-2.67.12-.42.01-.85.01-1.28.01-13.05 0-26.66-4.14-38.31-11.66-1.04-.67-2.06-1.37-3.06-2.09-.2-.13-.39-.27-.58-.42-.72-.52-1.43-1.06-2.12-1.61-.59-.46-1.17-.93-1.74-1.41-.47-.39-.94-.79-1.39-1.2-.42-.37-.84-.74-1.24-1.12-.53-.48-1.04-.97-1.54-1.47-.4-.39-.8-.79-1.18-1.19-.42-.43-.84-.87-1.24-1.31-.71-.77-1.4-1.56-2.06-2.36-.3-.36-.6-.72-.89-1.09-.21-.27-.43-.54-.64-.81-.26-.32-.5-.64-.73-.97-.24-.32-.48-.65-.71-.97-.25-.36-.5-.71-.75-1.07-.24-.36-.48-.73-.72-1.09-.3-.47-.6-.94-.89-1.42-.21-.34-.41-.67-.6-1.01-.19-.31-.37-.62-.54-.94-.11-.2-.22-.41-.34-.61-.64-1.18-1.24-2.39-1.8-3.61-.14-.29-.27-.58-.39-.88-.15-.32-.28-.63-.41-.95-.12-.27-.23-.53-.33-.8-.24-.58-.47-1.17-.69-1.77-.26-.7-.5-1.41-.73-2.12-.24-.71-.46-1.42-.66-2.14-.22-.72-.41-1.44-.59-2.16-.18-.73-.35-1.46-.51-2.2-.16-.73-.3-1.46-.43-2.2s-.25-1.48-.35-2.23c-.11-.74-.2-1.48-.27-2.23-.07-.58-.12-1.17-.16-1.75-.02-.1-.03-.21-.02-.32-.02-.2-.03-.4-.04-.6-.02-.07-.02-.15-.02-.23-.04-.52-.06-1.06-.08-1.59-.03-.75-.04-1.5-.04-2.25 0-.68.01-1.37.03-2.05z" fill="#fff0cf"/><path d="m415.999 245.371c-2.471-9.981-4.579-18.727-6.446-26.736l-.563-2.415 2.48-.038c4.948-.078 9.98-.117 14.957-.117 14.283 0 28.691.321 42.827.954l.217-.007h.884l.596.654c7.2 7.914 14.318 16.006 21.155 24.051l2.78 3.271-4.294.023c-24.147.13-48.559.762-72.558 1.878l-1.64.076z" fill="#f9b169"/><path d="m163.591 437.812c9.034-9.506 18.109-19.477 26.973-29.637l.476-.545.714-.115c78.87-12.663 159.461-19.083 239.534-19.083 8.089 0 16.283.066 24.355.198l1.426.023.443 1.355c4.34 13.277 8.783 26.415 13.206 39.051l.999 2.854-3.018-.198c-28.526-1.866-58.53-2.813-89.178-2.813-63.922 0-132.011 3.901-214.279 12.276l-5.372.547z" fill="#ffd671"/><path d="m194.584 403.515c9.063-10.525 18.411-21.791 27.785-33.486l.816-1.017 1.26.336c72.58-12.161 147.055-15.447 219.078-18.625l1.547-.068.453 1.482c3.507 11.46 7.1 22.854 10.68 33.867l.864 2.661-2.797-.043c-7.607-.117-15.328-.176-22.949-.176-78.478 0-157.513 6.174-234.91 18.351l-5.38.847z" fill="#ffd671"/><path d="m465.608 216.869c-12.996-.533-26.169-.802-39.151-.802-5.282 0-10.612.045-15.843.133l-1.618.028-.364-1.577c-2.367-10.242-4.69-20.658-6.907-30.96l-.521-2.417 3.119-.005c10.601 0 21.247.478 31.657 1.421l.767-.768 1.415 1.411c9.866 9.836 19.623 19.991 29 30.183l3.267 3.55z" fill="#f9b169"/><path d="m225.935 365.575c7.652-9.625 15.356-19.554 23.553-30.354l.463-.611.753-.145c6.441-1.234 13.056-2.064 19.451-2.866l78.409-9.735c27.46-3.411 55.854-6.939 84.121-7.864l1.56-.051.429 1.5c3.205 11.211 6.448 22.226 9.642 32.739l.749 2.465-2.575.114c-70.258 3.1-142.908 6.305-214.666 18.025l-5.11.835z" fill="#ffd671"/><path d="m253.044 330.525c8.198-10.858 16.812-22.472 26.331-35.504l.515-.705.867-.102c47.347-5.563 95.255-10.39 142.396-14.347l1.668-.14.432 1.617c2.609 9.782 5.399 19.926 8.292 30.151l.694 2.455-2.55.089c-27.876.967-55.967 4.454-83.134 7.826l-78.13 9.7c-5.038.632-10.25 1.287-15.464 2.139l-4.927.806z" fill="#ffd671"/><path d="m282.585 290.62c7.499-10.266 15.157-20.857 21.914-30.202l.334-.462.527-.216c2.722-1.117 5.685-1.443 8.551-1.758l102.438-11.189.422 1.694c2.468 9.902 4.972 19.639 7.442 28.94l.613 2.306-2.378.2c-45.828 3.854-92.264 8.515-138.017 13.853l-4.547.531z" fill="#ffd671"/><path d="m308.18 255.328c7.756-10.72 15.344-21.201 22.905-31.557l.6-.821h1.105l76.162-6.868.396 1.693c1.992 8.532 4.104 17.296 6.454 26.794l.55 2.22-102.435 11.189c-1.331.149-2.539.289-3.793.495l-4.79.787z" fill="#ffd671"/><path d="m432.191 182.394c-9.402-.748-18.822-1.126-27.998-1.126l-2.99.01-.339-1.59c-2.212-10.392-4.462-21.411-6.688-32.751l-1.141-5.813 4.431 3.932c12.243 10.865 24.451 22.277 36.285 33.92l3.918 3.855z" fill="#f9b169"/><path d="m334.217 219.479c8.553-11.679 16.19-21.98 23.345-31.491l.601-.797h.94c13.107-2.531 26.655-4.602 40.211-6.147l1.804-.205.379 1.775c2.212 10.36 4.552 20.866 6.952 31.226l.519 2.237-77.365 6.974z" fill="#ffd671"/><path d="m361.115 183.284c10.463-13.829 20.088-26.202 29.425-37.826l2.697-3.358.825 4.227c2.235 11.448 4.392 22.035 6.594 32.366l.459 2.154-2.188.25c-11.751 1.34-23.814 3.144-35.854 5.36l-5.064.932z" fill="#ffd671"/><path d="m265.11 295.146c-3.267-2.816-6.644-5.728-9.922-8.731-2.903-2.655-5.968-5.597-9.641-9.258l-3.709-3.697 5.23.284c4.732.257 9.359.387 13.752.387 10.273 0 20.704-.651 31.003-1.935l4.568-.569-2.702 3.728c-7.229 9.974-13.141 18.086-18.608 25.53l-1.279 1.741z" fill="#f7be8b"/><path d="m268.189 308.839c-19.831-.311-38.02-1.262-55.606-2.908l-.718-.067-.592-.595-.788-.621.178-1.153c.913-5.676 1.627-9.961 2.326-13.979l.297-1.704 1.729.048 40.226 1.44 1.313-1.671 1.583 1.414c2.261 2.009 4.625 4.077 7.228 6.32l8.445 7.27-4.594 6.221z" fill="#f9b169"/><path d="m216.113 287.899c-.145 0-.352-.011-.558-.022l-2.264-.129.411-2.23c.76-4.122 1.517-7.871 2.314-11.461l.359-1.621 1.659.055c8.616.288 16.583.789 23.68 1.489l.714.07.506.507c3.38 3.389 7.395 7.37 11.542 11.204l3.961 3.662c.002 0-42.315-1.524-42.324-1.524z" fill="#f9b169"/><path d="m232.668 353.103c-12.742-15.426-25.951-30.816-39.261-45.743l-3.531-3.961 5.268.645c22.648 2.771 44.953 4.276 70.192 4.736l3.881.07-2.31 3.12c-11.301 15.261-21.48 28.701-31.119 41.088l-1.531 1.969z" fill="#e89267"/><path d="m236.977 273.553c-5.617-.46-11.732-.809-18.177-1.035l-2.444-.085.569-2.379c1.189-4.963 2.439-9.457 3.822-13.739l1.011-3.129 20.608 20.809z" fill="#f9b169"/><path d="m218.873 372.94c-18.855-1.874-38.37-3.396-59.661-4.654l-1.435-.085-5.656-20.823 2.777.165c25.327 1.5 50.832 3.886 75.807 7.093l3.488.448-2.169 2.769c-3.67 4.685-7.504 9.513-11.395 14.351l-.679.843z" fill="#f9b169"/><path d="m214.748 272.39c-3.1-.08-6.281-.14-9.563-.18l-4.885-.06 22.072-21.188-2.261 7.365c-1.208 3.934-2.309 8.03-3.365 12.521l-.373 1.583z" fill="#ffd671"/><path d="m229.298 354.464c-25.021-3.182-50.5-5.536-75.733-6.997l-1.438-.083-7.24-26.686 2.758.145c20.853 1.093 41.779 3.17 62.207 6.172h.704l.612.625c6.756 7.83 13.436 15.733 19.922 23.564l3.23 3.898z" fill="#f9b169"/><path d="m211.561 287.739c-4.854-.166-10.586-.334-16.289-.334-2.04 0-4.025.021-5.896.064l-5.136.117 16.048-15.42.811.003c4.279.02 8.601.087 12.845.201l2.412.065-.511 2.358c-.779 3.593-1.535 7.396-2.247 11.305l-.31 1.699z" fill="#ffd671"/><path d="m208.429 305.53c-5.785-.583-11.79-1.279-17.847-2.066l-.733-.096-.495-.549c-2.807-3.117-5.624-6.233-8.451-9.33l-1.316-1.442 5.647-5.408 1.338.905c2.697-.096 5.486-.142 8.523-.142 5.635 0 11.195.162 15.893.319l2.298.078-.395 2.265c-.684 3.927-1.33 7.9-1.955 11.742l-.33 2.043-.292 1.872z" fill="#ffd671"/><path d="m147.682 174.963c-13.051 0-26.658-4.142-38.315-11.662-8.431-5.438-15.552-12.417-20.594-20.182-9.444-14.559-12.339-33.337-7.742-50.234 4.533-16.681 16.441-31.526 31.852-39.711 6.193-3.293 12.935-5.553 20.035-6.717 3.172-.519 6.453-.782 9.751-.782 20.014 0 40.153 9.568 52.559 24.971 8.055 10.008 12.877 22.578 13.579 35.395.577 10.479-1.559 21.565-6.177 32.055-3.926 8.914-9.119 16.338-15.436 22.066-10.009 9.097-23.944 14.488-38.232 14.788-.426.008-.854.013-1.28.013z" fill="#ffd671"/><path d="m219.97 373.05-2.35 2.89c-1.34 1.66-2.68 3.29-4.02 4.92-1.33 1.62-2.66 3.23-3.98 4.83-1.58 1.91-3.16 3.81-4.73 5.69-4.52 5.42-9.01 10.69-13.46 15.8-.13.15-.26.3-.39.45-.01 0-.01.01-.01.01-2.39 2.75-4.77 5.46-7.15 8.12-1.12 1.26-2.24 2.51-3.37 3.76-6.75 7.53-13.45 14.74-20.13 21.69l-.48.5h-.01l-.01.02h-.01l-.72.08c-3.776.391-7.558.792-11.339 1.195-1.666.178-3.333.356-4.999.536-6.413.692-12.823 1.401-19.228 2.121-6.496.734-12.994 1.465-19.475 2.227-2.61.31-5.21.61-7.81.92-5.01.59-10.02 1.19-15.02 1.8-4.98.6-9.94 1.21-14.87 1.81-3.81.46-7.6.93-11.37 1.4-4.12.51-8.22 1.02-12.28 1.54-1.83.23-3.65.46-5.47.69-12.74 1.59-25.2 3.18-37.29 4.72v-97.03c8.65.1 17.34.21 26.05.33.36.01.72.01 1.08.02l3.66.05c1.15.02 2.31.03 3.47.05 2.32.04 4.67.07 7.05.11 9.68.16 19.76.35 30.14.58 2.35.06 4.72.11 7.08.17 1.29.03 2.58.06 3.87.1.89.02 1.77.04 2.66.07 1.06.03 2.13.06 3.2.09 1.61.04 3.22.09 4.84.14 1.67.05 3.35.1 5.02.15 1.87.06 3.75.12 5.62.18.79.03 1.57.05 2.36.08 1.75.06 3.5.12 5.25.19 2.55.09 5.11.19 7.67.29 1.07.04 2.15.08 3.22.13 2.21.09 4.42.18 6.64.28 1.86.08 3.73.16 5.6.25 6.81.32 13.67.67 20.53 1.06l2.77.15c.47.03.95.06 1.43.08.25.02.5.04.75.05 11.75.7 23.52 1.51 35.25 2.47 7.03.57 14.05 1.2 21.05 1.88l2.61.25 1.07.11h.031z" fill="#f7be8b"/><path d="m178.206 290.542c-2.756-3.005-5.521-6.001-8.298-8.977l-2.683-2.875 3.903-.475c6.233-.758 12.786-1.492 20.035-2.244l5.789-.601-17.364 16.68z" fill="#f7be8b"/><path d="m205.481 326.411c-19.542-2.742-39.441-4.641-59.143-5.643l-1.448-.074-7.413-27.31 2.643.026c2.806.028 5.73.084 8.943.171 11.479.331 23.563.852 34.157 3.199h1.78l.006 1.234c7.559 8.343 15.047 16.787 22.265 25.105l3.5 4.033z" fill="#f9b169"/><path d="m178.213 295.833c-9.592-1.592-20.075-1.993-29.148-2.244-3.014-.089-6.31-.154-10.078-.199l-1.512-.018-7.16-26.401 2.694.08c8.643.255 16.979 1.003 24.78 2.223l.674.105.47.495c7.274 7.676 14.367 15.292 21.083 22.636l3.905 4.27z" fill="#f9b169"/><path d="m155.007 368.057c-43.915-2.495-87.436-3.38-124.216-3.917l-3.66-.054 2.022-3.051c2.992-4.514 5.994-9.039 9.027-13.542l.7-1.04 1.347.191c15.999-.707 32.329-1.064 48.49-1.064 20.533 0 41.38.576 61.963 1.713l1.441.08 5.654 20.842z" fill="#ffd671"/><path d="m149.361 347.217c-19.995-1.083-40.3-1.633-60.35-1.633-15.397 0-30.987.324-46.339.963l-3.956.165 2.216-3.282c4.305-6.378 8.859-13.034 13.923-20.349l.537-.776.94-.079c18.486-1.55 37.304-2.337 55.928-2.337 10.339 0 20.823.243 31.162.721l1.455.067 7.247 26.688z" fill="#ffd671"/><path d="m57.787 318.839c5.204-7.496 10.347-14.804 15.285-21.722l.526-.737.9-.091c19.149-1.937 38.767-2.918 58.305-2.918 1.053 0 4.679.017 4.679.017l7.405 27.292-2.736-.122c-9.868-.439-19.887-.663-29.778-.663-17.53 0-35.29.699-52.786 2.078l-4.206.332z" fill="#ffd671"/><path d="m76.163 292.806c6.047-8.45 11.449-15.908 16.516-22.801l.6-.815h1.012c10.478-1.478 21.284-2.232 32.089-2.232.809 0 1.616.004 2.423.013l1.513.016 7.163 26.403-4.739-.014c-18.213 0-36.637.87-54.76 2.585l-4.368.414z" fill="#ffd671"/><path d="m152.787 268.574c-6.776-.864-13.833-1.387-20.974-1.554l-1.492-.035-9.742-35.922 5.165 4.884c.208.196.395.373.58.559 9.433 9.373 18.909 19.031 28.161 28.701l3.904 4.081z" fill="#f9b169"/><path d="m95.961 265.562c6.918-9.371 13.926-18.71 20.829-27.755.712-.944 1.372-1.684 2.011-2.251l2.414-2.146 9.105 33.566-3.981-.02c-9.502 0-19.097.598-28.519 1.778l-4.628.58z" fill="#ffd671"/><path d="m84.86 280.7-2.22 3.07c-2.93 4.05-5.93 8.23-9.04 12.61-.93 1.3-1.86 2.62-2.81 3.95-1.1 1.55-2.21 3.13-3.35 4.73-.8 1.14-1.61 2.29-2.43 3.46l-.7.99h-.01l-1.19-.16c-.62-.08-1.26-.12-1.97-.13h-.12c-.09-.01-.18-.01-.27-.01-.68 0-1.35.03-2.03.08-.72.05-1.42.11-2.08.17-2.67.25-5.33.5-7.98.77-1.32.13-2.65.27-3.96.42-1.54.17-3.07.34-4.6.52-.91.11-1.82.22-2.73.34-2.61.33-5.21.69-7.79 1.09-.89.14-1.77.28-2.65.43-.79.13-1.58.26-2.37.4-.78.14-1.57.29-2.35.43-1.57.3-3.13.61-4.69.94-1.27.27-2.53.55-3.78.85-1.26.3-2.51.61-3.76.94-.63.16-1.25.32-1.87.5-1.24.35-2.48.7-3.71 1.08-.62.18-1.23.37-1.84.58-.61.19-1.22.38-1.83.6-.25.07-.49.15-.73.24v-56.22l14.92 4.25 4.02 1.14c.05.02.11.03.16.04 2.63.75 5.28 1.49 7.93 2.22.17.05.33.09.49.13 1.41.39 2.82.78 4.24 1.15 2.51.67 5.03 1.32 7.56 1.95 1.15.28 2.3.55 3.45.83.31.07.62.14.94.22 1.27.29 2.55.58 3.83.86 2.76.6 5.52 1.16 8.3 1.67.78.14 1.56.28 2.35.41 1.3.22 2.61.43 3.92.63 2.78.42 5.58.77 8.39 1.05.63.07 1.25.12 1.88.18 1.48.13 2.97.24 4.45.32.56.03 1.11.06 1.66.09.86.04 1.72.07 2.58.09l.92.02z" fill="#f7be8b"/><path d="m64.52 309.19-.22.32-2 2.86c-2.16 3.08-4.31 6.17-6.44 9.25-.16.23-.32.46-.47.69h-.01c-.4.58-.8 1.16-1.2 1.74s-.8 1.16-1.2 1.74c-4.77 6.91-9.48 13.81-14.09 20.66-.03.05-.07.09-.09.13-.03.05-.06.09-.08.13-.42.62-.84 1.24-1.26 1.86s-.83 1.23-1.24 1.85c-.86 1.28-1.72 2.56-2.57 3.84-1.94 2.9-3.86 5.79-5.76 8.67-.02.03-.04.07-.06.1 0 .01-.01.01-.01.02-.02.04-.04.08-.07.12l-.6.91h-.01l-1.09-.01c-8.71-.12-17.4-.23-26.05-.33v-44.14c.24-.08.48-.17.73-.25.61-.2 1.22-.41 1.83-.6.61-.2 1.23-.39 1.84-.58 1.23-.38 2.47-.73 3.71-1.08.62-.17 1.25-.34 1.87-.5 1.25-.33 2.5-.64 3.76-.94 1.25-.3 2.51-.58 3.78-.85 1.56-.33 3.12-.64 4.69-.94.78-.14 1.57-.29 2.35-.43.79-.14 1.58-.27 2.37-.4.88-.15 1.76-.29 2.65-.43 1.11-.17 2.22-.33 3.34-.49.94-.14 1.88-.27 2.82-.38 1.45-.2 2.9-.38 4.36-.56.03 0 .06-.01.09-.01 1.5-.18 3-.34 4.51-.51 1.32-.15 2.64-.28 3.96-.42 2.65-.27 5.31-.52 7.98-.77.66-.06 1.36-.12 2.08-.17.63-.04 1.28-.07 1.92-.07h.5z" fill="#e89267"/><path d="m493.85 246.87c6.16 7.33 12.22 14.75 18.15 22.25v-6.44c-35.32-44.12-74.64-85.3-117.08-122.56-.4-.36-.94-.53-1.48-.49-.55.05-1.05.31-1.39.74-30.56 37.8-59.55 77.9-87.59 116.68-3.05 4.23-6.12 8.48-9.19 12.72-.13-.01-.26 0-.39.02-16.97 2.34-34.24 2.93-51.32 1.73-.26-.01-.5.02-.73.09-.61-.62-1.23-1.24-1.84-1.86l-17.14-17.3c-.33-.32-.84-.84-1.58-1.16-.05-.03-.11-.05-.17-.07-.23-.09-.48-.16-.76-.19-1.72-.21-2.95.97-3.47 1.48l-21.87 21c-.16-.02-.32-.03-.49-.01-9.12.91-18.38 1.94-27.52 3.07-2.59-2.76-5.19-5.51-7.79-8.26-.14-.21-.31-.4-.52-.55-10.52-11.06-21.18-21.97-31.95-32.68-1.09-1.08-2.74-2.71-5.03-2.97-.35-.04-.7-.05-1.03-.02-.27.01-.53.05-.78.11-2.79.59-4.76 3.17-5.69 4.39-10.56 13.84-21 27.89-31.3 42.06-23.36-.14-46.27-6.65-68.43-12.96l-15.47-4.4v4.16l14.37 4.09c21.53 6.12 43.75 12.44 66.65 13.06-5.94 8.21-11.82 16.48-17.65 24.77-2.4-.31-4.79-.1-6.92.1-19.57 1.81-38.66 4.01-56.45 10.02v4.23c17.76-6.21 37.04-8.44 56.82-10.27 1.27-.11 2.56-.22 3.84-.23-11.76 16.8-23.3 33.74-34.53 50.74-.02.04-.03.08-.05.11-8.73-.12-17.42-.23-26.08-.33v4c71.06.86 144.29 1.97 216.07 8.94-18.22 22.48-37.16 44.37-57.13 65.14-53.37 5.53-106.42 12.24-158.94 18.94v4.04c167.72-21.41 340.86-43.01 512-25.45v-4.02c-12.94-1.33-25.88-2.43-38.83-3.32-4.67-13.29-9.18-26.64-13.57-40.04 17.41.41 34.98 1.18 52.4 2.28v-4.01c-17.86-1.12-35.88-1.91-53.72-2.31-3.67-11.29-7.24-22.62-10.72-33.98l64.44 2.36v-4.01l-65.68-2.4c-3.16-10.38-6.23-20.8-9.22-31.24 13.11-1.22 26.54-.81 39.55-.4 11.35.35 23.1.72 34.65.01l.7-.04v-4.01l-.94.06c-11.38.7-23.02.33-34.29-.02-13.37-.42-27.2-.85-40.79.48-2.88-10.11-5.67-20.25-8.39-30.41 7.45-.61 15-.96 22.46-.99 4.99-.03 10.06.08 14.97.18s9.99.2 15 .18c8.63-.04 17.37-.47 25.81-.88l6.17-.3v-4l-6.36.31c-8.41.41-17.1.83-25.64.87-4.96.03-10.01-.08-14.9-.18-4.93-.1-10.05-.21-15.07-.18-7.811.04-15.7.4-23.49 1.06-2.61-9.83-5.16-19.68-7.62-29.55 24.66-1.13 49.65-1.77 74.32-1.87.21 0 .41-.04.61-.11zm-57.12-62.11c.01 0 .02-.01.02-.01 9.86 9.83 19.51 19.87 28.94 30.12-18.31-.75-36.83-.98-55.11-.67-2.38-10.3-4.68-20.61-6.9-30.93 10.94-.02 21.98.47 32.86 1.48.07 0 .13.01.19.01zm-4.38-4.36c-9.81-.78-19.72-1.17-29.53-1.13-2.32-10.9-4.539-21.81-6.68-32.72 12.35 10.96 24.42 22.25 36.21 33.85zm-40.25-33.69c2.11 10.81 4.3 21.61 6.6 32.4-12.01 1.37-24.09 3.19-35.99 5.38 9.64-12.74 19.43-25.38 29.39-37.78zm-32.94 42.48c.06 0 .12 0 .18-.01 13.25-2.56 26.77-4.62 40.2-6.15 2.23 10.44 4.55 20.86 6.96 31.26l-70.67 6.37c7.69-10.5 15.46-21.01 23.33-31.47zm-26.46 35.76h.18l74.52-6.72c2.09 8.95 4.25 17.89 6.46 26.82l-100.16 10.94c-1.25.14-2.56.29-3.9.51 7.56-10.45 15.19-20.99 22.9-31.55zm-71.88 51.18c10.45 0 20.9-.66 31.25-1.95-6.16 8.5-12.35 17.01-18.6 25.52l-6.8-5.85c-3.34-2.88-6.79-5.85-10.13-8.91-3.26-2.98-6.45-6.08-9.58-9.2 4.61.25 9.24.39 13.86.39zm-77.82 22.65s.01 0 .01.01c7.68 8.47 15.27 17.02 22.75 25.64-19.67-2.76-39.47-4.65-59.32-5.66l-6.34-23.36c2.97.03 5.94.09 8.91.17 11.43.33 23.47.84 33.99 3.2zm-.62-6.64 3.07-2.94c.34.23.75.36 1.19.34 8.07-.28 16.25-.09 24.28.18-.78 4.48-1.5 8.95-2.22 13.37l-.07.45c-5.95-.6-11.87-1.29-17.79-2.06-2.81-3.12-5.63-6.24-8.46-9.34zm27.29 36.87c.02.01.04 0 .05.01 6.7 7.77 13.31 15.59 19.83 23.46-25.16-3.2-50.48-5.54-75.87-7.01l-6.14-22.63c20.79 1.09 41.54 3.14 62.13 6.17zm-14.77-22.98c22.56 2.76 45.14 4.29 70.4 4.75-10.19 13.76-20.53 27.48-31.09 41.05-12.77-15.46-25.89-30.75-39.31-45.8zm17.87-2.09c-.05-.05-.08-.1-.13-.14l.01-.07c.74-4.59 1.5-9.22 2.31-13.87.37.01.74.03 1.11.04l39.1 1.4h.08c.63 0 1.19-.29 1.56-.76 2.43 2.16 4.86 4.28 7.25 6.34l7.04 6.06c-.96 1.3-1.92 2.6-2.88 3.9-19.75-.31-37.82-1.25-55.45-2.9zm28.75-27.97c3.77 3.78 7.63 7.59 11.6 11.26l-36.91-1.33c-.18 0-.36-.01-.54-.02.7-3.8 1.46-7.61 2.3-11.39 8.67.29 16.55.79 23.55 1.48zm-18.87-19.04 14.49 14.63c-5.61-.46-11.71-.81-18.27-1.04 1.1-4.59 2.34-9.13 3.78-13.59zm-4.45.81c-1.28 4.17-2.4 8.4-3.4 12.65-3.11-.08-6.3-.14-9.59-.18zm-17.11 16.43c4.43.02 8.69.09 12.8.2-.82 3.78-1.57 7.58-2.26 11.37-7.35-.25-14.85-.44-22.3-.27zm-9.72 3.79-11.69 11.23c-2.76-3.01-5.53-6.01-8.31-8.99 6.66-.81 13.35-1.55 20-2.24zm-12.83 15.9c-9.46-1.57-19.66-2-29.42-2.27-3.36-.1-6.73-.16-10.11-.2l-6.06-22.34c8.47.25 16.73.98 24.53 2.2 7.08 7.47 14.11 15.01 21.06 22.61zm-53.63-55.94c9.47 9.41 18.85 18.97 28.13 28.67-6.82-.87-13.93-1.4-21.18-1.57l-7.49-27.62c.18.17.36.34.54.52zm-6.53 1.1c.52-.69 1.12-1.41 1.75-1.97l7.57 27.91c-9.97-.06-20.15.54-30.13 1.79 6.88-9.32 13.82-18.57 20.81-27.73zm-24.09 32.17c.08 0 .17 0 .25-.01 11.3-1.6 22.92-2.33 34.24-2.21l6.08 22.41c-19.03-.07-38.16.8-57.07 2.59 5.46-7.63 10.95-15.23 16.5-22.78zm-19.59 27.09c20.27-2.05 40.82-3.01 61.25-2.9l6.29 23.18c-27.61-1.23-55.28-.75-82.81 1.42 5.04-7.26 10.13-14.5 15.27-21.7zm-18.2 25.94c28.86-2.42 57.89-2.95 86.83-1.61l6.14 22.61c-35.62-1.93-71.35-2.15-106.88-.67 4.59-6.8 9.23-13.57 13.91-20.33zm-25.68 37.92c2.99-4.51 5.99-9.03 9.02-13.53.14.02.28.04.43.03 36.66-1.61 73.54-1.38 110.3.65l4.55 16.77c-41.54-2.36-83.19-3.32-124.3-3.92zm128.51 4.15-4.55-16.75c25.33 1.5 50.59 3.86 75.67 7.08-3.76 4.8-7.55 9.57-11.38 14.33-19.83-1.97-39.77-3.48-59.74-4.66zm309.5 63.43c-101.34-6.63-203.11-.78-303.79 9.47 9.21-9.69 18.22-19.6 27.03-29.7 86.89-13.95 175.56-20.29 263.54-18.86 4.28 13.09 8.68 26.12 13.22 39.09zm-14.53-43.1c-86.2-1.32-173.03 4.8-258.2 18.2 9.48-11.01 18.74-22.2 27.83-33.54.15.04.31.06.46.06.11 0 .23-.01.34-.03 72.32-12.1 146.82-15.41 218.88-18.59 3.47 11.34 7.03 22.64 10.69 33.9zm-11.9-37.85c-70.72 3.12-143.76 6.43-214.9 18.05 7.99-10.05 15.84-20.19 23.58-30.39 6.47-1.24 13.14-2.07 19.6-2.88l78.13-9.7c27.45-3.41 55.84-6.93 83.94-7.85 3.13 10.95 6.34 21.87 9.65 32.77zm-10.78-36.73c-27.95.97-56.08 4.46-83.31 7.84l-78.13 9.7c-5.1.64-10.34 1.3-15.54 2.15 8.91-11.8 17.68-23.66 26.35-35.53 47.15-5.54 95.03-10.37 142.33-14.34 2.69 10.08 5.46 20.14 8.3 30.18zm-9.34-34.1c-45.89 3.86-92.31 8.52-138.08 13.86 7.37-10.09 14.66-20.17 21.92-30.21 2.46-1.01 5.28-1.32 8.01-1.62l100.7-11c2.41 9.67 4.89 19.33 7.45 28.97zm-4.34-33.05c-2.2-8.89-4.36-17.79-6.44-26.71 19.18-.3 38.61-.02 57.77.84h.09c.04 0 .07-.01.11-.01 7.17 7.88 14.211 15.88 21.11 24-24.13.13-48.55.76-72.64 1.88z"/><path d="m108.28 164.98c12.01 7.75 25.94 11.98 39.37 11.98.45 0 .9 0 1.35-.01 14.76-.31 29.17-5.89 39.54-15.3 6.53-5.93 11.88-13.58 15.92-22.74 4.74-10.78 6.94-22.18 6.34-32.98-.72-13.23-5.7-26.21-14.02-36.54-15.07-18.72-40.87-28.72-64.18-24.9-7.33 1.2-14.28 3.53-20.65 6.92-15.89 8.44-28.17 23.75-32.85 40.95-4.75 17.44-1.76 36.82 8 51.85 5.19 7.99 12.51 15.18 21.18 20.77zm-25.32-71.57c4.39-16.15 15.93-30.54 30.86-38.47 6-3.19 12.53-5.38 19.42-6.51 21.95-3.59 46.23 5.84 60.43 23.47 7.79 9.68 12.46 21.85 13.14 34.25.56 10.17-1.52 20.94-6.01 31.14-3.81 8.65-8.84 15.85-14.95 21.39-9.66 8.78-23.13 13.98-36.93 14.27-13.06.27-26.72-3.75-38.47-11.33-8.2-5.29-15.11-12.06-20-19.59-9.14-14.09-11.94-32.26-7.49-48.62z"/></svg>