<svg id="Capa_1" enable-background="new 0 0 512 512" height="512" viewBox="0 0 512 512" width="512" xmlns="http://www.w3.org/2000/svg"><path d="m512 467.8v44.2h-422.96c.31-.25.62-.48.94-.72.46-.35.92-.69 1.39-1.03.46-.35.93-.69 1.41-1.02.47-.34.95-.68 1.43-1.01 1.92-1.34 3.9-2.64 5.94-3.92.51-.32 1.02-.64 1.54-.95.47-.29.94-.58 1.42-.86 1.13-.67 2.28-1.34 3.45-2 .5-.27 1-.55 1.51-.83.54-.31 1.09-.6 1.65-.9 2.24-1.2 4.55-2.37 6.92-3.51 1.14-.55 2.3-1.1 3.48-1.63.6-.28 1.21-.55 1.82-.82.61-.28 1.22-.55 1.84-.81.62-.27 1.24-.54 1.86-.8.73-.32 1.46-.62 2.2-.93.53-.22 1.07-.44 1.61-.65.64-.26 1.29-.52 1.94-.77.65-.26 1.3-.51 1.96-.76.66-.26 1.32-.51 1.99-.75 1.34-.5 2.69-.99 4.06-1.48 4.58-1.63 9.24-3.15 13.98-4.56 1.18-.35 2.38-.7 3.57-1.04 1.05-.3 2.1-.59 3.15-.88 1.25-.34 2.51-.68 3.77-1 .79-.21 1.58-.42 2.37-.61 1.15-.3 2.3-.58 3.45-.86 1.08-.26 2.16-.51 3.25-.76 2.17-.5 4.36-.97 6.57-1.44 1.11-.23 2.21-.45 3.33-.67 2.54-.5 5.11-.98 7.7-1.43 2.72-.47 5.47-.92 8.24-1.34.79-.12 1.59-.23 2.39-.35.55-.08 1.11-.16 1.67-.24.94-.13 1.88-.25 2.83-.38.47-.06.95-.12 1.42-.18.66-.09 1.33-.17 2-.25 1.28-.16 2.58-.31 3.88-.46 1.53-.18 3.07-.34 4.62-.5s3.11-.31 4.68-.45c1.39-.12 2.79-.24 4.2-.36.29-.02.59-.05.88-.07 1.46-.11 2.93-.22 4.41-.32 1.58-.11 3.17-.22 4.77-.31.11-.01.22-.01.32-.01 1.4-.09 2.81-.16 4.23-.23.25-.02.49-.03.74-.04 1.47-.07 2.95-.13 4.44-.19 1.07-.04 2.14-.08 3.21-.11 1.18-.04 2.37-.07 3.57-.1 1.32-.04 2.65-.06 3.98-.09.69-.01 1.39-.02 2.09-.03.97-.01 1.96-.02 2.94-.03 1.51-.01 3.03-.02 4.56-.02h.01c1.78 0 3.57.01 5.34.03 1.89.01 3.77.04 5.65.07.84.02 1.68.03 2.52.05.09.01.18.01.27.01 1.44.03 2.87.07 4.3.11.09 0 .18.01.28.01 1.94.06 3.88.13 5.81.2.36.01.73.02 1.09.04 1.81.06 3.61.15 5.42.23.1 0 .21.01.32.02 2.14.1 4.28.21 6.41.33.13 0 .25.01.38.02 1.06.06 2.12.12 3.18.19 1.13.06 2.25.13 3.36.21.98.06 1.95.12 2.92.19 1.39.09 2.78.19 4.17.29 1.3.1 2.6.2 3.89.3 1.89.14 3.78.29 5.66.45 2.01.16 4.01.33 6.01.51 5.01.44 9.97.92 14.89 1.41 3.61.37 7.19.74 10.74 1.12.77.08 1.55.17 2.32.25 3.41.37 6.79.75 10.15 1.13.29.04.57.07.86.1l2.36.27c22.64 2.58 46.04 5.24 68.83 5.24.67 0 1.34 0 2-.01.66 0 1.32-.01 1.98-.02 1.31-.02 2.61-.05 3.9-.08.66-.02 1.31-.04 1.96-.06.34-.01.68-.03 1.01-.04.81-.03 1.61-.07 2.41-.11 1.2-.06 2.38-.12 3.56-.2s2.35-.16 3.51-.26c.26-.02.51-.04.77-.06.2-.02.41-.03.61-.06.58-.04 1.15-.09 1.72-.15.76-.07 1.53-.15 2.29-.23.83-.09 1.65-.18 2.47-.28.98-.12 1.95-.24 2.91-.37.12-.02.24-.03.36-.05.47-.06.93-.13 1.39-.2.51-.07 1.02-.15 1.53-.23 1.49-.22 2.96-.47 4.41-.73.74-.13 1.47-.27 2.2-.41.02 0 .05-.01.07-.01.7-.14 1.4-.28 2.1-.43.72-.15 1.43-.3 2.15-.46 1.25-.28 2.48-.57 3.71-.87.2-.05.41-.1.61-.15.67-.17 1.33-.34 1.99-.52 1.39-.37 2.76-.75 4.11-1.16 1.36-.4 2.7-.82 4.04-1.26 1.99-.66 3.97-1.36 5.91-2.1.87-.33 1.72-.67 2.57-1.01z" fill="#af7979"/><path d="m512 413.42v54.39c-.85.34-1.71.68-2.57 1-1.95.75-3.91 1.45-5.91 2.1-1.34.44-2.68.86-4.04 1.26-1.35.41-2.72.79-4.11 1.16-.66.18-1.32.35-1.99.52-.2.05-.41.1-.61.15-1.23.3-2.46.59-3.71.87-.72.16-1.43.31-2.15.46-.7.15-1.4.29-2.1.43-.02 0-.05.01-.07.01-.73.14-1.46.28-2.2.41-1.45.26-2.92.51-4.41.73-.51.08-1.02.16-1.53.23-.46.07-.92.14-1.39.2-.12.02-.24.03-.36.05-.96.13-1.93.25-2.91.37-.82.1-1.64.19-2.47.28-.76.08-1.53.16-2.29.23-.57.06-1.14.11-1.72.15-.2.03-.41.04-.61.06-.26.02-.51.04-.77.06-1.16.1-2.33.18-3.51.26-1.18.07-2.37.14-3.56.2-.8.04-1.6.08-2.41.11-.33.01-.67.03-1.01.04-.65.02-1.3.04-1.96.06-1.29.03-2.59.06-3.9.08-.66.01-1.32.02-1.98.02-.66.01-1.33.01-2 .01-22.79 0-46.19-2.66-68.83-5.24l-2.36-.27c-.29-.03-.57-.06-.86-.1-3.36-.38-6.74-.76-10.15-1.13-.77-.08-1.55-.17-2.32-.25-3.55-.38-7.13-.76-10.74-1.12-4.92-.49-9.88-.97-14.89-1.41-2-.18-4-.35-6.01-.51-1.88-.16-3.77-.31-5.66-.45-1.29-.1-2.59-.2-3.89-.3-1.39-.1-2.78-.2-4.17-.29-.97-.07-1.94-.13-2.92-.19-1.11-.08-2.23-.15-3.36-.21-1.06-.07-2.12-.13-3.18-.19-.13-.01-.25-.02-.38-.02-2.13-.12-4.27-.23-6.41-.33-.11-.01-.22-.02-.32-.02-1.81-.08-3.61-.17-5.42-.23-.36-.02-.73-.03-1.09-.04-1.93-.07-3.87-.14-5.81-.2-.1 0-.19-.01-.28-.01-1.43-.04-2.86-.08-4.3-.11-.09 0-.18 0-.27-.01-.84-.02-1.68-.03-2.52-.05-1.88-.03-3.76-.06-5.65-.07-1.77-.02-3.56-.03-5.34-.03h-.01c-1.53 0-3.05.01-4.56.02-.98.01-1.97.02-2.94.03-.7.01-1.4.02-2.09.03-1.33.03-2.66.05-3.98.09-1.2.03-2.39.06-3.57.1-1.07.03-2.14.07-3.21.11-1.49.06-2.97.12-4.44.19-.25.01-.49.02-.74.04-1.42.07-2.83.14-4.23.23-.1 0-.21 0-.32.01-1.6.09-3.19.2-4.77.31-1.48.1-2.95.21-4.41.32-.29.02-.59.05-.88.07-1.41.12-2.81.24-4.2.36-1.57.14-3.13.29-4.68.45s-3.09.32-4.62.5c-1.3.15-2.6.3-3.88.46-.67.08-1.34.16-2 .25-.47.06-.95.12-1.42.18-.95.13-1.89.25-2.83.38-.56.08-1.12.16-1.67.24-.8.12-1.6.23-2.39.35-2.77.42-5.52.87-8.24 1.34-2.59.45-5.16.92-7.7 1.43-1.12.22-2.22.44-3.33.67-2.21.46-4.4.94-6.57 1.44-1.09.25-2.17.5-3.25.76-1.15.28-2.3.56-3.45.86-.79.19-1.58.39-2.37.61-1.26.32-2.52.66-3.77 1-1.05.29-2.1.58-3.15.88-1.19.34-2.39.69-3.57 1.04-4.74 1.41-9.4 2.93-13.98 4.56-1.37.49-2.72.98-4.06 1.48-.67.24-1.33.49-1.99.75-.66.25-1.31.5-1.96.76-.65.25-1.3.51-1.94.77-.54.21-1.08.43-1.61.65-.74.31-1.47.61-2.2.93-.62.26-1.24.53-1.86.8-.62.26-1.23.53-1.84.81-.61.27-1.22.54-1.82.82-1.18.53-2.34 1.08-3.48 1.63-2.37 1.14-4.68 2.31-6.92 3.51-.56.3-1.11.59-1.65.9-.51.28-1.01.56-1.51.83-1.17.66-2.32 1.33-3.45 2-.48.28-.95.57-1.42.86-.52.31-1.03.63-1.54.95-2.04 1.28-4.02 2.58-5.94 3.92-.48.33-.96.66-1.43 1.01-.48.33-.95.67-1.41 1.02-.47.34-.93.68-1.39 1.03-.32.24-.63.47-.94.72h-89.04v-143.09c.11-.02.22-.03.33-.04.31-.05.63-.09.95-.13.57-.08 1.14-.15 1.71-.21.45-.05.89-.1 1.33-.14h.02c.51-.05 1.02-.1 1.53-.14.75-.07 1.51-.12 2.26-.16.63-.04 1.26-.07 1.89-.1 1.38-.06 2.76-.09 4.14-.09.74 0 1.48.01 2.22.03 1.17.02 2.33.06 3.5.13.32.02.65.04.97.06.21.01.41.02.62.04.73.05 1.47.11 2.2.18.78.06 1.56.14 2.34.24.51.05 1.01.11 1.52.18.44.05.88.11 1.32.17.79.1 1.58.22 2.37.35.59.09 1.19.19 1.79.3 1.39.24 2.8.51 4.22.81.67.14 1.35.29 2.03.44l1.63.35c0 .01-.01.01-.01.02-.49 1.17-.99 2.35-1.48 3.54-.37.89-.75 1.8-1.12 2.7-1.6 3.83-3.19 7.75-4.75 11.71-.52 1.31-1.03 2.62-1.54 3.94-.57 1.44-1.12 2.88-1.66 4.34-.29.77-.58 1.54-.87 2.31-.67 1.78-1.32 3.56-1.95 5.35-.33.9-.65 1.8-.96 2.7s-.63 1.81-.94 2.72-.62 1.81-.92 2.72c-.07.22-.15.45-.22.67-.12.37-.24.73-.35 1.1-.1.31-.2.61-.28.91-.13.45-.26.89-.38 1.33-.16.55-.29 1.1-.41 1.64-.07.32-.14.64-.2.97-.01.02-.01.03-.01.04-.45 2.49-.57 4.97-.01 7.39.03.16.07.31.12.46.01.07.03.15.06.22.02.08.05.16.07.23.02.08.05.15.08.22.07.21.14.42.23.61.13.32.28.63.44.91.11.21.23.4.36.59.12.18.24.34.37.5.07.1.15.2.24.29.12.15.25.28.4.41.06.06.12.11.18.17.07.06.14.12.21.17.16.13.32.25.49.36.11.06.21.12.32.18s.22.12.33.17c.22.1.45.19.68.26.09.03.18.06.27.08.11.03.21.05.32.07.15.04.3.06.45.08l.36.03c.15.01.3.02.46.02.2 0 .41-.01.61-.03.3-.02.59-.06.89-.12.13-.02.25-.05.38-.08.21-.05.42-.11.62-.17.21-.06.42-.13.62-.2s.4-.15.59-.23c.2-.08.39-.16.58-.25.13-.06.26-.12.39-.19.25-.12.49-.24.74-.38.14-.07.28-.15.41-.23.45-.26.9-.53 1.32-.81.21-.14.42-.27.62-.41.21-.14.41-.27.6-.41l10.77-7.53.65 2.91c.04.19.09.38.14.56.04.16.09.33.14.49.14.5.32.98.52 1.46.09.23.2.46.31.69.12.24.24.48.37.71.11.21.23.41.35.6.12.2.24.39.37.58.25.36.5.67.76.94.51.54 1.04.9 1.58 1.1 0 .01.01 0 .01 0 .27.1.54.15.81.16h.13c.21-.01.41-.04.62-.1.06-.02.13-.04.19-.06.08-.03.17-.06.25-.1.12-.05.24-.11.37-.18h.01c.07-.04.13-.08.2-.12.05-.03.1-.07.15-.11.13-.08.26-.18.38-.28.14-.1.26-.21.38-.33.13-.12.27-.24.4-.38h.01c.27-.27.53-.55.79-.84.22-.24.44-.5.65-.76.08-.1.16-.2.24-.31.23-.29.45-.58.66-.88.19-.27.38-.54.55-.82.05-.06.1-.13.14-.2l2.04-3.22 1.07 2.51c.42 1.05.88 2.07 1.37 3.06.08.17.17.34.26.51.04.08.09.17.14.26.3.55.67 1.11 1.15 1.54.08.08.17.16.26.23.07.06.15.11.22.16.26.18.54.32.84.43.13.05.28.09.42.13.25.06.51.1.78.11.03 0 .06.01.09.01l1.85.11-.5 8.75-.85 14.84c-.01.14-.02.29-.02.45l.01.35c.03.3.1.61.28.86.23.33.6.53.95.65l.24.07c.09.03.2.06.28.08 3.25.9 6.65 1.35 10.1 1.35.48 0 .96-.01 1.44-.03.37-.01.74-.03 1.11-.06.25-.01.49-.03.74-.05.86-.07 1.72-.17 2.57-.31.39-.06.78-.12 1.16-.19.3-.06.6-.11.89-.18.33-.06.65-.13.97-.21.38-.09.76-.18 1.14-.29.02 0 .04-.01.06-.02.17-.04.33-.09.49-.14.39-.11.78-.22 1.17-.35.12-.04.23-.08.35-.12.27-.09.71-.23.91-.57.16-.25.15-.58.14-.85l-.01-.42c-.02-.81-.06-1.63-.1-2.44 0-.25-.02-.49-.04-.75-.04-.85-.1-1.71-.17-2.57-.03-.42-.06-.83-.1-1.25-.03-.45-.08-.9-.12-1.36-.09-.93-.19-1.86-.3-2.79-.01-.05-.01-.1-.02-.15-.12-.97-.25-1.94-.39-2.92-.21-1.43-.44-2.86-.69-4.28-.09-.48-.18-.96-.27-1.43-.24-1.3-.51-2.59-.8-3.88l-.77-3.55 3.91 2.25c.05.03.1.06.15.08.03.02.07.04.11.06.19.1.38.2.58.28.25.11.51.2.77.28.18.06.37.1.55.14.22.05.44.09.66.11h.01c.02.01.03.01.04 0 .03.01.06.01.09.01.17.02.36.03.53.03.25 0 .5-.01.74-.05.21-.03.42-.07.62-.12.25-.06.5-.14.73-.24.36-.15.71-.35 1.06-.58.17-.12.33-.24.48-.37.16-.13.32-.27.48-.43.83-.81 1.55-1.87 2.14-3.15.09-.18.17-.37.25-.56.08-.2.16-.4.24-.6.15-.42.3-.86.46-1.36l1.27-3.96.07.11 2.23 3.35c.13.19.26.38.4.57.46.68.96 1.34 1.47 1.98.52.64 1.06 1.27 1.62 1.88.11.13.22.24.32.35.09.09.19.19.3.27.2.18.37.3.55.4.08.04.16.08.25.12.02.01.05.02.07.03.06.02.13.04.2.06.16.05.33.07.49.07.39 0 .78-.13 1.15-.37.12-.08.24-.17.35-.27.1-.1.21-.21.3-.32.09-.1.18-.21.25-.32.08-.11.15-.23.21-.35.08-.14.16-.29.23-.44s.13-.3.18-.45c.08-.18.13-.36.17-.53.02-.07.04-.14.05-.21l1.02-4.82.01-.06.01.02 2.33 3.74c.3.51.61.99.95 1.42.11.14.23.28.34.41.15.18.31.35.47.52.06.05.1.09.15.14.17.16.35.32.54.47.33.27.69.51 1.06.73.37.21.76.39 1.17.53.81.31 1.66.47 2.48.47.78 0 1.5-.14 2.15-.42.11-.05.21-.1.32-.15.07-.03.14-.07.2-.11.21-.11.42-.24.61-.39.15-.11.3-.23.43-.37.05-.04.09-.08.13-.13.09-.09.18-.18.26-.28.12-.15.24-.3.35-.46s.21-.33.31-.5.18-.36.26-.55.16-.38.22-.59c.09-.27.17-.56.23-.86.05-.24.09-.49.12-.75.01-.11.03-.22.04-.34.01-.11.02-.23.03-.35.08-.84.07-1.77-.04-2.79-.02-.31-.05-.62-.1-.94-.02-.22-.05-.45-.09-.68l-.05-.29-.42-2.63 2.84.64c.34.09.7.13 1.08.13.31 0 .62-.03.95-.09.28-.05.56-.12.83-.2.65-.19 1.36-.5 2.12-.9.64-.34 1.22-.71 1.67-1.01.16-.12.32-.23.48-.34l1.87-1.31 5.78-4.05v.01l.78 2.67c.01.04.02.09.04.13.01.06.03.12.06.18.06.22.14.42.22.63.06.17.14.35.23.52.01.04.03.08.05.12.05.1.1.21.16.31 0 .03.02.05.03.07.06.14.14.27.22.4.13.23.27.45.42.67.1.14.2.27.31.4.04.04.08.09.12.14.35.4.7.68 1.04.84.27.13.54.19.82.2.64 0 1.3-.33 2.06-1.04l.01-.01c.05-.05.11-.1.16-.15.2-.2.39-.4.56-.61.14-.16.28-.32.42-.49.07-.08.14-.16.2-.25.07-.08.14-.17.2-.26.12-.15.23-.3.34-.46.01-.01.02-.02.03-.04l1.89-2.68s.85 1.8 1.39 2.89c.12.28.26.56.39.84h.01c.05.1.09.19.14.28.33.65.67 1.17 1.18 1.58.09.07.19.14.3.19.05.04.11.07.17.09.11.07.23.11.35.15.14.05.28.09.43.11l1.76.3-.12 2.14-.84 14.75c-.03.49-.03.88.19 1.2.22.29.6.45.89.54l.41.11c.46.12.92.23 1.39.33.35.07.7.14 1.05.2.91.15 1.83.26 2.76.32.62.04 1.24.06 1.87.06.38 0 .76-.01 1.13-.02.38-.02.75-.04 1.13-.07.18-.01.36-.02.55-.05.19-.01.38-.03.56-.06.34-.04.68-.09 1.01-.14.22-.03.43-.07.64-.11.11-.02.21-.04.32-.06.46-.09.92-.19 1.37-.31.46-.11.91-.23 1.36-.37.23-.07.46-.14.69-.22.2-.06.51-.16.65-.4.11-.19.11-.42.1-.62l-.02-.74c-.02-.62-.05-1.24-.09-1.86-.01-.21-.02-.42-.04-.63 0-.09 0-.18-.01-.27-.02-.41-.06-.81-.09-1.22-.01-.23-.03-.45-.06-.67-.03-.43-.07-.86-.12-1.28-.02-.29-.06-.58-.09-.87 0-.04 0-.08-.01-.12-.05-.54-.12-1.06-.19-1.59-.04-.33-.08-.67-.14-1 .01-.01 0-.02 0-.02-.07-.53-.15-1.05-.23-1.57-.16-1.02-.33-2.05-.54-3.06-.06-.33-.13-.65-.19-.97-.03-.19-.07-.38-.11-.56l-.62-3.03 2.97 1.15c.04.02.07.03.1.04.17.08.34.13.51.19.4.14.79.23 1.18.28.15.01.29.02.44.02.17 0 .33-.01.49-.03s.32-.05.47-.09c1.44-.37 2.7-1.6 3.54-3.45.09-.19.18-.39.25-.6.04-.08.07-.16.09-.24l.36-1.01c0-.01 0-.01.01-.02l.9-2.54 1.94 2.65c.1.14.2.27.3.41.15.21.31.42.47.63.31.41.63.8.97 1.19.17.19.33.38.5.56.04.04.07.08.11.12l.26.26c.24.22.52.42.85.5.14.04.25.05.37.05.28 0 .56-.09.81-.25.35-.24.62-.57.8-.88l.09-.16c.07-.15.16-.34.24-.56l1.22-2.9 2.1 2.69c.03.03.05.06.08.09.12.14.24.28.37.41.11.12.21.22.33.32.08.08.17.15.25.22.12.1.24.19.37.28.51.34 1.06.6 1.63.75.05.01.1.02.16.04.14.04.28.07.43.09.12.02.23.04.35.05.16.02.31.03.47.03.45 0 .88-.06 1.28-.2.2-.06.39-.14.57-.24.18-.08.35-.19.51-.32h.01c.27-.2.5-.43.69-.68.02-.02.03-.04.03-.05.05-.05.09-.11.12-.17.03-.03.05-.06.06-.09.04-.05.08-.1.1-.15.02-.02.03-.05.04-.07.04-.06.07-.11.09-.17.05-.08.08-.15.11-.23.06-.12.11-.25.15-.39.06-.15.1-.31.14-.47.05-.18.09-.37.12-.56.28-1.64 0-3.35-.12-4.12-.06-.38-.13-.74-.19-1.11-.01-.03-.01-.06-.02-.08-.06-.34-.13-.68-.19-1.02l-.32-1.72c-.02-.14-.05-.28-.08-.42l-.22-1.21 1 .33c.74.26 1.48.51 2.23.75 1.39.47 2.78.93 4.18 1.37 1.4.45 2.79.88 4.2 1.3 1.26.39 2.53.76 3.8 1.12.33.11.67.2 1 .28.12.03.23.07.35.1.84.24 1.67.47 2.51.7.12.03.23.06.35.09.27.09.55.16.82.22 1.18.32 2.35.63 3.52.93.11.03.21.06.32.08.15.04.3.07.45.11.04.01.09.02.13.03.97.25 1.94.49 2.91.72.61.16 1.23.3 1.84.44.88.21 1.76.41 2.64.61.32.08.65.16.98.23 1.28.28 2.55.56 3.83.83 1.38.29 2.76.58 4.14.85.12.03.25.06.38.08 1.25.25 2.51.49 3.76.73.26.05.53.1.79.15 1.25.23 2.5.46 3.76.68 2.85.5 5.71.98 8.56 1.42 2.78.43 5.56.84 8.34 1.22.17.03.34.05.51.07 1.32.18 2.65.35 3.97.52 1.3.17 2.6.33 3.89.48.54.08 1.08.14 1.63.2 2.1.25 4.2.49 6.3.71.42.05.84.09 1.27.13 1.31.14 2.61.27 3.91.4 1.41.15 2.82.28 4.22.41 2.8.26 5.6.5 8.39.73 1.39.12 2.78.23 4.17.34 2.62.2 5.24.39 7.84.58 1.52.11 3.03.22 4.54.31 5.43.37 10.79.7 16.08 1.03.03 0 .05.01.07 0 1.32.08 2.64.16 3.96.24 1.15.07 2.31.14 3.47.22.15.01.29.02.44.02 2.41.15 4.86.3 7.34.44 2.56.15 5.15.3 7.77.44 1.31.07 2.63.14 3.95.21.24.01.47.03.71.04 1.09.06 2.19.11 3.29.16 1.45.07 2.91.14 4.38.21 1.34.06 2.68.12 4.03.17 3.99.16 8.03.3 12.11.41.04-.01.09 0 .14 0 5.53.15 11.12.23 16.74.23 3.84 0 7.62-.04 11.34-.13 1.79-.03 3.58-.08 5.34-.14 1.91-.06 3.8-.14 5.67-.22 25.76-1.19 48.49-4.49 68.79-9.98 1.86-.51 3.69-1.03 5.51-1.57.67-.2 1.34-.4 2.01-.61z" fill="#9bc96a"/><path d="m512 328.68v84.75c-.67.21-1.33.41-2.01.6-1.82.55-3.66 1.08-5.51 1.57-20.39 5.58-42.82 8.83-68.79 9.98-1.87.08-3.76.16-5.67.22-1.76.05-3.54.1-5.34.14-3.74.08-7.56.12-11.45.12-5.59 0-11.14-.08-16.63-.22-.05 0-.1-.01-.14 0-4.08-.11-8.12-.25-12.11-.41-1.35-.05-2.69-.11-4.03-.17-1.47-.07-2.93-.14-4.38-.21-1.1-.05-2.2-.1-3.29-.16-.24-.01-.47-.03-.71-.04-1.32-.07-2.64-.14-3.95-.21-2.62-.14-5.21-.29-7.77-.44-2.48-.14-4.93-.29-7.34-.44-.15 0-.29-.01-.44-.02-1.16-.07-2.32-.14-3.46-.21-1.32-.08-2.64-.16-3.97-.25-.02.01-.04 0-.07 0-5.28-.32-10.65-.65-16.08-1.03-1.51-.09-3.02-.2-4.54-.31-2.6-.19-5.22-.38-7.84-.58-1.39-.11-2.78-.22-4.17-.34-2.79-.23-5.59-.47-8.39-.73-1.4-.13-2.81-.26-4.22-.41-1.3-.13-2.6-.26-3.91-.4-.43-.04-.85-.08-1.27-.13-2.1-.22-4.2-.46-6.3-.71-.55-.06-1.09-.12-1.63-.2-1.29-.15-2.59-.31-3.89-.48-1.32-.17-2.65-.34-3.97-.52-.17-.02-.34-.04-.51-.07-2.78-.37-5.56-.78-8.34-1.22-2.85-.44-5.71-.91-8.56-1.42-1.26-.22-2.51-.45-3.76-.68-.26-.05-.53-.1-.79-.15-1.25-.24-2.51-.48-3.76-.73-.13-.02-.26-.05-.38-.08-1.38-.27-2.76-.56-4.14-.85-1.28-.27-2.55-.55-3.83-.83-.33-.07-.66-.15-.98-.23-.88-.2-1.76-.4-2.64-.61-.61-.14-1.23-.28-1.84-.44-.97-.23-1.94-.47-2.91-.72-.04-.01-.09-.02-.13-.03-.15-.04-.3-.07-.45-.11-.11-.02-.21-.05-.32-.08-1.17-.3-2.34-.61-3.52-.93-.27-.06-.55-.13-.82-.22-.12-.03-.23-.06-.35-.09-.84-.23-1.67-.46-2.51-.7-.12-.03-.23-.07-.35-.1-.33-.08-.67-.17-1-.28-1.27-.36-2.54-.73-3.8-1.12-1.41-.42-2.8-.85-4.2-1.3-1.4-.44-2.79-.9-4.18-1.37-.75-.24-1.49-.49-2.23-.75l-1.04-.37h-.01l-.23-1.03c-.01-.03-.01-.07-.02-.1-.99-4.35-2.2-8.62-3.55-12.76-.2-.59-.39-1.18-.59-1.77-.32-.93-.65-1.86-.98-2.79-.03-.11-.07-.22-.12-.33-.34-.95-.69-1.89-1.05-2.83-.71-1.89-1.45-3.76-2.21-5.61-.44-1.08-.89-2.15-1.33-3.22-.08-.18-.16-.36-.23-.54-1.29-3.06-2.6-6-3.87-8.83l-.39-.86.31-.62c.04-.08.08-.15.11-.23.1-.2.19-.41.27-.61.07-.17.13-.34.18-.51.06-.22.12-.44.16-.66.05-.23.08-.45.11-.67.06-.55.06-1.1.02-1.65 0-.09-.01-.19-.02-.28-.02-.16-.04-.31-.06-.46-.03-.21-.07-.43-.11-.65-.03-.18-.07-.35-.11-.53-.07-.34-.16-.67-.26-1.01-.25-.9-.57-1.8-.91-2.71-.31-.82-.62-1.64-.94-2.45-.64-1.63-1.3-3.25-1.99-4.84-1.04-2.4-2.13-4.76-3.27-7.07-.38-.77-.77-1.54-1.16-2.29-.37-.75-.77-1.5-1.17-2.23-.32-.61-.65-1.21-.99-1.8l-.25-.46-.39-.72h49.77l-.04 2.04c-.02.93-.04 1.85-.05 2.76-.02 1.21-.05 2.42-.08 3.63-.13 6.06-.28 12.11-.45 18.15l-.01.37c-.17 5.95-.35 12.1.29 18.14.07.9.23 1.51.41 1.95.05.12.1.24.16.33s.12.18.18.26c.08.1.17.21.27.3.08.08.16.15.25.21s.18.12.28.17c.22.12.46.22.7.28.13.05.26.08.38.1.13.03.26.06.4.09.09.02.18.04.27.05.92.17 1.84.33 2.76.48.63.1 1.28.2 1.94.29.82.13 1.65.25 2.48.35.05.01.09.01.14.02.12.02.25.03.38.05.81.11 1.62.2 2.43.28h.01c.56.07 1.12.13 1.68.18.06.01.12.01.18.02.34.03.68.07 1.02.09.39.03.78.06 1.17.09.74.07 1.48.13 2.22.17.62.03 1.23.07 1.83.1.49.03.99.06 1.48.07.4.01.79.03 1.18.04l1.92.05h.17c.18.01.36.01.54.01h.59c.41.02.81.02 1.22.02 1.61 0 3.22-.03 4.83-.09.69-.02 1.38-.05 2.06-.09h.08c.45-.02.91-.04 1.36-.07.69-.04 1.38-.09 2.07-.14l.67-.06.03.02.29.19.22.15h.01l.01.01c3.54.1 7.07.2 10.61.29s7.08.18 10.61.27 7.06.18 10.59.26c3.84.09 7.68.18 11.51.26 2.73.06 5.45.12 8.17.18 4.13.09 8.25.17 12.36.26 3.4.07 6.79.14 10.17.21 3.38.06 6.74.13 10.09.2 29.97.59 57 1.14 84.21 1.94.2 0 .42.01.66.01 1.04 0 2.22-.09 3.12-.81.15-.12.28-.26.4-.4.06-.08.12-.15.17-.23l.15-.24c.05-.09.09-.17.13-.26.04-.08.08-.17.11-.26.1-.27.18-.56.25-.85.03-.15.05-.29.08-.44s.05-.3.05-.45c.03-.21.05-.42.05-.61.01-.2.02-.4.03-.6l1.82-49.95z" fill="#af7979"/><path d="m512 263.02v65.66h-60.61l.52-14.19 5.42.27c.64.03 1.32.06 2.02.09.23.01.47.02.7.03.28.01.56.02.84.02.4.01.8.02 1.2.02h.03c.97 0 1.87-.03 2.7-.09.21-.01.42-.03.62-.05s.4-.04.6-.06c.97-.11 1.89-.27 2.77-.48-.5-1.01-1.01-2.02-1.52-3.03-.53-1.06-1.07-2.13-1.63-3.19-.6-1.16-1.21-2.32-1.83-3.48-.41-.79-.84-1.58-1.27-2.37-.52-.96-1.05-1.93-1.58-2.89-.82-1.48-1.65-2.96-2.5-4.43-.49-.86-.99-1.71-1.49-2.57-.72-1.25-1.46-2.49-2.2-3.73-.56-.96-1.14-1.91-1.73-2.85-.65-1.05-1.3-2.1-1.95-3.14-1.11-1.79-2.25-3.58-3.42-5.35-2.15-3.33-4.37-6.63-6.65-9.88l-1.54-2.21-.02-.03 2.6-.82c.3-.09.59-.19.89-.27.07-.02.15-.05.22-.07.53-.16 1.07-.32 1.61-.48.52-.15 1.05-.3 1.57-.44.42-.12.85-.24 1.27-.35.13-.03.25-.07.38-.1.75-.2 1.5-.39 2.25-.56.04-.01.07-.02.11-.03.78-.19 1.56-.37 2.34-.54.36-.09.73-.17 1.1-.24.36-.08.73-.15 1.1-.23.1-.02.21-.04.32-.06 1.56-.32 3.13-.6 4.7-.84.8-.13 1.61-.25 2.42-.36 1.62-.23 3.24-.42 4.86-.58.82-.08 1.63-.15 2.44-.21 3.25-.27 6.52-.4 9.79-.4.21 0 .41 0 .62.01.21 0 .42 0 .62.01 1 .01 2.01.03 3.01.06.97.03 1.95.07 2.92.13.1.01.21.02.32.02.53.04 1.06.07 1.6.11.6.04 1.2.09 1.8.15.55.05 1.1.1 1.65.16.65.06 1.31.13 1.96.21.11.01.22.02.33.04.98.12 1.96.25 2.94.39s1.96.29 2.93.46c.49.08.97.16 1.45.25.49.09.98.19 1.46.28.3.06.6.12.9.17.73.15 1.44.3 2.13.46.32.07.64.14.95.22.31.07.63.15.93.23.28.07.55.14.81.2.33.09.66.18.98.27.49.14.96.27 1.41.42.28.08.56.17.83.26z" fill="#317b36"/><path d="m512 212.08v50.94c-.27-.09-.55-.18-.83-.26-.45-.15-.92-.28-1.41-.42-.32-.09-.65-.18-.98-.27-.26-.06-.53-.13-.81-.2-.3-.08-.62-.16-.93-.23-.31-.08-.63-.15-.95-.22-.69-.16-1.4-.31-2.13-.46-.3-.06-.6-.12-.9-.18-.97-.19-1.94-.36-2.91-.52-.97-.17-1.95-.32-2.93-.46s-1.96-.27-2.94-.39c-.11-.02-.22-.03-.33-.04-.65-.08-1.31-.15-1.96-.21-.55-.06-1.1-.11-1.65-.16-.6-.06-1.2-.11-1.8-.15-.54-.04-1.07-.07-1.6-.11-.11 0-.22-.01-.32-.02-.97-.06-1.95-.1-2.92-.13-1-.03-2.01-.05-3.01-.06-.4-.01-.81-.01-1.21-.01-3.28 0-6.56.13-9.82.39-.81.06-1.62.13-2.44.21-1.62.17-3.24.36-4.86.58-.81.11-1.62.23-2.42.36-1.57.25-3.14.53-4.7.84-.11.02-.22.04-.32.06-.37.08-.74.15-1.1.23-.37.07-.74.15-1.1.24-.78.17-1.56.35-2.34.54-.04.01-.07.02-.11.03-.75.17-1.5.36-2.25.56-.13.03-.25.07-.38.1-.42.11-.85.23-1.27.35-.52.14-1.05.29-1.57.44-.54.16-1.08.32-1.61.48-.07.02-.15.05-.22.07-.7.22-1.39.43-2.09.66l-1.38.46h-.01l-.44-.62v-.01l-.5-.69c-.9-1.25-1.81-2.5-2.73-3.74-1.45-1.98-2.93-3.93-4.4-5.85-.47-.62-.94-1.24-1.43-1.85-.48-.61-.95-1.22-1.43-1.82-.47-.6-.94-1.2-1.42-1.8-.15-.19-.3-.37-.46-.56-.19-.24-.38-.47-.57-.69-.16-.19-.33-.38-.5-.57-.31-.34-.61-.66-.93-.95-.11-.11-.23-.22-.36-.32-.22-.19-.46-.38-.69-.55-.24-.18-.49-.34-.75-.5-.29-.17-.59-.32-.9-.46-.19-.08-.38-.16-.58-.23-.28-.1-.56-.19-.84-.27-.16-.06-.33-.1-.49-.13-.66-.17-1.32-.29-1.98-.36-.3-.04-.59-.07-.88-.1-.36-.03-.71-.06-1.06-.08-.31-.02-.61-.03-.91-.05-6.69-.41-13.17-.81-19.52-1.19-.9-.06-1.81-.11-2.71-.16-2.38-.14-4.77-.28-7.16-.41-10.28-.58-20.64-1.11-31.04-1.52-.11-.01-.22-.01-.33-.01l.77-1.3 11.23-19.16c.63-1.06 1.33-2.25 1.9-3.53.14-.31.28-.64.4-.96.01-.01.01-.02.01-.03.12-.32.23-.64.33-.97.04-.17.09-.34.13-.51.05-.17.08-.34.11-.51.04-.18.06-.35.09-.52.03-.18.05-.35.06-.52.02-.22.02-.45.02-.67 0-.62-.06-1.24-.17-1.85.01-.01.01-.01 0-.02-.12-.6-.28-1.2-.47-1.79-.2-.58-.43-1.15-.68-1.7-.08-.19-.18-.39-.28-.59-.08-.17-.17-.33-.26-.5-.18-.34-.36-.67-.55-.99-.3-.52-.61-1.02-.92-1.5-.14-.21-.28-.43-.42-.64-.28-.42-.57-.85-.85-1.27-.43-.63-.87-1.25-1.29-1.85-.26-.38-.53-.76-.81-1.16-1.06-1.5-2.1-2.97-3.08-4.45-.74-1.12-1.45-2.26-2.11-3.43-1.11-1.95-2.04-3.93-2.66-6.01-.06-.21-.12-.42-.18-.63s-.12-.43-.18-.65c-.21-.84-.36-1.69-.46-2.56-.05-.43-.09-.88-.11-1.32-.02-.32-.02-.64-.02-.96 0-.29.01-.58.02-.87.01-.33.03-.66.07-.98.02-.23.04-.46.08-.7.1-.88.27-1.76.5-2.62.05-.21.11-.41.17-.62.06-.24.13-.47.21-.7.32-1.05.73-2.09 1.2-3.13.16-.35.32-.69.48-1.03 0-.01 0-.01 0-.01.14-.28.28-.57.43-.85 1.03-2 2.27-3.96 3.62-5.92.31-.45.62-.89.93-1.33 0-.01 0-.01 0-.01.32-.45.64-.89.97-1.34.49-.67.99-1.34 1.49-2.01l22.48-29.89.6-.8.91-1.22.16-.21 1.18 1.58.42.57c.06.08.11.15.17.23.01.01.02.03.03.04.08.1.15.21.22.31.08.11.15.22.21.32.08.11.15.22.22.33.11.17.22.34.32.5 5.26 8.32 11.36 16.11 18.1 23.17.84.88 1.69 1.74 2.55 2.6 3.88 3.87 7.96 7.5 12.21 10.86.94.75 1.89 1.48 2.85 2.19.68.51 1.36 1.01 2.05 1.51.77.55 1.54 1.1 2.32 1.63 1.58 1.08 3.17 2.14 4.79 3.16 2.44 1.54 4.92 3.02 7.43 4.44 2.08 1.18 4.2 2.32 6.32 3.44s4.26 2.2 6.41 3.27c1.72.86 3.45 1.7 5.18 2.53 1.72.83 3.44 1.64 5.15 2.45 1.73.81 3.45 1.62 5.17 2.42 2.51 1.17 5.04 2.36 7.56 3.55.81.39 1.61.77 2.41 1.16.84.4 1.67.8 2.51 1.21.83.4 1.66.81 2.49 1.22 2.13 1.05 4.25 2.13 6.35 3.23.68.35 1.35.71 2.03 1.07.04.02.07.04.11.06.94.51 1.88 1.02 2.82 1.54.84.47 1.68.94 2.52 1.42 2.74 1.57 5.45 3.21 8.1 4.93.68.44 1.35.88 2.01 1.33.11.07.21.14.32.21.37.25.75.51 1.12.76z" fill="#c29970"/><path d="m0 0v245.91l130.29-93.22c.39-.27.79-.55 1.19-.8.81-.5 1.77-.93 2.76-.93.17 0 .34.01.51.04.42.07.82.22 1.19.42.43.22.83.51 1.2.81l.9.79c1.14 1 2.29 2 3.44 3 1.23 1.08 2.47 2.15 3.72 3.22.81.7 1.62 1.4 2.43 2.09s1.62 1.39 2.43 2.08c3.25 2.77 6.52 5.52 9.81 8.25 1.64 1.36 3.29 2.72 4.94 4.08 1.07.88 2.14 1.76 3.21 2.63 1.84 1.5 3.69 2.99 5.54 4.48 1.34 1.08 2.69 2.16 4.04 3.22.7.56 1.41 1.12 2.12 1.68 1.32 1.06 2.64 2.1 3.96 3.12l3.57 2.79c3.2 2.49 6.42 4.96 9.65 7.41.72.55 1.44 1.09 2.16 1.63.16.13.32.26.49.38l1.03.78.01-.01h.02l1.11-.62c.9-.5 1.8-.98 2.69-1.44.06-.03.12-.07.19-.1.59-.3 1.18-.6 1.78-.89 1.07-.53 2.14-1.04 3.2-1.53.83-.38 1.66-.75 2.49-1.12.94-.41 1.87-.8 2.8-1.19s1.86-.78 2.78-1.15c.93-.38 1.85-.75 2.77-1.12s1.83-.73 2.74-1.09c.77-.3 1.54-.61 2.31-.92l1.3-.51 1.63-.66 2.17-.87 4.4-1.76.12-.36.11-.35 14.78-44.64c.06-.17.11-.37.16-.57.06-.2.11-.41.16-.62.04-.14.08-.28.11-.42.04-.17.08-.34.12-.52 0-.01 0-.02.01-.03.04-.18.09-.37.14-.56.06-.23.12-.44.18-.64.03-.1.06-.2.09-.29.03-.1.06-.21.1-.31.03-.1.06-.19.1-.28.08-.22.17-.42.26-.6v-.01c.15-.3.33-.56.52-.77.23-.24.46-.43.73-.58l1.03-.58v-.12l-.17-13.92.18 13.93v.28l.76.6c.17.13.33.29.49.47.13.14.27.32.42.57.06.09.12.18.17.27.06.1.11.19.17.29.26.48.58 1.14.95 2.05.13.32.26.64.38.97.02.07.05.13.07.19l.05.13c.03.08.06.16.08.22.02.07.04.13.07.19.19.46.39.93.58 1.39 1.58 3.84 2.94 7.23 4.15 10.34.25.65.51 1.3.76 1.96.26.65.51 1.31.76 1.97.85 2.2 1.7 4.45 2.54 6.71.68 1.81 1.35 3.64 2.02 5.49.51 1.42 1.01 2.83 1.51 4.24l.64 1.79.11.32 65.75-32.1 12.64-6.17 31.89-15.57c.11-.06.23-.12.36-.18.26-.13.51-.24.76-.35.18-.09.36-.16.55-.23.18-.08.37-.14.55-.21.18-.06.35-.12.54-.16.17-.06.36-.1.54-.13.18-.04.36-.06.54-.08.18-.03.37-.04.55-.04.08 0 .15 0 .23.01.22.01.44.03.65.07.85.17 1.59.57 2.25 1.11h.01c.49.4.93.87 1.34 1.37.22.27.42.53.59.8.01.01.02.03.03.04.08.1.15.21.22.31.08.11.15.22.21.32.08.11.15.22.22.33.11.17.22.34.32.5 5.26 8.32 11.36 16.11 18.1 23.17.84.88 1.69 1.74 2.55 2.6 3.88 3.87 7.96 7.5 12.21 10.86.94.75 1.89 1.48 2.85 2.19.68.51 1.36 1.01 2.05 1.51.77.55 1.54 1.1 2.32 1.63 1.57 1.09 3.17 2.14 4.79 3.16 2.44 1.54 4.92 3.02 7.43 4.44 2.08 1.18 4.2 2.33 6.32 3.44 2.12 1.12 4.26 2.2 6.41 3.27 1.72.86 3.45 1.7 5.18 2.53 1.72.83 3.44 1.64 5.15 2.45 1.73.81 3.45 1.62 5.17 2.42 2.51 1.17 5.04 2.36 7.56 3.55.81.39 1.61.77 2.41 1.16.84.4 1.67.8 2.51 1.21.83.4 1.66.81 2.49 1.22 2.13 1.05 4.25 2.13 6.35 3.23.68.35 1.35.71 2.03 1.07.04.02.07.04.11.06.94.51 1.88 1.02 2.82 1.54.84.46 1.68.94 2.52 1.42 2.74 1.57 5.45 3.21 8.1 4.93.68.44 1.35.88 2.01 1.33.11.07.21.14.32.21.37.25.75.51 1.12.76v-212.08zm365 86.36v-.01c-.01-.01-.01-.01 0-.02-.01-.01-.01-.02 0-.03-.01-.03-.01-.04 0-.07.01-.22.02-.43.05-.64.03-.25.05-.51.08-.76.04-.25.07-.5.11-.75.08-.49.19-.97.31-1.44.03-.11.06-.23.1-.34.03-.12.07-.24.11-.35.2-.6.44-1.19.75-1.73.1-.19.21-.36.32-.54.06-.1.13-.19.19-.28.1-.16.22-.31.34-.46.14-.19.3-.36.47-.54.34-.35.72-.67 1.13-.96.23-.16.46-.31.7-.44.18-.1.36-.19.55-.28.01-.01.03-.01.05-.02.24-.1.49-.2.74-.29.77-.26 1.62-.44 2.56-.55.33-.04.65-.06.95-.07.33-.02.67-.03 1.01-.03.3 0 .61.01.91.02.21 0 .42.01.63.03.17 0 .33.01.5.03.23.01.45.03.66.04.28.02.54.04.81.06l10.5.88-.25-1.39c-.04-.21-.09-.41-.12-.62-.12-.55-.22-1.09-.3-1.64-.06-.35-.11-.71-.16-1.06-.17-1.13-.29-2.25-.36-3.37-.01-.24-.03-.47-.04-.7-.07-1.18-.08-2.35-.04-3.5.02-.82.07-1.64.15-2.45.04-.41.08-.82.13-1.22.1-.81.23-1.6.38-2.39.14-.78.32-1.55.52-2.3.23-.88.5-1.75.81-2.59.14-.43.3-.85.48-1.26.34-.83.72-1.65 1.12-2.45 1.38-2.78 3.16-5.27 5.26-7.36.59-.62 1.2-1.18 1.83-1.71.65-.53 1.31-1.04 2-1.51.26-.18.52-.35.79-.52 3.94-2.47 8.58-3.77 13.48-3.77 4.03 0 7.95.91 11.43 2.6.54.28 1.08.56 1.6.87.18.1.35.2.52.31.51.3 1 .63 1.48.98.28.2.56.4.83.62.25.2.49.4.73.61.21.17.41.35.6.54.25.23.49.47.73.71.1.09.2.19.29.3.26.27.52.55.77.84.32.37.64.76.94 1.16.15.18.28.36.4.54.17.23.34.47.51.72 4.45 6.52 5.83 15.09 3.3 22.64-.08.28-.18.55-.28.82l-.25.66c-.01.03-.02.06-.03.09l-.87 2.3 3.24-.36c.12-.02.23-.03.35-.04.46-.06.92-.12 1.36-.18.56-.07 1.09-.15 1.59-.22l.1-.01c.64-.09 1.27-.18 1.89-.26s1.24-.15 1.85-.22h.01c.61-.06 1.21-.11 1.82-.15s1.22-.06 1.83-.06c1.32 0 2.53.1 3.68.3.23.04.46.09.69.14.23.06.46.12.68.18 4.41 1.29 8.62 5.04 8.46 9.62 0 .13-.01.26-.02.39-.01.16-.03.31-.06.47-.01.08-.02.17-.04.25-.08.53-.21 1.06-.35 1.58-.02.09-.05.18-.07.27l-.18.61-.04.13-.47 1.68c0 .01 0 .03-.01.04l-.1.35h.03l2.69-.25c.32-.03.63-.06.95-.07.17-.02.35-.03.53-.04.43-.02.87-.03 1.3-.03 3.94 0 7.9.84 11.44 2.44.25.11.49.24.72.38.15.09.3.19.44.3.15.1.29.21.42.33.11.1.22.2.32.3l.03.03c.1.1.19.21.27.32.19.25.34.51.43.78.17.49.14.95-.08 1.38-.21.39-.55.68-.9.89-.13.07-.3.17-.57.29-.42.19-.84.35-1.28.49-.38.12-.76.22-1.16.3-.13.03-.27.06-.41.08-.36.07-.73.12-1.11.15-.17.02-.35.03-.53.04-.39.03-.79.04-1.21.04-.31 0-.63-.01-.95-.02-.96-.04-1.93-.13-2.94-.22l-.27-.02c-.65-.06-1.34-.12-2.05-.17-.72-.06-1.42-.09-2.14-.09-.25 0-.5 0-.74.02-.41.01-.78.04-1.12.07-.79.08-1.61.14-2.46.19-.57.04-1.16.06-1.76.08-.91.03-1.85.05-2.84.05-.61 0-1.23-.01-1.84-.02-1.81-.03-3.63-.09-5.39-.15-.11-.01-.21-.02-.32-.02l-.99-.03c-.99-.03-1.95-.07-2.9-.09l-66.65-1.76c-4.75-.12-9.58-.25-14.33-.86l-.91-.12c-.24-.03-.48-.06-.71-.1-.03-.39-.06-.78-.09-1.18-.02-.4-.04-.8-.05-1.2-.01-.2-.02-.39-.02-.6-.01-.27-.01-.53-.01-.8 0-.52.01-1.05.04-1.58zm-98.84-23.11c0-.11 0-.22.01-.33 0-.11.01-.22.02-.33.02-.39.05-.79.09-1.19.03-.35.07-.71.13-1.06.06-.45.13-.91.22-1.37.03-.2.07-.4.12-.61.07-.34.15-.69.23-1.03.23-.96.52-1.91.85-2.85.1-.27.2-.54.3-.8.15-.4.31-.8.49-1.19.17-.4.35-.79.54-1.18.09-.19.19-.39.29-.58.43-.87.92-1.72 1.45-2.54.18-.27.36-.54.54-.81.07-.1.14-.2.21-.3.17-.25.35-.49.52-.73.54-.72 1.11-1.42 1.7-2.09 4.82-5.63 10.97-9.12 17.49-9.94.19-.02.37-.05.56-.07.8-.08 1.61-.12 2.42-.12 2.76 0 5.45.49 7.87 1.42.35.13.69.28 1.04.44.46.21.92.43 1.37.67.45.23.89.48 1.33.73.43.26.86.52 1.28.79s.83.56 1.23.86c.4.28.8.59 1.18.91.39.3.76.63 1.13.96s.72.67 1.07 1.01c.64.63 1.24 1.29 1.8 1.98.1.12.21.25.31.37.21.25.4.5.59.76.2.25.38.51.56.78.28.39.54.79.79 1.19.28.46.55.92.79 1.39.13.23.25.47.36.7.12.24.23.48.34.72s.22.48.32.73c.3.72.57 1.46.79 2.21 1.16 3.87 1.43 8.28.81 13.5-.03.26-.06.51-.1.76-.03.25-.07.51-.11.75-.07.47-.15.93-.23 1.38-.1.54-.21 1.07-.32 1.59-.08.35-.17.69-.26 1.03-.28 1.08-.6 2.11-.97 3.07-.12.3-.24.6-.36.89-.25.59-.51 1.15-.8 1.69-.23.44-.47.86-.72 1.27-.14.22-.28.45-.42.67s-.3.44-.46.66c-.09.13-.19.27-.3.4-.1.14-.21.27-.31.4-.15.2-.31.4-.48.59-.49.59-1.02 1.15-1.59 1.7-.91.88-1.89 1.72-2.96 2.5s-2.21 1.5-3.42 2.16c-.95.51-1.89.97-2.81 1.35-.62.26-1.22.48-1.83.67-1.52.5-3 .8-4.43.91-.47.03-.92.05-1.38.05-2.95 0-5.82-.7-8-1.3-.55-.16-1.08-.31-1.59-.48-.26-.08-.51-.16-.77-.25-.75-.24-1.46-.5-2.14-.77-.26-.1-.52-.21-.78-.32-.25-.1-.5-.21-.74-.32-.79-.35-1.53-.72-2.23-1.11-.76-.42-1.47-.87-2.16-1.34-.71-.49-1.39-1.03-2.03-1.61-.32-.28-.64-.58-.95-.89-.31-.3-.61-.62-.9-.94-.01-.01-.01-.01-.02-.02-.27-.29-.53-.6-.78-.91-.04-.05-.09-.1-.12-.15-.24-.3-.48-.6-.7-.91-.49-.65-.94-1.34-1.34-2.04-.12-.19-.23-.38-.33-.57-.03-.03-.05-.07-.06-.1-.13-.23-.26-.46-.38-.7-.05-.1-.11-.21-.16-.32-.12-.23-.22-.45-.33-.68-.06-.12-.11-.25-.17-.37-.15-.35-.3-.69-.43-1.05-.15-.37-.28-.74-.41-1.11-.03-.08-.05-.15-.08-.23-.09-.29-.18-.58-.26-.88-.03-.07-.05-.14-.06-.2-.04-.11-.07-.22-.09-.33-.02-.06-.04-.13-.05-.19-.09-.3-.15-.61-.22-.91-.08-.33-.15-.67-.2-1.01-.02-.04-.02-.08-.02-.12-.03-.16-.06-.32-.08-.48-.06-.35-.11-.7-.15-1.05-.03-.26-.06-.52-.07-.79-.06-.72-.1-1.44-.1-2.17 0-.29.01-.58.02-.87zm-231.79 44.77c0-.02 0-.04.01-.06 0-.06.01-.12.02-.17.02-.13.05-.25.09-.37.01-.06.03-.12.06-.18.01-.02.02-.04.03-.06.02-.06.05-.13.08-.19.39-.75 1.12-1.44 1.93-2 .18-.12.37-.23.55-.34.12-.07.24-.13.36-.19.13-.07.25-.13.38-.18.13-.07.26-.12.38-.17.55-.22 1.1-.42 1.66-.61.48-.16.96-.31 1.44-.46.01-.01.03-.01.04-.01.24-.07.49-.14.74-.21.24-.07.49-.13.74-.19.51-.13 1.01-.24 1.52-.35s1.03-.21 1.55-.29c.57-.09 1.15-.17 1.74-.25h.03c.87-.1 1.75-.17 2.63-.22.6-.03 1.2-.04 1.8-.04.67 0 1.34.02 2 .06.28.01.57.03.85.05.16.01.31.02.46.04.14.01.28.02.42.04.48.04.95.1 1.42.17.28.03.55.07.82.12.03 0 .06 0 .09.01.08 0 .15.01.22.03l2.91.49.1.02-.55-2.18-.18-.75c-.1-.4-.2-.81-.3-1.23-.19-.8-.35-1.62-.44-2.44-.05-.48-.08-.96-.07-1.44 0-.22.01-.43.03-.64.01-.18.03-.35.05-.52.01-.09.02-.19.04-.28.07-.5.19-.98.34-1.45.05-.18.11-.36.18-.54.05-.14.1-.27.16-.41.12-.29.25-.57.4-.85.1-.2.21-.4.33-.59.12-.2.24-.39.37-.58v-.01c.23-.33.47-.66.73-.97.3-.36.61-.71.95-1.04.12-.13.26-.25.39-.37.16-.15.32-.29.48-.43.29-.24.59-.48.9-.71.42-.31.85-.6 1.3-.87.15-.1.31-.19.48-.28.51-.29 1.02-.55 1.55-.78.18-.08.35-.16.53-.23.2-.08.39-.16.59-.23.32-.12.64-.23.97-.34.84-.26 1.69-.47 2.54-.61.21-.04.42-.07.63-.1.27-.03.55-.06.83-.09.22-.02.44-.04.67-.05.23-.02.46-.03.69-.04.41-.01.83-.02 1.25-.02.28 0 .55 0 .82.01.41.01.82.03 1.23.05s.82.05 1.23.09c.38.03.76.07 1.15.12.49.06.98.12 1.47.19.96.14 1.94.3 2.92.47.96.17 1.92.36 2.88.54l.27.05.18.03.18.03c.38.07.76.14 1.14.22.41.07.81.15 1.22.21.54.1 1.09.19 1.65.28.24.04.47.08.71.11.02 0 .04.01.06.01l.11.01.22.04h.01l2.71.47-.65-2.91c-.05-.23-.12-.54-.26-.96-.28-.83-.52-1.67-.73-2.51-.21-.85-.38-1.7-.52-2.56-1.8-10.98 1.97-22.68 9.86-30.53.48-.49.97-.95 1.48-1.4.45-.39.91-.78 1.38-1.14.34-.28.69-.54 1.05-.8.71-.51 1.44-.99 2.19-1.44.38-.23.76-.44 1.14-.66.37-.2.75-.4 1.13-.58.39-.2.79-.38 1.2-.56.4-.18.81-.35 1.22-.51 4.14-1.69 8.68-2.58 13.28-2.58 5.71 0 11.29 1.36 16.17 3.88.79.41 1.57.85 2.33 1.32.05.03.11.06.16.1.33.21.66.42.99.65.37.26.73.52 1.09.79.06.05.12.09.19.14.26.19.52.4.77.61.19.16.39.32.58.48.38.32.76.65 1.13.99 5.85 5.38 10.01 12.86 11.86 21.38.09.42.17.84.25 1.26.01.06.02.13.03.19.09.53.18 1.05.26 1.59s.15 1.08.21 1.62c.05.47.1.95.14 1.43.02.24.04.48.06.73.02.24.03.49.04.73.03.48.05.97.06 1.46.08 2.89-.07 5.85-.45 8.86-.15 1.15-.33 2.31-.54 3.47-.25 1.34-.54 2.69-.88 4.04-.05.21-.1.42-.16.63 0 .02-.01.05-.02.08l-.47 1.88 14.33-.53c.48-.02.97-.04 1.45-.05.47-.01.95-.02 1.42-.02.44 0 .89 0 1.35.02.45.01.91.03 1.38.07.7.05 1.41.13 2.12.25.28.05.56.1.83.16.32.07.65.15.97.24.15.04.3.09.45.14.31.1.63.21.94.34.16.06.31.13.46.2.16.07.31.14.46.22.6.3 1.18.66 1.73 1.09.24.18.46.38.68.58s.43.4.62.62c.2.21.39.43.56.66.19.22.35.45.5.69.16.23.31.47.44.72.15.25.28.5.4.76.13.26.24.52.34.78.11.27.21.54.29.81.19.54.34 1.11.46 1.68.05.22.1.45.14.68.02.13.04.27.06.4.13.77.22 1.57.26 2.37.02.26.03.52.04.79.01.18.01.36.01.54.02.58.01 1.16-.01 1.73-.01.29-.02.58-.04.87-.01.33-.03.67-.06 1-.06.78-.13 1.54-.21 2.29l-.13 1.15c-.02.15-.04.31-.06.46-.47.05-.95.1-1.43.14l-.19.02c-.91.08-1.85.15-2.81.21-.52.03-1.04.06-1.58.08-2.14.09-4.46.14-7.01.14-1.88 0-3.78-.03-5.65-.06-.96-.01-1.91-.03-2.85-.05l-90.59-1.83c-1.75-.03-3.51-.05-5.25-.07h-.12c-1.49-.02-3-.03-4.51-.06-1.38-.03-2.77-.06-4.17-.11-.69-.02-1.39-.05-2.09-.09-.92-.05-1.85-.1-2.78-.17-.42-.03-.83-.06-1.24-.1-1.65-.14-3.29-.33-4.92-.57-.63-.09-1.28-.16-1.97-.2-.71-.05-1.45-.07-2.24-.07-1.06 0-2.12.04-3.16.09l-.84.03c-1.3.06-2.65.12-3.99.12-.23 0-.47 0-.71-.01-.23 0-.46-.01-.69-.02-.45-.01-.91-.04-1.39-.09-.19-.01-.38-.03-.57-.05h-.04c-.34-.04-.67-.08-.99-.14-.31-.05-.61-.11-.92-.17-.2-.04-.39-.09-.59-.14-.15-.04-.31-.08-.46-.12-.18-.04-.35-.1-.53-.15s-.36-.11-.53-.17c-.26-.09-.52-.19-.78-.3-.14-.06-.29-.12-.44-.19-.21-.09-.41-.19-.61-.29-.09-.05-.18-.09-.27-.14-.1-.06-.19-.11-.28-.17-.1-.06-.19-.12-.28-.18-.1-.06-.2-.13-.28-.2s-.17-.14-.25-.22c-.09-.07-.17-.16-.24-.25-.11-.13-.2-.26-.27-.4-.03-.06-.07-.1-.09-.16-.08-.16-.13-.32-.16-.48-.03-.07-.04-.14-.04-.21-.01-.04-.01-.08-.01-.12-.01-.03-.01-.06-.01-.09-.01-.07-.01-.15 0-.22z" fill="#83e1f0"/><path d="m476.436 94.977c-1.386 0-2.796-.13-4.16-.255-1.296-.118-2.768-.252-4.196-.252-.724 0-1.312.025-1.849.08-2.104.21-4.418.312-7.078.312-2.427.001-4.86-.082-7.212-.163l-.298-.01c-1.366-.052-2.637-.101-3.908-.129l-66.657-1.76c-4.75-.122-9.578-.246-14.322-.855l-1.655-.213-.087-1.666c-.232-4.417.005-9.844 3.942-12.628 2.146-1.502 4.771-1.675 6.56-1.675 1.211 0 2.462.094 3.526.186l10.554.879c-1.759-7.249-1.814-14.392-.149-20.651 1.861-7.017 6.052-13.169 11.497-16.878 4.004-2.729 9.065-4.232 14.249-4.232 5.918 0 11.559 1.892 15.882 5.328 8.363 6.639 11.755 19.153 7.89 29.109-.651 1.674-.147 2.109.042 2.272.146.127.396.289.949.289.205 0 .38-.021.505-.034 1.393-.143 2.787-.338 3.985-.511l.108-.015c2.549-.352 4.957-.685 7.4-.685 1.32 0 2.524.098 3.68.299 4.978.875 10.016 4.825 9.836 9.921-.048 1.232-.395 2.428-.73 3.585l-.038.13c-.227.76-.439 1.49-.59 2.24 1.797-.373 3.65-.558 5.509-.558 3.94 0 7.897.843 11.442 2.438.992.451 1.891 1.164 2.351 1.866l1.181 1.799-1.88 1.046c-.137.076-.307.171-.571.297-1.678.753-3.477 1.094-5.708 1.094z" fill="#fff"/><path d="m462.124 314.916c-1.643 0-3.317-.084-4.795-.159l-181.159-8.875c-.078.005-.147.008-.22.008h-1.886l-.111-1.882c-.043-.733-.081-1.379-.128-2.008-.661-10.336-1.342-21.001-1.624-31.567-.225-8.588-.19-17.73.11-28.767l.05-1.842 1.84-.101c12.216-.669 24.798-.994 38.464-.994 34.571 0 69.144 2.127 102.578 4.185 2.367.146 5.313.327 7.639 1.691 1.647.963 2.849 2.382 4.251 4.137 3.808 4.749 7.651 9.817 11.421 15.061l.496.69-.152.836.815.141.461.657c10.292 14.594 19.521 29.971 27.432 45.704l1.29 2.564-2.852.321c-1.186.135-2.468.2-3.92.2z" fill="#ed6d66"/><path d="m276.17 305.88h-.03l-2.06-.1.01.11.07 1.21c0 .06 0 .13.01.2.05.75.09 1.52.14 2.3.07 1.13.14 2.28.21 3.44.13 2.26.26 4.56.38 6.87.1 1.71.18 3.43.25 5.13.8 18.19.72 37.29.66 52.63l-.01 1.86v.35l.22.01h.01l1.72.05c2.97.09 5.93.17 8.9.25 3.54.09 7.08.18 10.61.27s7.06.18 10.59.26c3.84.09 7.68.18 11.51.26 2.73.06 5.45.12 8.17.18 4.13.09 8.25.17 12.36.26 3.4.07 6.79.14 10.17.21 3.38.06 6.74.13 10.09.2 29.97.59 57 1.14 84.21 1.94.2 0 .42.01.66.01 1.04 0 2.22-.09 3.12-.81.15-.12.28-.26.4-.4.06-.08.12-.15.17-.23s.1-.16.15-.24c.05-.09.09-.17.13-.26.04-.08.08-.17.11-.26.1-.27.18-.56.25-.85.03-.15.05-.29.08-.44.02-.15.03-.3.05-.45.02-.21.04-.41.05-.61s.02-.4.03-.6l1.82-49.95.52-14.18zm22.02 10.21c.19-.04.37-.07.54-.09.18-.01.35-.02.52-.02.3 0 .59.03.85.09.02 0 .03.01.05.01.26.06.49.15.71.28.02 0 .03.01.05.02.24.14.46.32.65.53.21.21.4.45.56.71.09.12.17.26.24.39.23.4.42.83.6 1.27.3.74.58 1.49.82 2.25.25.75.47 1.52.67 2.29.02.05.03.1.04.15.08.27.15.55.2.83.05.23.11.46.15.68.05.23.1.46.14.69.03.11.05.22.06.32.04.2.08.39.11.58.04.25.08.49.12.73.05.29.09.58.13.87.04.3.08.6.12.91.04.3.07.6.1.9.1 1 .18 2 .23 3.01.01.2.02.41.03.62.15 3.6.03 7.23-.18 10.77-.07 1.18-.15 2.37-.23 3.56-.02.32-.04.63-.07.95-.06.76-.12 1.51-.18 2.26-.21 2.56-.45 5.2-.7 7.98l-.66 7.23c-.09.94-.18 1.94-.67 2.73-.07.11-.14.22-.22.31-.05.06-.11.14-.18.2 0 0-.01 0-.01.01-.06.07-.14.13-.22.19-.11.08-.22.16-.33.23s-.22.12-.33.17c-.08.04-.17.08-.26.11-.08.03-.17.06-.25.09-.17.05-.34.09-.5.12-.1.02-.21.04-.32.05-.02.01-.05.01-.08.01-.16.02-.31.03-.44.04-.2.01-.38.01-.5.01-.11 0-.22 0-.34-.01-.12 0-.24-.01-.36-.02-.59-.03-1.19-.08-1.78-.14-.85-.09-1.7-.21-2.54-.37-.06-.01-.11-.02-.16-.03-.38-.07-.77-.15-1.15-.24-.49-.1-.98-.22-1.46-.35-.28-.07-.6-.16-.91-.26-.3-.09-.6-.2-.9-.34-.18-.09-.36-.18-.52-.28-.15-.09-.3-.19-.44-.31-.14-.11-.28-.24-.4-.38s-.23-.29-.33-.45c-.14-.22-.25-.46-.35-.71-.02-.04-.03-.09-.05-.14-.06-.17-.11-.35-.15-.54-.03-.09-.05-.18-.06-.27-.03-.17-.06-.34-.08-.52-.01-.02-.01-.05-.01-.07-.02-.16-.04-.34-.05-.52-.04-.68-.03-1.42-.01-2.19.01-.41.02-.81.01-1.17l-.22-19.16c-.02-1.97-.04-3.95.03-5.92.02-.44.04-.88.06-1.31.03-.44.06-.87.1-1.31.03-.48.08-.95.14-1.42.05-.47.12-.94.19-1.4.04-.26.08-.52.13-.77.03-.17.06-.33.1-.5.07-.34.14-.68.22-1.02.05-.25.12-.5.19-.75.06-.25.13-.5.2-.75.09-.28.18-.55.27-.83.19-.54.39-1.08.62-1.6.1-.27.22-.52.34-.78.48-1.03 1.02-2.01 1.64-2.94.22-.33.45-.65.69-.96.26-.34.53-.67.8-.98s.55-.61.84-.88c.52-.5 1.09-.96 1.7-1.34.14-.09.29-.18.43-.26.14-.09.29-.17.44-.23.11-.07.23-.12.35-.17.14-.06.28-.12.43-.17.14-.05.28-.1.43-.14.18-.05.37-.1.56-.14zm30.02 1c.07-.01.15-.03.22-.04.14-.03.26-.04.37-.05.02-.01.02-.01.03 0 .01-.01.01 0 .01 0 .14-.01.28-.02.42-.02.31 0 .6.03.87.09.13.03.27.07.39.12.14.05.28.12.41.19.09.06.18.12.27.2.1.06.2.14.29.25.1.08.2.18.28.29.1.1.18.22.26.34.1.13.18.26.26.4.16.27.32.59.48.94.09.18.17.36.24.54.09.23.18.45.26.68.02.05.04.11.06.16.07.19.14.39.21.58.02.06.04.11.06.17.07.19.14.39.2.59.08.24.16.48.23.72.08.26.16.53.23.79.14.49.27.99.39 1.49.11.47.21.94.31 1.42.06.32.12.63.18.95s.11.64.16.96c.15.96.27 1.92.37 2.89.1 1.08.18 2.17.23 3.26.01.02.01.03 0 .04.01.01.01.02 0 .03v.01c.16 3.61.03 7.25-.18 10.8-.14 2.38-.32 4.78-.51 7.17-.2 2.44-.43 4.94-.67 7.58l-.66 7.23c-.02.24-.04.47-.07.71-.03.22-.07.45-.11.68-.01.08-.03.15-.05.22-.09.4-.23.78-.44 1.12-.07.11-.14.22-.22.31-.05.06-.11.14-.18.2 0 0-.01 0-.01.01-.06.07-.14.13-.22.19-.11.08-.22.16-.33.23s-.22.12-.33.17c-.08.04-.17.08-.26.11-.08.03-.17.06-.25.09-.17.05-.34.09-.5.12-.1.02-.21.04-.32.05-.02.01-.05.01-.08.01-.16.02-.31.03-.44.04-.2.01-.38.01-.5.01-.11 0-.22 0-.34-.01-.12 0-.24-.01-.36-.02-.59-.03-1.19-.08-1.78-.14-.85-.09-1.7-.21-2.54-.37-.06-.01-.11-.02-.16-.03-.38-.07-.77-.15-1.15-.24-.49-.1-.98-.22-1.46-.35-.28-.07-.6-.16-.91-.26-.3-.09-.6-.2-.9-.34-.18-.09-.36-.18-.52-.28-.15-.09-.3-.19-.44-.31-.14-.11-.28-.24-.4-.38s-.23-.29-.33-.45c-.08-.13-.16-.27-.22-.4-.14-.29-.24-.59-.32-.91-.04-.16-.07-.32-.1-.48-.03-.17-.05-.33-.07-.5-.02-.19-.04-.37-.04-.55-.02-.13-.02-.26-.02-.4-.02-.58-.01-1.16.01-1.72.01-.41.02-.81.01-1.17l-.22-19.16c-.01-.95-.02-1.9-.02-2.86 0-.78.01-1.56.03-2.34.01-.49.03-.97.05-1.45.01-.26.03-.52.04-.78.03-.46.07-.93.11-1.39 0-.09.01-.17.02-.26.02-.26.04-.52.08-.77.01-.16.03-.32.06-.48.02-.16.04-.32.06-.48.06-.45.13-.89.22-1.33.09-.51.19-1.02.32-1.52.05-.25.12-.5.19-.75.06-.25.13-.5.2-.74.09-.27.17-.55.27-.82.12-.34.24-.67.37-1s.27-.66.41-.98c.17-.39.35-.78.54-1.16.18-.34.36-.67.55-1 .23-.4.47-.8.73-1.19.22-.33.45-.65.69-.96.26-.34.53-.67.8-.98s.55-.61.84-.88c.52-.5 1.09-.96 1.7-1.34.14-.09.29-.18.43-.26.14-.09.29-.17.44-.23.11-.07.23-.12.35-.17.14-.06.28-.12.43-.17.14-.05.28-.1.43-.14.18-.05.37-.1.56-.14zm31.68 56.01c-.59-.03-1.19-.08-1.78-.14-.85-.09-1.7-.21-2.54-.37-.06-.01-.11-.02-.16-.03-.38-.07-.77-.15-1.15-.24-.49-.1-.98-.22-1.46-.35-.28-.07-.6-.16-.91-.26-.3-.09-.6-.2-.9-.34-.18-.09-.36-.18-.52-.28-.15-.09-.3-.19-.44-.31-.14-.11-.28-.24-.4-.38s-.23-.29-.33-.45c-.08-.13-.16-.27-.23-.41-.13-.29-.23-.59-.31-.9-.1-.44-.17-.91-.21-1.38-.01-.16-.01-.32-.02-.48-.02-.62 0-1.24.01-1.82v-.58c.01-.21.01-.42.01-.61l-.22-19.11c-.05-5.1-.11-10.29 1.37-15.15.17-.55.36-1.1.56-1.63.01-.04.03-.08.05-.13.08-.23.17-.45.27-.67.1-.27.22-.52.34-.78.23-.51.49-1.01.76-1.5.28-.49.57-.97.88-1.44.22-.33.45-.65.69-.96.26-.34.53-.67.8-.98s.55-.61.84-.88c.52-.5 1.09-.96 1.7-1.34.14-.09.29-.18.43-.26.14-.09.29-.17.44-.23.11-.07.23-.12.35-.17.14-.06.28-.12.43-.17.14-.05.28-.1.43-.14.18-.05.37-.1.56-.14.09-.02.17-.03.25-.05.11-.02.22-.03.33-.04.16-.01.32-.02.47-.02s.29.01.43.02c.04 0 .08 0 .12.02.12.01.24.03.35.06.13.03.25.07.37.12.13.04.25.1.37.17.01 0 .02 0 .03.01.1.06.19.12.28.2.1.07.2.15.29.25.09.09.18.19.27.29.1.11.18.22.26.34.1.13.18.26.26.4.2.34.4.75.6 1.21.04.09.08.18.12.27.09.23.18.45.26.68.02.05.04.11.06.16.07.19.14.39.21.58.02.06.04.11.06.17.07.19.14.39.2.59.08.24.16.48.23.72.08.26.16.53.23.79.14.49.27.99.39 1.49.11.47.21.94.31 1.42.06.32.12.63.18.95s.11.64.16.96c.15.96.27 1.92.37 2.89.1 1.08.18 2.17.23 3.26.01.02.01.03 0 .04.01.01.01.02 0 .03v.01c.16 3.61.03 7.25-.18 10.8-.07 1.2-.15 2.41-.24 3.62-.08 1.2-.18 2.41-.28 3.61-.1 1.21-.2 2.41-.31 3.61-.08.91-.16 1.82-.24 2.72l-.77 8.42c-.02.17-.03.35-.05.52s-.04.34-.07.51c-.02.11-.03.21-.05.32-.03.11-.05.21-.08.32-.03.14-.07.28-.12.41-.04.12-.08.23-.13.34s-.11.21-.17.31c-.07.11-.14.22-.22.31-.05.06-.11.14-.18.2 0 0-.01 0-.01.01-.06.07-.14.13-.22.19-.11.08-.22.16-.33.23s-.22.12-.33.17c-.08.04-.17.08-.26.11-.08.03-.17.06-.25.09-.17.05-.34.09-.5.12-.1.02-.21.04-.32.05-.02.01-.05.01-.08.01-.16.02-.31.03-.44.04-.2.01-.38.01-.5.01-.11 0-.22 0-.34-.01-.12 0-.24-.01-.36-.02zm31.36-54.01c.07-.01.15-.03.22-.04.35-.06.6-.08.83-.08.13 0 .25.01.37.02.05.01.11.01.16.02.09.01.18.02.27.05.05.01.1.02.15.04.11.02.21.05.31.09.14.05.28.12.41.19.2.12.39.27.56.45.1.08.19.18.28.29.1.11.18.22.26.34.1.12.18.25.25.39.21.35.41.75.61 1.22.04.09.08.18.12.27.09.23.18.45.26.68.02.05.04.11.06.16.07.19.14.39.21.58.02.06.04.11.06.17.07.19.14.39.2.59.08.24.16.48.23.72.08.26.16.53.23.79.14.49.27.99.39 1.49.11.47.21.94.31 1.42.06.32.12.63.18.95s.11.64.16.96c.15.96.27 1.92.37 2.89.1 1.08.18 2.17.23 3.26.01.02.01.03 0 .04.01.01.01.02 0 .03v.01c.16 3.61.03 7.25-.18 10.8-.07 1.2-.15 2.4-.24 3.61-.13 1.81-.28 3.61-.43 5.4-.16 1.79-.32 3.57-.48 5.34l-.69 7.63c-.02.17-.03.35-.05.52s-.04.34-.07.51c-.02.11-.03.21-.05.32-.03.11-.05.21-.08.32-.03.14-.07.28-.12.41-.04.12-.08.23-.13.34s-.11.21-.17.31-.13.19-.2.28c-.06.07-.12.15-.21.23-.06.07-.14.14-.23.2-.16.13-.33.24-.51.33-.14.09-.31.16-.49.22-.81.28-1.63.28-2 .28-.11 0-.22 0-.34-.01-.12 0-.24-.01-.36-.02-.59-.03-1.19-.08-1.78-.14-.85-.09-1.7-.21-2.54-.37-.06-.01-.11-.02-.16-.03-.38-.07-.77-.15-1.15-.24-.49-.1-.98-.22-1.46-.35-.29-.08-.6-.16-.92-.26-.3-.09-.6-.2-.89-.34-.18-.09-.35-.18-.52-.28-.16-.08-.3-.19-.44-.31-.28-.22-.53-.49-.74-.82-.08-.13-.16-.27-.22-.41s-.12-.29-.18-.45c-.11-.3-.18-.61-.24-.94-.17-1-.14-2.09-.12-3.1.01-.48.02-.9.02-1.29l-.22-19.11c-.02-1.21-.03-2.47-.01-3.75 0-.28 0-.57.01-.86.01-1.19.06-2.39.16-3.59.02-.28.04-.56.07-.84.02-.26.04-.52.08-.78.01-.13.03-.26.05-.39.01-.16.03-.32.06-.48.03-.22.06-.45.1-.67.03-.26.07-.52.13-.77.18-1.02.41-2.03.71-3.02.04-.14.09-.29.14-.42.01-.04.02-.07.04-.11.06-.2.13-.41.21-.61.12-.36.26-.71.4-1.06.03-.07.06-.15.09-.22.14-.34.3-.68.46-1.01.14-.3.29-.6.45-.9.16-.31.34-.62.52-.92s.36-.6.56-.9.4-.59.62-.87c.15-.21.31-.41.47-.6.11-.13.22-.27.34-.4.16-.19.32-.37.49-.54.13-.15.27-.29.41-.41.52-.5 1.09-.96 1.7-1.34.14-.09.29-.18.43-.26.14-.09.29-.17.44-.23.11-.07.23-.12.35-.17.14-.06.28-.12.43-.17.14-.05.28-.1.43-.14.18-.05.37-.1.56-.14zm22.69 15.81c.06-.32.12-.64.18-.95.07-.32.14-.64.21-.95.11-.5.25-1 .4-1.49.09-.28.17-.56.27-.83.06-.16.11-.33.18-.49.06-.16.12-.32.18-.48.18-.48.39-.96.6-1.42.24-.51.49-1.01.76-1.49.28-.49.57-.97.88-1.44.2-.3.4-.59.62-.87.15-.21.31-.41.47-.6.11-.13.22-.27.34-.4.16-.19.32-.37.49-.54.13-.15.27-.29.41-.41.52-.5 1.09-.96 1.7-1.34.14-.09.29-.18.43-.26.14-.09.29-.17.44-.23.11-.07.23-.12.35-.17.14-.06.28-.12.43-.17.14-.05.28-.1.43-.14.18-.05.37-.1.56-.14.09-.02.17-.04.25-.05.3-.05.56-.07.8-.07.31 0 .6.03.88.1.27.07.53.16.76.3.01 0 .02 0 .03.01.1.06.19.12.28.2.1.07.2.15.29.25.09.09.18.19.27.29.1.11.18.22.26.34.08.11.15.22.22.34.03.06.07.12.11.18.18.31.35.68.53 1.09.04.09.08.18.12.27.29.71.55 1.43.79 2.16.19.6.37 1.19.53 1.8.06.21.12.42.17.63.18.66.33 1.33.46 2.01.08.37.15.75.21 1.12.01.04.02.08.02.12.08.44.15.88.21 1.33.1.65.18 1.31.24 1.97.04.23.06.46.07.69.01.06.01.11.01.17.03.33.06.67.08 1.01.04.53.07 1.06.09 1.59.03.6.05 1.2.06 1.8.07 3.06-.05 6.13-.23 9.14-.27 4.67-.7 9.43-1.12 14.03l-.72 7.95c-.02.26-.05.51-.08.76-.03.24-.07.48-.12.7-.02.11-.04.22-.08.33-.03.12-.07.24-.11.35-.07.2-.16.38-.27.56 0 .01 0 .02-.01.03-.13.21-.43.68-1.14 1.03-.13.07-.27.13-.4.18-.14.05-.27.1-.4.13-.13.04-.25.07-.37.09-.11.02-.22.04-.34.05-.11.02-.21.03-.3.03-.1.01-.19.02-.27.02-.17.01-.31.01-.42.01s-.22 0-.34-.01c-.13 0-.25-.01-.37-.02-.59-.03-1.19-.08-1.78-.14-.85-.09-1.7-.21-2.54-.37-.06-.01-.11-.02-.16-.03-.38-.07-.77-.15-1.15-.24-.49-.1-.98-.22-1.46-.35-.53-.14-1.16-.31-1.75-.58-.1-.04-.2-.09-.29-.14-.37-.2-.72-.44-1.02-.75-.1-.1-.19-.21-.27-.32-.07-.07-.12-.15-.17-.23-.08-.13-.16-.27-.22-.41-.05-.11-.1-.23-.14-.35-.03-.08-.05-.15-.08-.24-.02-.03-.02-.05-.02-.08-.05-.16-.1-.33-.13-.51-.01-.02-.02-.05-.02-.07-.02-.1-.04-.19-.05-.29-.04-.27-.07-.55-.09-.83-.02-.34-.03-.68-.03-1.03 0-.36.01-.73.02-1.08.01-.48.02-.9.02-1.29l-.22-19.11c-.02-1.97-.05-3.96.03-5.96.07-1.93.22-3.88.54-5.8z" fill="#bfc7d8"/><path d="m425.626 375.127c-.216 0-.447-.007-.692-.021-2.407-.138-4.799-.519-7.108-1.134-1.131-.304-2.673-.718-3.49-2.02-.842-1.335-.802-3.228-.766-4.897.011-.477.021-.901.021-1.286l-.22-19.107c-.062-5.044-.126-10.261 1.356-15.153.685-2.233 1.651-4.301 2.875-6.153 1.924-2.904 4.292-4.776 6.668-5.275.398-.075.737-.109 1.05-.109.623 0 1.173.133 1.637.396.853.509 1.473 1.396 2.11 2.987 3.25 7.978 3.223 16.982 2.71 25.523-.268 4.674-.7 9.428-1.119 14.026l-.715 7.953c-.098 1.044-.215 1.962-.658 2.7-.999 1.57-3.001 1.57-3.659 1.57z" fill="#5b5d6d"/><path d="m392.606 374.127c-.216 0-.447-.007-.692-.021-2.398-.137-4.787-.519-7.098-1.134-1.131-.301-2.681-.713-3.501-2.02-.842-1.335-.802-3.228-.766-4.897.011-.477.02-.901.02-1.286l-.22-19.107c-.059-4.793-.125-10.228 1.366-15.153.665-2.199 1.627-4.268 2.862-6.149 1.927-2.908 4.295-4.781 6.671-5.279.463-.081.766-.112 1.05-.112.613 0 1.161.133 1.629.395.862.514 1.482 1.4 2.118 2.991 3.242 7.96 3.224 16.97 2.72 25.521-.268 4.529-.68 9.122-1.078 13.564l-.767 8.42c-.088.937-.181 1.937-.676 2.728-.979 1.539-2.98 1.539-3.638 1.539z" fill="#5b5d6d"/><path d="m272.431 237.645c.347-10.752.919-21.54 1.474-31.974l.066-1.253-.46-2.129 2.336-.23c.868-.086 1.744-.172 2.601-.268l.11-.012h.111l.002.058 1.792-.602-1.925.542-.168-.203-.099-.222c-.786-1.712-3.345-9.874-5.683-17.389l-.199-.64c-.639-2.078-1.147-3.701-1.436-4.607l-.524-1.646 110.212-53.828c1.551-.753 2.95-1.373 4.409-1.373h4.007l-2.379 3.202-22.48 29.89c-5.581 7.426-10.558 14.78-10.151 23.08.353 7.132 4.635 13.193 8.776 19.054 1.056 1.485 2.277 3.217 3.376 4.919 1.782 2.762 3.568 6.062 3.305 9.594-.218 2.808-1.773 5.442-3.022 7.558l-11.237 19.164-.478 1.418-1.445-.171c-14.718-.571-27.98-.849-40.544-.849-13.568 0-26.077.32-38.24.977l-2.177.118z" fill="#a5714a"/><path d="m360.587 373.127c-.217 0-.448-.007-.693-.021-2.398-.137-4.787-.519-7.098-1.134-1.132-.301-2.681-.713-3.5-2.021-.842-1.334-.802-3.227-.766-4.896.011-.477.021-.901.021-1.286l-.22-19.107c-.052-5.101-.105-10.293 1.366-15.153.67-2.22 1.635-4.291 2.866-6.153 1.924-2.904 4.292-4.776 6.668-5.275.398-.075.737-.109 1.05-.109.622 0 1.173.133 1.637.396.845.504 1.484 1.419 2.11 2.989 3.243 7.959 3.224 16.969 2.719 25.519-.268 4.529-.68 9.122-1.078 13.564l-.767 8.42c-.088.937-.181 1.937-.676 2.728-.947 1.539-2.973 1.539-3.639 1.539z" fill="#5b5d6d"/><path d="m329.567 372.127c-.217 0-.448-.007-.693-.021-2.398-.137-4.787-.519-7.099-1.134-1.132-.301-2.681-.713-3.5-2.021-.857-1.358-.803-3.271-.754-4.959.009-.416.019-.812.009-1.172l-.22-19.158c-.052-5.101-.105-10.293 1.366-15.153.664-2.199 1.627-4.268 2.862-6.149 1.927-2.908 4.295-4.781 6.671-5.279.463-.081.766-.112 1.05-.112.613 0 1.161.133 1.629.395.854.509 1.492 1.423 2.119 2.993 3.243 7.959 3.224 16.969 2.719 25.519-.281 4.742-.703 9.487-1.185 14.755l-.66 7.229c-.088.937-.181 1.937-.676 2.728-.946 1.539-2.972 1.539-3.638 1.539z" fill="#5b5d6d"/><path d="m295.041 90.736c-2.949 0-5.823-.694-7.998-1.299-4.389-1.237-7.694-2.697-10.411-4.598-5.658-3.936-9.518-10.575-10.321-17.757-.773-6.79 1.17-14.082 5.332-20.002 5.539-7.89 14.515-12.989 22.866-12.989 3.038 0 5.979.639 8.741 1.899 7.419 3.392 13.115 9.656 15.236 16.756 1.168 3.869 1.434 8.286.81 13.5-.603 5.095-1.866 9.163-3.858 12.433-2.215 3.608-5.652 6.748-9.941 9.085-3.146 1.714-6.202 2.696-9.083 2.918-.458.037-.916.054-1.373.054z" fill="#ffd671"/><path d="m299.547 371.127c-.217 0-.448-.007-.693-.021-2.398-.137-4.787-.519-7.099-1.134-1.132-.301-2.681-.713-3.501-2.021-.792-1.28-.81-3.003-.754-4.959.009-.416.018-.812.009-1.172l-.22-19.158c-.052-5.106-.105-10.295 1.366-15.153.67-2.22 1.635-4.291 2.866-6.153 1.924-2.904 4.292-4.776 6.668-5.275.323-.059.675-.112 1.061-.112.602 0 1.144.132 1.611.391 1.034.616 1.618 1.764 2.103 2.916 3.267 8.045 3.247 17.053 2.743 25.6-.281 4.742-.703 9.487-1.185 14.755l-.66 7.229c-.088.939-.181 1.938-.676 2.728-.948 1.539-2.973 1.539-3.639 1.539z" fill="#5b5d6d"/><path d="m251.958 203.565c-4.609 0-8.799-.235-12.808-.72-2.124-.262-4.337-.626-6.069-1.905-.176-.121-.292-.222-.386-.316l-.728-.728.238-1.393c.589-3.074 1.603-6.114 2.497-8.796l.196-.606.196-.265-.007-.345.114-.321 14.78-44.64c.151-.464.297-1.071.42-1.601.351-1.484.64-2.518 1.009-3.243v-4.491l3.46 3.697c.443.473 1.089 1.386 2.172 4.275l.113.291c.045.116.081.22.121.302l.043.098c1.818 4.422 3.363 8.263 4.723 11.743 2.709 6.922 5.425 14.224 8.072 21.701l.153.433-.051.456.275.275.139.323c.05.118.1.251.138.374.185.526.646 1.998 1.622 5.168 2.563 8.256 4.111 13.243 5.137 16.052l.884 2.421-2.564.255c-7.653.762-15.802 1.506-23.889 1.506z" fill="#ed6d66"/><path d="m275.15 325.04c-.07-1.7-.15-3.42-.25-5.13-.11-2.31-.24-4.62-.38-6.87-.07-1.16-.14-2.31-.21-3.44-.05-.78-.09-1.55-.14-2.3-.01-.07-.01-.14-.01-.2-.03-.41-.06-.81-.08-1.21-.05-.83-.11-1.63-.16-2.42-.03-.51-.06-1.01-.09-1.5l-.04-.52c-.08-1.27-.16-2.55-.24-3.83-.16-2.44-.31-4.9-.46-7.37-.08-1.31-.15-2.63-.22-3.95-.05-.83-.09-1.67-.13-2.5-.06-1.16-.12-2.31-.17-3.46-.08-1.66-.15-3.31-.21-4.96-.06-1.66-.12-3.3-.16-4.95-.02-.96-.05-1.93-.06-2.91-.03-1.38-.05-2.78-.06-4.2-.03-2.88-.03-5.84 0-8.91v-.34c0-.18 0-.35.01-.53 0-.39 0-.78.01-1.18 0-.57.01-1.15.02-1.73.02-1.56.06-3.15.09-4.76.01-.69.03-1.38.05-2.08.01-.7.03-1.41.05-2.12.01-.24.01-.48.02-.73v-.01l-.01-.6-.28-.49.33-.47.01-.01.02-.6c.04-1.4.09-2.79.14-4.19.05-1.46.11-2.91.17-4.37.05-1.2.09-2.39.15-3.58.05-1.19.1-2.38.16-3.57.02-.5.05-1.01.07-1.51.13-2.66.26-5.32.4-7.99.01-.27.03-.55.04-.83.01-.21.02-.41.03-.62.06-1.25.13-2.51.2-3.77s.14-2.52.21-3.78l.12-2.32-.58.06-1.73.16c-1.91.18-3.85.35-5.81.5-.8.06-1.62.13-2.45.18-.17.02-.34.03-.51.04-.54.03-1.08.07-1.63.1-.2.01-.4.02-.61.03-.08.01-.16.01-.24.01-.14.01-.27.02-.41.02-.09.01-.18.01-.27.02-.6.04-1.21.05-1.82.08-.86.05-1.72.08-2.59.09h-.21c-.1.01-.2.02-.31.01h-.2c-.08 0-.15 0-.23.01-.84.02-1.67.03-2.51.03-.29 0-.58 0-.87-.01-.29 0-.57 0-.86-.01-.33 0-.65-.01-.98-.02-.16 0-.33 0-.49-.01-.16 0-.31 0-.46-.01-1.38-.04-2.72-.1-4.04-.19-.7-.05-1.39-.1-2.08-.16-1.03-.09-2.05-.2-3.06-.32-.12-.01-.24-.02-.37-.04-.12-.02-.25-.04-.37-.06l-.99-.15-.04-.01-.07-.01-1.24-.18.03 1.31c.01.35.01.7.02 1.06.1 5.17.19 10.34.27 15.51.02 1.85.05 3.71.07 5.56l.03 2.59c.01.43.01.85.01 1.28v.02c.01.18.01.35.01.52l.01.52c.01 1.04.02 2.08.03 3.1.02 1.02.03 2.04.04 3.05.02 2.69.05 5.32.06 7.91.05 5.84.08 11.67.08 17.51 0 .27 0 .55.01.82l-.01 1.63v.62c.01 3.57.01 7.14-.01 10.71-.01 3.84-.02 7.59-.05 11.27 0 1.23-.01 2.45-.02 3.67-.02 2.43-.04 4.84-.06 7.23l-.04 3.93c-.01.36-.01.72-.02 1.08-.03 2.11-.06 4.18-.08 6.21-.03 1.99-.05 3.99-.09 5.98-.08 6.06-.19 12.12-.33 18.16-.02 1.21-.05 2.42-.08 3.63-.13 6.06-.28 12.11-.45 18.15l-.01.37c-.17 5.95-.35 12.1.29 18.14.07.9.23 1.51.41 1.95.05.12.1.24.16.33s.12.18.18.26c.08.12.17.22.26.3h.01c.08.08.16.15.25.21s.18.12.28.17c.22.11.45.21.7.28.12.04.25.07.38.1s.26.06.4.09l.27.06c.9.16 1.82.32 2.76.47.63.1 1.28.2 1.94.29.81.12 1.63.24 2.48.35.05.01.09.01.14.02.12.02.25.03.38.05l2.43.32v-.04l-.17-2.4c-.01-.15-.02-.31-.03-.47 0-.08-.01-.16-.01-.23-.03-.35-.05-.7-.07-1.05-.07-1.08-.13-2.15-.17-3.21-.02-.41-.03-.82-.04-1.23-.07-2.35-.03-4.68.19-7.02.03-.31.06-.62.1-.91.02-.21.05-.41.08-.61.01-.13.03-.26.05-.39.03-.19.06-.38.1-.57.09-.55.2-1.06.33-1.54.06-.24.12-.46.19-.68.13-.44.28-.85.44-1.26.09-.23.19-.46.3-.68.14-.31.32-.65.52-.99.06-.12.13-.23.21-.34.08-.14.18-.28.28-.42.35-.5.76-1 1.24-1.45.09-.09.18-.17.27-.24.09-.08.19-.16.28-.24.18-.14.37-.28.56-.42.16-.11.32-.21.49-.3.21-.12.42-.22.63-.3.15-.06.3-.11.45-.15.12-.03.23-.06.34-.08.1-.02.2-.03.3-.04.08 0 .17-.01.26-.01h.01c.37 0 .75.07 1.11.19.14.05.27.1.4.16.14.07.27.14.4.21.08.05.17.1.25.16.03.02.06.04.08.06.14.09.28.2.4.32.14.12.27.24.39.39.07.07.14.15.2.24.08.08.13.16.19.24.04.06.09.13.13.2.1.15.19.31.28.47.1.19.18.38.26.57.2.49.34.99.45 1.5.04.16.07.32.09.47.03.16.06.32.08.48.04.22.07.44.08.65.06.47.09.92.12 1.35v.01c.11 1.49.21 2.99.3 4.51.09 1.51.16 3.03.23 4.56.06 1.48.12 2.97.16 4.46.01.17.01.35.01.53.04 1.25.06 2.5.08 3.75.01.16.01.32.01.48l.03 2.08v.01h1.13l1.29.01c1.59 0 3.18-.03 4.76-.08.69-.02 1.38-.05 2.06-.09h.08c.45-.02.91-.04 1.36-.07.4-.02.8-.04 1.2-.07l1.57-.11.29-.02.01-1.86c.06-15.34.14-34.44-.66-52.63zm-13.19 1.15c-.06.17-.16.43-.35.57-.14.1-.32.14-.49.16l-8.01.6c-.16.01-.41.04-.69.05-.13.01-.26.01-.39.01-.54 0-.96-.07-1.28-.18-.05-.01-.09-.03-.14-.06-.07-.02-.14-.05-.2-.1l-.23-.14c-.21-.17-.36-.36-.48-.57-.08-.13-.14-.26-.2-.4-.06-.13-.11-.27-.16-.42-.04-.15-.08-.3-.11-.45s-.05-.3-.07-.46c-.18-1.45.22-3.12.86-4.65.38-.94.85-1.84 1.33-2.62.11-.18.22-.35.34-.51.02-.03.04-.06.06-.09.25-.38.51-.71.75-.98.15-.17.3-.33.45-.47.23-.23.46-.44.7-.62.1-.09.21-.17.32-.25.11-.09.22-.17.34-.24.3-.2.61-.37.92-.5h.01c.31-.14.62-.24.94-.31.13-.02.26-.04.38-.06.13-.01.25-.02.37-.02.28 0 .52.04.74.12h.01c.04.01.07.02.1.03.12.05.23.11.34.18.11.08.23.16.33.25.11.09.21.2.32.32.11.11.21.23.32.36s.24.3.4.51c.15.2.31.43.49.7.27.39.56.86.84 1.38.11.17.2.35.28.53.2.39.37.78.51 1.18.08.16.14.34.19.51.01.03.02.05.02.08.02.06.04.12.06.19.13.39.24.79.33 1.2.1.48.17.96.2 1.43.04.43.04.86.01 1.31 0 .15-.02.3-.03.45-.01.06-.01.12-.02.18-.02.16-.05.33-.08.5-.03.19-.07.37-.12.57l-.06.23c-.04.17-.09.34-.15.5zm-10.73-53.81c.14-.23.28-.45.41-.65.1-.14.2-.28.3-.41.09-.14.19-.26.29-.38.08-.12.18-.23.27-.34.15-.17.3-.33.45-.47.23-.23.46-.44.7-.62.1-.09.21-.17.32-.25.11-.09.22-.17.34-.24.61-.41 1.24-.68 1.87-.81.1-.02.21-.04.3-.05h.02c.14-.02.28-.03.42-.03.27 0 .53.04.76.12.04 0 .08.02.11.03.24.1.45.24.66.43.11.09.22.2.32.31.03.03.06.06.08.09.03.03.06.06.09.1.06.06.11.12.16.18.06.08.12.15.17.23.04.05.09.1.13.16.05.06.09.12.14.19.18.23.37.51.58.83.14.2.28.43.42.67.83 1.37 1.39 2.78 1.67 4.19.05.24.09.47.12.71.04.25.06.49.08.73.04.43.04.86.01 1.3 0 .16-.02.32-.03.48-.05.41-.12.82-.22 1.23l-.06.23c-.04.17-.09.34-.15.5-.06.17-.16.43-.35.57-.14.1-.32.14-.49.16l-.06.01c-.04 0-.07.01-.11.01l-7.29.53c-.15.01-.63.05-.63.05-.15.01-.31.03-.48.04-.12.01-.24.02-.36.02h-.16c-.56 0-.98-.07-1.31-.19-.1-.04-.21-.09-.31-.15l-.15-.09c-.26-.18-.42-.41-.56-.62-.15-.26-.27-.53-.36-.82-.04-.14-.08-.29-.11-.45-.03-.15-.05-.3-.07-.46-.18-1.45.22-3.12.86-4.65.16-.38.32-.75.5-1.11.17-.36.36-.71.55-1.03.05-.1.11-.19.16-.28zm5.7-49.6c.08 0 .16 0 .24.02.06 0 .11.01.16.02.12.01.23.03.33.07.05.01.09.02.13.04.01 0 .01 0 .02.01.1.05.19.09.28.15.09.05.18.11.26.19.08.06.17.13.25.22.12.11.24.24.36.38.05.05.09.11.14.16 2.47 3 3.63 6.43 3.29 9.5-.03.21-.06.43-.1.64-.02.18-.06.36-.11.54 0 .01-.01.03-.01.04l-.06.24c-.05.16-.09.32-.15.48-.06.17-.15.43-.37.58-.13.1-.3.14-.47.16l-.06.01c-.04 0-.07.01-.11.01l-7.25.52c-.17.01-.3.03-.44.04l-.16.02c-.33.03-.78.06-1.15.06-.06 0-.13 0-.19-.01-.09 0-.17-.01-.25-.01-.07 0-.15-.01-.23-.03-.14-.03-.28-.06-.4-.09-.04-.02-.09-.03-.14-.05-.04-.02-.09-.03-.13-.06-.12-.04-.23-.09-.31-.16l-.02-.02c-.2-.13-.34-.28-.46-.44l-.12-.19c-.08-.13-.14-.26-.2-.4-.06-.13-.11-.27-.16-.42-.04-.14-.08-.29-.11-.44s-.05-.3-.07-.46c-.18-1.46.22-3.12.86-4.65.42-1.04.95-2.03 1.48-2.85.07-.11.14-.22.22-.32.07-.11.14-.21.22-.31.19-.27.38-.51.56-.72.15-.17.3-.33.45-.47.23-.23.46-.44.7-.62.1-.09.21-.17.32-.25.11-.09.22-.17.34-.24.3-.21.61-.37.92-.5h.01c.31-.14.63-.24.94-.3.29-.06.53-.09.75-.09z" fill="#bfc7d8"/><g fill="#5b5d6d"><path d="m251.955 236.881c-.47 0-1.021-.042-1.542-.35l-.447-.264-.262-.448c-1.733-2.964.866-8.377 2.808-10.575 1.172-1.309 2.402-2.106 3.665-2.38.296-.059.538-.085.754-.085.442 0 .831.105 1.161.313.361.219.67.542 1.002.945 1.034 1.256 4.309 5.737 3.079 10.721l-.348 1.409-8.127.597c-.167.009-.298.024-.434.039l-.162.015c-.329.028-.778.063-1.147.063z"/><path d="m251.918 282.238c-.429 0-.987-.04-1.506-.346l-.449-.265-.262-.451c-1.729-2.972.869-8.385 2.81-10.581 1.172-1.309 2.402-2.106 3.665-2.38.24-.056.497-.087.74-.087.275 0 .532.041.765.121.598.236.987.623 1.413 1.14 1.033 1.255 4.308 5.736 3.078 10.72l-.348 1.409-8.127.597c-.038.006-.662.06-.662.06-.335.028-.766.063-1.117.063z"/><path d="m251.942 327.59c-.438 0-1.006-.039-1.529-.349l-.447-.264-.262-.448c-1.736-2.968.864-8.386 2.808-10.584 1.172-1.309 2.402-2.106 3.665-2.38.296-.059.538-.085.754-.085h.188l.064.01h.222l.35.136c.516.2.909.589 1.339 1.112 1.035 1.263 4.305 5.755 3.079 10.722l-.348 1.407-8.716.651c-.246.027-.757.072-1.167.072z"/><path d="m259.97 379.899c-2.893-.087-5.862-.276-9.077-.578l-1.684-.158-.124-1.687c-.345-4.715-.619-9.329-.186-13.942.24-2.511.636-4.349 1.286-5.961.584-1.448 1.695-3.453 3.668-4.781.75-.516 1.498-.813 2.207-.873l.085-.007.181-.004c1.497 0 3.003 1.037 3.838 2.641.77 1.514.941 3.174 1.071 5.033.446 5.966.713 12.124.794 18.293l.027 2.088z"/></g><path d="m233.385 299.864c-12.378-9.218-26.658-14.912-36.323-18.392-2.429-.878-5.016-1.761-8.143-2.78l-5.087-1.659 4.928-2.085c14.412-6.096 29.61-9.924 45.173-11.379l2.81-1.249-.023 3.078c.01 11.684-.036 22.44-.14 32.882l-.04 3.934z" fill="#317b36"/><path d="m183.155 276.896c-21.541-6.462-42.744-9.739-63.019-9.739-2.676 0-5.375.058-8.021.171-.841.037-1.678.091-2.514.144l-1.578.099-.656-.49-.896-.444-.113-.971c-.729-4.28 1.101-8.38 2.257-10.443 1.494-2.662 3.391-4.954 5.4-7.381l.064-.077c.641-.761 1.262-1.521 1.873-2.279 4.042-5.044 7.468-10.588 10.182-16.473.801-1.742 1.634-3.772 1.364-5.81-.309-2.251-1.931-4.141-3.235-5.659l-11.227-13.007c-1.646-1.914-3.458-4.023-4.13-6.578-1.279-4.825 1.717-9.657 4.626-13.807l21.371-30.47 1.119-2.444 2.019 1.78c30.876 27.118 63.715 52.727 97.606 76.117l.852.588.012 1.035c.129 11.106.201 21.239.22 30.98l.006 3.057-2.804-1.219c-17.119 1.596-33.73 6.046-49.368 13.224l-.686.314z" fill="#c29970"/><path d="m185.822 328.017c-2.24-3.843-4.62-7.484-7.074-10.823-2.184-2.969-4.432-4.475-6.679-4.475-.208 0-.416.013-.626.037-4.63.542-7.914 7.176-9.111 10.004l-2.317 5.458-1.861-.832c-20.155-9.011-41.218-16.082-62.603-21.017l-.811-.187-.438-.707c-2.396-3.861-4.866-7.525-7.342-10.889-3.02-4.107-6.13-6.189-9.245-6.189-.283 0-.566.017-.851.05-4.911.573-8.697 6.002-11.008 10.455l-.753 1.453-1.573-.452c-8.956-2.57-18.281-4.697-27.718-6.321l-5.227-.9 4.52-2.775c20.617-12.658 45.39-20.355 71.642-22.26l.215-.016s.256.037.277.04h.172l.207-.06.182-.024c1.438-.102 2.877-.192 4.316-.253 2.649-.114 5.352-.171 8.031-.171 24.705 0 50.585 4.814 76.922 14.308 10.463 3.77 25.859 9.97 38.7 20.228l.764.61-.012.978c-.108 8.461-.229 16.178-.371 23.593l-.037 1.962h-47.753l-1.634.718z" fill="#57aa6b"/><path d="m233.31 227.493c-10.164-7.053-20.331-14.381-30.218-21.782l-2.524-1.889 2.785-1.478c6.639-3.525 13.335-6.177 19.811-8.743 1.189-.469 2.385-.948 3.602-1.437l8.146-3.247-1.251 4.008c-.689 2.21-1.138 3.931-1.455 5.581-.072.373-.18.934-.003 1.426.155.422.519.739.854.991.488.363 1.072.679 1.773.958l1.234.49.027 1.327c.148 7.271.27 14.716.361 22.126l.047 3.879z" fill="#a5714a"/><path d="m154.403 416.778c-.488-.226-.997-.694-1.478-1.375-1.196-1.743-1.846-3.85-1.846-5.953l-8.013 5.598c-2.483 1.734-4.403 2.541-6.043 2.541-.757 0-1.459-.171-2.085-.509-1.189-.645-2.088-1.942-2.535-3.654l-.143-.658c-.582-3.28.388-6.594 1.431-9.712 4.512-13.565 10.392-27.352 15.117-38.43l.457-1.072 1.159-.13c1.199-.135 2.532-.872 3.855-2.131 2.117-2.01 4.071-4.182 5.81-6.457l3.049-3.987.529 4.991c.089.837.242 1.672.455 2.481.439 1.669 1.159 2.706 2.141 3.082.295.115.587.171.882.171 1.223 0 2.61-.941 3.806-2.582.569-.79 1.093-1.592 1.551-2.373l2.443-4.17 1.218 4.676c.527 2.024 1.36 3.633 2.545 4.918.504.552.928.817 1.382.868.048.005.101.008.154.008.811 0 1.603-.791 2.119-2.117.234-.615.413-1.134.558-1.618l1.367-4.566 2.3 4.175c.614 1.113 2.87 4.746 6.149 4.746.272 0 .561-.028.856-.085.492-.092.996-.289 1.464-.57l1.934-1.161.921 2.06c6.063 13.557 12.02 28.242 14.529 43.767.587 3.606.085 5.949-1.538 7.161-.628.486-1.461.753-2.382.753-1.182 0-2.41-.444-3.371-1.218-1.385-1.143-2.355-2.838-3.069-5.35-.796.721-.918 1.915-1.026 2.967-.019.232-.052.514-.086.772-.07.559-.271 1.028-.428 1.322l-1.269 2.387-1.725-1.725-.042-.021-.257-.281c-1.616-1.769-2.98-3.734-4.055-5.84-.299.696-.524 1.397-.762 2.14l-.052.163c-.284.897-.551 1.711-.911 2.511-.846 1.851-2.104 3.074-3.546 3.452-.316.084-.654.127-1 .127-1.261 0-2.595-.574-3.658-1.576-1.232-1.181-2.009-2.763-2.667-4.298.192 1.909-.574 3.911-2.001 5.218-.748.674-1.533 1.025-2.281 1.025-1.803 0-2.869-1.924-3.152-2.514-.163-.315-.316-.692-.469-1.078l-.103-.258c-.35-.893-.686-1.751-1.232-2.462-.447 1.57-.993 3.534-2.281 4.876-.801.838-1.984 1.36-3.086 1.36-.684 0-1.306-.201-1.798-.581-.577-.47-.942-1.081-1.325-1.865-.726-1.474-1.343-3.009-1.831-4.558-.777 2.095-2.026 4.041-3.608 5.623-.053.054-.104.105-.154.153v2.243z" fill="#57aa6b"/><path d="m178.19 361.519-.005-.005-.001-.086c-2.484-3.188-2.733-7.621-2.765-11.913-.862 3.366-2.404 6.644-4.461 9.48-.572.78-2.075 2.571-3.809 2.571-.306 0-.601-.055-.877-.163-.993-.382-1.697-1.391-2.145-3.08-.91-3.467-.709-7.211.564-10.546-2.758 5.027-6.256 9.573-10.404 13.513-1.188 1.123-2.483 1.885-3.557 2.093l-.576.112-.752-.302-1.047-.046-.548-.963c-.64-1.133-.527-2.84.336-5.074 3.713-9.69 7.836-19.391 11.823-28.773l2.361-5.576c2.534-5.974 5.857-9.621 9.117-10.006.196-.023.394-.035.592-.035 2.29 0 4.485 1.462 6.71 4.471 7.104 9.668 13.076 20.941 17.756 33.512.906 2.442 1.698 4.835 1.445 7.283-.239 2.359-1.812 4.998-4.354 5.471-.266.049-.536.074-.806.074-3.017 0-5.463-3.029-6.641-5.623-1.15-2.526-1.88-5.193-2.169-7.926.267 3.656-.288 7.398-1.615 10.831-.139.343-.286.636-.46.927l-3.715 6.199v-6.42z" fill="#57aa6b"/><path d="m182.169 115.845c-2.859 0-5.729-.057-8.503-.112l-90.586-1.834c-1.749-.029-3.506-.049-5.252-.069l-.099-2.001-.022 2c-6.481-.071-13.182-.144-19.694-1.09-1.29-.188-2.671-.279-4.222-.279-1.058 0-2.117.043-3.16.085l-.845.033c-1.291.059-2.642.121-3.982.121-2.61 0-6.021-.21-9.255-1.844-1.024-.519-1.62-1.03-1.936-1.658-.321-.714-.318-1.364-.033-2.013.534-1.383 2.323-2.534 3.683-3.073 4.407-1.744 9.08-2.627 13.892-2.627 3.123 0 6.221.383 9.206 1.137-.163-1.018-.411-2.048-.65-3.044-.391-1.566-.834-3.337-.81-5.105.071-6.92 7.148-11.958 13.947-12.827 1.106-.143 2.277-.215 3.479-.215 3.859 0 7.638.715 11.638 1.473l.609.113c1.561.29 3.174.591 4.76.825.224.034.521.079.835.079.655 0 .979-.195 1.165-.341.243-.19.966-.756.191-3.074-4.604-13.728.781-30.472 12.526-38.947 5.593-4.03 12.749-6.25 20.15-6.25 7.672 0 15.042 2.362 20.752 6.652 7.136 5.365 12.429 13.969 14.523 23.604 1.852 8.596 1.328 18.269-1.515 27.977l14.376-.54c.972-.035 1.932-.061 2.872-.061 3.544 0 7.586.324 10.688 2.729 5.27 4.09 5.164 11.751 4.483 17.968l-.179 1.63-1.634.144c-3.352.296-6.973.434-11.398.434z" fill="#fff"/><path d="m174.812 437.076c-2.408 0-4.788-.307-7.074-.912l-1.579-.418 1.075-18.657.908-.544c.373-.224.684-.468.922-.725.301-.309.544-.622.758-.966l1.835-2.95 1.629 3.068c.751 1.414 1.881 2.262 3.024 2.268.743 0 1.515-.341 2.247-.986.04-.042 2.713-3.044 2.713-3.044l.862 3.793c1.234 5.519 1.963 11.204 2.167 16.896l.055 1.536-1.47.449c-2.593.79-5.308 1.192-8.072 1.192z" fill="#db8946"/><path d="m139.478 381.087c-4.792-2.736-9.747-5.565-15.178-5.565-.698 0-1.402.047-2.094.14l-1.536.207-.584-1.436c-2.658-6.543-5.43-12.793-7.791-18.043l-.405-.9.468-.869c.601-1.114 1.002-2.419 1.131-3.675.348-3.404-.799-6.834-2.004-10.055-.988-2.662-2.125-5.506-3.478-8.701l-1.177-2.78h52.682l-1.182 2.782c-3.352 7.886-6.906 16.363-10.194 24.925-.706 1.837-1.265 4.3.084 5.606l.988.956-.539 1.265c-1.887 4.431-4.118 9.698-6.348 15.162l-.862 2.112z" fill="#af7979"/><path d="m106.343 328.285c-2.782-6.24-5.872-12.311-9.185-18.044l-2.339-4.048 4.543 1.104c18.641 4.529 37.031 10.678 54.659 18.277l-.791 3.836h-44.59l-1.648.44z" fill="#317b36"/><path d="m129.89 402.854c-2.103-7.749-4.804-15.786-8.261-24.572l-1.011-2.57 2.757-.159c.303-.018.605-.026.906-.026 5.438 0 10.415 2.834 15.229 5.575l1.939 1.126-.642 1.604c-2.901 7.254-5.154 13.333-7.09 19.131l-2.095 6.275z" fill="#9bc96a"/><path d="m127.49 223.21c.27 2.04-.56 4.06-1.37 5.8-.34.73-.68 1.46-1.04 2.18-2.52 5.06-5.58 9.86-9.13 14.3-.61.76-1.24 1.52-1.88 2.29-.77.92-1.54 1.85-2.29 2.81-.44.56-.87 1.14-1.29 1.72-.67.94-1.31 1.91-1.87 2.92-.186.328-.359.656-.522.983-.158.318-.319.658-.478 1.027-.15.34-.29.68-.41 1.02-.06.17-.12.34-.17.51-.07.19-.13.38-.18.56-.07.19-.12.38-.16.57-.1.37-.18.73-.25 1.09-.02.08-.03.16-.04.24-.03.16-.06.31-.07.46-.01.01-.01.02-.01.03-.04.29-.07.57-.09.85-.08 1.01-.04 2 .11 2.96l.18 1.14.15.98-2.02.17-.12.01c-.85.07-1.69.15-2.53.23-.68.07-1.35.14-2.02.22-.3.03-.61.07-.91.1-3.22.38-6.41.84-9.57 1.39-1.326.231-2.645.478-3.959.739-.089.018-.176.037-.265.055-1.227.246-2.449.503-3.665.776-.102.023-.203.048-.305.071-1.203.272-2.401.555-3.592.852-.099.025-.197.051-.295.076-1.197.301-2.389.613-3.574.94-.084.023-.167.047-.25.07-1.207.335-2.408.682-3.601 1.043-.052.016-.105.032-.157.048-1.236.375-2.465.763-3.686 1.167-.005.002-.011.004-.016.005-12.532 4.14-24.258 9.753-34.824 16.72l-.58.38-.06.04-.55-.08-.2-.03c-4.21-.62-8.44-1.14-12.69-1.56-1.42-.14-2.83-.27-4.25-.39-.03 0-.07-.01-.11-.01-2.59-.21-5.19-.38-7.78-.51-1.7-.1-3.4-.17-5.1-.22v-44.04l130.29-93.22c.39-.27.79-.55 1.19-.8l2.67 2.85.01.01-20.62 29.4c-.61.87-1.22 1.77-1.8 2.69-1.16 1.84-2.17 3.78-2.71 5.77-.49 1.76-.61 3.56-.13 5.36.12.47.29.93.5 1.38.13.32.29.63.46.93.08.14.16.29.25.43.07.13.15.25.23.37.08.14.18.27.27.41.2.3.41.59.62.86.39.52.79 1 1.19 1.46.21.25.41.49.61.72l.01.01 11.21 13c.42.48.81.95 1.18 1.41.18.23.35.46.51.69.15.2.28.4.4.6.13.19.24.39.34.58.21.38.38.76.52 1.15.04.14.08.27.12.41.01.03.02.06.03.09.059.238.109.488.139.738z" fill="#a5714a"/><path d="m29.271 433.309c-1.048 0-2.013-.236-2.868-.702-1.725-.949-2.993-2.84-3.58-5.328-1.069-4.591.274-9.266 1.869-14.051 6.212-18.667 14.099-37.173 21.058-53.502l.493-1.156 1.255-.058c1.69-.078 3.698-1.144 5.655-3.002 3.405-3.239 6.507-6.78 9.218-10.523l3.439-4.749.179 5.861c.056 1.827.313 3.612.763 5.307.601 2.309 1.596 3.741 2.959 4.269.39.152.792.228 1.201.228 1.704 0 3.625-1.297 5.27-3.559 1.141-1.568 2.17-3.237 3.061-4.962l2.687-5.204 1.058 5.76c.676 3.683 1.956 6.504 3.913 8.625.469.505 1.114 1.102 1.906 1.188.089.01.169.015.248.015 1.591 0 2.551-2.04 2.89-2.918.5-1.273.935-2.642 1.296-4.078l1.445-5.742 2.512 5.862c1.623 3.54 4.998 7.728 9.102 7.728.376 0 .773-.039 1.181-.116.933-.172 1.797-.556 2.576-1.142l2.003-1.508 1.025 2.289c7.581 16.935 15.154 35.28 19.193 54.67.026.13.044.249.06.368.006.033.068.239.068.239l.016.078c.38 1.899.775 3.934 1.095 5.95.808 4.967.123 8.203-2.097 9.887-.911.688-2.047 1.049-3.291 1.049-1.635 0-3.39-.638-4.694-1.706-1.895-1.554-3.234-3.9-4.218-7.384-1.1.995-1.263 2.555-1.421 4.064-.035.402-.08.783-.135 1.162-.188 1.351-1.048 3.032-2.271 3.458l-.681.237-.675-.251c-.465-.173-.871-.491-1.496-1.172-2.243-2.446-4.129-5.159-5.609-8.065-.442 1.034-.788 2.12-1.122 3.169-.369 1.156-.75 2.351-1.265 3.482-1.17 2.561-2.912 4.256-4.905 4.776-.436.112-.888.168-1.352.168-1.766 0-3.618-.795-5.08-2.182-1.709-1.628-2.785-3.819-3.693-5.945.272 2.654-.791 5.423-2.776 7.225-1.005.925-2.093 1.419-3.134 1.419-2.509-.023-3.973-2.664-4.362-3.472-.298-.62-.556-1.272-.793-1.887-.488-1.243-.934-2.38-1.698-3.369-.649 2.3-1.374 4.888-3.144 6.732-1.122 1.165-2.754 1.887-4.262 1.887-.953 0-1.821-.287-2.51-.831-.854-.669-1.382-1.665-1.81-2.546-.979-1.979-1.835-4.105-2.537-6.307-1.083 2.906-2.805 5.591-4.981 7.767-1.075 1.088-2.016 1.616-2.952 1.655l-.132.001c-1.104-.028-2.168-.767-3.163-2.198-1.651-2.413-2.549-5.328-2.538-8.22l-11.084 7.751c-2.331 1.633-5.39 3.508-8.365 3.509z" fill="#57aa6b"/><path d="m106.346 358.611c-4.137 0-7.446-4.008-9.164-7.758-1.431-3.147-2.395-6.463-2.871-9.875.124 4.699-.662 9.466-2.366 13.873-.254.667-.978 2.289-2.129 2.767l-.698.289-.716-.245c-.488-.167-.952-.508-1.504-1.108-4.11-4.45-4.496-10.992-4.538-17.31-1.211 4.688-3.345 9.214-6.174 13.095-.777 1.068-2.849 3.558-5.271 3.558-.418 0-.823-.075-1.201-.223-1.375-.529-2.349-1.92-2.967-4.25-1.257-4.788-.982-9.962.774-14.575-3.815 6.949-8.651 13.226-14.374 18.662-.854.814-3.094 2.74-5.386 2.96l-.684.066-.58-.369c-.015-.009-.031-.018-.047-.026l-.834.08-.651-.558c-2.086-1.799-1.32-5.302-.31-7.923 5.222-13.598 10.958-27.093 16.505-40.144l3.109-7.338c3.498-8.259 8.088-13.295 12.591-13.816.27-.031.543-.047.817-.047 3.131 0 6.254 2.082 9.283 6.186 9.8 13.33 18.051 28.907 24.525 46.3 1.253 3.363 2.349 6.664 2.005 10.068-.333 3.26-2.504 6.901-6.013 7.556-.372.07-.752.105-1.131.105z" fill="#57aa6b"/><path d="m81.519 460.244c-3.447 0-6.846-.456-10.102-1.356-.077-.018-.187-.05-.273-.075l-1.442-.419-.042-1.514c0-.105.013-.445.013-.445l1.374-23.869.975-.532c.601-.328 1.151-.741 1.59-1.195.61-.639 1.145-1.426 1.625-2.396l1.91-3.858 1.796 4.131c.094.218.19.441.298.664 1.049 2.159 2.671 3.454 4.337 3.46 1.057-.021 2.163-.511 3.153-1.416.395-.36.731-.728 1.001-1.093l2.562-3.465.993 4.193c1.979 8.355 3.11 16.898 3.363 25.391l.045 1.502-1.43.462c-3.77 1.214-7.721 1.83-11.746 1.83z" fill="#db8946"/><path d="m65.09 300.34v.01l-.49 1.15-1.06 2.48-2.39 5.62-1.23 2.91c-1.67 3.94-3.36 7.93-5.04 11.94-.5 1.19-.99 2.39-1.49 3.59l-.51 1.23h-52.88v-39.32c1.7.05 3.4.12 5.1.22 2.6.13 5.19.3 7.78.51.04 0 .08.01.11.01 1.42.12 2.83.25 4.25.39 3.19.31 6.36.68 9.53 1.11.96.12 1.93.26 2.89.4l.44.06.03.02.33.23.4-.11.38.05c1.17.18 2.34.37 3.51.56.11.01.22.03.33.05 1.56.26 3.12.54 4.68.84.86.16 1.71.33 2.55.49 1.36.27 2.71.55 4.06.84.91.19 1.82.39 2.72.6.89.2 1.79.4 2.68.62.77.18 1.53.36 2.3.55.15.04.31.07.46.11.35.09.7.18 1.05.27.58.15 1.15.29 1.72.44s1.14.29 1.71.45c.44.12.89.23 1.33.35.71.19 1.42.39 2.12.59.15.04.3.09.45.13l1.13.32.37.1z" fill="#317b36"/><path d="m52.88 329.27-1.14 2.76c-.56 1.37-1.09 2.66-1.6 3.92-.31.77-.63 1.53-.94 2.3-1.57 3.87-2.92 7.27-4.17 10.52-.12.32-.25.65-.37.97-.34.89-.66 1.87-.84 2.86-.03.15-.06.3-.08.45-.02.14-.04.28-.05.42-.07.62-.07 1.23.02 1.8.02.16.05.31.09.46.03.15.08.3.14.44.04.14.1.28.18.41.04.08.08.17.14.25.01.01.01.02.02.03.01.02.02.03.03.05.03.06.07.11.12.17.05.09.12.17.19.25.1.11.21.22.33.32.02.02.05.04.07.06l.63.51.55.44-.59 1.39c-.39.92-.79 1.85-1.18 2.77-.44 1.04-.89 2.08-1.33 3.13-.52 1.23-1.04 2.46-1.56 3.7l-.64 1.55h-.02l-1.62-.37c-.68-.15-1.36-.3-2.03-.44-1.42-.3-2.83-.57-4.22-.81-.6-.11-1.2-.21-1.79-.3-.79-.13-1.58-.25-2.37-.35-.44-.06-.88-.12-1.32-.17-.51-.07-1.01-.13-1.52-.18-.78-.1-1.56-.18-2.34-.24-.73-.07-1.47-.13-2.2-.18-.21-.02-.41-.03-.62-.04-.32-.03-.65-.04-.97-.06-1.17-.07-2.33-.11-3.5-.13-.74-.02-1.48-.03-2.22-.03-1.38 0-2.76.03-4.14.09-.63.02-1.26.05-1.89.1-.75.04-1.51.09-2.26.16-.51.04-1.02.08-1.53.14-.01 0-.01 0-.02 0-.44.04-.88.09-1.33.14-.57.06-1.14.13-1.71.21-.32.04-.63.08-.95.13-.11.01-.22.02-.33.04v-39.64z" fill="#af7979"/><path d="m388.34 126.18c.37.5.73 1.04 1.09 1.61 10.66 16.86 24.72 31.57 40.64 42.54 12.74 8.77 26.97 15.43 40.73 21.87 14.02 6.56 28.45 13.33 41.2 22.33v-4.87c-12.43-8.4-26.15-14.83-39.5-21.08-13.62-6.37-27.7-12.96-40.16-21.55-15.48-10.66-29.15-24.97-39.53-41.38-1.27-2-3.19-5.04-6.51-5.67-2.54-.48-4.85.64-6.53 1.47l-108.25 52.85c-2.42-6.83-4.98-13.69-7.62-20.43-1.53-3.91-3.12-7.87-4.74-11.77-.07-.17-.15-.39-.24-.64-.83-2.2-1.76-4.37-3.23-5.52l-.18-14.17h6.89c1.1 0 2-.89 2-2 0-1.1-.9-2-2-2h-6.94l-.15-11.81c-.02-1.11-.93-1.95-2.03-1.98-1.1.02-1.99.93-1.97 2.03l.15 11.76h-5.68c-1.11 0-2 .9-2 2 0 1.11.89 2 2 2h5.73l.16 12.7v.01l.01 1.11c-.09.05-.18.1-.27.16-.3.2-.62.46-.94.8-1.13 1.2-1.6 3.17-2.01 4.91-.13.56-.26 1.09-.38 1.45l-14.72 44.46-7.33 2.94c-1.22.48-2.42.96-3.61 1.43-7.42 2.94-14.43 5.73-21.67 9.74-21.18-15.98-41.82-32.76-61.65-50.19-.95-.84-2.26-1.99-4.04-2.27-2.52-.39-4.66 1.13-5.94 2.05l-129.12 92.38v4.92l131.45-94.05c.35-.25.71-.5 1.07-.72l-20.62 29.4c-3.17 4.52-6.43 9.81-4.93 15.48.8 3.02 2.88 5.43 4.55 7.36l11.22 13.01c1.44 1.67 2.57 3.07 2.77 4.62.2 1.5-.51 3.21-1.2 4.7-2.64 5.74-5.98 11.14-9.92 16.07-.6.75-1.22 1.5-1.85 2.25-2 2.41-4.07 4.9-5.67 7.76-2.21 3.93-3.07 7.98-2.5 11.59-27.49 2.34-52.96 10.85-74.15 24.82-10.01-1.48-20.1-2.39-30.22-2.71v4c9.84.32 19.64 1.19 29.37 2.62.46.3 1.03.39 1.57.25 10.59 1.62 21.09 3.9 31.42 6.83l-3.05 7.17c-2.57 6.07-5.19 12.23-7.77 18.45h-51.54v4h49.89c-2.43 5.89-4.83 11.82-7.1 17.76-2.27 5.92-.77 8.83.98 10.24-1.36 3.19-2.72 6.39-4.07 9.61-13.84-3.13-26.9-3.8-39.7-1.99v4.05c12.28-1.82 24.83-1.25 38.12 1.68-5.48 13.09-10.82 26.45-15.33 39.98-1.62 4.86-3.1 10.03-1.91 15.13.71 3.06 2.33 5.42 4.57 6.63 1.24.68 2.53.95 3.8.95 4 0 7.83-2.68 9.53-3.87l8.33-5.82c.46 2.06 1.31 4.04 2.5 5.78 1.71 2.49 3.54 3.04 4.77 3.07 2.02.05 3.57-1.26 4.55-2.25 1.24-1.25 2.35-2.65 3.3-4.15.31.73.65 1.46 1 2.18.54 1.08 1.2 2.31 2.37 3.22 1 .79 2.15 1.18 3.32 1.25l-1.24 21.6c-.04.64-.11 1.84.62 2.9.77 1.1 2 1.44 2.59 1.6 3.44.95 7.03 1.42 10.63 1.42 4.32 0 8.65-.68 12.73-2.05.42-.14 1.41-.47 1.99-1.44.45-.75.43-1.52.42-1.93-.21-7.98-1.18-15.95-2.87-23.76 2.02 1.16 4.3 1.56 6.35 1.03 2.58-.67 4.79-2.76 6.21-5.88.42-.91.75-1.83 1.04-2.74 1.1 1.65 2.33 3.21 3.67 4.68.47.51 1.35 1.47 2.67 1.81 1.11.29 2.26.08 3.25-.58 1.48-.99 2.29-2.71 2.59-4.14.74 1.19 1.6 2.17 2.6 2.98 2.71 2.23 7.17 3.19 10.45.71 4.08-3.09 3.3-9.14 2.92-11.51.49.11.97.17 1.45.17 3.06 0 5.94-2.01 7.22-2.9l5.37-3.76c.37 1.28.94 2.49 1.69 3.58 1.37 2 2.87 2.44 3.89 2.47 1.67.01 2.92-1.01 3.7-1.79.69-.7 1.33-1.45 1.9-2.26.11.23.22.46.33.68.44.9.97 1.83 1.86 2.53.66.52 1.4.82 2.16.95l-.86 15.11c-.03.54-.09 1.53.55 2.45.67.96 1.72 1.25 2.18 1.38 2.54.7 5.18 1.04 7.83 1.04 3.19 0 6.39-.5 9.4-1.51.33-.11 1.21-.4 1.73-1.28.41-.69.39-1.37.38-1.7-.14-5.44-.77-10.87-1.86-16.21 1.31.51 2.69.64 3.97.31 2.03-.53 3.76-2.14 4.86-4.55.15-.34.29-.67.41-1.01.65.89 1.34 1.74 2.08 2.55.38.41 1.09 1.19 2.21 1.47.95.25 1.95.08 2.79-.49.84-.56 1.41-1.39 1.76-2.23.4.51.85.96 1.34 1.36 2.13 1.75 5.65 2.49 8.25.52 3.35-2.53 2.55-7.45 2.29-9.07-.12-.75-.26-1.5-.4-2.25 44.68 15.05 92.53 17.97 134.83 20.54 19.98 1.22 41.86 2.55 64.49 2.55 32.51 0 66.54-2.77 98.66-12.56v-4.17c-54.09 16.79-114.23 13.15-162.9 10.19-42.76-2.6-91.21-5.55-136.01-21.09-3.18-14.14-8.84-27.46-14.07-39.11.47-.95.81-2 .92-3.14.29-2.88-.61-5.63-1.56-8.19-2.53-6.78-5.44-13.17-8.68-19.16h44.37c-.16 8.19-.35 16.37-.58 24.52l-.01.37c-.17 6.04-.35 12.28.3 18.45.1.98.29 2.8 1.65 4.06 1.06.99 2.4 1.24 3.28 1.4 8.48 1.56 17.09 2.34 25.7 2.34 3.52 0 7.03-.13 10.55-.4.28.18.62.29.98.3 28.24.83 56.67 1.4 84.17 1.95 27.51.54 55.95 1.11 84.18 1.94.23 0 .49.01.78.01 1.28 0 2.97-.16 4.33-1.26 2.01-1.64 2.11-4.35 2.16-5.81l1.75-48.03h58.69v-4h-58.54l.37-10.09 3.4.17c1.62.08 3.27.16 4.92.16 2.36 0 4.74-.17 7.12-.73.59-.14 1.09-.54 1.35-1.09s.25-1.19-.02-1.74c-8.08-16.39-17.44-32.19-27.92-47.18 19.37-6.12 40.04-7.32 60-3.43 3.55.69 6.61 1.46 9.32 2.37v-4.2c-2.55-.79-5.37-1.48-8.56-2.1-21.03-4.09-42.83-2.71-63.18 3.94-3.72-5.19-7.57-10.28-11.56-15.27-1.21-1.5-2.71-3.38-4.8-4.61-2.73-1.61-5.95-1.81-8.54-1.96-18.94-1.17-38.15-2.34-57.47-3.15l10.32-17.59c1.35-2.3 3.04-5.17 3.29-8.41.31-4.16-1.77-7.98-3.62-10.84-1.09-1.68-2.27-3.36-3.42-4.99-4.16-5.89-8.09-11.46-8.41-18-.38-7.63 4.4-14.65 9.75-21.77zm-164.44 69.28c1.19-.47 2.39-.95 3.61-1.44l4.24-1.69c-.59 1.89-1.13 3.82-1.51 5.8-.1.52-.28 1.48.08 2.48.35.95 1.04 1.54 1.53 1.91.7.52 1.46.91 2.24 1.22.15 7.36.27 14.73.36 22.11-10.16-7.05-20.22-14.3-30.16-21.74 6.46-3.43 12.87-5.98 19.61-8.65zm-177.38 155c5.18-13.49 10.92-27 16.48-40.08l3.11-7.34c3.16-7.46 7.27-12.18 10.98-12.61 2.65-.31 5.42 1.49 8.26 5.34 9.69 13.18 17.85 28.59 24.26 45.81 1.17 3.14 2.19 6.2 1.89 9.17-.25 2.45-1.87 5.32-4.39 5.79-3.27.61-6.42-2.83-8.11-6.52-1.51-3.32-2.47-6.85-2.85-10.48-.1-1.02-.97-1.79-1.98-1.79-.06 0-.12 0-.19.01-1.09.1-1.89 1.05-1.81 2.15.38 4.8-.35 9.72-2.09 14.22-.42 1.1-.91 1.59-1.03 1.64-.03-.01-.22-.07-.68-.57-3.63-3.93-3.97-10.04-4.01-15.97-.01-1-.76-1.85-1.76-1.97-1.01-.12-1.93.51-2.18 1.49-1.14 4.42-3.16 8.72-5.85 12.41-1.2 1.65-2.95 3.11-4.13 2.65-.91-.35-1.46-1.77-1.76-2.9-1.15-4.38-.9-9.12.71-13.35.37-.98-.08-2.09-1.03-2.53s-2.09-.06-2.59.86c-3.71 6.75-8.41 12.86-14 18.17-1.32 1.26-2.95 2.3-4.2 2.42-.11-.07-.23-.13-.36-.19-.3-.13-.63-.17-.94-.14-1.31-1.13-.27-4.34.25-5.69zm100.31 13.7c-2.13 5-4.27 10.07-6.36 15.19-5.71-3.26-11.62-6.6-18.53-5.67-2.56-6.3-5.23-12.35-7.82-18.11.76-1.41 1.21-2.96 1.36-4.42.39-3.82-.83-7.51-2.12-10.96-1.11-2.99-2.29-5.9-3.51-8.78h46.64c-3.48 8.19-6.99 16.58-10.22 24.99-1.63 4.24-.7 6.54.56 7.76zm-38.19-36.75c-.16 0-.32.02-.47.06-2.84-6.37-5.94-12.45-9.28-18.23 18.56 4.51 36.8 10.61 54.34 18.17zm-36.69 129.55c-.12-.03-.22-.06-.29-.08 0-.13.01-.26.01-.33l1.31-22.76c.77-.42 1.48-.95 2.07-1.56.84-.88 1.47-1.87 1.98-2.9.13.3.26.61.41.92 1.39 2.86 3.68 4.58 6.13 4.59 1.53-.03 3.11-.66 4.51-1.94.46-.42.89-.88 1.26-1.38 1.94 8.19 3.06 16.58 3.31 24.99-6.64 2.14-13.97 2.31-20.7.45zm58.26-29.22c-1.55 1.17-4.02.61-5.51-.61-1.56-1.28-2.69-3.3-3.56-6.38-.19-.66-.71-1.18-1.38-1.37-.66-.19-1.38-.03-1.89.44-1.68 1.51-1.89 3.66-2.07 5.38-.03.35-.07.69-.12 1.03-.14 1.01-.75 1.79-.95 1.86-.08-.03-.27-.16-.72-.65-2.1-2.29-3.89-4.85-5.3-7.62-.36-.69-1.09-1.1-1.85-1.09-.77.03-1.46.5-1.77 1.21-.48 1.12-.84 2.25-1.19 3.35-.37 1.16-.72 2.25-1.18 3.26-.9 1.97-2.21 3.31-3.59 3.67-1.4.36-3.19-.24-4.55-1.53-1.46-1.39-2.41-3.36-3.23-5.28-.38-.91-1.37-1.4-2.33-1.15-.96.24-1.6 1.15-1.5 2.14.21 2.04-.61 4.16-2.13 5.54-.63.58-1.27.9-1.79.9-.01 0-.01 0-.01 0-1.05-.01-2.03-1.26-2.55-2.34-.26-.54-.49-1.12-.73-1.74-.51-1.3-1.03-2.64-1.98-3.87-.45-.6-1.21-.89-1.96-.75s-1.35.69-1.55 1.42c-.58 2.07-1.23 4.41-2.66 5.9-1.06 1.1-3 1.73-4.09.87-.51-.4-.9-1.13-1.25-1.85-.96-1.94-1.77-3.97-2.43-6.04-.25-.81-1-1.37-1.85-1.39-.85-.05-1.63.5-1.93 1.3-.98 2.63-2.54 5.07-4.52 7.05-.88.89-1.37 1.06-1.62 1.07-.41-.01-1-.52-1.57-1.34-1.41-2.06-2.19-4.57-2.18-7.07 0-.74-.41-1.43-1.07-1.77-.66-.35-1.46-.3-2.08.13l-11.08 7.74c-2.64 1.85-6.47 4.14-9.13 2.69-1.2-.66-2.14-2.12-2.59-4.03-.95-4.08.32-8.46 1.82-12.96 6.03-18.12 13.61-36.01 21-53.35 2.16-.1 4.57-1.3 6.94-3.55 3.48-3.31 6.65-6.92 9.46-10.8.06 1.95.33 3.88.83 5.76.77 2.96 2.18 4.85 4.17 5.62 2.87 1.12 6.17-.39 8.81-4.02 1.2-1.65 2.28-3.4 3.22-5.22.65 3.54 1.91 6.91 4.41 9.62.65.7 1.69 1.66 3.16 1.82 2.2.25 4.1-1.27 5.22-4.17.55-1.4 1-2.84 1.37-4.31l.18.42c1.97 4.3 5.91 8.94 10.94 8.94.5 0 1.02-.05 1.55-.15 1.3-.24 2.44-.78 3.41-1.51 7.27 16.24 15 34.77 19.06 54.26.03.15.04.3.07.45.02.08.05.15.07.22.39 1.95.77 3.91 1.08 5.87.68 4.18.24 6.79-1.33 7.98zm1.61-25.41c-2.32-8.55-5.21-16.85-8.33-24.78 5.2-.3 9.99 2.42 15.03 5.29l.43.25c-2.54 6.35-4.97 12.77-7.13 19.24zm36.43 31.9.92-15.97c.5-.3.97-.66 1.36-1.08.38-.39.71-.82.99-1.27 1.11 2.09 2.88 3.32 4.78 3.33h.02c1.25 0 2.5-.53 3.62-1.54.08-.08.16-.17.24-.26 1.21 5.41 1.92 10.94 2.12 16.53-4.52 1.38-9.48 1.47-14.05.26zm42.22-26.36c.45 2.76.19 4.53-.76 5.24-.79.61-2.27.41-3.3-.42-1.03-.85-1.8-2.23-2.4-4.34-.18-.67-.7-1.19-1.37-1.38-.66-.19-1.38-.02-1.89.44-1.37 1.24-1.55 2.98-1.68 4.25-.02.24-.05.49-.08.72-.03.24-.12.47-.21.64-.02-.02-.03-.04-.05-.05-1.48-1.62-2.75-3.44-3.75-5.4-.35-.69-1.06-1.1-1.84-1.09-.78.03-1.47.5-1.78 1.21-.36.84-.62 1.67-.88 2.48-.26.82-.51 1.59-.83 2.3-.58 1.27-1.39 2.12-2.23 2.34-.83.22-1.92-.16-2.78-.97-.97-.93-1.63-2.3-2.2-3.63-.39-.91-1.38-1.4-2.34-1.16-.95.25-1.59 1.16-1.49 2.14.13 1.29-.41 2.68-1.36 3.55-.41.37-.75.5-.93.5-.39 0-.97-.59-1.35-1.38-.2-.39-.35-.8-.52-1.22-.36-.92-.77-1.98-1.5-2.93-.46-.6-1.22-.89-1.97-.75-.74.14-1.34.69-1.55 1.42-.4 1.44-.85 3.06-1.79 4.04-.64.67-1.74.95-2.22.58-.27-.22-.53-.71-.75-1.16-.68-1.38-1.26-2.82-1.72-4.28-.26-.82-1-1.38-1.86-1.4-.83-.04-1.62.5-1.92 1.3-.68 1.83-1.77 3.53-3.15 4.91-.51.52-.74.59-.74.61-.02-.01-.29-.12-.72-.73-.96-1.4-1.48-3.1-1.48-4.8 0-.75-.41-1.43-1.07-1.78-.67-.34-1.46-.29-2.08.13l-8.01 5.61c-2.85 1.99-4.77 2.59-6.03 1.91-.7-.38-1.25-1.25-1.55-2.4-.04-.19-.08-.37-.12-.56-.48-2.71.36-5.65 1.37-8.67 4.32-12.99 9.75-25.83 15.06-38.28 1.6-.18 3.33-1.07 5.01-2.67 2.19-2.08 4.2-4.31 6.02-6.69.1.94.27 1.87.51 2.78.61 2.32 1.74 3.82 3.36 4.44 2.33.91 4.95-.26 7.02-3.1.59-.82 1.15-1.67 1.66-2.54.55 2.11 1.47 4.1 3.01 5.77.25.27.56.58.95.85.45.31 1.01.57 1.68.65.05 0 .09.01.14.01 1.77.13 3.34-1.13 4.22-3.38.22-.58.43-1.17.61-1.77 1.62 2.94 4.41 5.78 7.9 5.78.4 0 .81-.04 1.23-.12.75-.14 1.47-.43 2.12-.82 5.76 12.88 11.87 27.74 14.38 43.27zm-15.84-56.47c.82 2.21 1.54 4.35 1.33 6.38-.16 1.58-1.17 3.42-2.73 3.71-2.06.38-4.17-2.01-5.26-4.41-1.07-2.35-1.75-4.84-2.01-7.4-.11-1.03-.98-1.8-1.99-1.8-.06 0-.12 0-.18.01-1.09.1-1.9 1.06-1.82 2.15.27 3.39-.24 6.87-1.47 10.05-.11.27-.22.47-.31.62 0-.01-.01-.01-.01-.02-2.5-2.7-2.73-7.01-2.76-11.19-.01-1-.76-1.85-1.75-1.97-1.01-.12-1.94.51-2.19 1.49-.8 3.13-2.24 6.18-4.14 8.8-.94 1.28-1.93 1.88-2.34 1.72-.26-.1-.64-.6-.94-1.73-.8-3.05-.63-6.36.5-9.32.37-.98-.08-2.08-1.04-2.52-.95-.44-2.08-.07-2.59.85-2.65 4.84-6.02 9.22-10.02 13.02-.92.87-1.89 1.45-2.56 1.58-.05-.02-.09-.06-.14-.08-.22-.09-.44-.13-.66-.14-.26-.46-.22-1.61.46-3.37 3.74-9.76 7.9-19.54 11.92-29l2.24-5.29c2.18-5.14 5.06-8.51 7.51-8.8 1.69-.2 3.53 1.03 5.46 3.64 6.98 9.5 12.87 20.61 17.49 33.02zm39.52-24.56h-45.79c-.29 0-.56.06-.81.17-2.25-3.86-4.64-7.53-7.19-11-2.84-3.86-5.91-5.62-9.15-5.24-5.47.64-9.06 7.29-10.72 11.21l-1.52 3.58c-20.22-9.04-41.39-16.16-62.97-21.14-2.37-3.82-4.84-7.5-7.43-11.02-3.75-5.1-7.77-7.43-11.94-6.94-5.74.67-9.95 6.51-12.55 11.52-9.2-2.64-18.52-4.75-27.93-6.37 20.44-12.55 44.69-20.08 70.74-21.97.14.02.28.04.41.04.04 0 .07 0 .11-.01.19 0 .36-.04.53-.09 1.42-.1 2.84-.19 4.26-.25 26.87-1.15 55.2 3.57 84.19 14.02 10.35 3.73 25.55 9.86 38.13 19.91-.1 7.87-.22 15.73-.37 23.58zm.43-28.58c-12.5-9.31-26.87-15.08-36.84-18.67-2.74-.99-5.47-1.91-8.2-2.8 14.21-6.01 29.18-9.79 44.58-11.23.22-.02.42-.08.6-.16.01 10.95-.03 21.91-.14 32.86zm-.83-36.68c-17.35 1.62-34.18 6.13-50.02 13.4-24.6-7.38-48.66-10.64-71.7-9.65-1.14.05-2.27.13-3.4.2-.04-.03-.08-.07-.13-.1-.06-.04-.11-.07-.17-.1-.62-3.64.96-7.22 2.03-9.13 1.42-2.53 3.29-4.78 5.26-7.16.64-.76 1.27-1.53 1.89-2.3 4.15-5.18 7.66-10.86 10.44-16.89.92-2 1.87-4.35 1.53-6.91-.39-2.85-2.31-5.08-3.71-6.71l-11.22-13c-1.47-1.71-3.15-3.65-3.71-5.78-1.06-4 1.68-8.37 4.33-12.15l21.37-30.47c.07-.1.13-.2.18-.31 30.97 27.2 63.87 52.85 97.79 76.26.12 10.31.2 20.63.22 30.96-.3-.13-.63-.2-.98-.16zm.49-62.27c-.06-.04-.1-.07-.13-.1.02-.12.05-.27.06-.33.55-2.87 1.5-5.75 2.43-8.54l.1-.31c.26-.35.41-.78.4-1.23l14.78-44.64c.17-.52.32-1.13.47-1.78.22-.93.63-2.66 1.04-3.09.01-.01.02-.02.02-.03.45.48 1.04 1.69 1.76 3.61.12.3.21.56.3.75 1.6 3.89 3.19 7.82 4.71 11.71 2.79 7.13 5.49 14.41 8.05 21.64-.04.36.01.73.18 1.08.1.2.23.37.38.52.03.07.06.15.08.22.19.53.85 2.66 1.61 5.13 2.62 8.44 4.14 13.33 5.17 16.15-11.96 1.19-24.25 2.24-36.26.79-1.86-.23-3.79-.53-5.15-1.55zm16.84 178.02c-.33-4.51-.61-9.13-.19-13.61.22-2.3.57-3.96 1.15-5.4.48-1.19 1.37-2.82 2.93-3.87.48-.33.91-.51 1.26-.54.75-.06 1.66.6 2.16 1.56.58 1.14.73 2.54.85 4.25.45 6.02.71 12.13.79 18.18-2.99-.09-5.97-.29-8.95-.57zm22.73.33c-3.26.22-6.52.32-9.78.31-.08-6.17-.34-12.4-.8-18.55-.12-1.71-.28-3.83-1.29-5.79-1.25-2.41-3.68-3.9-6.05-3.7-1.04.09-2.1.49-3.15 1.2-1.9 1.28-3.43 3.25-4.41 5.69-.73 1.82-1.17 3.83-1.42 6.52-.43 4.55-.19 9.1.12 13.54-2.54-.33-5.07-.71-7.6-1.17-.37-.07-1.07-.2-1.27-.39-.26-.25-.37-1.2-.4-1.56-.62-5.9-.45-12.01-.28-17.91l.01-.37c1.42-50.01 1.62-100.72.62-150.76.27.04.54.08.8.11 4.35.52 8.71.74 13.07.74 6.7 0 13.39-.51 19.99-1.13-.418.039-.858 16.585-.93 18.133-.142 3.05-.275 6.1-.394 9.152-.502 12.893-.788 25.838-.446 38.755.28 10.56.97 21.27 1.63 31.62.49 7.55.99 15.35 1.32 23.03.77 17.48.73 35.27.66 52.53zm173.75.9c-.03.83-.09 2.37-.69 2.86-.5.4-1.68.37-2.46.35-28.25-.83-56.7-1.4-84.22-1.94-26.92-.54-54.74-1.1-82.38-1.89.07-17.39.11-35.32-.66-52.99-.25-5.68-.59-11.41-.94-17.06l173.62 8.51zm-32.44-133.65c2.27.14 4.84.3 6.75 1.42 1.35.79 2.43 2.07 3.7 3.66 3.92 4.89 7.7 9.89 11.36 14.98-.06.33-.05.67.07 1 .24.71.85 1.19 1.54 1.31 10.19 14.45 19.34 29.66 27.28 45.45-2.75.31-5.61.17-8.39.03l-181.26-8.88c-.07 0-.14.01-.22.01-.04-.68-.08-1.37-.13-2.04-.66-10.32-1.34-20.99-1.62-31.47-.25-9.52-.15-19.1.11-28.66 46.95-2.57 94.65.35 140.81 3.19zm-63.07-66.77c.38 7.69 4.83 14.01 9.14 20.11 1.13 1.59 2.29 3.24 3.33 4.85 1.6 2.48 3.21 5.41 2.99 8.36-.18 2.32-1.54 4.64-2.75 6.69l-11.24 19.17c-.05.09-.09.17-.12.26-26.27-1.02-52.72-1.29-78.97.13.36-11.17.96-22.29 1.54-33.22.01-.15 0-.29-.03-.43.91-.09 1.83-.18 2.73-.28h.07c1.03-.1 1.8-.97 1.8-1.99 0-.06 0-.13-.01-.2-.01-.12-.03-.24-.07-.35-.07-.27-.2-.52-.37-.72-.83-1.81-4.16-12.55-5.79-17.79-.64-2.08-1.15-3.71-1.44-4.62l108.66-53.07c1.32-.64 2.52-1.18 3.56-1.17l-22.48 29.89c-5.81 7.73-10.99 15.41-10.55 24.38z"/><path d="m375.15 472.09-2.36-.27c-73.22-8.32-157.72-14.93-234.06 12.14-21.51 7.63-38.94 16.86-52.94 28.04h6.57c12.93-9.51 28.67-17.52 47.71-24.27 75.53-26.78 159.5-20.2 232.27-11.93l2.36.27c46.59 5.29 94.64 10.75 137.3-6.12v-4.3c-42.11 17.21-90.22 11.75-136.85 6.44z"/><path d="m364.83 93.69c5.4.83 10.89.97 16.2 1.11l66.65 1.76c1.29.03 2.59.08 3.88.12 4.86.18 9.89.36 14.87-.14 1.82-.18 3.69-.01 5.67.17 1.44.13 2.89.27 4.36.27 2.14 0 4.29-.28 6.46-1.25.76-.34 1.85-.94 2.46-2.1.48-.93.55-1.96.2-2.97-.74-2.14-3.02-3.3-3.7-3.61-4.68-2.1-9.92-2.96-15.04-2.48.31-1.09.58-2.22.62-3.45.22-6.19-5.66-10.95-11.48-11.97-4.01-.7-7.97-.15-11.81.39-1.06.15-2.16.31-3.24.43 4.08-10.86.49-23.92-8.61-31.14-9.16-7.28-22.83-7.78-32.5-1.19-5.92 4.04-10.29 10.44-12.31 18.03-1.54 5.8-1.68 12.3-.43 18.94l-7.88-.66c-3.11-.26-7.82-.66-11.4 1.85-4.98 3.51-5.15 10.1-4.66 16.08.07.92.77 1.67 1.69 1.81zm5.28-14.62c2.2-1.54 5.4-1.42 8.76-1.13l10.56.88c.64.06 1.27-.2 1.69-.69s.58-1.15.43-1.77c-1.69-6.93-1.75-13.73-.17-19.67 1.74-6.56 5.64-12.3 10.69-15.74 8.13-5.54 20.06-5.11 27.76 1.01 7.71 6.12 10.83 17.65 7.27 26.82-.77 1.98-.57 3.5.6 4.51 1.07.93 2.4.79 2.97.73 1.37-.14 2.74-.33 4.06-.52 3.69-.51 7.17-1 10.56-.41 4.04.71 8.32 3.93 8.18 7.88-.04 1.02-.36 2.09-.69 3.23-.23.77-.46 1.56-.63 2.4-.13.66.07 1.34.55 1.81.47.47 1.15.68 1.81.54 5.25-1.07 10.84-.45 15.73 1.75.77.35 1.31.85 1.5 1.14-.09.05-.23.13-.46.24-2.7 1.21-5.67.94-8.82.65-1.43-.13-2.89-.26-4.38-.26-.68 0-1.36.02-2.05.09-4.71.47-9.6.29-14.32.13-1.31-.05-2.62-.1-3.93-.13l-66.65-1.76c-4.66-.12-9.45-.24-14.12-.84-.23-4.37.13-8.79 3.1-10.89z"/><path d="m411.59 365.81c0 .37-.01.75-.02 1.15-.04 1.87-.1 4.2 1.07 6.06 1.24 1.96 3.31 2.52 4.67 2.88 2.44.65 4.97 1.06 7.5 1.2.22.02.52.03.87.03 1.47 0 3.91-.3 5.28-2.48.75-1.2.88-2.59.97-3.61l.66-7.27c.44-4.83.89-9.83 1.19-14.77.52-8.78.53-18.06-2.86-26.41-.59-1.44-1.39-3.03-2.92-3.93-1.15-.67-2.58-.86-4.14-.53-3.72.77-6.36 3.76-7.93 6.13-1.34 2.03-2.39 4.28-3.11 6.67-1.57 5.18-1.51 10.8-1.45 15.76zm5.05-33.72c.62-2.02 1.5-3.92 2.63-5.63 1.63-2.46 3.55-4.03 5.41-4.42.32-.06.92-.14 1.29.07.57.34 1.06 1.54 1.24 1.99 3.1 7.61 3.07 16.35 2.57 24.66-.28 4.89-.74 9.85-1.18 14.69l-.65 7.23c-.06.64-.14 1.45-.38 1.85-.3.47-1.14.66-2.52.58-2.27-.13-4.53-.49-6.71-1.07-1.08-.29-1.94-.56-2.31-1.15-.53-.84-.49-2.43-.46-3.84.01-.44.02-.88.02-1.28l-.22-19.13c-.06-4.9-.12-9.96 1.27-14.55z"/><path d="m378.57 364.81c0 .37-.01.75-.02 1.15-.04 1.87-.1 4.2 1.07 6.06 1.24 1.96 3.31 2.52 4.68 2.88 2.44.65 4.96 1.06 7.5 1.2.21.02.51.03.87.03 1.47 0 3.9-.3 5.27-2.48.75-1.21.88-2.6.97-3.61l.66-7.23c.44-4.84.9-9.85 1.19-14.81.52-8.78.53-18.06-2.86-26.41-.59-1.44-1.39-3.03-2.92-3.93-1.15-.67-2.58-.86-4.14-.53-3.72.77-6.36 3.76-7.93 6.13-1.34 2.04-2.39 4.28-3.11 6.67-1.57 5.18-1.51 10.8-1.45 15.76zm5.06-33.72c.61-2.02 1.49-3.91 2.62-5.63 1.63-2.46 3.55-4.03 5.41-4.42.23-.04.45-.07.64-.07.27 0 .49.05.65.14.57.34 1.06 1.54 1.24 1.99 3.1 7.61 3.07 16.35 2.58 24.66-.29 4.9-.75 9.88-1.18 14.69l-.66 7.23c-.06.64-.13 1.45-.38 1.85-.3.47-1.14.66-2.52.58-2.27-.13-4.52-.49-6.7-1.07-1.09-.29-1.95-.56-2.32-1.15-.53-.84-.49-2.43-.46-3.84.01-.44.02-.88.02-1.28l-.22-19.13c-.06-4.9-.11-9.96 1.28-14.55z"/><path d="m346.55 363.81c0 .37-.01.75-.01 1.15-.05 1.87-.1 4.2 1.06 6.06 1.24 1.96 3.31 2.52 4.68 2.88 2.44.65 4.96 1.06 7.5 1.2.21.02.51.03.87.03 1.47 0 3.9-.3 5.27-2.48.75-1.2.88-2.59.97-3.61l.66-7.23c.44-4.84.9-9.85 1.19-14.81.52-8.78.53-18.06-2.86-26.41-.59-1.44-1.39-3.03-2.92-3.93-1.15-.67-2.58-.85-4.13-.53-3.72.77-6.37 3.76-7.94 6.13-1.34 2.03-2.39 4.28-3.11 6.67-1.57 5.18-1.51 10.8-1.45 15.76zm5.06-33.72c.61-2.02 1.49-3.92 2.62-5.63 1.63-2.46 3.55-4.03 5.41-4.42.32-.06.92-.14 1.29.07.57.34 1.06 1.54 1.24 1.99 3.1 7.61 3.07 16.35 2.58 24.66-.29 4.9-.75 9.88-1.18 14.69l-.66 7.23c-.06.64-.13 1.45-.38 1.85-.29.47-1.14.66-2.52.58-2.27-.13-4.52-.49-6.7-1.07-1.09-.29-1.95-.56-2.32-1.15-.53-.84-.49-2.43-.46-3.84.01-.44.02-.88.02-1.28l-.22-19.13c-.05-4.9-.11-9.96 1.28-14.55z"/><path d="m315.53 362.81c.01.37 0 .75-.01 1.15-.05 1.87-.1 4.2 1.07 6.06 1.23 1.96 3.3 2.52 4.67 2.88 2.44.65 4.96 1.06 7.5 1.2.21.02.51.03.87.03 1.47 0 3.9-.3 5.27-2.48.76-1.21.88-2.6.97-3.61l.66-7.23c.44-4.84.9-9.85 1.19-14.81.52-8.78.53-18.06-2.86-26.41-.58-1.44-1.39-3.03-2.92-3.93-1.15-.67-2.58-.85-4.13-.53-3.72.77-6.37 3.76-7.94 6.13-1.34 2.03-2.39 4.28-3.11 6.67-1.57 5.18-1.5 10.8-1.45 15.76zm5.06-33.72c.61-2.02 1.49-3.91 2.62-5.63 1.63-2.46 3.55-4.03 5.41-4.42.23-.04.45-.07.64-.07.27 0 .49.05.65.14.57.34 1.06 1.54 1.24 1.99 3.1 7.61 3.07 16.35 2.58 24.66-.29 4.9-.74 9.88-1.18 14.69l-.66 7.23c-.06.64-.13 1.45-.38 1.85-.29.47-1.14.66-2.52.58-2.27-.13-4.52-.49-6.7-1.07-1.09-.29-1.95-.56-2.32-1.15-.53-.84-.49-2.43-.45-3.84.01-.44.02-.88.01-1.28l-.22-19.13c-.05-4.9-.11-9.96 1.28-14.55z"/><path d="m275.49 86.49c2.91 2.02 6.41 3.57 11.01 4.87 2.35.66 5.36 1.38 8.54 1.38.51 0 1.01-.02 1.53-.06 3.16-.24 6.48-1.31 9.88-3.16 4.62-2.52 8.31-5.9 10.69-9.8 2.15-3.52 3.51-7.85 4.15-13.24.65-5.48.36-10.16-.88-14.3-2.3-7.66-8.4-14.39-16.33-18.01-9.42-4.3-24.1-2.45-34.07 11.76-4.44 6.31-6.51 14.11-5.69 21.38.88 7.74 5.05 14.91 11.17 19.18zm-2.21-38.26c6.27-8.93 18.29-15.37 29.14-10.42 6.89 3.15 12.19 8.95 14.15 15.51 1.09 3.61 1.33 7.76.74 12.69-.57 4.81-1.74 8.61-3.58 11.63-2.02 3.29-5.19 6.19-9.19 8.37-2.9 1.58-5.69 2.48-8.28 2.68-3.11.24-6.27-.51-8.68-1.18-4.15-1.17-7.27-2.54-9.8-4.31-5.19-3.61-8.74-9.72-9.48-16.34-.72-6.32 1.1-13.11 4.98-18.63z"/><path d="m285.51 361.81c.01.37 0 .75-.01 1.15-.05 1.87-.1 4.2 1.07 6.06 1.23 1.96 3.3 2.52 4.67 2.88 2.44.65 4.96 1.06 7.5 1.2.21.02.51.03.87.03 1.47 0 3.9-.3 5.27-2.48.76-1.2.88-2.6.97-3.61l.66-7.23c.44-4.84.9-9.85 1.19-14.81.52-8.78.54-18.06-2.86-26.41-.58-1.44-1.39-3.03-2.92-3.93-1.14-.67-2.57-.85-4.13-.53-3.72.77-6.37 3.76-7.94 6.13-1.34 2.03-2.38 4.28-3.11 6.67-1.57 5.18-1.5 10.8-1.45 15.76zm5.06-33.72c.61-2.02 1.49-3.92 2.62-5.63 1.63-2.46 3.55-4.03 5.41-4.42.17-.03.41-.07.65-.07.23 0 .46.04.64.14.57.34 1.06 1.54 1.25 1.99 3.09 7.61 3.06 16.35 2.57 24.66-.29 4.9-.74 9.88-1.18 14.69l-.66 7.23c-.06.64-.13 1.45-.38 1.85-.29.47-1.14.66-2.52.58-2.27-.13-4.52-.49-6.7-1.07-1.09-.29-1.95-.56-2.32-1.15-.52-.84-.49-2.43-.45-3.84.01-.44.02-.88.01-1.28l-.22-19.13c-.05-4.89-.11-9.96 1.28-14.55z"/><path d="m258.54 221.08c-.83-.33-1.76-.39-2.78-.17-1.71.36-3.3 1.38-4.75 3.01-1.99 2.25-5.53 8.63-3.04 12.91 1.01 1.72 2.69 2.05 4.06 2.05.5 0 .96-.04 1.34-.08l7.73-.57c.34-.03 1.03-.08 1.68-.56.72-.52.97-1.26 1.07-1.54 1.44-4.17.24-9.17-3.21-13.36-.52-.62-1.16-1.31-2.1-1.69zm1.69 13.2-6.68.49c-.18.01-.36.03-.55.05-.48.04-1.35.12-1.57-.01-1.07-1.83.83-6.26 2.58-8.24.6-.67 1.53-1.52 2.59-1.75.15-.03.26-.04.33-.04.06 0 .09 0 .1.01.05.02.19.12.52.52 1.86 2.26 3.48 5.73 2.68 8.97z"/><path d="m258.54 266.43c-.83-.33-1.76-.39-2.78-.17-1.7.36-3.3 1.38-4.75 3.01-1.99 2.25-5.53 8.64-3.04 12.91 1.01 1.72 2.69 2.05 4.06 2.05.5 0 .96-.04 1.34-.08l7.73-.57c.34-.03 1.03-.08 1.68-.55.72-.52.97-1.27 1.07-1.55 1.44-4.17.24-9.17-3.21-13.36-.52-.62-1.16-1.31-2.1-1.69zm1.69 13.2-6.68.49c-.18.02-.36.03-.55.05-.48.04-1.35.13-1.57 0-1.07-1.84.83-6.27 2.58-8.25.6-.67 1.53-1.52 2.59-1.75.26-.06.4-.04.43-.03.05.02.19.12.52.52 1.86 2.26 3.48 5.73 2.68 8.97z"/><path d="m258.54 311.78c-.83-.33-1.76-.39-2.78-.17-1.71.37-3.3 1.38-4.75 3.01-1.99 2.26-5.53 8.64-3.04 12.91 1.01 1.73 2.69 2.05 4.06 2.05.5 0 .96-.04 1.34-.07l7.73-.58c.34-.03 1.03-.08 1.68-.55.72-.52.97-1.27 1.07-1.55 1.44-4.17.24-9.16-3.21-13.36-.52-.62-1.17-1.31-2.1-1.69zm1.69 13.2-6.68.5c-.18.01-.36.03-.55.04-.48.05-1.35.13-1.57 0-1.07-1.83.83-6.27 2.58-8.25.6-.67 1.53-1.52 2.59-1.75.15-.03.26-.04.33-.04.06 0 .09.01.1.01.05.02.19.12.52.52 1.86 2.27 3.48 5.73 2.68 8.97z"/><path d="m35.65 112.64c4.67 2.36 9.53 2.15 14.23 1.94 2.74-.12 5.32-.23 7.84.13 6.67.98 13.46 1.05 20.03 1.12 1.76.02 3.52.04 5.29.07l90.42 1.83c2.87.05 5.78.11 8.71.11 4.39 0 8.82-.13 13.23-.6.92-.09 1.65-.81 1.77-1.73 1.01-7.88 1.2-16.58-5.05-21.42-4.13-3.21-9.39-3.29-14.86-3.08l-11.66.43c2.29-9.13 2.58-18.17.83-26.29-2.22-10.24-7.64-19.04-15.28-24.78-12.44-9.36-30.64-9.54-43.27-.43s-18.2 26.43-13.25 41.2c.11.33.17.57.21.75-.06-.01-.13-.02-.22-.03-1.74-.26-3.54-.6-5.28-.92-5.11-.97-10.39-1.96-15.75-1.28-7.65.98-15.61 6.79-15.69 14.8-.03 1.97.42 3.8.86 5.57-7.1-1.19-14.53-.43-21.23 2.22-1.8.71-4.02 2.2-4.84 4.25-.46 1.16-.44 2.37.08 3.48.65 1.41 1.95 2.19 2.88 2.66zm.76-4.65c.26-.67 1.38-1.54 2.59-2.02 6.9-2.73 14.67-3.23 21.87-1.41.65.16 1.33-.01 1.83-.46s.73-1.12.63-1.78c-.17-1.11-.43-2.19-.68-3.23-.4-1.6-.77-3.12-.75-4.59.06-5.83 6.25-10.11 12.2-10.87 4.73-.61 9.48.29 14.5 1.24 1.78.33 3.61.68 5.44.95.73.11 2.26.33 3.53-.67 1.38-1.08 1.66-2.86.85-5.28-4.34-12.94.74-28.71 11.8-36.69 11.06-7.97 27.63-7.81 38.53.38 6.77 5.09 11.78 13.27 13.77 22.43 1.78 8.26 1.27 17.6-1.48 26.99-.18.62-.05 1.29.34 1.79.4.51 1.02.8 1.65.77l14.38-.54c4.71-.17 9.19-.13 12.26 2.25 4.29 3.33 4.41 9.87 3.72 16.17-6.58.58-13.32.44-19.85.31l-90.42-1.83c-1.78-.03-3.56-.05-5.33-.07h-.06c-6.42-.07-13.05-.14-19.43-1.07-1.51-.22-3.01-.3-4.51-.3-1.37 0-2.74.07-4.08.12-4.38.2-8.52.38-12.26-1.51-.75-.38-.98-.63-1.05-.77-.04-.09-.06-.15.01-.31z"/></svg>