<svg id="Capa_1" enable-background="new 0 0 512 512" height="512" viewBox="0 0 512 512" width="512" xmlns="http://www.w3.org/2000/svg"><path d="m512 365.21v146.79h-112.89c-.32-.49-.67-.97-1.05-1.45-.53-.69-1.11-1.37-1.73-2.04-.16-.18-.33-.36-.51-.53-.2-.22-.42-.44-.64-.65-.33-.33-.68-.66-1.04-.98-.3-.28-.62-.55-.94-.83-.09-.08-.17-.15-.26-.22-.35-.29-.71-.58-1.07-.87-.39-.31-.78-.61-1.18-.9-.02-.02-.05-.04-.08-.06-.31-.23-.62-.46-.94-.68-.54-.39-1.11-.77-1.69-1.14-.47-.3-.94-.6-1.43-.9-.65-.4-1.31-.79-1.97-1.17s-1.33-.75-2-1.11-1.34-.71-2.02-1.05c-1.41-.71-2.83-1.38-4.27-2.01l-1.26-.54c-.1-.04-.2-.09-.311-.13-.61-.25-1.22-.5-1.84-.74-2.5-.99-5.04-1.87-7.6-2.65-1.01-.32-2.021-.61-3.03-.89-.39-.11-.78-.22-1.17-.32-5.44-1.45-10.91-2.5-16.29-3.27-.19-.03-.39-.06-.6-.09-1.95-.27-3.88-.51-5.79-.71-.15-.01-.29-.03-.44-.05-1.32-.14-2.63-.26-3.93-.37-1.311-.11-2.62-.21-3.91-.3-3.39-.23-6.68-.38-9.83-.49-2.93-.1-5.89-.17-8.9-.23-3.01-.05-6.05-.09-9.14-.13-16.71-.2-34-.4-50.65-3.71-3.2-.63-6.48-1.41-9.53-2.71-.61-.25-1.2-.53-1.789-.84-1.18-.6-2.3-1.3-3.36-2.12-.26-.2-.54-.43-.81-.68-.09-.08-.18-.17-.26-.26-.89-.87-1.67-1.95-1.92-3.18-.06-.32-.09-.64-.07-.98 0-.1.01-.19.03-.29.03-.27.09-.55.19-.81.03-.09.07-.18.1-.26.14-.34.33-.66.539-.96.061-.07.11-.14.17-.21.06-.08.12-.15.18-.22.06-.06.12-.13.18-.2.11-.11.21-.22.32-.31.03-.03.05-.05.07-.07.22-.2.47-.39.73-.59.33-.24.69-.48 1.09-.72.14-.08.28-.16.41-.23.19-.1.38-.2.58-.3.25-.13.46-.23.63-.31.92-.43 1.85-.84 2.79-1.24 0 0 .01 0 .01-.01.94-.39 1.88-.77 2.83-1.14.48-.19.96-.37 1.44-.54 1.43-.52 2.88-1.02 4.33-1.49h.01c.97-.3 1.94-.6 2.92-.89 1.47-.43 2.95-.83 4.44-1.21.98-.25 1.97-.49 2.97-.72 1.49-.35 2.99-.67 4.49-.98.51-.11 1.02-.21 1.53-.31 6.52-1.29 13.09-2.27 19.58-3.24.01-.01.03-.01.04-.01 1.96-.29 3.92-.58 5.89-.88.41-.06.82-.13 1.22-.19 1.56-.24 3.13-.5 4.69-.76 8.65-1.43 17.33-3.2 25.61-5.95.3-.1.63-.22.99-.35.12-.04.25-.09.37-.14.15-.06.3-.12.46-.18.23-.1.48-.2.73-.31.28-.12.56-.25.84-.39.29-.14.57-.29.86-.44.06-.03.11-.06.16-.09.15-.08.3-.17.439-.25.25-.14.49-.29.73-.45.16-.1.3-.2.45-.3s.3-.2.44-.32c2.02-1.51 3.3-3.26 3.74-5.11.03-.13.06-.27.08-.4.03-.16.05-.33.06-.5v-.08c.03-.35.03-.72-.01-1.1v-.01c-.02-.16-.04-.32-.07-.48-.06-.32-.14-.63-.25-.94-.66-1.97-2.15-3.62-3.31-4.76l-.01-.01c-.56-.55-1.13-1.08-1.72-1.59-.88-.75-1.79-1.47-2.73-2.16h-.01c-1.19-.86-2.41-1.66-3.67-2.39-5.77-3.36-12.23-5.61-18.32-7.42-1.46-.43-2.91-.84-4.34-1.24-.34-.09-.68-.19-1.021-.28-.34-.1-.68-.19-1.01-.28l-54.15-14.87c-1.27-.35-2.54-.72-3.79-1.14-.31-.1-.61-.21-.92-.32-.61-.21-1.21-.45-1.8-.72-.29-.13-.57-.26-.86-.4-.21-.1-.42-.21-.62-.32-.35-.19-.7-.39-1.04-.6-.26-.15-.51-.31-.75-.49-.18-.12-.35-.24-.52-.38-.13-.09-.25-.19-.37-.29-.02-.01-.04-.03-.06-.05l-4-3.3 1.17-.04 2.88-.11c.21 0 .42-.01.63-.02l.58-.02c.38-.01.76-.03 1.15-.05.42-.01.84-.03 1.26-.05l1.03-.05c2.87-.16 5.41-.37 7.75-.65.39-.05.76-.1 1.13-.15 2.09-.29 4.19-.66 6.28-1.16.41-.1.83-.2 1.25-.31l.86-.22.18-.05.64.58.16.15.36.3c.26.18.53.35.81.49.15.08.29.15.44.21.289.13.6.24.91.35s.63.21.95.3c1.58.47 3.18.89 4.78 1.29.01.01.02.01.03.01 1.6.4 3.21.76 4.82 1.09.81.17 1.63.34 2.44.49.69.13 1.38.26 2.08.38.29.05.58.1.87.15.23.04.45.08.68.12.42.08.85.15 1.27.21.81.13 1.63.26 2.45.38.83.13 1.66.25 2.49.36.24.03.48.06.72.09.06.01.11.01.17.02.67.08 1.33.17 1.99.25.66.09 1.32.17 1.98.24.81.09 1.63.18 2.44.27l1.77.18c1.03.1 2.05.2 3.07.3 1.61.15 3.21.28 4.79.41.13.01.27.02.4.03 1.81.15 3.62.29 5.439.42.69.05 1.39.1 2.08.15 1.97.14 3.95.27 5.93.39 2.32.15 4.64.28 6.97.39 1.49.08 2.98.15 4.47.21.52.03 1.03.05 1.55.07.92.04 1.83.08 2.75.11.29.01.59.02.88.04.89.03 1.78.06 2.68.09l.93.03c.57.02 1.15.04 1.73.06.25.01.49.01.74.02l4.77.12c.24 0 .49.01.73.01.35.01.71.02 1.06.02 1.9.04 3.79.06 5.68.08 2.33.03 4.66.04 6.99.04 1.31 0 2.62 0 3.93-.01s2.62-.02 3.93-.04c2.62-.03 5.25-.07 7.87-.13.1-.01.19-.01.29-.01.98-.02 1.95-.05 2.92-.07.29-.01.57-.02.86-.02 1.19-.04 2.37-.08 3.55-.12.42-.02.83-.03 1.25-.05.99-.03 1.97-.07 2.95-.11 1.31-.05 2.63-.11 3.94-.17 1.46-.06 2.92-.13 4.38-.21 2.32-.12 4.64-.26 6.96-.4 2.87-.18 5.74-.38 8.6-.59.19-.01.37-.03.56-.05 1.72-.12 3.44-.26 5.16-.41 1.91-.16 3.81-.32 5.72-.5.17-.02.35-.04.539-.06.62-.07 1.26-.15 1.88-.29.12-.03.24-.06.37-.09.12-.03.25-.07.38-.11.08-.02.16-.05.24-.08.12-.04.24-.09.36-.14.13-.05.26-.11.38-.17.13-.06.25-.13.37-.2s.24-.15.35-.23c.23-.16.44-.35.63-.55.09-.1.18-.21.27-.32 0 0 0-.01.01-.01.35-.46.58-.99.74-1.54.11-.37.18-.75.23-1.12.03-.21.05-.42.07-.63.02-.2.04-.41.05-.61 0-.13.01-.26.02-.39.05-.89.09-1.74.13-2.59l.09-1.87h.02l1.85-.04c.9-.02 1.79-.04 2.68-.07.9-.03 1.8-.07 2.69-.11 2.03-.08 4.06-.2 6.1-.35.96-.07 1.91-.15 2.87-.23.68-.05 1.35-.12 2.03-.18.48-.04.96-.09 1.43-.14.75-.07 1.51-.15 2.26-.24.03 0 .06 0 .09-.01.93-.11 1.86-.22 2.79-.33 1.98-.24 3.96-.52 5.93-.82.65-.1 1.31-.2 1.97-.31 2.13-.33 4.24-.7 6.36-1.11.6-.11 1.22-.23 1.83-.35.7-.13 1.41-.28 2.11-.43.8-.16 1.61-.33 2.41-.51.72-.15 1.43-.31 2.14-.48.72-.16 1.44-.33 2.15-.5 1.16-.27 2.32-.56 3.47-.86.75-.19 1.49-.39 2.24-.58 1.01-.26 2.01-.54 3.01-.83.75-.21 1.49-.42 2.24-.64 2.34-.67 4.67-1.39 6.98-2.15.72-.24 1.45-.48 2.17-.72.92-.3 1.83-.62 2.73-.94 1.82-.64 3.63-1.3 5.43-1.99.44-.16.87-.32 1.3-.5.44-.16.87-.34 1.3-.51.08-.02.16-.05.23-.09.85-.33 1.69-.68 2.54-1.02.89-.36 1.77-.73 2.66-1.11.715-.3 1.415-.6 2.105-.9z" fill="#f0f2fa"/><path d="m512 318.86v46.35c-.69.3-1.39.6-2.1.9-.89.38-1.77.75-2.66 1.11-.85.34-1.69.69-2.54 1.02-.07.04-.15.07-.23.09-.43.17-.86.35-1.3.51-.43.18-.86.34-1.3.5-1.8.69-3.61 1.36-5.43 1.99-.9.32-1.81.64-2.73.94-.72.24-1.45.48-2.17.72-2.31.76-4.64 1.48-6.98 2.15-.75.22-1.49.43-2.24.64-1 .29-2 .57-3.01.83-.75.19-1.49.39-2.24.58-1.15.3-2.31.59-3.47.86-.71.17-1.43.34-2.15.5-.71.17-1.42.33-2.14.48-.8.18-1.61.35-2.41.51-.7.15-1.41.3-2.11.43-.61.12-1.23.24-1.83.35-2.12.41-4.23.78-6.36 1.11-.66.11-1.32.21-1.97.31-1.97.3-3.95.58-5.93.82-.93.11-1.86.22-2.79.33-.03.01-.06.01-.09.01-.75.09-1.51.17-2.26.24-.47.05-.95.1-1.43.14-.68.06-1.35.13-2.03.18-.96.08-1.91.16-2.87.23-2.04.15-4.07.27-6.1.35-.89.04-1.79.08-2.69.11-.8.03-1.59.05-2.39.07l-2.14.05h-.01v-.01l.11-2.14c.55-11.06.99-22.19 1.29-33.29.1-3.7.18-7.39.25-11.08.04-2.11.07-4.21.1-6.31l.02-1.26h.01l1.13-.53c.36-.17.72-.33 1.09-.49l.08-.04.54-.24c.98-.43 1.96-.85 2.95-1.26.78-.33 1.57-.65 2.36-.96.69-.28 1.38-.54 2.08-.81 1.1-.41 2.21-.81 3.33-1.2.6-.21 1.21-.42 1.82-.62 1.63-.54 3.26-1.05 4.9-1.53.6-.18 1.19-.35 1.79-.52.61-.16 1.21-.32 1.82-.49.56-.15 1.12-.29 1.68-.44.08-.01.16-.03.24-.06.57-.14 1.14-.28 1.71-.41.61-.15 1.22-.29 1.83-.42.61-.14 1.229-.27 1.84-.4.77-.16 1.53-.31 2.3-.46s1.54-.29 2.32-.43l2.31-.39c1.55-.25 3.11-.48 4.66-.67.67-.08 1.34-.16 2-.24 1.67-.19 3.35-.35 5.03-.48 3.76-.3 7.53-.45 11.31-.45 5.46 0 10.91.31 16.31.93.6.07 1.2.14 1.8.22.47.05.93.11 1.4.18.94.13 1.88.26 2.81.41.61.09 1.22.19 1.83.3.35.06.7.12 1.05.18z" fill="#d8deec"/><path d="m512 268.99v49.87c-.35-.06-.7-.12-1.05-.18-.61-.11-1.22-.21-1.83-.3-.93-.15-1.87-.28-2.81-.41-.47-.07-.93-.13-1.4-.18-.6-.08-1.2-.15-1.8-.22-5.4-.61-10.86-.92-16.32-.92-3.77 0-7.54.15-11.3.44-1.68.13-3.36.29-5.03.48-.66.08-1.33.16-2 .24-1.55.2-3.11.42-4.66.67-.77.13-1.54.26-2.31.39-.78.14-1.55.28-2.32.43s-1.53.3-2.3.46c-.61.13-1.23.26-1.84.4-.61.13-1.22.27-1.83.42-.57.13-1.14.27-1.71.41-.08.03-.16.05-.24.06-.56.15-1.12.29-1.68.44-.61.17-1.21.33-1.82.49-.6.17-1.19.34-1.79.52-1.64.48-3.27.99-4.9 1.53-.61.2-1.22.41-1.82.62-1.12.39-2.23.79-3.33 1.2-.7.27-1.39.53-2.08.81-.79.31-1.58.63-2.36.96-.99.41-1.97.83-2.95 1.26l-.54.24-.08.04-2.22.97-.01.01.04-3.11c.02-1.3.04-2.6.04-3.9.01-1.31.02-2.62.03-3.95.03-5.05.03-10.21 0-15.42 0-1.77-.01-3.54-.03-5.31-.01-.73-.01-1.46-.02-2.2 0-.41-.01-.82-.01-1.23h.01l1.08-.57c.33-.59.65-1.17.97-1.76 2.18-3.96 4.3-7.98 6.439-12.16.19-.38.39-.77.59-1.15.35-.69.71-1.38 1.06-2.07 1.13-2.21 2.25-4.43 3.37-6.66.28-.56.57-1.13.86-1.71l1.06-2.09 2.16-4.28 2.39-4.75.01.05 1.13 4.79c0 .04.01.08.03.12l.09.39c.11.47.23.92.37 1.37.35 1.13.82 2.22 1.39 3.26.1.19.2.37.31.55s.21.35.32.51c.14.21.28.41.42.6.15.21.31.41.46.59.12.14.24.27.36.39.17.16.33.31.49.45.24.2.49.38.75.54.22.14.46.26.71.36.74.31 1.57.47 2.46.47.75 0 1.521-.12 2.26-.35.19-.05.37-.11.55-.19.36-.14.711-.3 1.05-.49.17-.1.34-.2.5-.31 0 0 .01 0 .01-.01.18-.12.36-.25.53-.38.29-.22.57-.46.84-.71.22-.21.44-.44.65-.68.2-.23.4-.47.6-.72.2-.26.39-.54.58-.82.56-.86 1.08-1.84 1.56-2.95.1-.24.2-.48.29-.72.07-.17.14-.34.21-.52.21-.55.41-1.12.62-1.7.12-.34.24-.69.36-1.04l.19-.55c.09-.26.17-.51.26-.75.25-.71.52-1.46.82-2.19.4-.98.88-1.83 1.4-2.55.84-1.18 2.02-2.26 3.56-2.43.14-.01.27-.02.41-.02.13 0 .26 0 .39.02.07.01.14.02.21.03.08.01.16.03.23.05.23.05.46.13.69.23.75.32 1.35.88 1.81 1.51.09.12.18.24.27.37.25.37.47.78.67 1.23.05.1.09.2.13.3.06.14.12.28.17.44.06.17.11.33.16.47.04.11.08.24.11.36.88 3.18.93 6.5.98 9.72l.02 1.07c.02.67.03 1.35.06 2.02 0 .22.01.44.03.66.02.36.04.73.07 1.1.021.17.03.34.05.51 0 .04 0 .08.01.12.03.33.07.65.11.98.03.22.06.45.09.67.03.23.07.45.12.67 0 .04.01.09.02.13.07.4.16.8.26 1.2.11.44.24.88.38 1.31.06.22.14.44.22.65s.17.43.26.64c.08.18.16.37.25.55.08.19.18.38.28.56.09.19.2.37.32.55.11.19.22.37.35.55.24.37.51.73.79 1.07.15.17.3.34.45.51s.311.34.48.49c.28.27.58.52.89.76.18.13.36.26.54.38.18.13.36.24.55.34.17.1.35.19.52.28.03.02.06.04.09.05.18.08.36.16.54.23 0 0 .01.01.02.01.13.06.25.1.38.14.14.05.29.1.44.13.12.04.24.07.36.1.2.05.4.09.61.12.4.06.81.09 1.24.09.52 0 1.05-.05 1.58-.14.24-.04.47-.09.71-.15.16-.04.33-.09.49-.14.16-.04.33-.1.49-.15.24-.09.47-.18.7-.28.21-.09.42-.18.63-.29.12-.06.23-.12.35-.18.45-.24.89-.51 1.31-.81.26-.18.51-.36.75-.56.55-.43 1.07-.89 1.56-1.39.12-.12.24-.24.35-.36.59-.6 1.13-1.24 1.65-1.88.41-.51.81-1.03 1.19-1.54.54-.72 1.07-1.46 1.58-2.21.37-.54.74-1.08 1.1-1.63 1.43-2.2 2.79-4.51 4.05-6.91l.55-1.05c.02-.02.03-.04.03-.06l.6-1.13v-.01l.57-1.08.01-.02 1.45 2.73c.43.8.86 1.61 1.28 2.41.051.09.091.18.141.27z" fill="#57aa6b"/><path d="m512 0v268.99c-.05-.09-.09-.18-.14-.27-.42-.8-.85-1.61-1.28-2.41-.43-.81-.86-1.61-1.29-2.4l-.17-.31-.53-.97c-2.85-5.23-5.81-10.43-8.74-15.52-.98-1.7-1.95-3.39-2.92-5.06l-.711-1.22c-2.47-4.27-5-8.64-7.76-12.84-.45-.7-.92-1.4-1.4-2.09-.47-.7-.95-1.38-1.44-2.06v-.01c-.42-.58-.83-1.12-1.24-1.63-.54-.66-1.07-1.26-1.62-1.8-1.52-1.52-3.04-2.56-4.55-3.1-.12-.04-.25-.09-.37-.12-.12-.04-.23-.07-.35-.1-.21-.06-.42-.1-.64-.13-.17-.03-.33-.05-.49-.06-.21-.02-.41-.03-.62-.03-.38 0-.76.03-1.14.1-.45.08-.88.2-1.3.36-.28.1-.55.23-.81.37-1.46.74-2.7 1.88-3.7 2.88-.49.5-.97 1-1.43 1.52-.45.49-.88.99-1.29 1.5-.11.12-.22.25-.3.37-.28.32-.54.65-.79.98-.24.3-.47.61-.7.92-.15.19-.29.37-.42.56-.24.32-.47.64-.7.97-.51.73-1.01 1.46-1.49 2.2-.23.33-.45.67-.66 1.01-.33.5-.65 1-.95 1.5-.36.57-.71 1.14-1.05 1.7-.44.72-.87 1.44-1.31 2.17-.04.06-.08.12-.12.19-.46.79-.92 1.58-1.39 2.37-.01.02-.03.04-.04.06-.48.84-.96 1.68-1.44 2.52-.37.64-.73 1.29-1.1 1.96-.19.33-.38.67-.56 1.01-.19.34-.38.68-.57 1.02-.36.65-.71 1.3-1.06 1.95-.42.77-.85 1.55-1.28 2.36-1.22 2.3-2.43 4.6-3.61 6.88v.01c-.271.52-.54 1.05-.811 1.57-.81 1.58-1.61 3.15-2.4 4.7l-2.16 4.28c-.35.7-.7 1.4-1.05 2.09-.29.57-.58 1.14-.87 1.71-1.12 2.23-2.24 4.45-3.37 6.66-.35.69-.71 1.38-1.06 2.07-.2.38-.4.77-.59 1.15-1.59 3.07-3.189 6.12-4.83 9.17l-1.61 2.99-2.03 3.77-.02-1.44-.07-4.5c-.01-.6-.02-1.2-.03-1.8-.08-4.89-.18-9.8-.31-14.72.01-.05 0-.11 0-.16-.27-9.93-.63-19.9-1.1-29.87-.24-4.99-.5-9.98-.789-14.96l-.211-3.69.521.3 2.13 1.22c.02.01.03.02.04.02.38.23.76.45 1.14.65.39.21.79.42 1.19.6.21.1.41.19.61.28.26.12.51.23.77.32.18.07.36.14.54.2.31.12.63.22.95.31.24.07.48.13.72.19.02.01.04.01.06.02.23.05.46.1.69.14.36.07.74.12 1.11.16.37.03.75.05 1.13.05.28 0 .57-.01.84-.03.1 0 .2-.01.29-.03.28-.02.55-.05.82-.09.36-.06.71-.13 1.05-.23.26-.06.51-.14.75-.22.26-.09.51-.18.75-.3.06-.02.12-.04.17-.07.24-.11.479-.22.7-.35.25-.14.49-.3.72-.46.24-.16.46-.34.67-.52.25-.21.48-.44.69-.68.1-.1.19-.21.27-.32.18-.22.33-.44.48-.67.15-.24.28-.49.4-.74.11-.25.21-.51.28-.76.01-.04.02-.08.03-.11.17-.61.24-1.22.19-1.8 0-.1-.01-.2-.03-.29-.02-.12-.04-.25-.07-.37-.02-.09-.039-.17-.07-.26-.03-.08-.05-.16-.09-.25 0-.01 0-.03-.01-.04l-.37-1.12 1.189-.85c1.29-.92 2.83-2.25 4.04-3.98.12-.17.24-.35.35-.53.03-.04.06-.09.09-.14.2-.32.38-.65.55-1 .1-.2.19-.4.27-.6.09-.21.17-.42.24-.63.09-.21.16-.44.22-.66.06-.21.11-.42.15-.63.51-2.39.07-4.83-1.14-6.67-.07-.12-.15-.24-.24-.36-.29-.4-.61-.77-.97-1.09-.23-.21-.48-.4-.74-.58-.14-.09-.28-.18-.42-.27-.15-.08-.29-.16-.44-.23-.07-.04-.13-.08-.211-.1-.1-.06-.21-.11-.31-.15-.29-.13-.59-.25-.89-.35-.16-.06-.32-.11-.48-.16-.32-.11-.66-.21-.99-.32-.01-.01-.01-.01-.02-.01-1.41-.44-2.88-.89-4.07-1.81-.26-.2-.49-.41-.71-.64-.44-.45-.81-.95-1.12-1.49.01-.01.01-.01 0-.01-.11-.2-.22-.39-.32-.6-.48-.92-.82-1.92-1.15-2.97-.09-.33-.19-.65-.29-.97-.15-.51-.31-1.03-.48-1.54-.08-.26-.17-.52-.26-.77s-.18-.5-.29-.75c-.21-.51-.44-1-.7-1.47-.25-.45-.54-.88-.87-1.29-.13-.16-.27-.31-.41-.46-.28-.29-.58-.55-.89-.8-.3-.25-.63-.47-.97-.67-1.19-.72-2.54-1.22-3.92-1.64-.78-.22-1.59-.43-2.4-.64-.23-.05-.44-.12-.67-.18-.64-.17-1.28-.34-1.92-.54-.22-.06-.44-.13-.66-.2-.16-.05-.32-.11-.47-.16-.31-.11-.61-.22-.91-.35-.29-.12-.58-.25-.87-.39-.58-.27-1.13-.58-1.65-.95-.23-.16-.45-.33-.67-.52-1.11-.9-1.98-1.97-2.7-3.16-.27-.45-.52-.91-.76-1.38-.01-.02-.02-.05-.03-.07-.12-.25-.24-.51-.36-.77-.17-.39-.34-.78-.49-1.18-.21-.52-.4-1.05-.58-1.59-.1-.31-.21-.62-.31-.93-.03-.09-.06-.19-.09-.29-.09-.28-.18-.57-.27-.85-.09-.29-.18-.58-.27-.87-.15-.49-.3-.98-.46-1.47-.13-.43-.27-.85-.41-1.27-.34-1.01-.7-2-1.11-2.94-.4-.88-.83-1.74-1.33-2.55-.51-.81-1.08-1.57-1.75-2.28-.22-.23-.45-.46-.69-.67-.24-.22-.48-.42-.73-.61-.21-.17-.42-.33-.64-.47-.3-.21-.61-.41-.92-.59-.54-.33-1.1-.61-1.68-.86-1.1-.5-2.26-.89-3.47-1.2-.26-.08-.52-.14-.79-.21-.37-.09-.74-.18-1.12-.26-.19-.05-.38-.09-.57-.13-.5-.1-1.01-.2-1.52-.3-.32-.06-.65-.12-.97-.18s-.65-.12-.97-.18c-1.35-.24-2.72-.49-4.07-.8-.32-.07-.65-.14-.97-.22-1.09-.26-2.17-.57-3.22-.96-.24-.08-.47-.17-.71-.27-.24-.09-.48-.19-.72-.3-.32-.14-.63-.29-.93-.45-.05-.02-.09-.04-.12-.07-.32-.16-.63-.33-.94-.52-.67-.4-1.3-.86-1.91-1.34-.58-.45-1.13-.94-1.66-1.45-.31-.3-.61-.6-.9-.9-.52-.52-1.02-1.06-1.52-1.61-.02-.02-.04-.05-.07-.08-.24-.25-.47-.51-.71-.77-.05-.06-.11-.12-.16-.18-.59-.65-1.16-1.28-1.75-1.89-.29-.31-.58-.61-.88-.9-.3-.3-.6-.59-.91-.87-.17-.16-.35-.32-.53-.48-4.46-3.91-10.59-6.15-16.8-6.15-.57 0-1.14.02-1.7.06-.07-.01-.13 0-.2.01-.26.02-.53.04-.79.07-.29.03-.59.07-.88.11-1.55.21-3.06.58-4.53 1.09-.36.13-.73.26-1.09.41-2.08.84-3.98 1.92-6.05 3.09-2.27 1.3-4.84 2.77-7.57 3.65-1.54.49-3.16.8-4.76 1.05-.63.1-1.26.18-1.88.26-.3.04-.6.07-.89.11-.97.13-1.95.25-2.92.41-.07.01-.13.02-.19.03-.45.07-.89.14-1.33.23-.48.09-.95.19-1.42.31-.64.15-1.26.33-1.87.55-.11.03-.23.07-.34.12-.65.23-1.29.51-1.92.83-.17.1-.35.2-.53.3-.211.12-.42.25-.62.38-.17.11-.33.22-.5.34-.15.11-.29.22-.44.33-.09.06-.17.13-.24.19-.15.12-.3.25-.45.39-.1.08-.2.16-.29.25s-.17.16-.25.25c-.17.16-.33.32-.49.49-.46.48-.9.99-1.32 1.52-.29.36-.56.73-.83 1.11-.16.22-.31.44-.46.67-.65.94-1.26 1.92-1.89 2.92l-.18.29c-.11.17-.22.35-.34.53-.17.27-.34.54-.51.8-.52.8-1.05 1.6-1.62 2.37-.24.34-.5.67-.75.99-.02.02-.04.04-.06.06-.28.35-.57.68-.87 1.01-.22.24-.44.47-.67.69-.19.2-.39.39-.59.57s-.4.37-.61.54c-.31.27-.62.52-.94.77-.34.25-.68.5-1.03.74-.34.23-.69.46-1.05.69-1.07.68-2.19 1.28-3.35 1.81-.77.38-1.56.71-2.36 1.03-.39.16-.8.32-1.2.47-.44.17-.88.33-1.32.49-1.59.57-3.2 1.11-4.8 1.63-.58.19-1.16.38-1.74.58-.58.19-1.15.38-1.72.58-.3.1-.6.21-.89.31-.12.04-.23.08-.34.12-.39.14-.77.28-1.15.42-.56.21-1.12.43-1.67.66-1.65.68-3.26 1.43-4.78 2.3-.34.2-.68.4-1.01.61-.47.29-.94.6-1.39.94-.82.59-1.61 1.23-2.36 1.94-.27.25-.53.51-.78.78-.67.69-1.29 1.41-1.88 2.16-.19.24-.38.48-.56.72-.77 1-1.51 2.05-2.26 3.13l-.07.1c-1.03 1.48-2.09 2.99-3.26 4.41-.17.21-.35.42-.53.63-.68.78-1.39 1.53-2.17 2.22-.22.19-.44.38-.67.56-.22.19-.44.36-.67.53-.5.39-1.02.75-1.54 1.1-.65.43-1.31.84-1.99 1.23-1.08.62-2.18 1.21-3.28 1.79-1.09.58-2.21 1.18-3.28 1.8-.31.18-.6.36-.9.54-.58.36-1.13.73-1.65 1.1-1.04.74-1.97 1.5-2.78 2.28-.24.22-.45.44-.65.66-.211.23-.41.45-.6.68-.16.17-.3.35-.43.53-.09.12-.18.23-.26.35-.11.15-.21.3-.31.45-.19.28-.36.56-.52.85-.12.2-.23.41-.33.63-.12.23-.22.47-.33.72-.1.25-.19.5-.27.75-.06.18-.11.37-.16.56-.039.17-.07.34-.1.51-.039.17-.07.34-.08.52-.02.2-.04.4-.06.61-.06.93.02 1.89.22 2.81.06.23.11.45.18.68.19.63.44 1.24.76 1.8.16.28.34.58.57.88.09.12.19.24.29.36.59.69 1.28 1.24 2.05 1.62.16.08.31.17.48.24.02.01.05.02.08.03l1.35.62.02.01.49.22-.039.06-1.07 1.44c-.01.01-.02.02-.03.04l-.33.44c-1.23 1.65-1.75 3.22-1.61 4.77.01.16.04.33.07.49.04.2.09.4.15.6.06.19.13.37.21.54.07.18.16.35.26.51.78 1.35 2.13 2.3 3.63 2.81.93.33 1.92.5 2.85.5.21 0 .42-.01.63-.03.14-.01.29-.03.43-.05.5-.05.99-.15 1.48-.28.2-.05.41-.11.61-.17.43-.13.86-.29 1.28-.47.25-.1.49-.21.74-.32.24-.11.48-.23.72-.36 1.43-.72 2.76-1.59 3.95-2.36l1.48-.96 5.87-3.8.6-.39-.79 16.14-1.44-.09-.52-.03c-.32-.02-.65-.03-.97-.03-.67 0-1.33.04-1.99.13-.33.04-.66.09-.99.16-.66.12-1.3.28-1.93.49-2.2.69-4.23 1.85-5.93 3.39l-.06.06c-.24.21-.46.43-.68.65-.23.22-.45.47-.66.72-.03.03-.05.06-.08.1-.36.42-.7.87-1 1.34-.03.04-.06.07-.08.11l-.19.29c-.33.51-.67 1.05-1.17 1.42-.58.43-1.33.63-2.43.63-.27 0-.53-.01-.77-.02-.09-.01-.17-.01-.24-.01-.53-.02-1.03-.04-1.51-.06s-.94-.02-1.39-.02c-1.39 0-2.71.06-3.95.19-.2.02-.4.04-.59.07-1.55.19-2.98.48-4.32.87l-1.39.39-.04-.1-.61-1.6-.03-.09c-1.45-3.8-2.96-7.74-4.4-11.65l-.34-.93c-.2-.52-.39-1.06-.58-1.59l-.5-1.39c-.43-1.2-.91-2.57-1.42-4.03-.2-.55-.39-1.11-.59-1.68-.32-.95-.65-1.93-.97-2.91-.15-.45-.3-.89-.44-1.34-.26-.79-.51-1.59-.77-2.4-.25-.81-.51-1.63-.76-2.44-.49-1.61-.98-3.22-1.461-4.8-.3-.97-.6-1.95-.89-2.93-.32-1.08-.66-2.16-1-3.24-.22-.74-.46-1.47-.69-2.21-.22-.69-.44-1.37-.67-2.06-.28-.88-.58-1.76-.88-2.64-.05-.16-.11-.32-.16-.48-.34-.98-.69-1.96-1.04-2.94-.36-.98-.73-1.95-1.1-2.91s-.76-1.91-1.16-2.86c-.2-.49-.41-.98-.62-1.46-.32-.72-.66-1.46-1.09-2.1-.07-.11-.15-.22-.23-.33-.06-.08-.13-.17-.2-.25-.09-.11-.18-.21-.28-.31-.27-.27-.56-.5-.89-.69-.11-.06-.22-.12-.34-.17-.08-.04-.17-.07-.25-.1-.15-.06-.31-.11-.47-.14-.11-.03-.229-.06-.35-.07-.03 0-.07-.01-.1-.01-.16-.03-.33-.04-.5-.04-.27 0-.55.02-.84.08-.24.04-.479.1-.729.17-.03.01-.06.02-.09.03-.13.04-.27.08-.4.14-.47.17-.95.4-1.44.69-.14.09-.27.17-.4.25-.11.06-.22.13-.33.22-.53.36-.99.73-1.34 1.03-5.31 4.61-9.06 10.6-13.06 17.38-.81 1.36-1.59 2.68-2.34 3.98-1.19 2.05-2.33 4.02-3.41 5.96-1.89 3.38-3.64 6.66-5.31 10.04l-.06.14c-.28.52-.53 1.06-.79 1.59-.61 1.27-1.21 2.55-1.79 3.84l-.16.36c-.27.61-.539 1.23-.81 1.85l-.21.5-1.86 4.31-3.35-9.97-.15-.45-.47-1.37-.039-.14-.81-2.41-.58-1.72c-.55-1.66-1.11-3.33-1.67-5-.89-2.65-1.8-5.32-2.72-8-.26-.77-.52-1.54-.79-2.31-1.56-4.54-3.16-9.1-4.83-13.62-.36-.97-.72-1.95-1.09-2.92-1.07-2.89-2.18-5.76-3.32-8.6v-.01c-.09-.22-.19-.46-.3-.7s-.22-.49-.35-.74c-.09-.19-.189-.37-.309-.55-.01-.04-.03-.08-.06-.11-.07-.12-.15-.24-.24-.36-.01-.04-.04-.07-.07-.11-.39-.55-.84-1.02-1.36-1.36-.22-.13-.45-.25-.7-.33-.1-.04-.2-.07-.31-.09-.12-.03-.25-.04-.39-.05-.021-.01-.05-.01-.07-.01-.06-.01-.12-.01-.18-.01-.23 0-.45.03-.67.08-.51.1-1.04.33-1.63.7-.1.06-.21.13-.3.2-.09.05-.19.12-.29.19-1.26.9-2.38 1.95-3.41 3.1-.16.17-.31.34-.45.52-.2.22-.39.45-.57.69-.32.39-.62.79-.92 1.19-.24.32-.47.64-.69.97-.36.52-.7 1.04-1.04 1.57-.28.43-.55.86-.81 1.29-.53.86-1.06 1.73-1.56 2.61-.64 1.08-1.26 2.18-1.86 3.27-.53.97-1.05 1.93-1.55 2.89-.79 1.5-1.561 3-2.29 4.49-.48.95-.94 1.9-1.39 2.84-1.16 2.41-2.25 4.76-3.28 7-2.05 4.46-4.22 9.28-6.19 14.21-.36.89-.71 1.79-1.05 2.7-.54 1.41-1.07 2.86-1.57 4.31l-.45 1.34c-.68 2.05-1.29 4.03-1.82 5.95l-1.76 6.23-.02.07s-.29-1.15-.69-2.73c-.06-.23-.12-.47-.18-.7-.7-2.68-1.38-5.36-2.05-8l-.88-3.49c-.26-1.04-.52-2.07-.79-3.1-.04-.17-.08-.33-.13-.49l-.22-.87c-1.01-3.9-2.11-7.97-3.36-12.11-.24-.8-.48-1.59-.73-2.39-.23-.76-.48-1.52-.74-2.29-.76-2.33-1.58-4.68-2.47-7.02-.18-.49-.37-.97-.56-1.45-.21-.53-.42-1.06-.64-1.6-.21-.51-.42-1.01-.63-1.51-.21-.51-.43-1.01-.65-1.51-.44-1-.89-1.99-1.36-2.97-.18-.38-.36-.76-.55-1.14-1.24-2.53-2.59-5.02-4.07-7.45l-.04-.06c-.23-.38-.49-.78-.92-.96-.13-.05-.28-.08-.44-.08-.37 0-.71.13-.88.2l-.06.03c-.17.07-.34.15-.51.24-.17.08-.33.17-.49.27-.16.09-.32.19-.47.29-.14.09-.27.19-.4.28-.17.13-.34.26-.5.4-.14.12-.28.24-.41.37-.14.12-.26.26-.39.39-.12.12-.24.24-.35.37-.23.25-.45.51-.66.78-.15.2-.31.4-.46.61-.02.02-.03.04-.04.06-.16.22-.31.44-.46.66-.38.55-.73 1.11-1.07 1.68-.37.62-.73 1.24-1.08 1.86-.47.82-.92 1.64-1.36 2.47l-.53 1.04c-.24.46-.47.91-.69 1.37-.23.45-.45.91-.66 1.37-.22.46-.43.92-.64 1.39-.21.46-.42.92-.62 1.39-.82 1.86-1.58 3.75-2.3 5.66-1.08 2.85-2.06 5.75-2.97 8.66-.24.78-.47 1.55-.71 2.33-.06.18-.11.37-.17.56-.15.51-.3 1.04-.45 1.56-.19.63-.37 1.26-.54 1.89-.271.94-.53 1.9-.79 2.86-.78 2.88-1.53 5.81-2.29 8.81l-.18.72c-.11.42-.22.84-.32 1.25l-.14.55-5.3 20.99-.39-.68c-.68-1.21-1.37-2.43-2.07-3.64-.61-1.08-1.229-2.15-1.84-3.22-1-1.76-2.03-3.53-3.06-5.28-.73-1.26-1.47-2.52-2.22-3.78-.2-.35-.4-.69-.6-1.03-1-1.67-1.99-3.34-2.99-4.99l-1.49-2.48-.2-.33-.62-1.02c-1.56-2.57-3.14-5.14-4.74-7.7-.63-1.02-1.27-2.04-1.91-3.05-.15-.25-.309-.5-.46-.74-.96-1.53-1.93-3.05-2.9-4.57-1.15-1.79-2.3-3.58-3.45-5.36-.18-.29-.37-.57-.561-.86-.67-1.03-1.34-2.07-2.02-3.09-.67-1.02-1.35-2.05-2.03-3.07-.06-.09-.12-.18-.18-.28-.19-.28-.38-.56-.58-.83-.1-.13-.2-.27-.31-.4-.56-.74-1.27-1.49-2.12-1.98-.13-.08-.26-.15-.4-.22-.11-.05-.23-.1-.34-.15-.11-.04-.22-.07-.33-.1-.14-.05-.28-.08-.43-.1-.14-.03-.3-.04-.45-.05h-.01l-.17-.01c-.37 0-.73.06-1.08.16-.23.07-.45.15-.67.25-1.01.46-1.91 1.26-2.72 2.12-.09.09-.18.18-.26.28-.1.09-.19.19-.27.29-.39.44-.77.88-1.14 1.32-.25.29-.49.57-.74.86-.439.52-.88 1.05-1.289 1.59-.62.76-1.22 1.52-1.8 2.3-.46.61-.91 1.23-1.36 1.85-.57.79-1.13 1.6-1.67 2.41-.55.81-1.08 1.63-1.6 2.46v-212.48z" fill="#288fc9"/><path d="m488.875 285.55c-.421 0-.838-.031-1.239-.093-3.917-.594-6.628-3.911-7.857-6.817-1.433-3.386-1.614-7.124-1.679-10.663l-.02-1.069c-.047-3.216-.097-6.535-.978-9.712-.812-2.91-2.475-4.779-4.451-4.997-.128-.014-.26-.021-.392-.021-2.076 0-4.084 1.87-5.369 5.002-.485 1.188-.908 2.415-1.266 3.472-.493 1.443-.943 2.736-1.488 4-1.278 2.948-2.837 4.998-4.768 6.269-1.303.867-2.856 1.347-4.368 1.347-1.17 0-2.264-.29-3.164-.84-1.041-.633-1.933-1.617-2.801-3.093-2.038-3.406-2.904-7.47-2.433-11.431l-.074-.614.275-.541c4.655-8.969 8.417-15.738 12.197-21.949 2.77-4.539 5.872-9.281 9.788-13.229 1.451-1.462 3.423-3.195 5.806-3.611.38-.066.765-.099 1.146-.099 3.293 0 6.523 2.282 9.876 6.977 3.899 5.429 7.308 11.306 10.604 16.989l.71 1.227c3.861 6.69 7.855 13.608 11.662 20.577l.7 1.282-.802.841c-2.229 4.577-4.868 8.922-7.85 12.921-1.53 2.055-3.256 4.172-5.5 5.736-1.952 1.377-4.182 2.139-6.265 2.139z" fill="#fff"/><path d="m442 219.102c-.202-.175-.404-.35-.598-.507l-52.216-43.143c-7.575-6.272-16.158-13.378-24.912-19.493-3.36-2.349-6.988-4.724-11.135-5.703-.992-.234-2.02-.353-3.057-.353-5.111 0-9.934 2.768-14.597 5.445l-.209.12c-.975.558-1.931 1.105-2.869 1.618-7.92 4.263-15.74 8.693-23.254 13.172-15.014 8.937-29.877 18.669-44.179 28.927-8.056 5.78-16.135 11.88-24.013 18.131-.345.265-.745.591-1.202.982l-1.112.953-1.245-.774c-2.172-.509-3.47-2.098-4.166-3.338-1.247-2.225-1.537-5.093-.76-7.488 1.174-3.568 4.129-6.686 9.036-9.541 1.067-.624 2.188-1.221 3.272-1.797 2.861-1.529 5.747-3.071 8.155-5.209 2.362-2.108 4.19-4.732 5.958-7.268l.069-.1c1.727-2.462 3.358-4.788 5.481-6.784 4.65-4.381 10.676-6.364 17.055-8.462 6.532-2.148 13.287-4.37 17.92-9.431 1.592-1.725 2.888-3.775 4.142-5.757l.184-.292c2.07-3.303 4.022-6.417 7.156-8.465 3.279-2.137 7.09-2.627 11.124-3.146 2.401-.305 5.092-.646 7.55-1.434 2.732-.876 5.301-2.345 7.566-3.641 2.072-1.178 3.97-2.257 6.055-3.099 2.892-1.164 5.996-1.754 9.228-1.754 6.181 0 12.292 2.243 16.767 6.152 1.454 1.277 2.723 2.669 4.065 4.143l.098.107c2.051 2.27 4.165 4.61 6.83 6.227 3.451 2.101 7.633 2.86 11.677 3.594 5.185.937 10.495 1.895 14.074 5.657 2.677 2.814 3.836 6.553 5.063 10.512 1.431 4.627 2.775 8.973 6.524 11.598 2.09 1.463 4.663 2.128 7.152 2.771 3.202.83 6.503 1.686 8.585 4.216 1.346 1.642 1.988 3.767 2.609 5.821.765 2.523 1.545 5.096 3.59 6.677 1.188.922 2.651 1.374 4.066 1.811 1.22.376 2.602.803 3.758 1.583 2.713 1.835 3.946 5.763 2.937 9.342-.997 3.555-3.681 6.061-5.756 7.536l-1.279.91z" fill="#fff"/><path d="m242.657 231.322c-2.985 0-6.485-1.739-7.093-4.962-.71-3.655 2.514-6.756 5.402-9.047 7.742-6.151 15.819-12.251 24.007-18.128 14.234-10.214 29.1-19.946 44.184-28.924 7.693-4.585 15.512-9.018 23.235-13.172 1.003-.541 2.036-1.131 3.079-1.732 4.689-2.688 9.506-5.447 14.618-5.447 1.045 0 2.069.115 3.044.342 4.166.986 7.789 3.361 11.143 5.709 8.659 6.055 16.92 12.884 24.908 19.487l52.2 43.14c.775.635 1.661 1.361 2.154 2.348.681 1.416.475 3.273-.521 4.873-1.558 2.487-4.623 3.97-8.201 3.97-.759 0-1.507-.068-2.225-.203-3.781-.703-7.111-2.857-10.474-5.193-17.754-12.335-34.518-26.519-50.73-40.236l-1.128-.954c-6.222-5.262-12.656-10.702-19.047-15.936-.658-.543-1.471-1.213-2.428-1.361-.162-.026-.311-.037-.457-.037-1.202 0-2.342.743-3.175 1.285l-92.654 60.133c-2.539 1.652-5.702 3.71-9.153 4.014-.226.021-.456.031-.688.031z" fill="#ed6d66"/><path d="m425.78 303.76c0-1.77-.01-3.54-.03-5.31-.01-.73-.01-1.46-.02-2.2 0-.41-.01-.82-.01-1.23-.02-1.5-.039-3-.06-4.5-.01-.6-.02-1.2-.03-1.8-.07-4.91-.17-9.82-.31-14.72.01-.05 0-.11 0-.16-.25-9.97-.62-19.93-1.1-29.87-.26-5.69-.56-11.37-.9-17.04l.42-1.31.02-.08-.94-.67-.06-.05-.1-.07-.06-.04-.03-.02-.45-.31c-.83-.58-1.66-1.16-2.49-1.75s-1.65-1.18-2.48-1.77c-.82-.59-1.64-1.19-2.46-1.79s-1.64-1.2-2.46-1.81c-1.09-.81-2.18-1.63-3.26-2.45-2.16-1.64-4.3-3.29-6.43-4.97-.56-.44-1.12-.88-1.67-1.32-.56-.44-1.11-.88-1.67-1.32-1.28-1.01-2.57-2.05-3.85-3.09-1.28-1.03-2.55-2.07-3.82-3.11-.15-.12-.3-.25-.45-.37-.04-.04-.09-.07-.13-.1-.56-.46-1.1-.92-1.65-1.37-.83-.68-1.65-1.36-2.47-2.05-3.13-2.58-6.24-5.19-9.33-7.8-2.05-1.72-4.09-3.45-6.12-5.17-.05-.04-.1-.08-.15-.12-1.06-.9-2.16-1.83-3.29-2.79-.01 0-.02-.01-.02-.02-.77-.65-1.56-1.31-2.36-1.99-2.41-2.03-4.94-4.16-7.51-6.31-1.39-1.16-2.79-2.33-4.2-3.49-.88-.72-1.76-1.44-2.63-2.16-.37-.31-.729-.6-1.11-.83-.1-.07-.21-.13-.31-.18-.08-.05-.17-.09-.25-.12-.08-.04-.15-.07-.23-.09-.06-.03-.13-.05-.19-.06-.09-.03-.19-.06-.29-.07-.02 0-.04-.01-.06-.01-.14-.03-.29-.04-.45-.04-.14 0-.28.01-.41.03-.04.01-.09.01-.13.02-.1.01-.19.03-.28.06-.11.03-.22.06-.33.1-.16.05-.32.11-.48.19-.13.06-.26.12-.39.19-.04.02-.07.03-.1.05-.23.13-.46.26-.68.4-.13.08-.25.16-.38.24l-83.99 54.52-.06.04-.11.07-.04.03-.18.11-.93.58.01.02v.01l.5 1.45-.69 14.3v.01l-.6 12.37v.01l-.82 17v.01l-2.7 55.62c-.09 1.88-.18 3.77-.27 5.67-.15 3.21-.3 6.43-.44 9.66-.06 1.3-.11 2.6-.16 3.91-.07 1.77-.14 3.52-.2 5.29-.059 1.8-.12 3.6-.17 5.4-.04 1.21-.07 2.43-.09 3.65-.02.76-.04 1.53-.05 2.29-.04 1.78-.07 3.57-.09 5.35-.06 6.17-.03 12.33.16 18.47.03.8.06 1.63.23 2.46l.06.29c.17.63.42 1.23.82 1.75.1.12.2.24.32.35l.16.15c.12.1.24.2.36.3.25.19.52.36.81.49.15.08.29.15.44.21.289.13.6.24.91.35s.63.21.95.3c1.58.47 3.18.89 4.78 1.29.01.01.02.01.03.01 1.6.4 3.21.76 4.82 1.09.81.17 1.63.34 2.44.49.69.13 1.38.26 2.08.38.29.05.58.1.87.15.23.04.45.08.68.12.42.08.85.15 1.27.21.81.13 1.63.26 2.45.38.83.13 1.66.25 2.49.36.24.03.48.06.72.09.06.01.11.01.17.02.67.08 1.33.17 1.99.25.66.09 1.32.17 1.98.24.81.09 1.63.18 2.44.27l1.77.18c1.03.1 2.05.2 3.07.3 1.61.15 3.21.28 4.79.41.13.01.27.02.4.03 1.81.15 3.62.29 5.439.42.69.05 1.39.1 2.08.15 1.97.14 3.95.27 5.93.39 2.32.15 4.64.28 6.97.39 1.49.08 2.98.15 4.47.21.52.03 1.03.05 1.55.07.92.04 1.83.08 2.75.11.29.01.59.02.88.04.89.03 1.78.06 2.68.09l.93.03c.57.02 1.15.04 1.73.06.25.01.49.01.74.02 1.59.04 3.18.08 4.77.12.24 0 .49.01.73.01.35.01.71.02 1.06.02 1.9.04 3.79.06 5.68.08 2.33.03 4.66.04 6.99.04 1.31 0 2.62 0 3.93-.01s2.62-.02 3.93-.04c2.62-.03 5.25-.07 7.87-.13.1-.01.19-.01.29-.01.98-.02 1.95-.05 2.92-.07.29-.01.57-.02.86-.02 1.19-.04 2.37-.08 3.55-.12.42-.02.83-.03 1.25-.05.99-.03 1.97-.07 2.95-.11 1.31-.05 2.63-.11 3.94-.17 1.46-.06 2.92-.13 4.38-.21 2.32-.12 4.64-.26 6.96-.4 2.87-.18 5.74-.38 8.6-.59.19-.01.37-.03.56-.05 1.72-.12 3.44-.26 5.16-.41 1.9-.16 3.8-.33 5.7-.51.18-.02.37-.03.56-.05.62-.07 1.26-.15 1.88-.29.12-.03.24-.06.37-.09.12-.03.25-.07.38-.11.08-.02.16-.05.24-.08.12-.04.24-.09.36-.14.13-.05.26-.11.38-.17.13-.06.25-.13.37-.2s.24-.15.35-.23c.23-.16.44-.35.63-.55.09-.1.18-.21.27-.32 0 0 0-.01.01-.01.35-.46.58-.99.74-1.54.1-.37.18-.75.23-1.12.03-.21.05-.42.07-.63.02-.2.04-.41.05-.61.01-.14.02-.29.03-.43.08-1.47.16-2.94.23-4.41v-.01c.62-11.78 1.08-23.6 1.39-35.43.1-3.7.18-7.39.25-11.08.06-2.52.1-5.04.13-7.57v-.05c.01-1.03.03-2.06.03-3.1.02-1.3.04-2.6.04-3.9.01-1.31.02-2.62.03-3.95.031-5.05.031-10.21.001-15.42zm-135.58-63.87.03-.51c.03-.51.06-1.02.09-1.53.01-.12.01-.23.02-.34.07-1.22.14-2.45.19-3.68.03-.65.05-1.31.07-1.96.01-.23.02-.46.04-.68.01-.22.03-.43.06-.63 0-.01 0-.01 0-.02.04-.31.09-.63.18-.94.03-.12.06-.24.1-.35.03-.11.07-.22.11-.33.07-.2.15-.39.24-.58v-.01c.04-.06.06-.12.09-.17.09-.17.19-.33.3-.48.05-.09.12-.18.2-.27.06-.09.13-.18.21-.26.09-.11.19-.21.3-.3.05-.05.11-.1.17-.15.12-.1.25-.2.38-.29.15-.1.31-.2.47-.29.18-.11.38-.2.58-.29.13-.06.27-.12.42-.17.32-.11.65-.21 1-.28.99-.22 1.97-.25 2.76-.25.55 0 1.11.02 1.66.04l12.18.46 15.2.58c.17.01.33.02.5.03s.34.02.51.04.33.04.5.06c.11.02.22.03.32.06.16.03.31.07.46.11.16.04.3.09.44.15.1.04.19.08.28.12.12.06.23.13.34.2.05.04.1.07.15.11.05.03.1.07.15.12.06.05.12.11.18.18.06.06.12.13.17.2l.01.01c.09.13.17.26.24.4.06.11.11.23.15.35.05.14.09.28.12.43.03.11.05.23.06.34.04.23.06.47.06.69.01.3.01.62 0 .96l-.47 22.36-.2 9.81c-.05 2.41-.1 4.84-.27 7.25-.02.33-.04.64-.07.96-.01.1-.01.19-.03.29-.01.19-.03.37-.05.56-.07.84-.16 1.67-.28 2.5-.03.22-.07.44-.11.66-.04.23-.09.45-.15.67-.04.15-.08.29-.13.44-.04.12-.08.23-.13.35-.07.16-.15.31-.24.46-.06.11-.14.22-.22.32-.02.03-.05.07-.08.1-.08.1-.16.19-.26.27-.11.09-.22.18-.34.25-.11.08-.23.15-.36.2-.1.06-.21.1-.32.13-.1.04-.2.07-.3.09-.07.02-.14.04-.21.05-.02.01-.05.02-.07.02-.11.02-.22.04-.33.05-.01 0-.02 0-.02 0-.12.02-.24.03-.36.03-.18.02-.34.02-.49.02-.42 0-.85-.03-1.23-.06-.12 0-.24-.01-.36-.02-.21-.02-.42-.03-.63-.05-.42-.03-.85-.06-1.29-.08-.27-.01-.54-.02-.82-.03-.289-.01-.58-.02-.87-.03s-.58-.01-.87-.01c-.3-.01-.6-.01-.91-.01-.92 0-1.83.01-2.73.04-.45.01-.9.02-1.34.04s-.87.03-1.29.05c-.56.02-1.1.05-1.63.07l-2.09.09-1.92.08c-.97.04-1.95.07-2.93.09-.3 0-.59.01-.89.01-.4.01-.79.01-1.17.01-1.03 0-2-.02-2.94-.06-.53-.02-1.04-.05-1.54-.08-.28-.02-.56-.04-.83-.06-.82-.07-1.61-.15-2.38-.26-.34-.05-.68-.1-1.01-.15-.44-.07-.87-.15-1.3-.23-.3-.06-.6-.12-.89-.19-.18-.04-.37-.08-.55-.13-.47-.11-.93-.23-1.39-.36-.32-.09-.77-.22-1.05-.51-.06-.06-.1-.12-.15-.19l-.01-.01c-.13-.22-.21-.5-.27-.9-.01-.09-.02-.18-.03-.25-.19-1.63-.16-3.31-.13-4.79l.01-.31c.021-.95.05-1.92.08-2.9.01-.49.02-.98.04-1.47.01-.49.02-.99.04-1.49.03-1 .06-2 .1-3.01.03-1.02.07-2.04.11-3.07.05-1.37.1-2.76.16-4.15l.08-1.99c.09-2.52.2-5.03.33-7.54.01-.04.01-.09.01-.13.05-1.02.11-2.03.18-3.05.03-.54.07-1.09.1-1.63zm.4 114.65c-.32-.09-.77-.22-1.05-.51-.06-.06-.11-.13-.15-.2l-.01-.02c-.13-.21-.21-.46-.26-.83-.02-.11-.03-.21-.04-.3-.19-1.63-.16-3.31-.13-4.79l.01-.31c.021-.95.05-1.92.08-2.9.01-.49.02-.98.04-1.47.01-.49.02-.99.04-1.49.03-1 .06-2 .1-3.01.03-1.02.07-2.04.11-3.07.05-1.37.1-2.76.16-4.15l.08-1.99c.09-2.52.2-5.03.33-7.54.01-.04.01-.09.01-.13.05-1.02.11-2.03.18-3.05.03-.54.07-1.09.1-1.63l.03-.51c.01-.18.02-.36.03-.54.04-.7.09-1.38.12-2.05.06-.99.11-1.98.15-2.97 0-.02.01-.04 0-.07.03-.63.05-1.26.07-1.88.01-.32.03-.63.06-.92.01-.13.02-.26.04-.38 0-.01 0-.01 0-.02.04-.31.09-.63.18-.94.03-.12.06-.25.1-.37s.08-.23.12-.34c.08-.23.17-.44.27-.65.07-.14.14-.27.23-.39.07-.13.16-.25.25-.37.08-.12.18-.23.28-.34.11-.11.22-.23.34-.34s.25-.21.39-.31c.03-.03.05-.04.07-.05.12-.09.24-.17.37-.24.18-.11.36-.2.55-.29.09-.04.19-.09.29-.13s.2-.08.31-.12l.01-.01c.16-.06.32-.11.48-.15.34-.1.68-.17 1.01-.22.14-.02.27-.04.41-.06.1-.02.2-.03.3-.03.12-.02.24-.03.37-.04.11 0 .22-.01.32-.01.15-.01.3-.01.44-.01.14-.01.28-.01.41-.01.55 0 1.11.02 1.66.04l12.19.46 15.2.58c.2.01.4.01.59.03.15.01.3.02.45.04.15.01.3.03.45.06.1.01.19.02.28.04.19.04.38.08.56.14.09.03.18.06.28.09.14.05.28.11.41.18.16.08.31.17.44.27.08.07.16.13.23.2.06.05.11.1.15.15.06.05.11.12.17.19v.01c.13.16.22.33.3.51.03.08.06.16.09.24s.05.16.07.24c.021.08.04.16.061.25.02.09.039.18.05.27.04.23.06.46.06.69.01.3.01.62 0 .96l-.47 22.36-.2 9.81c-.05 2.41-.1 4.84-.27 7.25-.02.33-.04.64-.07.96-.01.1-.01.19-.03.29-.01.19-.03.37-.05.56-.07.84-.16 1.67-.28 2.5-.03.22-.07.44-.11.66-.04.23-.09.45-.15.67-.04.15-.08.29-.13.44-.04.12-.08.23-.13.35-.07.16-.15.31-.24.46-.06.11-.14.22-.22.32-.02.03-.05.07-.08.1-.08.1-.16.19-.26.27-.11.09-.22.18-.34.25-.11.08-.23.15-.36.2-.1.06-.21.1-.32.13-.1.04-.2.07-.3.09-.07.02-.14.04-.21.05-.02.01-.05.02-.07.02-.11.02-.22.04-.33.05-.01 0-.02 0-.02 0-.12.02-.24.03-.36.03-.18.02-.34.02-.49.02-.42 0-.85-.03-1.23-.06-.12 0-.24-.01-.36-.02-.21-.02-.42-.03-.63-.05-.42-.03-.85-.06-1.29-.08-.27-.01-.54-.02-.82-.03-.289-.01-.58-.02-.87-.03s-.58-.01-.87-.01c-.3-.01-.6-.01-.91-.01-.3 0-.61 0-.91.01-.31 0-.61 0-.91.01-.31 0-.61.01-.91.02-.45.01-.89.02-1.33.04s-.87.03-1.29.05c-.56.02-1.11.05-1.64.07l-2.09.09-1.92.08c-.5.02-.97.04-1.42.05-.22.01-.44.01-.66.02-.29.01-.57.01-.86.02-.3 0-.6.01-.89.01-.4.01-.78.01-1.16.01-.56 0-1.1-.01-1.62-.02-.27 0-.53-.01-.78-.02-.26-.01-.51-.01-.76-.03-.51-.02-1-.05-1.48-.08s-.95-.07-1.41-.12c-.31-.03-.61-.06-.9-.1-.53-.06-1.05-.13-1.56-.21-.32-.05-.64-.1-.95-.16-.27-.05-.539-.1-.81-.16-.4-.08-.79-.17-1.17-.26-.471-.11-.931-.23-1.391-.36zm102.27-127.83c.13 0 .27.01.43.02.24.01.48.03.72.06.19.02.37.04.56.08.12.02.24.05.36.08.03 0 .05.01.07.02.07.01.13.03.19.05.09.03.18.06.27.09.19.06.36.14.53.24.08.05.16.1.24.15.13.09.26.19.37.31.05.04.09.08.13.13.05.05.09.1.13.16.18.23.31.49.4.76.02.05.03.1.05.15.03.11.06.22.08.33.03.1.04.21.06.31.02.2.04.4.04.6.02.33.01.66 0 1v.31l-.25 12-.21 10.06-.21 9.81c-.02.97-.04 1.95-.07 2.92-.02.95-.06 1.91-.11 2.87-.1 1.94-.25 3.86-.52 5.77-.03.22-.07.44-.11.66-.04.23-.09.45-.15.67-.06.26-.15.51-.25.75-.03.08-.06.15-.1.22-.04.09-.09.17-.14.25-.02.03-.04.06-.05.08 0 .02-.01.03-.02.04-.06.1-.12.18-.2.27-.09.12-.19.23-.31.33-.01.01-.01.01-.02.02-.1.09-.2.17-.311.23-.11.08-.22.15-.35.2-.1.05-.2.1-.32.13-.27.1-.55.16-.82.2-.23.03-.45.05-.66.05-.11.01-.21.01-.31.01-.42 0-.85-.03-1.229-.06-.12 0-.24-.01-.36-.02-.21-.02-.42-.03-.63-.05-.42-.03-.85-.06-1.29-.08-.27-.01-.55-.02-.83-.03-.28-.02-.57-.02-.86-.03s-.58-.01-.87-.01c-.3-.01-.6-.01-.91-.01-2.44 0-4.88.1-6.99.2l-2.09.09-1.92.08c-1.14.05-2.13.07-3.03.09-.28.01-.56.01-.85.01-.38.01-.75.01-1.11.01-1.38 0-2.68-.03-3.9-.11-.2-.01-.39-.02-.58-.03-.53-.03-1.04-.08-1.54-.13-.92-.08-1.8-.19-2.65-.34-.45-.07-.89-.15-1.33-.23-.3-.06-.6-.12-.89-.19-.18-.04-.37-.08-.55-.13-.47-.11-.93-.23-1.39-.36-.32-.09-.77-.22-1.05-.51-.06-.07-.1-.11-.15-.19l-.02-.04c-.12-.21-.21-.48-.26-.87-.01-.09-.02-.18-.03-.26-.19-1.69-.15-3.43-.12-4.97v-.11c.01-.29.02-.58.02-.87.02-.8.04-1.62.06-2.45.05-1.59.11-3.25.16-5.02.17-5.57.39-10.94.65-16.09.021-.33.03-.66.05-.99.01-.12.01-.22.02-.34.02-.38.04-.76.06-1.15.04-.8.08-1.61.14-2.41.02-.37.04-.74.07-1.11l.03-.51c.03-.51.06-1.02.09-1.53.12-2.03.23-4.03.28-5.99.01-.42.04-.82.09-1.19.02-.18.04-.37.08-.55.03-.18.07-.35.11-.52.07-.32.17-.64.3-.94 0 0 0 0 0-.01.05-.14.12-.28.19-.41.06-.11.12-.22.18-.32.06-.11.13-.21.2-.31s.15-.19.22-.28c.08-.09.16-.18.24-.26.01-.03.01-.03.02-.02.01-.03.02-.04.04-.05.01-.02.03-.04.04-.04.1-.11.21-.21.33-.3.07-.06.15-.12.23-.18.18-.14.38-.27.6-.38.08-.04.16-.09.25-.13.08-.04.17-.09.27-.13.15-.07.3-.13.46-.19.32-.12.66-.21 1.01-.28.17-.03.33-.06.5-.09.16-.03.32-.06.49-.07.65-.07 1.26-.09 1.8-.09.28 0 .56 0 .84.01.29.01.57.03.85.04l12.11.46zm-36.66 128.33c-.32-.1-.76-.22-1.05-.52-.06-.06-.1-.12-.15-.19l-.01-.01c-.13-.22-.21-.5-.27-.9-.01-.09-.02-.18-.03-.26-.19-1.69-.15-3.43-.12-4.97v-.12c.01-.29.02-.58.02-.87.02-.8.04-1.61.06-2.44.05-1.58.11-3.24.16-5.01.17-5.57.39-10.95.65-16.1.021-.33.03-.66.05-.99.01-.12.01-.22.02-.34.03-.62.06-1.24.1-1.86.01-.34.03-.69.06-1.03.03-.56.06-1.12.1-1.68l.04-.61c.03-.51.06-1.02.09-1.53.12-2.03.23-4.03.28-5.99.01-.42.04-.82.09-1.19.02-.18.04-.37.08-.55.03-.18.07-.35.11-.52.07-.32.17-.64.3-.94 0 0 0 0 0-.01.05-.14.12-.28.19-.41.05-.1.1-.2.16-.29.06-.1.12-.19.18-.28.09-.14.2-.28.32-.41.06-.07.12-.13.18-.19.01-.03.02-.04.03-.03.01-.04.04-.06.07-.08.1-.11.21-.21.33-.3.07-.06.15-.12.23-.18.33-.25.7-.46 1.12-.64.15-.07.3-.13.46-.19.16-.05.32-.11.49-.15.49-.14.98-.23 1.45-.28.09-.02.18-.03.27-.03l.33-.03c.44-.03.85-.04 1.22-.04.55 0 1.11.02 1.66.04l4.12.16 8.06.31 5.02.19 10.2.39c.07 0 .14 0 .21.01.04-.01.08 0 .12 0 .24.01.51.03.81.07.18.01.37.04.56.08.13.02.27.05.39.09.09.01.18.04.26.07.07.02.14.04.21.07.09.03.18.07.27.11.18.08.35.17.51.28.16.1.311.23.45.38.07.07.14.15.2.23.18.23.31.49.4.76.02.05.03.1.05.15.03.11.06.22.08.33.03.1.04.21.06.31.02.2.04.4.04.6.02.33.01.66 0 1v.31l-.25 12-.21 10.06-.21 9.81c-.02.97-.04 1.95-.07 2.92-.02.95-.06 1.91-.11 2.87-.1 1.94-.25 3.86-.52 5.77-.03.22-.07.44-.11.66-.04.23-.09.45-.15.67-.06.26-.15.51-.25.75-.03.08-.06.15-.1.22-.04.09-.09.17-.14.25-.02.03-.04.06-.05.08 0 .02-.01.03-.02.04-.06.1-.12.18-.2.27-.09.12-.19.23-.31.33-.01.01-.01.01-.02.02-.1.09-.2.17-.311.23-.11.08-.229.15-.35.2-.1.05-.2.1-.32.13-.16.06-.32.1-.48.13-.14.04-.28.06-.42.07-.11.02-.2.03-.3.03-.1.02-.19.02-.28.02-.11.01-.21.01-.31.01-.42 0-.85-.03-1.229-.06-.12 0-.24-.01-.36-.02-.62-.05-1.26-.09-1.91-.13-.27-.01-.55-.02-.83-.03s-.57-.02-.86-.03c-.289-.01-.58-.01-.88-.01-.3-.01-.6-.01-.91-.01-2.43 0-4.88.1-6.99.2l-2.09.09-1.92.08c-1.14.05-2.13.07-3.03.09-.28.01-.56.01-.85.01-.38.01-.75.01-1.11.01-1.38 0-2.68-.03-3.9-.11-.2-.01-.39-.02-.58-.03-.53-.03-1.04-.08-1.54-.13-.79-.07-1.55-.17-2.3-.28-.49-.07-.97-.15-1.45-.25-.48-.09-.95-.18-1.41-.3-.47-.09-.92-.21-1.37-.34h-.01c-.09-.02-.18-.04-.27-.07z" fill="#ffd671"/><path d="m398.06 510.55c.38.48.73.96 1.05 1.45h-189.43c-.17-.33-.32-.64-.461-.93-.07-.15-.14-.29-.2-.44-.1-.21-.19-.43-.28-.65-.05-.14-.11-.27-.16-.41-.55-1.41-1.01-2.85-1.53-4.45 0-.01 0-.01 0-.02-.24-.76-.49-1.52-.75-2.27-.01-.02-.01-.04-.02-.06-.05-.15-.1-.31-.16-.46-.32-.94-.66-1.87-1.04-2.76-.28-.68-.59-1.34-.93-1.98-.11-.22-.23-.44-.36-.65-.23-.42-.48-.83-.75-1.23-.14-.21-.28-.41-.43-.61-.15-.19-.3-.39-.45-.58-.47-.59-.98-1.14-1.52-1.65-.27-.26-.56-.51-.85-.75-.28-.24-.57-.46-.86-.68-.3-.22-.6-.44-.91-.64-.62-.42-1.26-.8-1.92-1.16-.33-.17-.66-.34-1-.51-1.01-.49-2.05-.93-3.1-1.33-.35-.13-.7-.26-1.05-.38-1.41-.49-2.83-.9-4.2-1.28-.53-.14-1.05-.29-1.58-.42-1.06-.29-2.12-.55-3.18-.79-.91-.22-1.82-.42-2.74-.62-.15-.04-.3-.07-.46-.1-.53-.11-1.06-.22-1.6-.33s-1.07-.21-1.61-.31c-1.07-.21-2.14-.4-3.22-.59-1.62-.28-3.24-.54-4.87-.77-.54-.08-1.08-.15-1.62-.23-1.03-.14-2.05-.27-3.08-.4-1.69-.21-3.38-.4-5.07-.58-1.97-.21-3.939-.39-5.9-.56-1.3-.12-2.59-.23-3.88-.32-4.34-.35-8.68-.64-12.97-.92l-.24-.02c-.72-.05-1.44-.1-2.16-.15-.83-.05-1.66-.11-2.49-.17-3.08-.21-6.19-.43-9.3-.69-1.29-.1-2.57-.21-3.86-.33-.3-.03-.61-.05-.91-.08-1.52-.14-3.05-.3-4.57-.46-1.13-.12-2.26-.24-3.39-.38-.13-.01-.26-.03-.38-.04-1.14-.14-2.27-.29-3.4-.44-.78-.1-1.56-.21-2.34-.33-1.55-.23-3.1-.47-4.65-.74-.74-.13-1.47-.26-2.21-.4-.37-.07-.74-.14-1.11-.23-.37-.07-.74-.15-1.11-.24-.3-.06-.6-.13-.9-.2-.16-.04-.32-.07-.48-.12-.36-.09-.73-.18-1.09-.28-.23-.06-.46-.13-.69-.19-.41-.11-.81-.24-1.22-.37-.76-.24-1.51-.51-2.25-.8-.31-.12-.61-.24-.92-.37-.3-.13-.6-.26-.89-.4-.38-.17-.76-.36-1.13-.56-.27-.14-.55-.28-.811-.44-.38-.21-.75-.43-1.12-.67-.32-.2-.63-.4-.93-.62-.19-.14-.39-.29-.59-.45-.49-.38-.95-.77-1.37-1.18-.17-.17-.34-.34-.5-.51-.2-.21-.39-.43-.57-.65-.14-.17-.27-.33-.39-.5-.18-.25-.35-.5-.51-.75-.46-.72-.82-1.51-1.04-2.35-.04-.16-.08-.31-.11-.47-.01-.06-.03-.11-.04-.17-.01-.07-.02-.14-.03-.21s-.03-.14-.03-.21c-.02-.09-.02-.18-.03-.27-.02-.09-.02-.18-.03-.27-.01-.27-.01-.55.01-.82s.05-.55.09-.82c.03-.13.05-.27.08-.4.08-.39.19-.77.35-1.16.11-.31.25-.63.42-.94l.24-.45c.09-.15.18-.3.27-.44.08-.11.16-.23.23-.34.16-.23.33-.46.5-.68s.35-.43.54-.64.39-.41.58-.62c.2-.2.41-.4.61-.59.21-.19.42-.37.64-.56.1-.09.21-.18.32-.27s.22-.17.33-.26c.76-.61 1.55-1.15 2.31-1.63.65-.41 1.31-.81 1.98-1.2.57-.32 1.13-.64 1.71-.95.82-.44 1.64-.85 2.47-1.26 7.65-3.69 15.9-5.83 24.2-7.23 2.21-.39 4.42-.71 6.63-1 .25-.03.49-.06.73-.09 1.58-.21 3.15-.4 4.72-.57 1.36-.15 2.73-.29 4.11-.42.65-.07 1.29-.13 1.95-.19h.01l2.31-.21c2.32-.21 4.69-.39 7.11-.56 2.15-.15 4.33-.29 6.56-.41 1.88-.1 3.78-.2 5.73-.29.64-.02 1.3-.05 1.95-.08.87-.03 1.75-.07 2.64-.1.59-.02 1.18-.04 1.78-.06 2.02-.07 4.08-.12 6.19-.17 1-.02 2-.04 3.02-.06.23 0 .47-.01.7-.01.71-.01 1.43-.03 2.15-.04.32 0 .65-.01.98-.01 1.12-.02 2.26-.03 3.41-.04.64 0 1.27-.01 1.91-.02.86 0 1.73-.01 2.6-.01 1.54 0 3.07 0 4.6-.01 3.56 0 7.14-.01 10.74-.06 1.11-.01 2.22-.03 3.33-.06.96-.01 1.91-.04 2.87-.07.73-.02 1.46-.05 2.19-.08.58-.02 1.16-.04 1.74-.07.711-.03 1.41-.07 2.12-.12.33-.01.67-.03 1.01-.05.73-.04 1.45-.09 2.17-.15.84-.05 1.69-.12 2.53-.2 1.13-.1 2.25-.2 3.37-.33.56-.06 1.12-.13 1.67-.19 1.12-.13 2.23-.28 3.35-.45 1.66-.24 3.33-.52 4.98-.84.55-.11 1.1-.22 1.65-.33.82-.17 1.64-.35 2.461-.54.82-.19 1.63-.39 2.45-.6.01-.01.01 0 .01 0 .81-.21 1.62-.44 2.43-.68.81-.23 1.62-.47 2.42-.73.33-.11.66-.22.98-.34.32-.11.63-.23.94-.35.41-.16.8-.33 1.19-.5.96-.43 1.85-.9 2.65-1.41.12-.07.24-.15.35-.22.16-.1.31-.21.46-.31.19-.13.37-.27.55-.4.3-.23.58-.46.85-.7.21-.19.42-.38.61-.58.15-.14.29-.29.41-.44.11-.11.2-.22.3-.34.3-.36.57-.73.8-1.1.12-.19.23-.39.33-.59.1-.18.18-.37.26-.56.02-.03.03-.06.04-.1.09-.22.17-.44.24-.66 0-.01.01-.02.01-.03.06-.21.12-.43.16-.65.04-.19.07-.38.09-.56.01-.09.02-.18.03-.27.01-.18.02-.36.02-.55 0-.16-.01-.33-.02-.49-.19-2.9-2.14-5.65-5.8-8.2-.26-.18-.52-.36-.78-.53-.52-.35-1.04-.68-1.58-.99-.54-.32-1.08-.62-1.63-.91-.54-.29-1.08-.56-1.63-.82-.01 0-.02-.01-.03-.01-.54-.26-1.09-.51-1.65-.74-.01-.01-.03-.02-.05-.02-.29-.12-.58-.24-.87-.35-.57-.23-1.15-.45-1.74-.66-4.07-1.46-8.34-2.46-12.63-3.31-.65-.13-1.31-.26-1.96-.38-1.24-.23-2.47-.46-3.7-.68-.03-.01-.07-.01-.1-.02l-.21-.04c-.92-.17-1.87-.34-2.83-.52-.1-.02-.2-.04-.31-.06-1.05-.2-2.1-.4-3.15-.61-.53-.11-1.06-.21-1.58-.33-.53-.11-1.05-.22-1.57-.34-.53-.12-1.05-.24-1.57-.37-.52-.12-1.03-.25-1.539-.38-.34-.09-.69-.19-1.04-.31-.02-.01-.04-.02-.06-.02-.24-.08-.48-.17-.72-.26-.12-.05-.24-.09-.36-.14-.23-.1-.46-.2-.69-.3-.23-.11-.46-.22-.68-.33-.17-.09-.33-.18-.49-.27-1.1-.62-2.07-1.39-2.74-2.29-.06-.09-.13-.17-.19-.25-.05-.09-.11-.18-.16-.26-.05-.09-.1-.18-.15-.26-.05-.1-.1-.19-.13-.29-.04-.07-.07-.14-.09-.21-.04-.1-.08-.2-.1-.3-.04-.1-.06-.19-.08-.29-.05-.2-.08-.41-.1-.62-.02-.24-.01-.49.01-.74l.18-1.84 6.65.1c.67.01 1.35.02 2.04.03 2.12.03 4.27.06 6.43.08.33.01.66.01.99.01.88.01 1.76.02 2.65.03h.81c.74.01 1.49.01 2.24.01.75.01 1.49.01 2.24.01.83 0 1.64 0 2.44-.01 1.23 0 2.43-.01 3.6-.03 1.22-.02 2.46-.04 3.74-.07l1.09-.02.01.01.02.03.58.87c.63.94 1.39 1.76 2.25 2.47.02.02.04.04.06.05.12.1.24.2.37.29.17.14.34.26.52.38.24.18.49.34.75.49.34.21.69.41 1.04.6.2.11.41.22.62.32.29.14.57.27.86.4.59.27 1.191.51 1.8.72.31.11.61.22.92.32 1.25.42 2.52.79 3.79 1.14l54.09 14.86c.69.19 1.39.38 2.09.57 1.43.4 2.88.81 4.34 1.24 7.61 2.23 15.43 5.04 21.99 9.81h.01c.94.68 1.85 1.4 2.73 2.16.59.51 1.16 1.04 1.72 1.59l.01.01c1.16 1.14 2.65 2.79 3.31 4.76.11.31.19.62.25.94.03.16.05.32.07.48v.01c.038.38.035.745.012 1.103-.002.025-.002.049-.004.074-.243 3.21-2.807 5.528-5.499 7.084-.14.08-.289.17-.439.25-.05.03-.1.06-.16.09-.29.15-.57.3-.86.44-.28.14-.56.27-.84.39-.25.11-.5.21-.73.31-.16.06-.31.12-.46.18-.12.05-.25.1-.37.14-.36.13-.69.25-.99.35-8.28 2.75-16.96 4.52-25.61 5.95-3.92.66-7.84 1.25-11.72 1.83l-.12.01c-6.49.97-13.06 1.95-19.58 3.24-.51.1-1.02.2-1.53.31-1.5.31-3 .63-4.49.98-1 .23-1.99.47-2.97.72-1.49.38-2.97.78-4.44 1.21-.98.28-1.95.58-2.92.89h-.01c-1.45.46-2.89.96-4.33 1.49-.48.17-.96.35-1.44.54-.95.36-1.89.75-2.83 1.14 0 .01-.01.01-.01.01-.94.4-1.87.81-2.79 1.24-.17.08-.38.18-.63.31-.18.08-.37.18-.58.3-.47.25-1 .56-1.5.95-.25.18-.49.37-.73.59-.02.02-.04.04-.07.07-.11.09-.21.2-.32.31-.06.07-.12.14-.18.2-.06.07-.12.14-.18.22-.06.07-.11.14-.17.21-.21.3-.4.62-.539.96-.03.08-.07.17-.1.26-.09.26-.15.53-.19.81-.01.1-.02.19-.02.29-.02.33.01.66.06.98.25 1.23 1.03 2.31 1.92 3.18.08.09.17.18.26.26.27.25.55.48.81.68 1.06.82 2.18 1.52 3.36 2.12.59.31 1.18.59 1.789.84 3.05 1.3 6.33 2.08 9.53 2.71 16.65 3.31 33.94 3.51 50.65 3.71 3.09.04 6.13.08 9.14.13 3.01.06 5.97.13 8.9.23 3.15.11 6.44.26 9.83.49 1.29.09 2.6.19 3.91.3 1.3.11 2.61.23 3.93.37.15.02.29.04.44.05 1.91.2 3.84.44 5.79.71.21.03.41.06.6.09 5.38.77 10.85 1.82 16.29 3.27.39.1.78.21 1.17.32 1.01.28 2.02.57 3.03.89 2.56.78 5.1 1.66 7.6 2.65 2.6 1.01 5.16 2.15 7.68 3.42.68.34 1.35.69 2.02 1.05 1.34.72 2.66 1.47 3.97 2.27.49.3.96.6 1.43.91.58.37 1.15.75 1.69 1.14.32.22.63.45.94.68.03.02.06.04.08.06.4.29.79.59 1.18.9.36.29.72.58 1.07.87.09.07.17.14.26.22.32.28.64.55.94.83.36.32.71.65 1.04.98.22.21.44.43.64.65.18.17.35.35.51.53.62.669 1.2 1.349 1.73 2.039z" fill="#f7be8b"/><g fill="#fff"><path d="m395.069 253.61c-4.874-.026-10.183-.093-16.705-.21l-2.03-.036.067-2.03c.256-7.65.638-15.477 1.133-23.26l.124-1.945 15.207.574c1.533.071 3.148.239 4.009 1.394.642.854.662 1.981.625 3.157l-.46 22.368z"/><path d="m395.069 330.87c-4.862-.026-10.171-.093-16.705-.21l-2.03-.036.067-2.03c.256-7.65.638-15.476 1.133-23.26l.124-1.945 15.207.574c1.536.072 3.149.241 4.008 1.394.643.855.663 1.982.626 3.158l-.46 22.368z"/><path d="m375.95 277.007c.01-7.17.121-14.459.331-21.665l.058-1.977 1.978.036c6.531.117 11.833.184 16.685.209l2.03.011-.201 9.811c-.083 3.848-.166 7.753-.699 11.556-.168 1.163-.422 2.461-1.326 3.272-.855.755-2.005.842-2.796.842-.557 0-1.13-.049-1.59-.088-1.649-.137-3.415-.204-5.393-.204-2.432 0-4.881.102-6.985.199l-2.094.096z"/><path d="m375.95 354.267c.01-7.167.121-14.46.331-21.675l.058-1.98 1.98.039c6.104.12 11.561.192 16.682.22l2.03.011-.201 9.81c-.083 3.848-.166 7.753-.699 11.557-.168 1.164-.422 2.462-1.327 3.272-.855.755-2.005.841-2.796.841-.56 0-1.131-.049-1.59-.088-1.647-.137-3.412-.203-5.388-.203-2.434 0-4.884.103-6.989.199l-2.094.096z"/><path d="m374.355 253.319c-5.713-.13-11.483-.301-17.149-.511l-2.02-.074.096-2.02c.045-.927.084-1.856.124-2.784.04-.955.081-1.908.126-2.857.081-1.565.172-3.124.272-4.682.176-2.737.339-5.411.407-8.033.092-3.363 1.28-5.274 3.852-6.2 1.334-.477 2.729-.538 3.797-.538.56 0 1.126.02 1.684.041l12.113.469-.13 2.046c-.493 7.757-.872 15.566-1.127 23.21l-.066 1.978z"/><path d="m374.355 330.569c-6.256-.142-11.865-.306-17.149-.501l-2.02-.074.096-2.02c.045-.926.084-1.855.124-2.782.04-.955.081-1.909.126-2.858.081-1.565.172-3.124.272-4.683.176-2.737.339-5.411.407-8.033.092-3.363 1.28-5.274 3.852-6.2 1.313-.478 2.695-.54 3.754-.54.554 0 1.113.02 1.666.041l12.174.459-.13 2.048c-.493 7.767-.872 15.577-1.127 23.21l-.066 1.978z"/><path d="m369.04 279.29c-5.042 0-8.93-.445-12.554-1.44h-.02l-.035-.01h-1.171l-.451-1.376c-.072-.22-.098-.414-.105-.566-.191-1.69-.156-3.43-.126-4.967l.002-.11c.113-4.624.276-9.58.532-16.088l.078-1.994 1.993.074c5.252.193 10.859.357 17.142.499l2.012.046-.058 2.012c-.209 7.269-.319 14.608-.329 21.815l-.003 1.921-1.92.074c-2 .076-3.538.11-4.987.11z"/><path d="m369.04 356.55c-5.042 0-8.93-.445-12.554-1.44h-.046l-.031-.01h-1.155l-.447-1.386c-.069-.216-.095-.407-.103-.557-.19-1.689-.156-3.432-.126-4.972l.002-.115c.112-4.6.276-9.559.532-16.088l.077-1.994 1.994.074c5.637.208 11.403.379 17.142.509l2.012.045-.058 2.012c-.209 7.269-.319 14.608-.329 21.815l-.003 1.921-1.92.074c-2 .078-3.538.112-4.987.112z"/><path d="m329.459 253.12c-4.861-.026-10.169-.093-16.705-.21l-2.03-.036.067-2.03c.256-7.65.638-15.476 1.133-23.26l.124-1.945 15.197.574c1.543.072 3.16.241 4.019 1.393.582.807.668 1.845.625 3.162l-.46 22.365z"/><path d="m329.459 330.38c-5.134-.028-10.599-.1-16.708-.22l-2.027-.04.067-2.026c.257-7.648.638-15.47 1.133-23.25l.124-1.945 15.197.574c1.58.05 3.171.254 4.02 1.394.581.805.668 1.843.624 3.16l-.46 22.365z"/><path d="m310.34 276.517c.01-7.167.121-14.459.331-21.675l.058-1.98 1.981.039c6.093.12 11.549.192 16.682.22l2.03.011-.201 9.81c-.083 3.85-.166 7.761-.699 11.558-.168 1.162-.422 2.46-1.324 3.27-.876.758-2.017.842-2.801.842-.557 0-1.128-.049-1.587-.088-1.647-.137-3.414-.203-5.392-.203-2.44 0-4.886.103-6.985.199l-2.095.096z"/><path d="m310.34 353.777c.01-7.166.121-14.459.331-21.675l.058-1.98 1.981.039c6.101.12 11.558.192 16.682.219l2.03.011-.201 9.811c-.083 3.849-.166 7.761-.699 11.557-.168 1.161-.422 2.459-1.323 3.27-.877.758-2.018.843-2.802.843-.553 0-1.126-.049-1.586-.088-1.649-.137-3.416-.204-5.394-.204-2.432 0-4.881.103-6.985.199l-2.094.096z"/><path d="m308.745 252.819c-6.281-.143-11.891-.307-17.149-.501l-2.02-.075.096-2.02c.038-.798.071-1.597.104-2.396.044-1.087.089-2.174.147-3.254.08-1.565.171-3.124.271-4.683.176-2.74.339-5.416.406-8.022.092-3.364 1.28-5.275 3.852-6.201 1.314-.478 2.696-.54 3.755-.54.554 0 1.113.02 1.666.04l12.173.46-.13 2.047c-.493 7.768-.872 15.577-1.127 23.21l-.066 1.978z"/><path d="m308.745 330.08c-6.281-.143-11.891-.307-17.149-.501l-2.02-.075.096-2.02c.038-.798.071-1.598.104-2.397.044-1.087.089-2.173.147-3.253.08-1.565.171-3.124.271-4.683.183-2.845.339-5.413.406-8.021.092-3.364 1.28-5.275 3.852-6.201 1.313-.478 2.692-.539 3.747-.539.552 0 1.109.02 1.662.04l12.185.46-.13 2.047c-.493 7.768-.872 15.577-1.127 23.211l-.066 1.978z"/><path d="m303.43 278.8c-5.041 0-8.929-.445-12.553-1.44l-.041-.01h-1.192l-.447-1.386c-.068-.212-.094-.4-.102-.548-.192-1.627-.159-3.305-.13-4.788l.006-.305c.125-5.105.304-10.516.532-16.093l.081-1.99 1.99.073c5.654.208 11.422.379 17.142.509l2.012.045-.058 2.012c-.209 7.269-.319 14.608-.329 21.816l-.003 1.921-1.92.074c-2.001.076-3.539.11-4.988.11z"/><path d="m303.43 356.06c-5.059 0-8.955-.448-12.59-1.45h-1.189l-.451-1.377c-.071-.216-.097-.407-.105-.557-.192-1.628-.159-3.305-.13-4.789l.006-.305c.125-5.105.304-10.517.532-16.094l.081-1.99 1.99.073c5.678.209 11.444.38 17.142.509l2.012.045-.058 2.012c-.209 7.27-.319 14.609-.329 21.815l-.003 1.922-1.92.074c-2.001.078-3.539.112-4.988.112z"/><path d="m144.251 302.789c-1.018-3.712-.39-7.801 1.679-10.939 2.319-3.537 6.563-5.893 10.811-5.999l.787-.001c1.021-.008 2.077-.017 2.962-.508 1.184-.655 1.762-1.957 2.32-3.217l.238-.527c2.926-6.374 9.854-10.818 16.854-10.818 0 0 .216.001.217.001.472 0 .968.026 1.47.054l.354.019c.666.039 1.347.078 2.042.078 1.538 0 2.672-.204 3.678-.661 1.671-.767 2.862-2.237 4.015-3.659.23-.283.458-.563.684-.831 2.865-3.415 7.852-7.068 13.24-7.068 1.136 0 2.256.162 3.329.481l.477.152c.632.199 1.328.418 1.985.418.298 0 .567-.045.824-.136.736-.261 1.284-.903 1.767-1.469 2.531-2.983 5.642-6.295 9.53-8.245 3.252-1.626 7.216-2.415 12.121-2.415.89 0 1.835.024 2.892.076.317.017.656.035 1.012.035 1.099 0 1.849-.193 2.432-.624.504-.372.841-.908 1.167-1.426l.192-.284c2.803-4.327 8.071-7.15 13.396-7.15.326 0 .651.011.976.032l1.963.129-.604 12.372-107.564 50.933c-1.321.628-2.821 1.34-4.146 2.295l-2.337 1.684z"/></g><path d="m148.803 314.296c-1.598 0-2.86-.471-3.754-1.4-1.819-1.889-1.333-5.057.189-7.028 1.581-2.055 4.04-3.223 6.209-4.253l107.611-50.959-.813 17.003-.987.538c-33.091 18.026-67.961 33.213-103.643 45.141-1.926.644-3.501.958-4.812.958z" fill="#ed6d66"/><path d="m235.467 387.624c.892-10.678 1.683-20.302 2.348-29.941.528-7.749 1.016-16.086 1.006-24.539 0-3.346-.074-7.218-.955-10.863-.281-1.173-.725-2.664-1.664-3.814-.792-.98-1.933-1.755-3.492-2.378-2.215-.881-4.743-1.292-7.957-1.292-1.139 0-2.384.051-3.92.16-6.482.453-12.984 1.417-19.327 2.865-3.268.751-6.643 1.7-8.828 4.282-2.733 3.208-2.632 7.854-2.293 12.337l4.134 55.461s-26.808-.381-26.809-.381c-.76 0-1.033-.075-1.164-.11l-1.475-.401v-.926c-.315-.646-.5-1.52-.576-2.682l-.842-12.86.867-.65-.083-.066-.867-.544-.065-1.021c-.938-14.636-1.819-28.871-2.62-42.309-.291-4.806-.621-10.255.298-15.42l-.291-1.669 1.587-.567c31.759-11.133 62.929-24.909 92.643-40.943l3.119-1.683-2.697 55.623c-.942 19.556-1.917 39.778-1.313 59.69.03.803.06 1.63.23 2.461l.386 1.893-1.878.451c-4.373 1.052-9.123 1.669-15.401 2.003l-2.29.122z" fill="#ffd671"/><path d="m241.45 429.12c-.39.17-.78.34-1.19.5-.61.24-1.25.47-1.92.68-3.21 1.04-6.48 1.88-9.77 2.56-.55.11-1.1.22-1.65.33-1.65.31-3.32.59-4.98.84-1.12.16-2.23.31-3.35.45-.55.06-1.11.13-1.67.19-1.12.12-2.24.23-3.37.33-9.54.84-19.21.85-28.7.86-1.53.01-3.06.01-4.6.01-12.18.05-23.05.33-33.06.89-2.23.12-4.41.26-6.56.41-3.22.23-6.35.49-9.42.77-.01 0-.01 0-.01 0-1.314.122-2.596.258-3.885.391-.724.075-1.448.15-2.165.229-12.49 1.37-26.65 3.67-38.76 10.14-.58.31-1.14.63-1.71.95-.67.39-1.33.79-1.98 1.2-.76.48-1.55 1.02-2.31 1.63-.11.09-.22.17-.33.26s-.22.18-.32.27c-.43.37-.85.75-1.25 1.15-.19.21-.39.41-.58.62-.37.42-.72.86-1.04 1.32-.07.11-.15.23-.23.34-.37.58-.68 1.19-.93 1.83-.14.38-.26.76-.35 1.16-.03.13-.05.27-.08.4-.04.27-.07.55-.09.82-.01.27-.01.54 0 .82.01.18.02.36.05.54.01.14.04.28.06.42.01.06.03.11.04.17.03.16.07.31.11.47.29 1.06.82 2.11 1.55 3.1.12.17.25.33.39.5.67.82 1.49 1.61 2.44 2.34.19.15.39.3.59.44.3.22.61.43.93.63 2.2 1.41 4.61 2.44 7.12 3.24.99.32 1.99.6 3 .84.16.05.32.08.48.12 1.04.25 2.08.47 3.12.67.74.14 1.47.27 2.21.4 1.55.27 3.1.51 4.65.74.78.12 1.56.23 2.34.33 2.38.32 4.77.61 7.17.86 6.22.67 12.47 1.14 18.64 1.56.83.06 1.66.12 2.49.17.72.05 1.44.1 2.16.15.08 0 .15 0 .23.01 10.19.68 20.6 1.37 30.91 2.79.54.08 1.08.15 1.62.23 1.63.23 3.25.49 4.87.77 1.08.19 2.15.38 3.22.59.54.1 1.07.2 1.61.31.69.13 1.38.27 2.06.43.92.2 1.83.4 2.74.62 1.06.24 2.12.5 3.18.79.53.12 1.06.27 1.59.41 4.8 1.31 10.09 3.14 13.88 6.74.54.51 1.06 1.06 1.53 1.65 1.24 1.55 2.15 3.24 2.91 5.05.38.89.72 1.82 1.04 2.76.06.15.11.31.16.46.26.77.51 1.54.77 2.33v.02c.52 1.6.98 3.04 1.53 4.45.05.14.11.27.16.41.09.22.18.44.28.65.2.47.41.93.64 1.37h-209.66v-156.47c.89-.22 1.78-.42 2.68-.63 1.2-.27 2.42-.53 3.64-.79 3.66-.76 7.37-1.43 11.12-2.02 1.21-.19 2.43-.37 3.65-.54.06-.01.13-.02.191-.03 1.229-.17 2.46-.33 3.689-.48.07-.01.13-.02.2-.03 1.22-.15 2.44-.29 3.67-.42 1.28-.14 2.56-.26 3.85-.38s2.59-.23 3.89-.32c3.74-.29 7.52-.49 11.33-.6 1.61-.06 3.23-.1 4.85-.11 1.2-.02 2.4-.03 3.61-.03 25.17 0 51.43 3.46 78.03 10.28 1.02.26 2.06.53 3.11.82.43.11.85.22 1.28.35.28.07.56.14.84.23.59.16 1.19.33 1.79.51.59.17 1.19.35 1.79.54.61.18 1.21.37 1.81.57.47.15.94.3 1.4.46.75.25 1.5.52 2.24.79.6.22 1.21.45 1.809.69 1.711.67 3.41 1.4 5.09 2.2.52.25 1.04.51 1.56.78.52.26 1.04.54 1.56.83.02.01.039.02.06.03.44.24.88.49 1.31.75.08.04.17.09.25.14l.77.46c.57.34 1.13.7 1.68 1.07l.81.55h.01l.01.08.06.9c.01.12.01.23.02.35.28 4.3.559 8.6.84 12.87.05.72.15 1.57.42 2.31.05.13.1.25.15.37.29.58.711 1.06 1.33 1.28.3.1.64.14.97.15.11.01.22.01.32.01l26.83.38.48.01-.11 2.08c-.04.78.15 1.52.51 2.21.05.08.1.17.15.26.1.17.22.34.35.51.77 1 1.91 1.86 3.23 2.56.22.11.45.22.68.33.23.1.46.2.69.3.12.05.24.09.36.14.24.09.48.18.72.26.02 0 .04.01.06.02.35.11.69.21 1.04.3 1.02.27 2.06.52 3.11.76.52.12 1.04.23 1.57.34.52.12 1.05.22 1.58.33 1.05.21 2.1.41 3.15.61.11.02.21.04.31.06.96.18 1.91.35 2.83.52l.21.04c.03.01.07.01.1.02 1.23.22 2.46.45 3.7.68.65.12 1.31.25 1.96.38 5.35 1.05 10.47 2.29 15.24 4.32.02 0 .04.01.05.02.56.23 1.11.48 1.65.74.01 0 .02.01.03.01.55.26 1.09.53 1.63.82.55.29 1.09.59 1.63.91.53.32 1.06.65 1.58.99.26.17.521.35.78.53 3.66 2.55 5.61 5.3 5.8 8.2.271 3.92-2.719 7.52-8.139 9.96z" fill="#f0f2fa"/><path d="m219.136 390.178c-5.964 0-12.037-.089-17.395-.168l-7.219-.107-4.145-55.464c-.331-4.486-.425-9.132 2.3-12.343 2.199-2.591 5.711-3.566 8.83-4.276 6.35-1.445 12.85-2.408 19.323-2.865 1.571-.112 2.846-.165 4.012-.165 3.155 0 5.656.41 7.869 1.292 1.55.618 2.689 1.392 3.481 2.366.975 1.213 1.422 2.773 1.675 3.841.88 3.626.954 7.349.954 10.85.01 8.749-.514 17.252-1.005 24.535-.688 9.981-1.531 20.109-2.347 29.903l-.189 2.274-1.729.104c-.21.013-.42.023-.63.023-4.14.135-8.67.2-13.785.2z" fill="#af7979"/><path d="m164.232 236.835.268-.678c.635-1.611 1.334-3.288 2.137-5.127l2.342-5.36 1.431 5.672c.287 1.138.662 2.329 1.114 3.539 1.217 3.263 4.068 5.541 6.937 5.541h.12c2.291-.039 4.611-1.452 6.863-4.198 1.638-1.993 2.986-4.199 4.013-6.56.179-.412.349-.831.518-1.251l.042-.103c.696-1.718 1.416-3.495 2.727-4.869.93-.964 2.29-1.583 3.473-1.583.746 0 1.408.236 1.915.682.477.432.791.982 1.125 1.681.865 1.773 1.645 3.692 2.311 5.688l.219.687c.739 2.275 1.509 4.642 3.388 6.076 1.093.833 2.511 1.274 4.099 1.274.97 0 1.962-.165 2.948-.492 1.876-.629 3.596-1.77 5.029-2.804l2.134-1.538.912 2.467c1.448 3.917 2.952 7.85 4.407 11.654l.648 1.693-1.597.876c-.07.035-.141.066-.211.097-3.925 1.965-7.032 5.276-9.558 8.257-.615.722-1.093 1.238-1.78 1.477-.23.085-.523.136-.831.136-.607 0-1.251-.191-1.968-.421l-.497-.156c-1.044-.311-2.159-.473-3.285-.473-5.401 0-10.398 3.653-13.274 7.072l-.69.839c-1.183 1.45-2.366 2.901-4.017 3.647-1.291.591-2.712.659-3.668.659-.649 0-1.326-.036-2.019-.076-.64-.039-1.227-.077-1.817-.077l-.308-.003c-.76 0-1.568.064-2.401.191l-1.662.252z" fill="#57aa6b"/><path d="m178.45 240.42c-3.326 0-5.925-2.868-6.932-5.533-.936-2.507-2.014-6.21-1.847-9.664 0 0-.047-.539-.047-.539l.242-.581c3.239-6.543 6.765-12.72 11.063-19.981 4.004-6.784 7.752-12.776 13.06-17.382 1.123-.973 3.338-2.602 5.567-2.602.737 0 1.414.175 2.012.518 1.325.754 2.058 2.232 2.693 3.68 3.308 7.598 5.756 15.652 8.124 23.442l.087.289c.956 3.165 1.943 6.436 2.979 9.635 1.173 3.605 2.45 7.218 3.431 9.963l.497 1.389-1.18.885c-1.916 1.437-3.814 2.787-5.979 3.507-.973.32-2.001.489-2.98.489-1.574 0-2.979-.438-4.065-1.266-1.869-1.437-2.637-3.783-3.378-6.053l-.233-.729c-.658-1.965-1.441-3.885-2.32-5.679-.32-.657-.623-1.233-1.107-1.661-.511-.449-1.149-.678-1.896-.678-1.205 0-2.575.615-3.491 1.565-1.31 1.36-1.997 3.066-2.726 4.871-.188.46-.373.901-.567 1.353-1.032 2.38-2.383 4.586-4.015 6.563-2.247 2.742-4.569 4.155-6.897 4.196l-.018.001h-.077z" fill="#fff"/><path d="m142.783 294.35c-6.376-1.738-13.062-2.65-19.871-2.71l-1.903-.017-.077-1.902c-4.674-10.899-9.992-23.825-14.006-37.071-.674-2.206-1.353-4.586-2.205-7.715l-.191-.702.305-.661c.018-.038.036-.074.048-.113.758-3.634 1.805-7.437 3.182-11.545l1.956-5.837 1.849 5.873c1.214 3.86 3.553 7.542 6.585 10.367 2.259 2.097 4.573 3.443 6.876 3.999.779.181 1.579.274 2.361.274 2.017 0 3.884-.615 5.259-1.732 1.962-1.593 3.146-4.251 3.521-7.902.111-1.082.161-2.185.208-3.252.072-1.869.146-3.748.547-5.583.28-1.265 1.475-5.481 5.13-6.768l1.156-.407.724.69.084.042.261.3c.784.903 1.414 2.004 2.023 3.068 1.189 2.076 2.302 4.018 4.447 4.67.425.13.865.195 1.31.195 1.742 0 3.606-.973 5.541-2.892l2.282-2.264 15.575 46.434-1.842.662c-4.801 1.726-8.863 5.364-10.869 9.732l-.22.514c-.593 1.318-1.169 2.597-2.346 3.244-.743.421-1.621.51-2.702.51l-1.08-.002c-4.261.104-8.406 2.403-10.769 5.998-.297.438-.559.901-.821 1.442l-.723 1.497z" fill="#317b36"/><path d="m160.302 369.121c-8.363-4.95-17.754-7.6-25.9-9.694-26.604-6.819-52.859-10.277-78.034-10.277-3.37 0-6.762.064-10.083.188l-7.15.268 5.975-3.937c15.922-10.493 34.241-17.563 52.976-20.446 6.631-1.023 13.421-1.542 20.18-1.542 14.154 0 28.115 2.22 41.497 6.598l1.293.423.081 1.358c.675 11.31 1.408 23.156 2.181 35.211l.242 3.777z" fill="#d8deec"/><path d="m158.28 329.808c-12.944-4.067-26.417-6.129-40.046-6.129-6.749 0-13.528.518-20.149 1.538-1.596.253-3.228.541-4.842.856l-1.029.201-.932-.909-.047-.075c-5.221-5.349-11.143-10.16-17.638-14.338l-2.418-1.555 2.299-1.726c13.773-10.342 31.072-16.038 48.711-16.038 6.963 0 13.826.894 20.398 2.656l1.801.482-.355 1.83c-.505 2.601-.273 5.212.67 7.551l.877 1.094-.723 1.195c-1.123 1.841-1.546 4.645.177 6.447.918.956 2.145 1.422 3.745 1.422 1.699 0 3.479-.518 4.841-.968 1.041-.35 2.09-.711 3.139-1.071l4.652-1.592-.44 3.213c-.646 4.722-.354 9.592-.096 13.888l.175 2.898z" fill="#bfc7d8"/><path d="m127.668 246.592c-.782 0-1.569-.093-2.34-.276-2.333-.571-4.642-1.917-6.874-4.005-5.079-4.729-8.059-11.812-7.411-17.622l-.117-.582.207-.548c1.966-4.93 4.137-9.745 6.19-14.214 3.303-7.171 7.22-15.46 11.926-23.095 2.116-3.433 4.537-6.939 7.892-9.33 1.121-.805 2.008-1.165 2.867-1.165h.095l.176.013c2.131.118 3.359 2.575 4.091 4.412 5.289 13.214 9.896 26.94 14.352 40.214l1.505 4.502-1.156.865c-2.355 2.753-4.61 4.145-6.709 4.145-.451 0-.894-.066-1.316-.195-2.117-.629-3.28-2.645-4.405-4.596-.691-1.227-1.301-2.269-2.071-3.147-.381-.436-.71-.668-1.068-.753-.088-.02-.19-.032-.301-.032-.306 0-.601.089-.823.166-2.469.857-4.392 3.385-5.142 6.764-.398 1.802-.477 3.682-.553 5.499l-.019.41c-.045 1.004-.087 1.952-.181 2.919-.376 3.646-1.562 6.302-3.524 7.906-1.396 1.128-3.271 1.745-5.291 1.745z" fill="#fff"/><path d="m70.017 308.744c-7.742-4.554-16.141-8.204-24.961-10.848l-.16-.045-1.944-.486 15.96-63.305 2.496 3.841c1.597 2.456 3.955 4.277 6.473 4.997.83.233 1.711.353 2.61.353 3.628 0 7.102-1.945 8.646-4.841 1.194-2.237 1.329-4.728 1.472-7.365l.006-.103c.102-2.087.207-4.257.923-6.264.669-1.865 1.874-3.066 3.225-3.215l.109-.012.169-.002c2.128 0 3.498 2.338 4.125 3.732l.089.185c.793 1.763 1.754 3.901 3.656 4.456.313.09.633.137.949.137 1.102 0 2.3-.562 3.563-1.67l2.458-2.159 1.666 6.603c1.665 6.571 3.387 13.366 5.378 19.917 4.018 13.261 9.419 26.351 13.675 36.273l1.145 2.667-2.899.12c-17.032.704-33.575 6.701-46.579 16.886l-1.073.84z" fill="#57aa6b"/><path d="m70.496 243.252c-.901 0-1.783-.121-2.621-.358-4.038-1.149-7.358-4.9-8.265-9.334-.004 0-.026-.039-.046-.078l-.337-.668.183-.725c4.039-15.977 8.015-30.258 15.795-43.219 1.542-2.57 3.34-5.114 6.028-6.316l1.609-.72.916 1.506c8.03 13.207 12.344 28.313 15.757 41.436l.228.876-.648.958-.162.149c-1.958 2.208-3.531 3.194-5.093 3.194-.321 0-.638-.044-.94-.133-1.896-.568-2.818-2.613-3.633-4.417l-.111-.257c-1.061-2.336-2.555-3.694-4.083-3.694-.101 0-.203.006-.306.017-1.361.14-2.565 1.341-3.232 3.212-.696 1.967-.807 4.035-.924 6.225-.128 2.586-.257 5.215-1.475 7.504-1.544 2.897-5.016 4.842-8.64 4.842z" fill="#fff"/><path d="m92.21 326.23-.03.01-1.65.38-.26.06c-1.122.242-2.237.521-3.352.793-.73.177-1.456.353-2.188.547-1.42.37-2.84.76-4.25 1.18-.9.27-1.82.55-2.71.84-.03.01-.05.02-.08.03-.68.22-1.36.45-2.05.68-.53.18-1.06.36-1.59.55-1.07.38-2.13.77-3.18 1.18-.38.14-.75.29-1.13.44h-.01c-.68.26-1.35.53-2.01.81-.52.21-1.04.43-1.56.65-.46.2-.92.39-1.37.6-.68.29-1.36.6-2.03.91-.87.4-1.729.8-2.58 1.21-.92.45-1.82.9-2.71 1.36-.29.15-.58.3-.87.45-.44.23-.88.45-1.31.69-.44.23-.87.47-1.3.71-.62.34-1.24.69-1.85 1.05-.75.41-1.5.85-2.23 1.3-1.12.65-2.21 1.33-3.3 2.04-.51.31-1.01.63-1.5.97-.27.17-.54.35-.81.54-1.52 1-3.03 2.05-4.5 3.13l-.35.26-.12.09-.58.04c-.72.05-1.45.1-2.17.16-1.3.09-2.6.2-3.89.32-1.29.11-2.57.24-3.85.38-1.23.13-2.45.27-3.67.42-.07.01-.13.02-.2.03-1.229.15-2.46.31-3.689.48-.061.01-.13.02-.191.03-1.22.17-2.44.35-3.65.54-.09.01-.19.03-.28.04-3.65.57-7.28 1.23-10.84 1.98-1.22.25-2.43.51-3.64.79-.9.2-1.79.4-2.68.62v-62.9c.44-.03.88-.05 1.32-.06.76-.03 1.51-.05 2.26-.07 1.05-.02 2.09-.03 3.13-.03.74 0 1.49.01 2.23.02.51 0 1.02.02 1.53.03.5.01 1.01.03 1.51.05.6.02 1.19.04 1.79.07.49.02.99.05 1.48.08.19.01.39.03.58.04.54.03 1.09.07 1.63.11.19.01.38.03.57.04.64.05 1.27.11 1.91.17.72.07 1.44.14 2.16.22s1.44.16 2.16.25c2.15.27 4.28.58 6.39.96 2.81.48 5.59 1.07 8.32 1.74.68.17 1.36.34 2.04.52l1.95.52s0 0 .01.01c.64.17 1.29.36 1.93.56.05.01.11.02.16.04.55.17 1.1.33 1.65.52.55.17 1.09.35 1.64.53.5.16 1 .33 1.49.5.59.2 1.17.41 1.75.63.54.19 1.07.39 1.6.6.54.2 1.07.41 1.6.62.42.17.85.34 1.27.52.51.21 1.01.42 1.52.64.5.22 1.01.44 1.51.66.5.23 1 .46 1.5.69.52.24 1.04.49 1.55.74.47.22.94.45 1.4.69.41.2.82.41 1.22.62.57.29 1.14.6 1.71.9.47.25.93.51 1.4.77s.94.53 1.41.8c1.87 1.08 3.7 2.22 5.49 3.41.9.59 1.78 1.19 2.65 1.81.4.28.8.57 1.2.86s.8.58 1.19.88c.09.07.19.14.29.22l1.17.9c.42.33.84.65 1.25.99.29.23.57.46.86.7.54.44 1.07.89 1.6 1.34.53.46 1.05.92 1.57 1.39.13.11.26.22.39.34.12.12.25.24.38.35.38.35.77.71 1.15 1.07s.76.72 1.13 1.09l.83.82.81.8z" fill="#bfc7d8"/><path d="m53.47 255.6v.01l-10.51 41.67-1.95-.52c-.68-.18-1.36-.35-2.04-.52-2.729-.66-5.51-1.25-8.32-1.74s-5.66-.9-8.55-1.21c-.72-.08-1.44-.15-2.16-.22-.64-.06-1.27-.12-1.91-.17-.191-.01-.38-.03-.57-.04-.54-.04-1.09-.08-1.63-.11-.19-.01-.39-.03-.58-.04-.49-.03-.99-.06-1.48-.08-.6-.03-1.19-.05-1.79-.07-.5-.02-1.01-.04-1.51-.05-.51-.01-1.019-.03-1.53-.03-.74-.01-1.49-.02-2.23-.02-1.04 0-2.08.01-3.13.03-.75.02-1.5.04-2.26.07-.44.01-.88.03-1.32.06v-51.35c.08.01.16.02.24.04.02 0 .04.01.05 0 .05.01.09.01.14.01.33.04.67.06 1.01.06 1.7 0 3.3-.46 4.6-1.27.43-.27.83-.58 1.18-.94.26-.26.51-.53.731-.81.17-.21.33-.43.48-.65s.3-.45.44-.67c.18-.3.36-.61.54-.91.08-.16.17-.31.26-.47.24-.42.49-.85.75-1.28.26-.42.52-.83.81-1.22.08-.11.17-.22.27-.33.09-.11.19-.22.3-.32.09-.09.17-.17.27-.24.03-.04.07-.06.1-.09.1-.09.2-.16.3-.23.08-.06.17-.11.25-.16.01-.01.03-.02.04-.02.41-.25.86-.41 1.31-.41h.5l.44.23c.03.02.06.03.08.05.07.04.13.08.191.13.43.32.75.79 1 1.2.03.05.07.1.1.15l3.15 5.18c.42.69.89 1.48 1.479 2.18.08.1.16.19.25.28.11.11.21.22.32.32.14.14.29.27.45.39s.33.23.5.33c.39.23.8.4 1.24.52s.9.18 1.38.18c.16 0 .32-.01.49-.03.12 0 .25-.01.37-.04h.04c.03 0 .06-.01.09-.02.18-.02.37-.05.55-.1.22-.04.44-.1.65-.17.22-.07.441-.15.66-.23.92-.38 1.7-.85 2.27-1.25.15-.1.3-.22.45-.33.07-.05.13-.1.18-.14.29-.24.58-.48.85-.73.09-.08.18-.16.26-.25.021-.01.03-.03.05-.05.19-.17.38-.35.56-.54.04-.04.07-.08.11-.12.16-.16.32-.33.47-.5.14-.15.28-.31.41-.47.18-.2.34-.39.5-.59.05-.06.1-.12.15-.19.17-.2.32-.4.47-.6.29-.38.56-.75.81-1.12.27-.38.52-.76.75-1.13.21-.32.41-.64.6-.94l.88-1.43.84-1.36.2.33 1.49 2.48c1 1.65 1.99 3.32 2.99 4.99.2.34.4.68.6 1.03.75 1.25 1.49 2.52 2.22 3.78 1.03 1.75 2.06 3.52 3.06 5.28.61 1.07 1.23 2.14 1.84 3.22.7 1.21 1.39 2.43 2.07 3.64z" fill="#317b36"/><path d="m38.81 230.5-1.04 1.03-.08.08c-.45.75-.91 1.52-1.4 2.29-.24.38-.49.76-.75 1.13-.26.38-.53.75-.81 1.12-.15.2-.31.4-.47.6-.05.07-.1.13-.15.19-.16.2-.32.39-.5.59-.13.16-.27.32-.41.47-.15.17-.31.34-.47.5-.04.04-.07.08-.11.12-.18.19-.37.37-.56.54-.02.02-.03.04-.05.05-.08.09-.17.17-.26.25-.27.25-.56.49-.85.73-.05.04-.11.09-.18.14-.15.11-.3.23-.45.33-.57.4-1.35.87-2.27 1.25-.22.08-.44.16-.66.23-.21.07-.43.13-.65.17-.18.05-.37.08-.55.1-.03.01-.06.02-.09.02h-.04c-.12.02-.24.03-.37.04-.16.01-.32.02-.48.02-.49 0-.96-.06-1.39-.17-.44-.12-.85-.29-1.24-.52-.17-.1-.34-.21-.5-.33-.15-.12-.3-.25-.45-.39-.11-.1-.21-.21-.32-.32-.08-.09-.17-.19-.25-.28-.59-.7-1.06-1.49-1.479-2.18l-3.11-5.1c-.04-.07-.09-.15-.14-.23-.25-.41-.57-.88-1-1.2-.061-.05-.12-.09-.191-.13-.07-.05-.15-.09-.23-.12-.24-.1-.49-.15-.75-.15-.44 0-.89.14-1.35.4-.01 0-.03.01-.04.02-.08.05-.17.1-.25.16-.1.07-.2.14-.3.23-.03.03-.07.05-.1.09-.09.07-.18.15-.27.24-.1.1-.2.21-.3.32-.09.11-.18.22-.27.33-.29.39-.56.8-.81 1.22-.26.43-.51.86-.75 1.28-.09.16-.18.31-.26.47-.18.3-.36.61-.54.91-.14.22-.29.45-.44.67s-.31.44-.48.65c-.22.28-.45.55-.71.8-.01.01-.01.01-.021.01-.35.36-.75.67-1.18.94-1.3.82-2.91 1.28-4.59 1.28-.34 0-.69-.02-1.02-.07-.05 0-.09 0-.14-.01-.01.01-.03 0-.05 0-.08-.02-.16-.03-.24-.04v-28.82c.52-.82 1.05-1.63 1.6-2.43.54-.81 1.1-1.62 1.67-2.41.45-.62.9-1.24 1.36-1.85.58-.78 1.18-1.54 1.8-2.3.41-.54.85-1.07 1.289-1.59.25-.29.49-.57.74-.86.38-.44.76-.88 1.15-1.32.09-.09.17-.19.26-.29.08-.1.17-.19.26-.28.81-.86 1.71-1.66 2.72-2.12.22-.1.44-.18.67-.25.35-.1.71-.15 1.08-.15h.18c.15.01.309.02.45.05.15.02.29.05.43.1.11.03.22.06.33.1.11.05.229.1.34.15.14.07.27.14.4.22.79.48 1.49 1.19 2.12 1.98.11.13.21.26.31.4.2.27.39.55.58.83.07.09.13.19.19.28.67 1.02 1.35 2.04 2.02 3.07.68 1.02 1.35 2.06 2.02 3.09.191.29.38.57.561.86 1.15 1.78 2.3 3.57 3.45 5.36.97 1.52 1.94 3.04 2.9 4.57.15.24.31.49.46.74.64 1.01 1.28 2.03 1.91 3.05 1.6 2.56 3.18 5.13 4.74 7.7l.62 1.02z" fill="#fff"/><circle cx="128.8" cy="115.45" fill="#fff" r="18.022"/><ellipse cx="275.513" cy="58.417" fill="#fff" rx="9.092" ry="9.092" transform="matrix(.16 -.987 .987 .16 173.717 321.015)"/><ellipse cx="234.043" cy="136.94" fill="#fff" rx="9.092" ry="9.092" transform="matrix(.707 -.707 .707 .707 -28.281 205.602)"/><circle cx="431.317" cy="99.745" fill="#fff" r="21.49"/><circle cx="370.566" cy="54.698" fill="#fff" r="16.531"/><ellipse cx="190.21" cy="51.805" fill="#fff" rx="11.158" ry="11.158" transform="matrix(.23 -.973 .973 .23 96.09 225.025)"/><circle cx="53.47" cy="62.964" fill="#fff" r="15.291"/><circle cx="42.951" cy="163.389" fill="#fff" r="9.051"/><ellipse cx="466.033" cy="160.496" fill="#fff" rx="9.505" ry="9.505" transform="matrix(.924 -.383 .383 .924 -25.945 190.56)"/><circle cx="484.217" cy="38.167" fill="#fff" r="9.505"/><path d="m428.54 295.44c4.69-8.42 9.1-17.15 13.35-25.6 1.04-2.06 2.08-4.13 3.13-6.21.47 2.01 1.24 3.96 2.3 5.74 1.05 1.77 2.16 2.97 3.49 3.77 2.76 1.68 6.65 1.45 9.68-.56 2.26-1.5 4.06-3.84 5.479-7.13.6-1.38 1.08-2.78 1.54-4.14.41-1.18.78-2.29 1.23-3.38.75-1.83 2.14-3.92 3.7-3.74 1.33.14 2.31 1.99 2.73 3.54.81 2.89.86 5.96.91 9.2l.02 1.09c.07 3.73.26 7.69 1.84 11.41 1.84 4.33 5.44 7.4 9.4 8.01.51.07 1.03.11 1.55.11 2.48 0 5.06-.86 7.4-2.5 2.48-1.73 4.4-4.1 5.96-6.18 2.56-3.44 4.86-7.14 6.89-11.01.97 1.83 1.93 3.66 2.86 5.5v-8.63c-4.45-8.31-9.15-16.44-13.78-24.44-3.4-5.88-6.92-11.96-10.97-17.62-4.2-5.86-8.58-8.44-12.99-7.68-2.95.51-5.229 2.5-6.89 4.17-4.05 4.09-7.24 8.95-10.07 13.6-6.97 11.43-13.08 23.55-18.98 35.28-3.44 6.83-6.99 13.84-10.69 20.71-.31-20-1.05-39.98-2.2-59.86 2.13 1.22 4.35 2.2 6.789 2.65 4.26.8 9.771-.33 12.49-4.66 1.2-1.92 1.54-4.17.93-6.04 2.49-1.78 5.38-4.6 6.51-8.62 1.25-4.45-.29-9.19-3.74-11.53-1.37-.93-2.85-1.39-4.29-1.84-1.3-.41-2.54-.79-3.43-1.48-1.55-1.2-2.18-3.27-2.9-5.67-.68-2.25-1.38-4.58-2.98-6.52-2.5-3.04-6.13-3.98-9.63-4.88-2.43-.63-4.72-1.23-6.51-2.47-3.18-2.23-4.43-6.26-5.75-10.54-1.24-4.01-2.53-8.16-5.53-11.32-4.04-4.24-9.68-5.25-15.13-6.24-4.06-.73-7.89-1.43-11.04-3.34-2.4-1.45-4.33-3.59-6.38-5.85-1.35-1.5-2.75-3.04-4.33-4.42-7.52-6.57-18.8-8.48-28.05-4.75-2.23.9-4.3 2.08-6.3 3.22-2.43 1.38-4.71 2.68-7.19 3.47-2.24.72-4.63 1.03-7.17 1.35-4.09.53-8.32 1.07-11.99 3.46-3.51 2.29-5.67 5.74-7.76 9.08-1.32 2.1-2.56 4.08-4.1 5.76-4.27 4.67-10.49 6.72-17.07 8.88-6.31 2.08-12.84 4.22-17.8 8.91-2.3 2.16-4.09 4.72-5.82 7.19-1.79 2.57-3.479 4.99-5.65 6.92-2.22 1.98-4.88 3.4-7.69 4.9-1.12.6-2.29 1.22-3.41 1.87-5.36 3.12-8.6 6.6-9.93 10.64-.95 2.91-.6 6.4.92 9.1.97 1.73 2.35 3.04 3.99 3.79-1.39 1.88-2.39 4.2-1.89 6.83.8 4.25 5.08 6.58 9.06 6.58.29 0 .57-.01.85-.04 3.94-.34 7.34-2.55 10.08-4.32l4.67-3.03-.5 10.22c-6.31-.39-12.67 2.74-16.14 8.07l-.16.25c-.23.37-.48.75-.68.9-.39.3-1.37.25-2.15.21-3.51-.17-7.81-.16-12.03 1.02-3.19-8.33-6.46-16.92-9.24-25.51-1.03-3.18-2.02-6.44-2.98-9.6-2.4-7.94-4.89-16.16-8.29-23.94-.73-1.68-1.66-3.56-3.53-4.63-2.77-1.59-6.37-.75-9.88 2.31-5.53 4.8-9.37 10.93-13.47 17.87-5.17 8.75-10.52 18.06-14.79 27.99l-3.73-11.1c-4.48-13.38-9.12-27.21-14.46-40.56-.54-1.34-2.18-5.44-5.9-5.67-1.82-.11-3.36.82-4.35 1.53-3.64 2.6-6.21 6.3-8.43 9.91-4.81 7.8-8.74 16.12-12.04 23.31-4.05 8.8-8.16 18.11-10.95 27.95-.39-1.53-.78-3.05-1.16-4.56-4.28-16.94-8.71-34.45-17.97-49.66-.28-.47-.82-1.34-1.87-1.77-1.3-.52-2.53-.01-2.94.17-3.29 1.38-5.37 4.28-7.13 7.21-8.6 14.32-12.7 30.58-16.67 46.31l-4.07 16.13c-9.78-17.2-20.25-34.24-31.16-50.69-1.04-1.58-3.21-4.86-6.74-5-2.87-.12-5.02 1.83-6.74 3.76-2.94 3.3-5.65 6.79-8.11 10.44v7.5c3.18-5.44 6.89-10.56 11.1-15.28 1.09-1.23 2.4-2.48 3.58-2.42 1.31.05 2.55 1.65 3.58 3.21 6.16 9.3 12.18 18.78 18.021 28.38-.1.1-.19.22-.271.35-1.72 2.93-3.69 5.94-6.36 8.09-1.81 1.45-4.4 2.46-6.1 1.45-.94-.55-1.67-1.75-2.31-2.81l-3.11-5.11c-.43-.72-1.15-1.91-2.49-2.48-1.97-.84-4.32.05-6 2.27-.67.89-1.2 1.82-1.71 2.72-.66 1.17-1.28 2.26-2.1 3.07-1.43 1.41-3.72 1.93-5.83 1.5v4.04c3.15.41 6.43-.52 8.63-2.69 1.23-1.2 2.02-2.59 2.78-3.94.47-.83.92-1.61 1.43-2.3.54-.71 1.11-.99 1.23-.99.17.09.51.66.64.87l3.11 5.11c.84 1.39 1.89 3.12 3.69 4.18 1.16.69 2.4.98 3.64.98 2.56 0 5.11-1.24 7-2.75 2.71-2.18 4.72-4.95 6.44-7.74 4.37 7.25 8.62 14.55 12.75 21.89l-9.82 38.93c-13.07-3.45-26.99-4.86-41.52-4.22v4c15.68-.7 30.61 1.03 44.48 5.2 16.93 5.08 31.99 13.81 43.72 25.29-17.83 4.1-34.81 11.82-49.58 22.63-7.4.49-14.66 1.3-21.77 2.42-5.72.9-11.34 2-16.85 3.32v4.12c40.16-9.72 86.32-8.42 133.91 3.78 8.96 2.3 19.15 5.22 27.73 10.94.28 4.42.57 8.83.86 13.22.08 1.16.31 4.66 3.22 5.71.73.26 1.441.27 1.961.28l25.21.36c-.24 4.42 4.33 7.65 9.29 8.94 4.24 1.11 8.64 1.91 12.9 2.69 10.11 1.84 19.66 3.57 27.57 9.09 3.13 2.18 4.8 4.44 4.95 6.69.29 4.29-4.91 7.52-9.87 9.11-16.85 5.42-35.17 5.44-52.89 5.46-1.53.01-3.059.01-4.59.01-21.75.08-39.33.94-55.32 2.7-14.02 1.54-30.12 4.25-43.3 12.59-5.76 3.65-8.68 7.94-8.44 12.42.19 3.47 2.34 6.85 6.07 9.5 5.2 3.7 11.57 5.19 17.68 6.24 12.53 2.16 25.42 3.02 37.89 3.85 17.08 1.13 34.74 2.31 51.4 6.87 5.19 1.42 10.95 3.45 14.38 7.71 2.23 2.78 3.35 6.27 4.54 9.98.48 1.5.98 3.05 1.56 4.56.23.59.47 1.16.73 1.71h4.51c-.75-1.29-1.24-2.47-1.51-3.15-.54-1.4-1.02-2.9-1.48-4.35-1.25-3.88-2.54-7.9-5.24-11.25-4.14-5.15-10.63-7.47-16.439-9.06-17.04-4.67-34.91-5.86-52.18-7.01-12.37-.83-25.16-1.68-37.48-3.8-5.65-.98-11.49-2.32-16.04-5.55-1.57-1.13-4.24-3.46-4.4-6.47-.2-3.72 3.47-6.85 6.59-8.82 12.46-7.89 27.35-10.43 41.59-12 15.86-1.74 33.3-2.59 54.91-2.67 1.52 0 3.05 0 4.58-.01 18.02-.02 36.66-.04 54.1-5.65 8.29-2.66 13.02-7.59 12.64-13.19-.24-3.52-2.48-6.79-6.65-9.7-8.63-6.02-19.06-7.91-29.14-9.75-4.19-.76-8.52-1.55-12.61-2.62-2.72-.71-6.52-2.61-6.29-5.01l4.82.07c5.76.08 11.63.17 17.521.17 3.24 0 6.479-.04 9.72-.11 3.1 4.64 8.66 6.5 14.11 8l54.09 14.86c10.99 3.02 23.43 6.44 32.01 14.87 1.21 1.19 2.84 3 3.05 4.97.49 4.79-6.75 7.57-8.979 8.31-11.9 3.95-24.7 5.86-37.07 7.71-16.14 2.41-32.84 4.9-47.94 11.94-1.52.71-6.15 2.87-6.36 7.19-.13 2.4 1.2 4.75 3.83 6.78 4.55 3.52 10.14 4.99 15.51 6.05 16.82 3.34 34.21 3.55 51.02 3.75 5.91.07 12.02.15 17.99.36 19.64.68 44.811 3.08 65.29 15.59 4.87 2.98 8.6 6.17 11.15 9.55h4.83c-2.84-4.71-7.5-9.05-13.9-12.96-21.27-13-47.1-15.48-67.23-16.18-6.02-.21-12.15-.29-18.08-.36-16.63-.2-33.83-.41-50.29-3.67-4.89-.97-9.95-2.28-13.84-5.29-.89-.69-2.36-2.04-2.29-3.42.06-1.27 1.43-2.53 4.06-3.76 14.58-6.8 30.98-9.25 46.84-11.62 12.54-1.87 25.51-3.8 37.74-7.86 7.86-2.61 12.24-7.29 11.7-12.52-.34-3.25-2.57-5.79-4.22-7.41-9.32-9.16-22.87-12.88-33.76-15.88l-54.09-14.86c-3.8-1.04-7.41-2.19-9.93-4.27 7.54-.27 13.99-.84 20.28-2.48 1.24 1.12 2.81 1.67 4.24 2.08 12.88 3.78 26.47 5.27 39.24 6.32 18.58 1.53 37.26 2.29 55.95 2.29 21.07 0 42.14-.97 63.05-2.9 1.85-.17 5.28-.49 7.2-3.04 1.31-1.73 1.42-3.86 1.51-5.42.05-.85.09-1.71.13-2.57 29.55-.6 59.06-7.08 86.2-18.84v-4.36c-27.02 11.96-56.47 18.55-85.99 19.2.85-16.87 1.4-33.8 1.64-50.75 26.14-12.04 56.04-15.69 84.35-10.58v-4.06c-28.27-4.96-58.05-1.44-84.29 10.22.12-10.27.12-20.54.02-30.82.328-.17.618-.44.808-.79zm20.04-38.77c3.83-7.38 7.82-14.75 12.13-21.83 2.71-4.44 5.74-9.07 9.5-12.86 1.24-1.25 2.9-2.73 4.73-3.05 2.78-.48 5.83 1.56 9.05 6.07 3.95 5.5 7.41 11.5 10.77 17.29 4.04 7 8.14 14.09 12.08 21.3-.01.01-.02.02-.02.03-2.2 4.56-4.82 8.89-7.78 12.86-1.43 1.92-3.03 3.89-5.04 5.29-1.96 1.38-4.18 2-6.06 1.71-3.1-.47-5.3-3.21-6.32-5.62-1.29-3.05-1.46-6.57-1.52-9.92l-.02-1.07c-.05-3.36-.11-6.82-1.05-10.21-1.04-3.73-3.34-6.14-6.16-6.45-3.16-.34-6.09 1.97-7.83 6.21-.49 1.2-.91 2.41-1.31 3.59-.46 1.35-.9 2.62-1.43 3.85-1.11 2.56-2.42 4.33-4.03 5.39-1.73 1.15-3.95 1.35-5.39.47-.74-.45-1.42-1.21-2.12-2.4-1.82-3.04-2.59-6.66-2.17-10.18.02-.16.01-.31-.01-.47zm-213.6-42.51c-.98-1.75-1.21-4.01-.6-5.89 1.01-3.07 3.67-5.83 8.14-8.43 1.06-.62 2.19-1.22 3.28-1.8 2.9-1.55 5.89-3.15 8.47-5.44 2.52-2.25 4.43-4.98 6.27-7.62 1.69-2.41 3.28-4.69 5.28-6.57 4.32-4.07 10.14-5.99 16.31-8.02 6.78-2.23 13.79-4.54 18.77-9.98 1.79-1.94 3.18-4.18 4.54-6.33 1.95-3.11 3.79-6.05 6.56-7.86 2.9-1.89 6.5-2.35 10.31-2.84 2.6-.33 5.29-.68 7.88-1.51 2.87-.92 5.45-2.38 7.95-3.81 1.97-1.12 3.83-2.18 5.81-2.98 7.9-3.18 17.52-1.55 23.93 4.05 1.4 1.23 2.66 2.62 4 4.09 2.15 2.38 4.37 4.83 7.27 6.59 3.78 2.3 8.16 3.09 12.4 3.86 5.04.91 9.81 1.77 12.94 5.06 2.36 2.48 3.45 6.01 4.61 9.75 1.46 4.72 2.98 9.61 7.28 12.62 2.37 1.66 5.13 2.38 7.8 3.07 3.01.78 5.87 1.52 7.539 3.55 1.09 1.33 1.65 3.18 2.24 5.13.81 2.67 1.72 5.7 4.28 7.68 1.47 1.14 3.18 1.67 4.7 2.14 1.2.37 2.34.73 3.23 1.33 1.98 1.34 2.9 4.41 2.13 7.14-.82 2.92-3.05 5.07-4.99 6.45-.22-.19-.44-.38-.65-.55l-52.2-43.13c-8.02-6.64-16.32-13.5-25.04-19.59-3.52-2.46-7.33-4.95-11.82-6.01-7-1.65-13.44 2.05-19.12 5.31-1.03.59-2.04 1.17-3.03 1.71-7.82 4.21-15.67 8.65-23.32 13.21-15.12 9-30.03 18.77-44.32 29.02-8.14 5.84-16.24 11.96-24.09 18.19-.34.26-.77.61-1.26 1.03-.16-.1-.34-.18-.54-.23-1.519-.36-2.439-1.5-2.939-2.39zm3.45 35.41c1.35.07 3.19.16 4.73-.98.8-.59 1.28-1.35 1.67-1.97l.15-.22c2.65-4.09 7.73-6.57 12.59-6.25l-.45 9.21-106.48 50.42c-1.39.66-2.99 1.42-4.46 2.48-.85-3.1-.34-6.64 1.42-9.31 1.98-3.02 5.59-5.01 9.19-5.1h.65c1.18-.01 2.65 0 4.02-.76 1.77-.98 2.55-2.74 3.18-4.16l.23-.51c2.64-5.75 8.89-9.72 15.22-9.64.58 0 1.16.04 1.75.07 2.08.12 4.43.25 6.65-.76 2.09-.96 3.5-2.69 4.74-4.22.22-.27.44-.54.66-.8 3.18-3.79 8.89-7.62 14.47-5.96l.44.14c1.08.34 2.55.81 4.09.26 1.24-.44 2.04-1.38 2.62-2.06 2.4-2.83 5.33-5.96 8.9-7.75 4.54-2.27 9.88-2.33 14.02-2.13zm-55.78-44.43c3.92-6.64 7.58-12.49 12.65-16.89 1.64-1.42 3.88-2.66 5.27-1.86.81.46 1.36 1.61 1.86 2.75 3.3 7.58 5.75 15.68 8.13 23.51.96 3.18 1.95 6.46 2.99 9.67 1.09 3.35 2.26 6.69 3.45 10.02-1.72 1.29-3.49 2.57-5.41 3.21-1.55.51-3.72.66-5.2-.47-1.38-1.06-2.02-3.03-2.7-5.11l-.22-.69c-.68-2.03-1.49-4.03-2.43-5.95-.38-.78-.81-1.6-1.58-2.28-2.41-2.12-6.1-1.13-8.15 1-1.57 1.63-2.37 3.6-3.14 5.51-.18.44-.36.87-.55 1.31-.95 2.19-2.2 4.24-3.72 6.08-1.86 2.27-3.68 3.44-5.39 3.47h-.06c-2.28 0-4.26-2.12-5.06-4.24-.87-2.33-1.87-5.75-1.72-8.86.01-.11 0-.22-.01-.33 3.42-6.91 7.25-13.53 10.99-19.85zm-14.18 26.69c.35 1.39.78 2.68 1.18 3.75 1.51 4.05 5.12 6.84 8.81 6.84h.12c2.94-.05 5.77-1.71 8.41-4.93 1.75-2.13 3.2-4.5 4.3-7.03.2-.46.39-.93.58-1.4.66-1.63 1.29-3.16 2.32-4.24.8-.83 2.12-1.22 2.62-.78.22.2.44.62.64 1.04.86 1.76 1.6 3.6 2.22 5.46l.21.66c.8 2.46 1.71 5.25 4.08 7.06 2.31 1.76 5.63 2.17 8.89 1.09 2.09-.7 3.92-1.89 5.57-3.08 1.46 3.95 2.96 7.87 4.44 11.74-.08.04-.16.07-.24.11-4.21 2.11-7.5 5.6-10.16 8.74-.29.34-.68.8-.91.88-.27.1-.97-.12-1.53-.3l-.51-.16c-7.45-2.22-14.72 2.5-18.69 7.22-.23.28-.46.56-.7.85-1.06 1.3-2.06 2.54-3.3 3.1-1.31.6-2.98.51-4.75.41-.65-.04-1.289-.08-1.93-.08-1.01-.02-2.02.06-3.01.21l-10.77-32.1c.67-1.7 1.38-3.39 2.11-5.06zm-55.48-7.53c1.93-4.84 4.05-9.55 6.15-14.12 3.26-7.08 7.12-15.27 11.81-22.88 2.01-3.26 4.29-6.57 7.35-8.75.78-.56 1.37-.83 1.79-.79.54.03 1.4.6 2.42 3.16 5.3 13.24 9.92 27.02 14.39 40.34l.97 2.9c-.12.09-.23.19-.33.31-1.3 1.52-3.79 3.98-5.91 3.33-1.38-.41-2.26-1.95-3.28-3.72-.66-1.17-1.35-2.37-2.28-3.43-.42-.48-1.1-1.14-2.11-1.38-.91-.21-1.72.01-2.24.19-3.14 1.09-5.539 4.17-6.439 8.22-.441 1.99-.521 3.97-.6 5.89-.05 1.1-.09 2.15-.19 3.18-.32 3.1-1.271 5.3-2.8 6.55-1.46 1.18-3.71 1.59-5.9 1.07-1.96-.48-3.98-1.66-5.97-3.52-4.64-4.32-7.37-10.73-6.79-15.94.019-.21-.001-.41-.041-.61zm-6.17 19.65c.81-3.87 1.89-7.67 3.14-11.4 1.29 4.1 3.76 8.09 7.13 11.23 2.51 2.33 5.12 3.84 7.77 4.48.95.22 1.9.33 2.83.33 2.44 0 4.76-.75 6.52-2.18 2.39-1.94 3.82-5.06 4.25-9.25.12-1.16.17-2.31.22-3.43.07-1.82.14-3.54.5-5.18.46-2.08 1.71-4.56 3.84-5.31.02.02.03.04.05.05.66.76 1.22 1.74 1.81 2.77 1.26 2.2 2.69 4.69 5.59 5.57 2.03.62 5.14.48 8.84-3.19l13.93 41.53c-5.2 1.87-9.71 5.77-12.01 10.78l-.24.56c-.45 1-.87 1.95-1.47 2.28-.46.26-1.25.27-2.08.26h-.74c-4.95.12-9.72 2.76-12.44 6.9-.36.53-.67 1.09-.95 1.67-6.64-1.81-13.51-2.72-20.38-2.78-.01-.24-.06-.48-.16-.71-4.65-10.84-9.94-23.69-13.93-36.86-.77-2.52-1.49-5.09-2.19-7.66.07-.15.13-.3.17-.46zm-29.9-54.05c1.38-2.3 2.96-4.55 5.13-5.52 7.57 12.45 11.84 26.71 15.53 40.9-.02.03-.05.05-.08.08-1.75 1.99-3.08 2.82-4.04 2.54-1-.3-1.73-1.9-2.37-3.32l-.1-.23c-1.53-3.37-3.88-5.15-6.44-4.87-2.14.22-3.97 1.92-4.9 4.53-.8 2.26-.92 4.59-1.04 6.84-.12 2.44-.24 4.74-1.24 6.62-1.54 2.89-5.56 4.46-8.95 3.5-3.34-.95-6.09-4.09-6.85-7.81-.04-.21-.13-.4-.22-.58 3.7-14.64 7.73-29.62 15.57-42.68zm-31.29 106.08c-.09-.03-.17-.05-.25-.07l14.35-56.92c1.82 2.8 4.52 4.95 7.6 5.83 1.03.29 2.1.43 3.16.43 4.27 0 8.47-2.26 10.41-5.9 1.42-2.66 1.56-5.53 1.71-8.3.1-2.05.2-3.99.81-5.7.38-1.06 1.02-1.84 1.56-1.9.69-.06 1.64.95 2.36 2.55l.11.23c.89 1.98 2.12 4.7 4.9 5.51 2.59.75 4.83-.58 6.39-1.95.26 1.03.52 2.06.78 3.09 1.7 6.71 3.45 13.64 5.49 20.35 3.95 13.04 9.13 25.71 13.75 36.48-17.18.71-34.17 6.69-47.73 17.31-7.82-4.6-16.36-8.33-25.4-11.04zm29.05 13.29c18.95-14.23 44.49-19.19 67.39-13.05-.56 2.89-.33 5.93.78 8.68.08.19.18.35.3.5-1.59 2.61-1.96 6.36.44 8.87 1.46 1.52 3.31 2.04 5.191 2.04 1.92 0 3.87-.54 5.47-1.07 1.58-.53 3.16-1.08 4.74-1.62-.66 4.82-.39 9.62-.11 14.28-19.67-6.18-40.72-7.8-61.1-4.66-1.64.26-3.28.55-4.92.87-.02-.02-.03-.05-.05-.07-5.371-5.53-11.461-10.48-18.131-14.77zm60.22 48.22c-30.51-7.82-60.47-11.21-88.69-10.15 15.69-10.34 33.6-17.28 52.18-20.14 20.28-3.13 41.25-1.4 60.75 4.98.7 11.74 1.43 23.51 2.18 35.22-8.48-5.02-17.98-7.74-26.42-9.91zm18.08-46.05c-3.34 1.12-5.46 1.14-6.49.07-1.021-1.06-.65-3.15.33-4.42 1.3-1.69 3.55-2.75 5.53-3.69l104.55-49.51-.6 12.55c-32.97 17.96-67.72 33.1-103.32 45zm82.84 46.1c-.7 10.15-1.56 20.45-2.39 30.42-.17.01-.34.02-.51.02-10.37.33-20.93.18-31.15.03l-5.39-.08-4.01-53.64c-.3-4.07-.41-8.26 1.83-10.9 1.8-2.12 4.94-2.98 7.75-3.62 6.24-1.42 12.64-2.37 19.02-2.82 4.34-.31 7.86-.26 11 .99 1.23.49 2.1 1.07 2.67 1.77.69.86 1.05 2.07 1.28 3.04.83 3.42.9 7.01.9 10.39.01 8.41-.48 16.7-1 24.4zm17.74-34.67c-.95 19.7-1.94 40.07-1.33 60.17.03.78.06 1.77.27 2.8-4.7 1.13-9.58 1.66-15.04 1.95.82-9.83 1.66-19.97 2.35-29.97.53-7.78 1.02-16.15 1.01-24.68 0-3.46-.08-7.48-1.01-11.33-.33-1.37-.86-3.14-2.06-4.61-1.01-1.25-2.42-2.22-4.3-2.97-4.07-1.62-8.53-1.57-12.76-1.27-6.58.46-13.19 1.44-19.63 2.91-3.44.79-7.32 1.88-9.91 4.94-3.22 3.78-3.13 8.88-2.76 13.78l3.97 53.28-24.62-.35c-.22 0-.56-.01-.67-.04 0-.01-.45-.22-.58-2.21-1.252-19.133-2.469-38.285-3.61-57.44-.3-4.95-.6-10.06.27-14.95.04-.24.03-.47-.01-.7 31.95-11.2 63.15-25 92.93-41.07zm168.12 65.7c-.08 1.35-.18 2.53-.72 3.24-.78 1.04-2.66 1.3-4.37 1.45-39.23 3.64-79.03 3.84-118.3.62-12.56-1.03-25.91-2.5-38.44-6.17-1.18-.35-2.37-.74-2.93-1.46-.57-.73-.65-1.99-.69-3.33-.61-19.94.38-40.23 1.33-59.85l4.79-99c.02-.25-.02-.5-.1-.73l83.99-54.52c.6-.39 1.61-1.05 2.22-.95.42.06 1.01.54 1.48.93 6.77 5.55 13.57 11.3 20.15 16.87 16.26 13.76 33.07 27.98 50.89 40.35.14.1.29.2.43.3-.07.22-.11.46-.09.71 3.19 53.58 3.31 107.93.36 161.54zm1.58-165.83c-17.66-12.27-34.4-26.43-50.58-40.12-6.6-5.58-13.41-11.35-20.2-16.91-.8-.66-1.9-1.56-3.39-1.79-2.13-.34-3.94.84-5.03 1.55l-92.65 60.13c-2.49 1.62-5.3 3.44-8.24 3.7-2.38.21-5.22-1.08-5.64-3.31-.39-2.01 1.1-4.27 4.68-7.11 7.79-6.19 15.85-12.27 23.93-18.07 14.2-10.19 29.02-19.89 44.04-28.83 7.6-4.53 15.39-8.95 23.16-13.13 1.02-.55 2.07-1.15 3.13-1.76 4.45-2.55 9.03-5.18 13.62-5.18.87 0 1.73.09 2.59.29 3.8.9 7.25 3.16 10.45 5.4 8.58 6 16.82 12.81 24.78 19.39l52.2 43.14c.66.54 1.34 1.1 1.64 1.7.37.77.2 1.91-.43 2.92-1.71 2.73-5.53 3.39-8.36 2.86-3.39-.63-6.52-2.66-9.7-4.87z"/><path d="m392.94 224.71-27.31-1.04c-1.93-.08-4.11-.16-6.24.6-5.01 1.81-5.14 6.49-5.18 8.03-.07 2.65-.24 5.35-.4 7.97-.1 1.57-.2 3.13-.27 4.7-.44 8.56-.75 17.24-.96 25.79-.04 1.67-.08 3.56.14 5.46.09.77.28 1.65.98 2.4.67.71 1.52.95 1.97 1.08 4.41 1.25 8.92 1.59 13.42 1.59 2.68 0 5.36-.12 8.01-.24 4.35-.2 8.85-.4 13.15-.04 1.72.14 4.07.34 5.85-1.23 1.38-1.21 1.78-2.88 2.01-4.51.56-3.95.64-7.94.72-11.8l.67-31.87v-.33c.03-1.16.06-2.91-1.03-4.37-1.52-2.04-4.23-2.14-5.53-2.19zm-18.99 52.47c-5.97.23-11.68.23-17.19-1.33-.02 0-.04-.01-.05-.01-.01-.03-.01-.06-.01-.09-.19-1.62-.15-3.36-.12-4.89v-.01c.13-5.32.32-10.68.53-16.04 5.7.21 11.44.37 17.17.5-.21 7.31-.32 14.61-.33 21.87zm.45-25.86c-5.72-.13-11.43-.3-17.12-.51.09-1.88.16-3.77.25-5.64.08-1.55.17-3.1.27-4.65.17-2.65.34-5.4.41-8.11.08-2.91 1.03-3.83 2.53-4.37 1.4-.5 3.1-.44 4.729-.38l10.061.39c-.49 7.72-.87 15.49-1.13 23.27zm20.43 12.07c-.08 3.74-.16 7.61-.68 11.32-.12.83-.29 1.71-.68 2.06-.51.45-1.83.34-2.88.25-4.22-.35-8.48-.2-12.64-.01.01-7.18.12-14.4.33-21.61 5.59.1 11.17.18 16.71.21zm.67-32.2-.42 20.42c-5.54-.03-11.11-.11-16.68-.21.26-7.76.64-15.5 1.13-23.2l13.26.5c.63.03 2.1.08 2.48.59.27.36.25 1.28.23 1.9z"/><path d="m392.94 301.97-27.31-1.05c-1.93-.07-4.11-.15-6.24.61-5.01 1.81-5.14 6.49-5.18 8.03-.07 2.65-.24 5.35-.4 7.97-.1 1.57-.2 3.13-.27 4.7-.44 8.56-.75 17.24-.96 25.79-.04 1.67-.08 3.56.14 5.46.09.76.28 1.65.98 2.4.67.71 1.51.95 1.97 1.08 4.41 1.25 8.92 1.59 13.42 1.59 2.68 0 5.36-.12 8.01-.24 4.35-.2 8.85-.4 13.15-.04 1.72.14 4.06.34 5.85-1.23 1.38-1.21 1.78-2.88 2.01-4.51.56-3.95.64-7.94.72-11.8l.67-31.87v-.33c.03-1.16.06-2.91-1.03-4.37-1.52-2.04-4.23-2.15-5.53-2.19zm-18.99 52.47c-5.97.23-11.68.23-17.19-1.33-.02 0-.03-.01-.05-.01-.01-.03-.01-.06-.01-.09-.19-1.62-.15-3.36-.12-4.9.13-5.32.32-10.68.53-16.05 5.7.21 11.44.38 17.17.51-.21 7.31-.32 14.61-.33 21.87zm.45-25.87c-5.72-.13-11.43-.29-17.12-.5.09-1.88.16-3.77.25-5.64.08-1.55.17-3.1.27-4.65.17-2.65.34-5.4.41-8.11.08-2.91 1.03-3.83 2.53-4.37 1.4-.51 3.1-.44 4.729-.38l10.061.38c-.49 7.73-.87 15.5-1.13 23.27zm20.43 12.08c-.08 3.74-.16 7.61-.68 11.32-.12.83-.29 1.71-.68 2.06-.51.45-1.83.34-2.88.25-4.22-.35-8.48-.2-12.64-.01.01-7.18.12-14.4.33-21.62 5.59.11 11.17.19 16.71.22zm.67-32.2-.42 20.42c-5.54-.03-11.11-.11-16.68-.21.26-7.76.64-15.5 1.13-23.2l13.26.5c.63.03 2.1.08 2.48.59.27.36.25 1.28.23 1.9z"/><path d="m327.33 224.21-27.31-1.04c-1.93-.07-4.11-.15-6.24.61-5.01 1.8-5.14 6.49-5.18 8.03-.07 2.64-.24 5.34-.4 7.96-.1 1.57-.2 3.14-.28 4.71-.43 8.56-.75 17.24-.95 25.79-.039 1.67-.08 3.56.14 5.46.09.76.28 1.65.98 2.4.67.71 1.52.95 1.97 1.08 4.41 1.25 8.92 1.59 13.42 1.59 2.68 0 5.36-.12 8.01-.24 4.35-.2 8.84-.4 13.15-.04 1.72.14 4.07.33 5.85-1.23 1.38-1.21 1.78-2.88 2.01-4.51.55-3.94.64-7.93.72-11.8l.67-32.2c.03-1.16.06-2.91-1.03-4.38-1.52-2.03-4.13-2.13-5.53-2.19zm-18.99 52.48c-5.97.23-11.68.23-17.19-1.33-.02 0-.04-.01-.05-.01-.01-.03-.01-.06-.01-.09-.2-1.62-.15-3.36-.12-4.9.13-5.32.311-10.68.53-16.05 5.7.21 11.43.38 17.17.51-.21 7.31-.32 14.61-.33 21.87zm.45-25.87c-5.72-.13-11.44-.29-17.12-.5.09-1.88.15-3.77.25-5.64.08-1.56.17-3.11.27-4.66.17-2.65.34-5.39.41-8.1.08-2.91 1.03-3.83 2.53-4.37 1.4-.51 3.1-.44 4.73-.38l10.06.38c-.49 7.73-.87 15.5-1.13 23.27zm20.43 12.08c-.08 3.75-.16 7.62-.68 11.32-.12.83-.29 1.71-.68 2.06-.52.45-1.83.34-2.88.25-4.22-.35-8.49-.2-12.64-.01.01-7.18.12-14.4.33-21.62 5.58.11 11.16.19 16.71.22zm.67-32.2-.42 20.42c-5.539-.03-11.11-.11-16.68-.21.26-7.76.64-15.5 1.13-23.2l13.25.5c.63.03 2.11.08 2.49.59.26.36.25 1.28.23 1.9z"/><path d="m327.33 301.47-27.31-1.04c-1.93-.07-4.11-.16-6.24.61-5.01 1.8-5.14 6.49-5.18 8.03-.07 2.64-.24 5.34-.4 7.96-.1 1.57-.2 3.14-.28 4.71-.43 8.56-.75 17.24-.95 25.79-.039 1.67-.08 3.56.14 5.45.09.77.28 1.66.98 2.41.67.71 1.52.95 1.97 1.08 4.41 1.25 8.92 1.59 13.42 1.59 2.68 0 5.36-.12 8.01-.24 4.35-.2 8.84-.4 13.15-.04 1.72.14 4.07.33 5.85-1.23 1.38-1.21 1.78-2.88 2.01-4.51.55-3.94.64-7.93.72-11.8l.67-32.2c.03-1.16.06-2.92-1.03-4.38-1.52-2.03-4.23-2.14-5.53-2.19zm-18.99 52.48c-5.97.23-11.68.23-17.19-1.33-.02-.01-.04-.01-.05-.01-.01-.03-.01-.06-.01-.09-.2-1.62-.15-3.36-.12-4.9.13-5.32.311-10.68.53-16.05 5.7.21 11.43.38 17.17.51-.21 7.31-.32 14.6-.33 21.87zm.45-25.87c-5.72-.13-11.44-.29-17.12-.5.09-1.88.15-3.77.25-5.64.08-1.56.17-3.11.27-4.66.17-2.65.34-5.39.41-8.1.08-2.91 1.03-3.83 2.53-4.37 1.4-.51 3.09-.44 4.73-.38l10.06.38c-.49 7.73-.87 15.5-1.13 23.27zm20.43 12.08c-.08 3.75-.16 7.62-.68 11.32-.12.83-.29 1.71-.68 2.06-.52.45-1.83.34-2.88.25-4.22-.35-8.48-.2-12.64-.01.01-7.18.12-14.4.33-21.62 5.58.11 11.16.19 16.71.22zm.67-32.2-.42 20.42c-5.539-.03-11.11-.11-16.68-.22.26-7.75.64-15.49 1.13-23.19l13.25.5c.63.02 2.11.08 2.49.59.26.36.25 1.28.23 1.9z"/></svg>